<svg xmlns="http://www.w3.org/2000/svg" width="104" height="104" viewBox="0 0 104 104">
  <g id="Grupo_1183882" data-name="Grupo 1183882" transform="translate(6347 10223.309)">
    <g id="Rectángulo_402006" data-name="Rectángulo 402006" transform="translate(-6347 -10223.309)" fill="none" stroke="#e6d062" stroke-width="2">
      <rect width="104" height="104" rx="52" stroke="none"/>
      <rect x="1" y="1" width="102" height="102" rx="51" fill="none"/>
    </g>
    <g id="restaurantes" transform="translate(-6324.834 -10201.154)">
      <path id="Trazado_1063994" data-name="Trazado 1063994" d="M102.961,81.875a.874.874,0,1,0,1.385,1.066A20.657,20.657,0,0,1,115.7,75.5a.874.874,0,0,0-.42-1.7A22.412,22.412,0,0,0,102.961,81.875Z" transform="translate(-90.802 -65.169)" fill="#e6d062"/>
      <path id="Trazado_1063995" data-name="Trazado 1063995" d="M58.792,29.424h-2.02A26.872,26.872,0,0,0,49.2,11.54l1.5-.66a1.536,1.536,0,0,0,0-2.79L48.45,7.1l-.993-2.49a1.541,1.541,0,0,0-2.833,0c-.332.832-.654,1.693-1.015,2.5A26.647,26.647,0,0,0,32.34,3.445V2.521a2.507,2.507,0,1,0-5.014,0v.921c-.432.04-.864.088-1.293.149A26.685,26.685,0,0,0,16.71,6.734a.874.874,0,0,0,.853,1.526,24.948,24.948,0,0,1,8.715-2.938,25.439,25.439,0,0,1,10.913.843,25.056,25.056,0,0,1,4.417,1.827,1.558,1.558,0,0,0-.224,2.888l2.247.989.993,2.49a1.536,1.536,0,0,0,2.833,0l.594-1.489a25.127,25.127,0,0,1,6.973,16.555H4.643a25.112,25.112,0,0,1,6-15.48,25.434,25.434,0,0,1,3.482-3.374A.874.874,0,0,0,13.035,9.2a27.187,27.187,0,0,0-3.722,3.606A26.86,26.86,0,0,0,2.894,29.424H.874A.874.874,0,0,0,0,30.3a4.768,4.768,0,0,0,4.763,4.763H8.474a3.4,3.4,0,0,0,2.081,4.865L32.9,47.135l.05.014a22.263,22.263,0,0,0,5.563.707,1.052,1.052,0,0,1,1.051,1.051v.679a2.04,2.04,0,0,0-1.091,1.8v6.248a2.042,2.042,0,0,0,2.039,2.039h9.055a2.042,2.042,0,0,0,2.039-2.039V51.39a2.04,2.04,0,0,0-1.17-1.842v-2.57a.874.874,0,0,0-1.748,0v2.373H41.313v-.444a2.8,2.8,0,0,0-2.8-2.8,20.51,20.51,0,0,1-5.1-.645L11.068,38.255c-1.676-.545-1.652-3.194.354-3.194h9.816a3.082,3.082,0,0,0,2.779,4.417H36.651a.874.874,0,0,0,0-1.748H24.017a1.335,1.335,0,1,1,0-2.669H41.823a6.874,6.874,0,0,1,6.866,6.866v1.361a.874.874,0,1,0,1.748,0V41.927a8.605,8.605,0,0,0-3.42-6.867H54.9A4.768,4.768,0,0,0,59.667,30.3a.874.874,0,0,0-.874-.874ZM29.074,3.337V2.521a.759.759,0,1,1,1.518,0v.817q-.758-.022-1.518,0ZM46.04,13.191l-.82-2.055a1.516,1.516,0,0,0-.8-.831l-1.865-.821,1.865-.821a1.516,1.516,0,0,0,.8-.83l.82-2.055.82,2.055a1.516,1.516,0,0,0,.8.83l1.865.821-1.865.821a1.516,1.516,0,0,0-.8.83Zm3.819,44.446a.292.292,0,0,1-.291.291H40.512a.292.292,0,0,1-.291-.291V51.39a.292.292,0,0,1,.291-.291h9.055a.292.292,0,0,1,.291.291ZM54.9,33.312H4.763a3.02,3.02,0,0,1-2.885-2.141H57.789A3.02,3.02,0,0,1,54.9,33.312Z" fill="#e6d062"/>
      <path id="Trazado_1063996" data-name="Trazado 1063996" d="M357.1,449.7a.873.873,0,1,0-.526,1.161A.881.881,0,0,0,357.1,449.7Z" transform="translate(-313.999 -396.806)" fill="#e6d062"/>
    </g>
  </g>
</svg>
