<svg id="_15-hair_washing" data-name="15-hair washing" xmlns="http://www.w3.org/2000/svg" width="108.365" height="108.359" viewBox="0 0 108.365 108.359">
  <path id="Trazado_1106652" data-name="Trazado 1106652" d="M47.277,63.3a1.693,1.693,0,0,0,1.647.074L69.241,53.218a1.693,1.693,0,0,0,.936-1.515V36.466a1.693,1.693,0,0,0-.169-.757l-3.386-6.772a1.694,1.694,0,0,0-3.031,1.514l3.2,6.415V50.656L49.86,59.122V55.893A15.247,15.247,0,0,0,60.019,41.545V33.08a1.693,1.693,0,0,0-3.386,0v8.465A11.865,11.865,0,0,1,44.781,53.4H41.4A11.865,11.865,0,0,1,29.544,41.545V33.08a1.693,1.693,0,1,0-3.386,0v8.465A15.247,15.247,0,0,0,36.316,55.893v3.229l-16.93-8.465V36.865L22.6,30.45a1.694,1.694,0,1,0-3.031-1.514l-3.386,6.772a1.693,1.693,0,0,0-.186.757V51.7a1.693,1.693,0,0,0,.936,1.524L37.253,63.385a1.693,1.693,0,0,0,2.45-1.524V56.682a15.126,15.126,0,0,0,1.693.1h3.386a15.126,15.126,0,0,0,1.693-.1v5.179a1.693,1.693,0,0,0,.8,1.441Z" transform="translate(11.108 19.409)" fill="#2079f3"/>
  <path id="Trazado_1106653" data-name="Trazado 1106653" d="M82.107,58.861V36.852a1.693,1.693,0,0,0-.169-.757L76.859,25.937a1.694,1.694,0,0,0-3.031,1.514l4.893,9.8V57.979L62.514,69.322a1.693,1.693,0,0,0-.716,1.233L60.245,87.642H32.862L31.316,70.558a1.693,1.693,0,0,0-.716-1.233L14.386,57.979V37.251l4.91-9.8a1.694,1.694,0,0,0-3.031-1.514L11.186,36.095a1.693,1.693,0,0,0-.186.757V58.861a1.693,1.693,0,0,0,.723,1.387l16.285,11.4,1.615,17.841a1.693,1.693,0,0,0,1.693,1.539H61.791a1.693,1.693,0,0,0,1.693-1.539l1.622-17.841,16.285-11.4a1.693,1.693,0,0,0,.716-1.387Z" transform="translate(7.643 17.33)" fill="#2079f3"/>
  <path id="Trazado_1106654" data-name="Trazado 1106654" d="M26.693,30.993A1.693,1.693,0,0,0,25,32.686a5.079,5.079,0,0,0,10.158,0A1.683,1.683,0,0,0,33.487,31h-.022a1.7,1.7,0,0,0-1.693,1.661,1.693,1.693,0,0,1-3.386,0A1.693,1.693,0,0,0,26.693,30.993Z" transform="translate(17.345 21.484)" fill="#2079f3"/>
  <path id="Trazado_1106655" data-name="Trazado 1106655" d="M34.693,30.993A1.693,1.693,0,0,0,33,32.686a5.079,5.079,0,0,0,10.158,0A1.683,1.683,0,0,0,41.487,31h-.022a1.7,1.7,0,0,0-1.693,1.661,1.693,1.693,0,0,1-3.386,0A1.693,1.693,0,0,0,34.693,30.993Z" transform="translate(22.889 21.484)" fill="#2079f3"/>
  <path id="Trazado_1106656" data-name="Trazado 1106656" d="M22.588,38.046a10.173,10.173,0,0,0,10.036,8.587,10.018,10.018,0,0,0,7.082-2.909,10.087,10.087,0,0,0,9.538,0,10.018,10.018,0,0,0,7.082,2.909,10.19,10.19,0,0,0,9.6-6.835,10.158,10.158,0,0,0-1.568-20.243A13.559,13.559,0,0,0,48.847,9.61a10.119,10.119,0,0,0-17.638,4.37,10.079,10.079,0,0,0-4.192,4.3,9.755,9.755,0,0,0-2.858-.43,10.158,10.158,0,0,0-1.571,20.194Zm1.571-16.808a6.643,6.643,0,0,1,2.929.716,6.564,6.564,0,0,1,2.489,1.993,1.693,1.693,0,0,0,2.709-2.032,10.145,10.145,0,0,0-2.2-2.135,6.667,6.667,0,0,1,3.31-3.091,1.693,1.693,0,0,0,1.016-1.354,6.716,6.716,0,0,1,10.835-4.5,13.51,13.51,0,0,0-6.24,6.29,1.693,1.693,0,1,0,3.058,1.453c1.427-3.122,6.528-5.441,6.528-5.441a10.14,10.14,0,0,1,12.72,8.513,1.693,1.693,0,0,0,2.032,1.444,6.662,6.662,0,0,1,1.449-.163,6.778,6.778,0,1,1,.161,13.554c-.066-.01-.213-.025-.281-.027a1.659,1.659,0,0,0-1.708,1.354,6.787,6.787,0,0,1-6.637,5.435,8.787,8.787,0,0,1-5.482-2.81,6.674,6.674,0,0,0,.4-2.269,1.693,1.693,0,0,0-3.386,0,3.369,3.369,0,0,1-2.9,3.322,6.692,6.692,0,0,1-4.544-1.327,1.717,1.717,0,0,0-1.26-.327,1.693,1.693,0,0,0-1.119.665,6.749,6.749,0,0,1-12.183-4.026,1.693,1.693,0,0,0-1.693-1.693,6.772,6.772,0,1,1,0-13.544Z" transform="translate(9.721 4.163)" fill="#2079f3"/>
  <path id="Trazado_1106657" data-name="Trazado 1106657" d="M23.71,11.853a8.514,8.514,0,0,0-5.777-8.022A6.755,6.755,0,0,0,5.256,5.251,6.772,6.772,0,0,0,6.78,18.625,6.618,6.618,0,0,0,9.5,18.045a8.348,8.348,0,0,0,5.748,2.274A8.475,8.475,0,0,0,23.71,11.853ZM11.19,14.875a1.693,1.693,0,0,0-1.119-.664,1.6,1.6,0,0,0-.237-.017,1.693,1.693,0,0,0-1.016.339,3.344,3.344,0,0,1-2.038.706,3.386,3.386,0,1,1,0-6.772A1.693,1.693,0,0,0,8.473,6.774a3.373,3.373,0,0,1,6.591-1.016A1.693,1.693,0,0,0,16.319,6.9a5.071,5.071,0,1,1-5.128,7.976Z" transform="translate(0.012 0.003)" fill="#2079f3"/>
  <path id="Trazado_1106658" data-name="Trazado 1106658" d="M69.676,58.757a8.184,8.184,0,0,0,.33-2.292,8.465,8.465,0,0,0-16.93,0,6.885,6.885,0,0,0,.034.7A8.465,8.465,0,0,0,56.462,73.4a8.36,8.36,0,0,0,3.975-1.016,8.347,8.347,0,0,0,6.183,2.709,8.448,8.448,0,0,0,3.047-16.331ZM66.62,71.7a5.032,5.032,0,0,1-4.344-2.5,1.693,1.693,0,0,0-2.55-.425,5.018,5.018,0,0,1-3.264,1.229,5.079,5.079,0,0,1-1.056-10.045,1.693,1.693,0,0,0,1.278-2.12,5.025,5.025,0,0,1-.222-1.38,5.079,5.079,0,0,1,10.158,0,4.993,4.993,0,0,1-.738,2.589,1.693,1.693,0,0,0,1.273,2.553,5.06,5.06,0,0,1-.535,10.1Z" transform="translate(33.288 33.27)" fill="#2079f3"/>
  <path id="Trazado_1106659" data-name="Trazado 1106659" d="M12.772,52a6.772,6.772,0,1,0,6.772,6.772A6.772,6.772,0,0,0,12.772,52Zm0,10.158a3.386,3.386,0,1,1,3.386-3.386A3.386,3.386,0,0,1,12.772,62.158Z" transform="translate(4.178 36.042)" fill="#2079f3"/>
  <path id="Trazado_1106660" data-name="Trazado 1106660" d="M54,25.079A5.079,5.079,0,1,0,59.079,20,5.079,5.079,0,0,0,54,25.079Zm6.772,0a1.693,1.693,0,1,1-1.693-1.693A1.693,1.693,0,0,1,60.772,25.079Z" transform="translate(37.443 13.866)" fill="#2079f3"/>
  <path id="Trazado_1106661" data-name="Trazado 1106661" d="M58.772,22.544A6.772,6.772,0,1,0,52,15.772,6.772,6.772,0,0,0,58.772,22.544Zm0-10.158a3.386,3.386,0,1,1-3.386,3.386A3.386,3.386,0,0,1,58.772,12.386Z" transform="translate(36.057 6.242)" fill="#2079f3"/>
</svg>
