<svg id="prohibido" xmlns="http://www.w3.org/2000/svg" width="106.406" height="113.12" viewBox="0 0 106.406 113.12">
  <path id="Trazado_1106662" data-name="Trazado 1106662" d="M113.735,37.894a7.832,7.832,0,0,0-4.551,1.453V16.058A8.017,8.017,0,0,0,96.508,9.6V7.976a7.995,7.995,0,0,0-15.99,0V9.6a8.017,8.017,0,0,0-12.675,6.463v9.7a8.017,8.017,0,0,0-12.675,6.463l0,25.088a29.06,29.06,0,0,0-26.957,2.656,1.658,1.658,0,0,0,1.832,2.762c16.741-11.325,40,1.188,39.821,21.408-1.41,34.055-49.936,34.048-51.342,0a25.384,25.384,0,0,1,5.513-15.876,1.658,1.658,0,0,0-2.6-2.053C6.45,84.951,20.205,113.231,44.2,113.12a28.908,28.908,0,0,0,21.2-9.239c12.139,12.14,33.388,12.247,45.7.272a1.658,1.658,0,0,0-2.265-2.419c-11.145,10.842-30.4,10.672-41.31-.407,10.425-13.66,5.775-34.313-9.032-42.4l0-26.7a4.681,4.681,0,0,1,9.361,0V55.984a1.658,1.658,0,0,0,3.314,0c0-9.648,0-30.447,0-39.926a4.681,4.681,0,0,1,9.362,0V48.776a1.658,1.658,0,0,0,3.314,0V7.976a4.681,4.681,0,0,1,9.361,0c0,5.139,0,34.99,0,40.8a1.658,1.658,0,0,0,3.314,0V16.058a4.681,4.681,0,0,1,9.362,0c-.037,12.512.027,38.973,0,51.317a16.009,16.009,0,0,0-14.338,15.9,1.657,1.657,0,0,0,3.314,0A12.689,12.689,0,0,1,107.527,70.6a1.657,1.657,0,0,0,1.657-1.657V45.741a4.551,4.551,0,0,1,9.1,0V79.474a30.451,30.451,0,0,1-4.417,16.091c-1.081,1.756,1.635,3.665,2.822,1.738A33.369,33.369,0,0,0,121.6,79.488V45.741a7.866,7.866,0,0,0-7.865-7.847Z" transform="translate(-15.197)" fill="#2079f3"/>
  <path id="Trazado_1106663" data-name="Trazado 1106663" d="M83.288,348.595a1.657,1.657,0,0,0,.675,1.21c21.06,14.688,46.16-10.434,31.477-31.477a1.657,1.657,0,0,0-2.51-.194L83.768,347.3A1.656,1.656,0,0,0,83.288,348.595Zm30.547-26.679c9.749,17.142-9.155,36.03-26.285,26.285Z" transform="translate(-68.24 -247.468)" fill="#2079f3"/>
  <path id="Trazado_1106664" data-name="Trazado 1106664" d="M80.049,282.935c-21.061-14.687-46.16,10.434-31.477,31.477a1.658,1.658,0,0,0,2.51.194l29.161-29.162A1.657,1.657,0,0,0,80.049,282.935ZM50.176,310.824c-9.749-17.141,9.155-36.031,26.285-26.285Z" transform="translate(-37.776 -217.001)" fill="#2079f3"/>
</svg>
