<svg xmlns="http://www.w3.org/2000/svg" width="104" height="104" viewBox="0 0 104 104">
  <g id="Grupo_1186517" data-name="Grupo 1186517" transform="translate(517.785 8443.293)">
    <g id="Rectángulo_456959" data-name="Rectángulo 456959" transform="translate(-517.785 -8443.293)" fill="none" stroke="#e6d062" stroke-width="2">
      <rect width="104" height="104" rx="52" stroke="none"/>
      <rect x="1" y="1" width="102" height="102" rx="51" fill="none"/>
    </g>
    <g id="coronavirus" transform="translate(-497.738 -8421.172)">
      <path id="Trazado_1106692" data-name="Trazado 1106692" d="M64.493,30.252a3.44,3.44,0,0,0-3.23,2.283H59.311a6.837,6.837,0,0,1-.126-1.278,8.77,8.77,0,0,0-1.666-5.148,6.578,6.578,0,0,1-.925-1.8,8.8,8.8,0,0,0-1.45-2.694l1.13-1.13a3.5,3.5,0,0,0,3.9-.673,3.424,3.424,0,0,0,0-4.84l-3.23-3.23a3.424,3.424,0,0,0-5.513,3.892l-1.13,1.13a8.8,8.8,0,0,0-2.694-1.45,6.246,6.246,0,0,1-1.8-.913,8.691,8.691,0,0,0-5.148-1.666,7.03,7.03,0,0,1-1.278-.126V10.654A3.425,3.425,0,0,0,38.241,4H33.675a3.425,3.425,0,0,0-1.141,6.654v1.952a6.837,6.837,0,0,1-1.278.126A8.77,8.77,0,0,0,26.108,14.4a6.246,6.246,0,0,1-1.8.913,8.8,8.8,0,0,0-2.694,1.45l-1.13-1.13a3.424,3.424,0,0,0-5.513-3.892l-3.23,3.23a3.424,3.424,0,0,0,0,4.84,3.517,3.517,0,0,0,3.9.673l1.13,1.13a8.8,8.8,0,0,0-1.45,2.694,6.246,6.246,0,0,1-.913,1.8,8.691,8.691,0,0,0-1.666,5.148,7.029,7.029,0,0,1-.126,1.278H10.664A3.425,3.425,0,0,0,4.01,33.677v4.566a3.425,3.425,0,0,0,6.654,1.141h1.952a6.836,6.836,0,0,1,.126,1.278,8.77,8.77,0,0,0,1.666,5.148,6.578,6.578,0,0,1,.925,1.8,8.8,8.8,0,0,0,1.45,2.694l-1.13,1.13a3.5,3.5,0,0,0-3.9.673,3.424,3.424,0,0,0,0,4.84l3.23,3.23a3.424,3.424,0,0,0,5.844-2.42,3.356,3.356,0,0,0-.331-1.472l1.13-1.13a8.8,8.8,0,0,0,2.694,1.45,6.246,6.246,0,0,1,1.8.913,8.691,8.691,0,0,0,5.148,1.666,7.029,7.029,0,0,1,1.278.126v1.952a3.425,3.425,0,0,0,1.141,6.654h4.566a3.425,3.425,0,0,0,1.141-6.654V59.313a6.836,6.836,0,0,1,1.278-.126,8.77,8.77,0,0,0,5.148-1.666,6.246,6.246,0,0,1,1.8-.913,8.8,8.8,0,0,0,2.694-1.45l1.13,1.13a3.43,3.43,0,0,0-.331,1.472,3.424,3.424,0,0,0,5.844,2.42l3.23-3.23a3.424,3.424,0,0,0,0-4.84,3.517,3.517,0,0,0-3.9-.673l-1.13-1.13a8.8,8.8,0,0,0,1.45-2.694,6.246,6.246,0,0,1,.913-1.8,8.691,8.691,0,0,0,1.666-5.148,7.029,7.029,0,0,1,.126-1.278h1.952a3.425,3.425,0,0,0,6.654-1.141V33.677A3.434,3.434,0,0,0,64.493,30.252Zm1.141,7.99a1.141,1.141,0,0,1-2.283,0A1.145,1.145,0,0,0,62.211,37.1H58.432a1.247,1.247,0,0,0-1.107.856,8.712,8.712,0,0,0-.434,2.705,6.407,6.407,0,0,1-1.233,3.8,8.814,8.814,0,0,0-1.244,2.443,6.478,6.478,0,0,1-1.644,2.625,1.144,1.144,0,0,0-.011,1.621l2.557,2.557a1.158,1.158,0,0,0,1.609,0,1.158,1.158,0,0,1,1.609,0,1.137,1.137,0,0,1,0,1.609l-3.23,3.23A1.142,1.142,0,0,1,53.7,56.927a1.13,1.13,0,0,0,.331-.81,1.179,1.179,0,0,0-.331-.81L51.139,52.75a1.144,1.144,0,0,0-1.621.011A6.478,6.478,0,0,1,46.893,54.4a8.814,8.814,0,0,0-2.443,1.244,6.407,6.407,0,0,1-3.8,1.233,8.578,8.578,0,0,0-2.6.4.478.478,0,0,0-.171.046,1.141,1.141,0,0,0-.788,1.084v3.778a1.145,1.145,0,0,0,1.141,1.141,1.141,1.141,0,0,1,0,2.283H33.664a1.141,1.141,0,1,1,0-2.283,1.145,1.145,0,0,0,1.141-1.141V58.411a1.247,1.247,0,0,0-.856-1.107,8.712,8.712,0,0,0-2.705-.434,6.407,6.407,0,0,1-3.8-1.233A8.814,8.814,0,0,0,25,54.393a6.478,6.478,0,0,1-2.625-1.644,1.141,1.141,0,0,0-.81-.342,1.179,1.179,0,0,0-.81.331L18.2,55.295a1.13,1.13,0,0,0-.331.81,1.179,1.179,0,0,0,.331.81,1.142,1.142,0,0,1-1.609,1.621l-3.23-3.23a1.137,1.137,0,0,1,0-1.609,1.158,1.158,0,0,1,1.609,0,1.158,1.158,0,0,0,1.609,0l2.557-2.557a1.144,1.144,0,0,0-.011-1.621,6.478,6.478,0,0,1-1.644-2.625,8.515,8.515,0,0,0-1.244-2.443A6.407,6.407,0,0,1,15,40.651a8.578,8.578,0,0,0-.4-2.6.478.478,0,0,0-.046-.171,1.141,1.141,0,0,0-1.084-.788H9.694a1.145,1.145,0,0,0-1.141,1.141,1.141,1.141,0,0,1-2.283,0V33.665a1.141,1.141,0,1,1,2.283,0,1.145,1.145,0,0,0,1.141,1.141h3.778a1.247,1.247,0,0,0,1.107-.856,8.712,8.712,0,0,0,.434-2.705,6.407,6.407,0,0,1,1.233-3.8A8.814,8.814,0,0,0,17.49,25a6.478,6.478,0,0,1,1.644-2.625,1.144,1.144,0,0,0,.011-1.621L16.588,18.2a1.158,1.158,0,0,0-1.609,0,1.158,1.158,0,0,1-1.609,0,1.137,1.137,0,0,1,0-1.609l3.23-3.23a1.138,1.138,0,0,1,1.609,1.609,1.137,1.137,0,0,0,0,1.609l2.557,2.557a1.187,1.187,0,0,0,.81.331,1.141,1.141,0,0,0,.81-.342,6.555,6.555,0,0,1,2.625-1.644,8.814,8.814,0,0,0,2.443-1.244A6.407,6.407,0,0,1,31.255,15a8.578,8.578,0,0,0,2.6-.4.478.478,0,0,0,.171-.046,1.141,1.141,0,0,0,.788-1.084V9.7a1.145,1.145,0,0,0-1.141-1.141,1.141,1.141,0,0,1,0-2.283h4.566a1.141,1.141,0,0,1,0,2.283A1.145,1.145,0,0,0,37.1,9.7v3.778a1.247,1.247,0,0,0,.856,1.107,8.712,8.712,0,0,0,2.705.434,6.407,6.407,0,0,1,3.8,1.233A8.814,8.814,0,0,0,46.9,17.491a6.478,6.478,0,0,1,2.625,1.644,1.141,1.141,0,0,0,.81.342,1.075,1.075,0,0,0,.81-.331l2.557-2.557a1.137,1.137,0,0,0,0-1.609,1.138,1.138,0,1,1,1.609-1.609l3.23,3.23a1.137,1.137,0,0,1,0,1.609,1.158,1.158,0,0,1-1.609,0,1.158,1.158,0,0,0-1.609,0l-2.557,2.557a1.144,1.144,0,0,0,.011,1.621,6.478,6.478,0,0,1,1.644,2.625,8.664,8.664,0,0,0,1.244,2.443,6.407,6.407,0,0,1,1.233,3.8,8.578,8.578,0,0,0,.4,2.6.478.478,0,0,0,.046.171,1.141,1.141,0,0,0,1.084.788h3.778a1.145,1.145,0,0,0,1.141-1.141,1.141,1.141,0,1,1,2.283,0Z" transform="translate(-4.01 -4)" fill="#e6d062"/>
      <path id="Trazado_1106693" data-name="Trazado 1106693" d="M30.51,34.459a1.138,1.138,0,0,0-1.415-.765,6.623,6.623,0,0,1-1.952.285,6.848,6.848,0,1,1,6.848-6.848,6.648,6.648,0,0,1-.662,2.933,1.138,1.138,0,0,0,2.055.982,9.1,9.1,0,1,0-5.639,4.84,1.133,1.133,0,0,0,.765-1.415Z" transform="translate(-2.032 -2.02)" fill="#e6d062"/>
      <path id="Trazado_1106694" data-name="Trazado 1106694" d="M42.566,31a4.566,4.566,0,1,0,4.566,4.566A4.564,4.564,0,0,0,42.566,31Zm0,6.848a2.283,2.283,0,1,1,2.283-2.283A2.29,2.29,0,0,1,42.566,37.848Z" transform="translate(0.797 -0.182)" fill="#e6d062"/>
      <path id="Trazado_1106695" data-name="Trazado 1106695" d="M31.424,39a3.424,3.424,0,1,0,3.424,3.424A3.434,3.434,0,0,0,31.424,39Zm0,4.566a1.141,1.141,0,1,1,1.141-1.141A1.145,1.145,0,0,1,31.424,43.566Z" transform="translate(-0.618 0.949)" fill="#e6d062"/>
      <path id="Trazado_1106696" data-name="Trazado 1106696" d="M23.848,38.424a3.424,3.424,0,1,0-3.424,3.424A3.434,3.434,0,0,0,23.848,38.424Zm-3.424,1.141a1.141,1.141,0,1,1,1.141-1.141A1.145,1.145,0,0,1,20.424,39.566Z" transform="translate(-2.173 0.384)" fill="#e6d062"/>
      <path id="Trazado_1106697" data-name="Trazado 1106697" d="M41.424,25.848A3.424,3.424,0,1,0,38,22.424,3.434,3.434,0,0,0,41.424,25.848Zm0-4.566a1.141,1.141,0,1,1-1.141,1.141A1.145,1.145,0,0,1,41.424,21.283Z" transform="translate(0.797 -1.879)" fill="#e6d062"/>
      <ellipse id="Elipse_11486" data-name="Elipse 11486" cx="1.141" cy="1.141" rx="1.141" ry="1.141" transform="translate(46.786 26.252)" fill="#e6d062"/>
      <ellipse id="Elipse_11487" data-name="Elipse 11487" cx="1.141" cy="1.141" rx="1.141" ry="1.141" transform="translate(34.231 12.556)" fill="#e6d062"/>
      <ellipse id="Elipse_11488" data-name="Elipse 11488" cx="1.141" cy="1.141" rx="1.141" ry="1.141" transform="translate(33.09 33.101)" fill="#e6d062"/>
      <ellipse id="Elipse_11489" data-name="Elipse 11489" cx="1.141" cy="1.141" rx="1.141" ry="1.141" transform="translate(38.797 43.374)" fill="#e6d062"/>
      <ellipse id="Elipse_11490" data-name="Elipse 11490" cx="1.141" cy="1.141" rx="1.141" ry="1.141" transform="translate(20.534 44.515)" fill="#e6d062"/>
    </g>
  </g>
</svg>
