<svg xmlns="http://www.w3.org/2000/svg" width="104" height="104" viewBox="0 0 104 104">
  <g id="Grupo_1186522" data-name="Grupo 1186522" transform="translate(517.785 8569.293)">
    <g id="Rectángulo_456956" data-name="Rectángulo 456956" transform="translate(-517.785 -8569.293)" fill="none" stroke="#e6d062" stroke-width="2">
      <rect width="104" height="104" rx="52" stroke="none"/>
      <rect x="1" y="1" width="102" height="102" rx="51" fill="none"/>
    </g>
    <g id="certificado" transform="translate(-491.021 -8540.529)">
      <g id="Grupo_1186490" data-name="Grupo 1186490" transform="translate(0)">
        <g id="Grupo_1186489" data-name="Grupo 1186489">
          <path id="Trazado_1106673" data-name="Trazado 1106673" d="M44.168,9.168a.986.986,0,0,0,.986-.986V2.957A2.961,2.961,0,0,0,42.2,0H2.961A2.961,2.961,0,0,0,0,2.957V47.515a2.961,2.961,0,0,0,2.957,2.957H42.2a2.961,2.961,0,0,0,2.957-2.957v-2.76a.986.986,0,0,0-1.972,0v2.76a.987.987,0,0,1-.986.986H2.961a.987.987,0,0,1-.986-.986V2.957a.987.987,0,0,1,.986-.986H42.2a.987.987,0,0,1,.986.986V8.182A.986.986,0,0,0,44.168,9.168Z" transform="translate(-0.004)" fill="#e6d062"/>
        </g>
      </g>
      <g id="Grupo_1186492" data-name="Grupo 1186492" transform="translate(4.731 4.732)">
        <g id="Grupo_1186491" data-name="Grupo 1186491">
          <path id="Trazado_1106674" data-name="Trazado 1106674" d="M82.7,48H48.984a.986.986,0,0,0-.986.986v20.6a.986.986,0,1,0,1.972,0V49.972H81.713v1.577a.986.986,0,1,0,1.972,0V48.986A.986.986,0,0,0,82.7,48Z" transform="translate(-47.998 -48)" fill="#e6d062"/>
        </g>
      </g>
      <g id="Grupo_1186494" data-name="Grupo 1186494" transform="translate(4.731 28.982)">
        <g id="Grupo_1186493" data-name="Grupo 1186493">
          <path id="Trazado_1106675" data-name="Trazado 1106675" d="M49.677,294.289a.985.985,0,1,0,.289.7A.991.991,0,0,0,49.677,294.289Z" transform="translate(-47.994 -294)" fill="#e6d062"/>
        </g>
      </g>
      <g id="Grupo_1186496" data-name="Grupo 1186496" transform="translate(4.731 32.778)">
        <g id="Grupo_1186495" data-name="Grupo 1186495">
          <path id="Trazado_1106676" data-name="Trazado 1106676" d="M82.7,341.323a.986.986,0,0,0-.986.986v1.183H49.97V333.486a.986.986,0,0,0-1.972,0v10.992a.986.986,0,0,0,.986.986H82.7a.986.986,0,0,0,.986-.986v-2.169A.986.986,0,0,0,82.7,341.323Z" transform="translate(-47.998 -332.5)" fill="#e6d062"/>
        </g>
      </g>
      <g id="Grupo_1186498" data-name="Grupo 1186498" transform="translate(22.147 34.543)">
        <g id="Grupo_1186497" data-name="Grupo 1186497">
          <path id="Trazado_1106677" data-name="Trazado 1106677" d="M233.065,350.7a.986.986,0,0,0-1.394,0l-1.948,1.948-1.211-1.211a1.963,1.963,0,0,0-2.773,0l-.788.788a.986.986,0,0,0,1.394,1.394l.781-.781,1.211,1.211a1.963,1.963,0,0,0,2.773,0l1.956-1.956A.986.986,0,0,0,233.065,350.7Z" transform="translate(-224.661 -350.406)" fill="#e6d062"/>
        </g>
      </g>
      <g id="Grupo_1186500" data-name="Grupo 1186500" transform="translate(11.413 10.715)">
        <g id="Grupo_1186499" data-name="Grupo 1186499">
          <path id="Trazado_1106678" data-name="Trazado 1106678" d="M154.384,118.657a2.868,2.868,0,0,0-1.1-4.1.9.9,0,0,1-.484-.838,2.868,2.868,0,0,0-3-3,.9.9,0,0,1-.838-.484,2.868,2.868,0,0,0-4.1-1.1.9.9,0,0,1-.967,0,2.868,2.868,0,0,0-4.1,1.1.9.9,0,0,1-.838.484,2.868,2.868,0,0,0-3,3,.9.9,0,0,1-.484.838,2.862,2.862,0,0,0-1.523,2.934h-17.2a.986.986,0,1,0,0,1.972H134.47a.887.887,0,0,1-.078.157,2.874,2.874,0,0,0-.356,2.29,2.827,2.827,0,0,0,.1.313H116.764a.986.986,0,1,0,0,1.972h19.151a.891.891,0,0,1,.059.359,2.868,2.868,0,0,0,3,3,.9.9,0,0,1,.838.484,2.861,2.861,0,0,0,.439.625v9.207a.986.986,0,0,0,1.681.7l2.459-2.446,2.459,2.446a.986.986,0,0,0,1.681-.7v-9.207a2.859,2.859,0,0,0,.439-.625.9.9,0,0,1,.838-.484,2.868,2.868,0,0,0,3-3,.9.9,0,0,1,.484-.838,2.868,2.868,0,0,0,1.1-4.1A.9.9,0,0,1,154.384,118.657ZM146.557,135.5l-1.474-1.466a.986.986,0,0,0-1.39,0l-1.473,1.466v-5.914a2.875,2.875,0,0,0,1.685-.45.9.9,0,0,1,.967,0,2.873,2.873,0,0,0,1.55.453c.045,0,.09,0,.135,0Zm6.279-14.1a.886.886,0,0,1-.454.564,2.876,2.876,0,0,0-1.548,2.681.9.9,0,0,1-.937.937,2.875,2.875,0,0,0-2.681,1.548.9.9,0,0,1-1.28.343,2.876,2.876,0,0,0-3.1,0,.9.9,0,0,1-1.28-.343,2.874,2.874,0,0,0-2.681-1.548.9.9,0,0,1-.937-.937,2.874,2.874,0,0,0-.78-2.1c-.015-.017-.031-.033-.048-.049a2.851,2.851,0,0,0-.72-.532.9.9,0,0,1-.343-1.28,2.876,2.876,0,0,0,0-3.1.9.9,0,0,1,.343-1.28,2.876,2.876,0,0,0,1.548-2.681.9.9,0,0,1,.937-.937,2.875,2.875,0,0,0,2.681-1.548.9.9,0,0,1,1.28-.343,2.875,2.875,0,0,0,3.1,0,.9.9,0,0,1,1.28.343,2.875,2.875,0,0,0,2.681,1.548.9.9,0,0,1,.937.937,2.876,2.876,0,0,0,1.548,2.681.9.9,0,0,1,.343,1.28,2.875,2.875,0,0,0,0,3.1A.886.886,0,0,1,152.835,121.4Z" transform="translate(-115.778 -108.691)" fill="#e6d062"/>
        </g>
      </g>
      <g id="Grupo_1186502" data-name="Grupo 1186502" transform="translate(37.059 18.194)">
        <g id="Grupo_1186501" data-name="Grupo 1186501">
          <path id="Trazado_1106679" data-name="Trazado 1106679" d="M383.59,184.846a.986.986,0,0,0-1.394,0l-3.272,3.272-1.3-1.3a.986.986,0,0,0-1.394,1.394l2,2a.986.986,0,0,0,1.394,0l3.969-3.969A.986.986,0,0,0,383.59,184.846Z" transform="translate(-375.938 -184.557)" fill="#e6d062"/>
        </g>
      </g>
      <g id="Grupo_1186504" data-name="Grupo 1186504" transform="translate(10.351 11.632)">
        <g id="Grupo_1186503" data-name="Grupo 1186503">
          <path id="Trazado_1106680" data-name="Trazado 1106680" d="M106.687,118.289a.985.985,0,1,0,.289.7A.993.993,0,0,0,106.687,118.289Z" transform="translate(-105.004 -118)" fill="#e6d062"/>
        </g>
      </g>
      <g id="Grupo_1186506" data-name="Grupo 1186506" transform="translate(14.03 11.632)">
        <g id="Grupo_1186505" data-name="Grupo 1186505">
          <path id="Trazado_1106681" data-name="Trazado 1106681" d="M148.113,118h-4.8a.986.986,0,1,0,0,1.972h4.8a.986.986,0,0,0,0-1.972Z" transform="translate(-142.33 -118)" fill="#e6d062"/>
        </g>
      </g>
      <g id="Grupo_1186508" data-name="Grupo 1186508" transform="translate(17.598 28.982)">
        <g id="Grupo_1186507" data-name="Grupo 1186507">
          <path id="Trazado_1106682" data-name="Trazado 1106682" d="M190.772,294H179.5a.986.986,0,0,0,0,1.972h11.27a.986.986,0,0,0,0-1.972Z" transform="translate(-178.516 -294)" fill="#e6d062"/>
        </g>
      </g>
    </g>
  </g>
</svg>
