<svg xmlns="http://www.w3.org/2000/svg" width="84.5" height="84.5" viewBox="0 0 84.5 84.5">
  <g id="Grupo_1186484" data-name="Grupo 1186484" transform="translate(-705 -8639.394)">
    <rect id="Rectángulo_402006" data-name="Rectángulo 402006" width="84.5" height="84.5" rx="5" transform="translate(705 8639.394)" fill="#ffb8c1"/>
    <g id="convenio" transform="translate(688.967 8655.996)">
      <path id="Trazado_1106753" data-name="Trazado 1106753" d="M76.484,309.208a5.563,5.563,0,1,0-8.385,0,4.739,4.739,0,0,0-2.811,1.736,4.738,4.738,0,0,0-2.811-1.736,5.563,5.563,0,1,0-8.385,0,4.738,4.738,0,0,0-2.811,1.736,4.738,4.738,0,0,0-2.811-1.736,5.563,5.563,0,1,0-8.385,0,4.741,4.741,0,0,0-3.813,4.643v5.381a2.006,2.006,0,0,0,2,2h40.02a2.006,2.006,0,0,0,2-2v-5.381a4.742,4.742,0,0,0-3.813-4.643ZM72.291,302a3.559,3.559,0,1,1-3.559,3.559A3.563,3.563,0,0,1,72.291,302Zm-14.008,0a3.559,3.559,0,1,1-3.559,3.559A3.563,3.563,0,0,1,58.283,302Zm-14.008,0a3.559,3.559,0,1,1-3.559,3.559A3.563,3.563,0,0,1,44.275,302Zm-6,11.852a2.733,2.733,0,0,1,2.73-2.73h6.544a2.733,2.733,0,0,1,2.73,2.73v5.381h-12Zm14.008,0a2.733,2.733,0,0,1,2.73-2.73h6.544a2.733,2.733,0,0,1,2.73,2.73v5.381h-12Zm26.012,5.381h-12v-5.381a2.733,2.733,0,0,1,2.73-2.73h6.544a2.733,2.733,0,0,1,2.73,2.73v5.381Z" transform="translate(0 -269.941)" fill="#cc3e50"/>
      <path id="Trazado_1106754" data-name="Trazado 1106754" d="M46.611,24.288H48.3V25.64a2.057,2.057,0,0,0,1.255,1.912,2.1,2.1,0,0,0,.839.177,2.061,2.061,0,0,0,1.414-.567l3.072-2.874h7.086l1.563,2.707a1.464,1.464,0,0,0,2.535,0l1.563-2.707h7.086l3.072,2.874a2.084,2.084,0,0,0,3.508-1.522V24.288h1.688a3.108,3.108,0,0,0,3.1-3.1V16.728a1,1,0,1,0-2,0v4.455a1.1,1.1,0,0,1-1.1,1.1H80.289a1,1,0,0,0-1,1V25.64a.08.08,0,0,1-.135.059l-3.361-3.145a1,1,0,0,0-.685-.27H67.047a1,1,0,0,0-.868.5l-1.384,2.4-1.384-2.4a1,1,0,0,0-.868-.5H54.482a1,1,0,0,0-.685.27L50.437,25.7a.08.08,0,0,1-.135-.059V23.286a1,1,0,0,0-1-1H46.611a1.1,1.1,0,0,1-1.1-1.1V3.1a1.1,1.1,0,0,1,1.1-1.1H82.979a1.1,1.1,0,0,1,1.1,1.1V7.6a1,1,0,1,0,2,0V3.1a3.108,3.108,0,0,0-3.1-3.1H46.611a3.108,3.108,0,0,0-3.1,3.1V21.183a3.108,3.108,0,0,0,3.1,3.1Z" transform="translate(-6.512 0)" fill="#cc3e50"/>
      <path id="Trazado_1106755" data-name="Trazado 1106755" d="M192.045,43.143a1,1,0,0,0-1.417,0l-.8.8a8.006,8.006,0,1,0,1.229,1.605l.985-.985A1,1,0,0,0,192.045,43.143Zm-1.9,6.417a6.006,6.006,0,1,1-1.726-4.2l-4.993,4.993-1.265-1.876a1,1,0,0,0-1.661,1.12l1.6,2.377a1.5,1.5,0,0,0,1.1.656c.049,0,.1.007.146.007a1.5,1.5,0,0,0,1.063-.441l5.167-5.167A5.961,5.961,0,0,1,190.141,49.56Z" transform="translate(-125.862 -37.396)" fill="#cc3e50"/>
      <circle id="Elipse_11491" data-name="Elipse 11491" cx="1.002" cy="1.002" r="1.002" transform="translate(77.568 11.171)" fill="#cc3e50"/>
    </g>
  </g>
</svg>
