<svg id="Contaminated_Droplet" data-name="Contaminated Droplet" xmlns="http://www.w3.org/2000/svg" width="45.431" height="70.666" viewBox="0 0 45.431 70.666">
  <path id="Trazado_1106711" data-name="Trazado 1106711" d="M36.479,74.669c-12.525,0-22.715-10.516-22.715-23.441,0-6.913,4.082-14.065,8.632-21.393a1.262,1.262,0,1,1,2.145,1.331c-4.176,6.728-8.252,13.817-8.252,20.065,0,11.533,9.057,20.917,20.191,20.917s20.191-9.384,20.191-20.917c0-6.926-4.854-14.658-9.99-22.842C42.749,22.121,38.7,15.676,36.474,9.047c-2.019,5.991-5.511,11.838-8.968,17.375a1.264,1.264,0,0,1-2.145-1.336c3.982-6.377,8-13.162,9.591-19.851a1.553,1.553,0,0,1,3.055.085c1.736,7.278,6.346,14.621,10.8,21.722,5.344,8.507,10.385,16.533,10.385,24.184C59.195,64.151,49,74.669,36.479,74.669Z" transform="translate(-13.764 -4.003)" fill="#2cbe91"/>
  <path id="Trazado_1106712" data-name="Trazado 1106712" d="M20.994,32.68c2.347-4.018,5.06-8.045,7.74-12.347a1.263,1.263,0,1,1,2.145,1.334c-2.619,4.207-5.4,8.338-7.707,12.284a1.262,1.262,0,0,1-2.178-1.271Z" transform="translate(-11.908 0.119)" fill="#2cbe91"/>
  <path id="Trazado_1106713" data-name="Trazado 1106713" d="M33.026,43.524a1.262,1.262,0,1,1,1.262-1.262A1.262,1.262,0,0,1,33.026,43.524Z" transform="translate(-9.049 5.689)" fill="#2cbe91"/>
  <path id="Trazado_1106714" data-name="Trazado 1106714" d="M30.026,45.524a1.262,1.262,0,1,1,1.262-1.262A1.262,1.262,0,0,1,30.026,45.524Z" transform="translate(-9.835 6.213)" fill="#2cbe91"/>
  <path id="Trazado_1106715" data-name="Trazado 1106715" d="M33.026,47.524a1.262,1.262,0,1,1,1.262-1.262A1.262,1.262,0,0,1,33.026,47.524Z" transform="translate(-9.049 6.737)" fill="#2cbe91"/>
  <path id="Trazado_1106716" data-name="Trazado 1106716" d="M45.741,45.358h-3.9a7.507,7.507,0,0,0-1.292-3.118l2.759-2.757A1.262,1.262,0,1,0,41.523,37.7l-2.759,2.759a7.507,7.507,0,0,0-3.118-1.292v-3.9a1.262,1.262,0,1,0-2.524,0v3.9A7.5,7.5,0,0,0,30,40.455L27.243,37.7a1.262,1.262,0,1,0-1.784,1.786l2.759,2.757a7.542,7.542,0,0,0-1.292,3.118h-3.9a1.262,1.262,0,1,0,0,2.524h3.9A7.534,7.534,0,0,0,28.218,51l-2.759,2.759a1.262,1.262,0,1,0,1.785,1.785L30,52.784a7.52,7.52,0,0,0,3.118,1.294v3.9a1.262,1.262,0,0,0,2.524,0v-3.9a7.527,7.527,0,0,0,3.118-1.294l2.759,2.759a1.262,1.262,0,1,0,1.785-1.785L40.548,51a7.5,7.5,0,0,0,1.292-3.118h3.9a1.262,1.262,0,1,0,0-2.524Zm-11.358,6.31a5.048,5.048,0,1,1,5.048-5.048A5.048,5.048,0,0,1,34.384,51.667Z" transform="translate(-11.668 3.856)" fill="#2cbe91"/>
  <path id="Trazado_1106717" data-name="Trazado 1106717" d="M34.288,18.262A1.262,1.262,0,1,1,33.026,17,1.262,1.262,0,0,1,34.288,18.262Z" transform="translate(-9.049 -0.598)" fill="#2cbe91"/>
  <path id="Trazado_1106718" data-name="Trazado 1106718" d="M38.288,26.262A1.262,1.262,0,1,1,37.026,25,1.262,1.262,0,0,1,38.288,26.262Z" transform="translate(-8.001 1.498)" fill="#2cbe91"/>
  <path id="Trazado_1106719" data-name="Trazado 1106719" d="M32.41,31.262A1.262,1.262,0,1,1,31.148,30,1.262,1.262,0,0,1,32.41,31.262ZM22,33.786a1.262,1.262,0,1,1-1.262-1.262A1.262,1.262,0,0,1,22,33.786Z" transform="translate(-12.268 2.808)" fill="#2cbe91"/>
  <path id="Trazado_1106720" data-name="Trazado 1106720" d="M37.288,55.262A1.262,1.262,0,1,1,36.026,54,1.262,1.262,0,0,1,37.288,55.262Z" transform="translate(-8.263 9.095)" fill="#2cbe91"/>
  <path id="Trazado_1106721" data-name="Trazado 1106721" d="M45.288,38.262A1.262,1.262,0,1,1,44.026,37,1.262,1.262,0,0,1,45.288,38.262Z" transform="translate(-6.167 4.642)" fill="#2cbe91"/>
  <path id="Trazado_1106722" data-name="Trazado 1106722" d="M22.288,48.262A1.262,1.262,0,1,1,21.026,47,1.262,1.262,0,0,1,22.288,48.262Z" transform="translate(-12.192 7.261)" fill="#2cbe91"/>
</svg>
