<svg xmlns="http://www.w3.org/2000/svg" width="104" height="104" viewBox="0 0 104 104">
  <g id="Grupo_1183883" data-name="Grupo 1183883" transform="translate(6202.515 10223.309)">
    <g id="Rectángulo_456428" data-name="Rectángulo 456428" transform="translate(-6202.515 -10223.309)" fill="none" stroke="#e6d062" stroke-width="2">
      <rect width="104" height="104" rx="52" stroke="none"/>
      <rect x="1" y="1" width="102" height="102" rx="51" fill="none"/>
    </g>
    <g id="layer2" transform="translate(-6175.903 -10197.672)">
      <path id="path6715" d="M10.5.529A6.335,6.335,0,0,0,4.154,6.871l0,15.093a4.993,4.993,0,0,0-2.751,2.174A6.308,6.308,0,0,0,.529,27.4v7.712a19.593,19.593,0,0,0,1.412,5.5c.341.958.677,1.881.922,2.657a6.641,6.641,0,0,1,.384,1.666v2.871a2.72,2.72,0,0,0-1.812,2.568v1.812A2.713,2.713,0,0,0,4.151,54.9h13.6a2.713,2.713,0,0,0,2.715-2.715V50.375A2.706,2.706,0,0,0,18.9,47.91c.157-.657.494-1.5.832-2.446a16.191,16.191,0,0,0,.982-4.154h2.467a6.335,6.335,0,0,0,6.344-6.342c0-9.174,0-19.59,0-28.1A6.335,6.335,0,0,0,23.185.529Zm41.689,0A2.719,2.719,0,1,0,54.9,3.244,2.717,2.717,0,0,0,52.186.529Zm0,1.812a.906.906,0,1,1-.908.9A.9.9,0,0,1,52.186,2.342Zm-29,0a4.512,4.512,0,0,1,4.531,4.528c0,9.869,0,18.581,0,28.1A4.512,4.512,0,0,1,23.185,39.5H14.824a7.07,7.07,0,0,0-.685-1.811h9.046A2.713,2.713,0,0,0,25.9,34.968c0-9.174,0-19.59,0-28.1a2.713,2.713,0,0,0-2.719-2.717H20.47a.909.909,0,0,0-.669.288l-.568.616H14.45l-.568-.616a.907.907,0,0,0-.669-.288H10.5A2.713,2.713,0,0,0,7.779,6.871l0,18.553a3.94,3.94,0,0,0-1.035-.144,3.184,3.184,0,0,0-.773.094l0-18.5A4.512,4.512,0,0,1,10.5,2.343ZM39.5,8.683V30a8.158,8.158,0,1,0,9.059,0V8.683a4.529,4.529,0,0,0-9.059,0ZM12.818,5.967l.575.618a.908.908,0,0,0,.662.287h5.572a.907.907,0,0,0,.662-.287l.575-.618h2.32a.9.9,0,0,1,.9.9c0,9.147,0,19.435,0,28.1a.9.9,0,0,1-.9.9H12.808c-.4-.438-.8-.831-1.046-1.124a1.168,1.168,0,0,1-.358-.69V30.433A5.363,5.363,0,0,0,9.592,26.4l0-19.532a.9.9,0,0,1,.9-.9Zm31.212,0a2.71,2.71,0,0,1,2.717,2.715V30.506a.908.908,0,0,0,.448.784,6.345,6.345,0,1,1-6.329,0,.908.908,0,0,0,.448-.784V8.683A2.71,2.71,0,0,1,44.03,5.968ZM33.154,8.685a.906.906,0,1,0,0,1.812h3.625a.906.906,0,1,0,0-1.812ZM19.56,9.591a.871.871,0,0,0-.906.906V11.4H12.31a.906.906,0,1,0,0,1.812h6.342v.906a.907.907,0,0,0,1.814,0v-.906h.906a.906.906,0,1,0,0-1.812h-.906V10.5a.87.87,0,0,0-.906-.906Zm24.468.906a.871.871,0,0,0-.906.906V33.279a3.627,3.627,0,1,0,1.812,0V11.4a.87.87,0,0,0-.906-.906Zm-9.114,2.717a.907.907,0,0,0,0,1.814h1.864a.906.906,0,1,0,0-1.812Zm-20.792,2.72a.871.871,0,0,0-.906.906v.906H12.31a.906.906,0,1,0,0,1.812h.906v.906a.906.906,0,1,0,1.812,0V19.56h6.344a.906.906,0,1,0,0-1.812H15.029v-.906a.87.87,0,0,0-.906-.906Zm19.031,1.812a.906.906,0,1,0,0,1.812h3.625a.906.906,0,1,0,0-1.812ZM19.56,22.279a.87.87,0,0,0-.906.906v.906H12.31a.906.906,0,1,0,0,1.812h6.342v.906a.907.907,0,0,0,1.814,0V25.9h.906a.906.906,0,1,0,0-1.812h-.906v-.906a.87.87,0,0,0-.906-.906Zm15.355,0a.906.906,0,1,0,0,1.812h1.864a.906.906,0,1,0,0-1.812ZM4.156,28.619v6.349a.906.906,0,1,0,1.812,0V27.716a.5.5,0,0,1,.294-.535,1.677,1.677,0,0,1,1.179.034A3.352,3.352,0,0,1,9.592,30.46v3.6a2.9,2.9,0,0,0,.772,1.841c.4.48.844.9,1.264,1.37a5.687,5.687,0,0,1,1.586,4.041.906.906,0,1,0,1.812,0H18.9a14.789,14.789,0,0,1-.874,3.545,25.253,25.253,0,0,0-.92,2.8H5.061V44.937a7.7,7.7,0,0,0-.471-2.214c-.264-.834-.6-1.768-.942-2.717a18.743,18.743,0,0,1-1.3-4.89V27.4a4.631,4.631,0,0,1,.607-2.322,3.128,3.128,0,0,1,1.205-1.153Zm29-1.809a.906.906,0,1,0,0,1.812h3.625a.906.906,0,1,0,0-1.812Zm10.875,8.156a1.812,1.812,0,1,1-1.812,1.812,1.815,1.815,0,0,1,1.812-1.812ZM4.154,49.464h13.6a.9.9,0,0,1,.9.912v1.812a.9.9,0,0,1-.9.9H4.151a.9.9,0,0,1-.9-.9V50.375a.9.9,0,0,1,.906-.912Z" transform="translate(0)" fill="#e6d062"/>
    </g>
  </g>
</svg>
