<svg xmlns="http://www.w3.org/2000/svg" width="104" height="104" viewBox="0 0 104 104">
  <g id="Grupo_1183885" data-name="Grupo 1183885" transform="translate(7032 10023.309)">
    <g id="Rectángulo_456431" data-name="Rectángulo 456431" transform="translate(-7032 -10023.309)" fill="none" stroke="#e6d062" stroke-width="2">
      <rect width="104" height="104" rx="52" stroke="none"/>
      <rect x="1" y="1" width="102" height="102" rx="51" fill="none"/>
    </g>
    <g id="XMLID_1019_" transform="translate(-7003.276 -10002.373)">
      <g id="XMLID_298_" transform="translate(0 0)">
        <path id="XMLID_339_" d="M365.491.116l-4.678,2.215A1.2,1.2,0,1,0,361.839,4.5l4.678-2.215A1.2,1.2,0,1,0,365.491.116Z" transform="translate(-320.843 0)" fill="#e6d062"/>
        <path id="XMLID_340_" d="M376.71,146.533l-3.289-1.558a1.2,1.2,0,0,0-1.026,2.167l3.289,1.558a1.2,1.2,0,1,0,1.026-2.167Z" transform="translate(-331.037 -127.496)" fill="#e6d062"/>
        <path id="XMLID_1625_" d="M70.32,52.045,63.826,48.97V45.71l3.7-1.752A1.2,1.2,0,1,0,66.5,41.792l-3.712,1.758a2.323,2.323,0,0,0-1.3-.4H54.131a1.2,1.2,0,1,0,0,2.4h2.051v3.579H54.464a1.2,1.2,0,0,0-.79.3L51.09,51.691H38.965a10.838,10.838,0,0,0-4.154.824,7.356,7.356,0,0,1,7.337-6.964h1.2a1.2,1.2,0,1,0,0-2.4h-1.2A9.756,9.756,0,0,0,32.4,52.9v1.614a1.2,1.2,0,0,0,1.863,1,8.447,8.447,0,0,1,4.7-1.422h.279V60.3A49.287,49.287,0,0,0,35.818,78.4V91.733a6.328,6.328,0,0,0,6.321,6.321H57.505a6.328,6.328,0,0,0,6.321-6.321V80.378a9.441,9.441,0,0,0-6.35-8.917,7.043,7.043,0,0,1-4.737-6.652V60.528c0-.006,0-.012,0-.018s0-.012,0-.018V58.486a9.684,9.684,0,0,0,6.387,3.235c.036,0,.072,0,.108,0a1.2,1.2,0,0,0,.838-2.055,7.256,7.256,0,0,1-2.2-5.224v-2.92h3.615a2.323,2.323,0,0,0,1.3-.4l6.506,3.081a1.2,1.2,0,0,0,1.026-2.167ZM50.342,54.088v5.206h-8.7V54.088ZM61.429,91.733a3.928,3.928,0,0,1-3.923,3.924H42.139a3.928,3.928,0,0,1-3.923-3.924V78.5a7.588,7.588,0,0,1,10.685.048,10,10,0,0,0,12.509,1.31c.013.173.02.348.02.524V91.733ZM56.692,73.726a7.039,7.039,0,0,1,4.06,3.645A7.592,7.592,0,0,1,50.6,76.849,10,10,0,0,0,38.312,75.4a46.844,46.844,0,0,1,2.951-13.672h9.079v3.083a9.441,9.441,0,0,0,6.35,8.917ZM52.82,53.363l2.1-1.836h.562v2.92a9.682,9.682,0,0,0,.813,3.9A7.3,7.3,0,0,1,52.82,53.363Zm8.609-4.233H58.58V45.551h2.849Z" transform="translate(-32.403 -36.68)" fill="#e6d062"/>
        <path id="XMLID_1637_" d="M335.644,81.327h4.467a1.2,1.2,0,1,0,0-2.4h-4.467a1.2,1.2,0,1,0,0,2.4Z" transform="translate(-298.239 -69.469)" fill="#e6d062"/>
        <path id="XMLID_1743_" d="M428,78.93h-4.467a1.2,1.2,0,1,0,0,2.4H428a1.2,1.2,0,0,0,0-2.4Z" transform="translate(-375.592 -69.469)" fill="#e6d062"/>
        <path id="XMLID_1759_" d="M159.87,56.4a1.2,1.2,0,1,0-.847-.351A1.208,1.208,0,0,0,159.87,56.4Z" transform="translate(-143.535 -47.53)" fill="#e6d062"/>
      </g>
    </g>
  </g>
</svg>
