<svg xmlns="http://www.w3.org/2000/svg" xmlns:xlink="http://www.w3.org/1999/xlink" width="182.651" height="138.879" viewBox="0 0 182.651 138.879">
  <defs>
    <clipPath id="clip-path">
      <rect id="Rectángulo_455881" data-name="Rectángulo 455881" width="105.302" height="21.219" fill="#2cbe91"/>
    </clipPath>
  </defs>
  <g id="Grupo_1183898" data-name="Grupo 1183898" transform="translate(-294.348 -988)">
    <path id="Trazado_1053331" data-name="Trazado 1053331" d="M177.181,15.138V0h-5.306a7.644,7.644,0,0,1-7.7,7.585A7.644,7.644,0,0,1,156.588,0h-6.475a7.644,7.644,0,0,1-7.644,7.644A7.644,7.644,0,0,1,134.825,0h-6.456a7.644,7.644,0,0,1-7.644,7.644A7.644,7.644,0,0,1,113.081,0h-6.244a7.645,7.645,0,0,1-7.645,7.644A7.645,7.645,0,0,1,91.548,0H84.919a7.644,7.644,0,0,1-7.644,7.644A7.644,7.644,0,0,1,69.631,0H63.223a7.644,7.644,0,0,1-7.644,7.644A7.644,7.644,0,0,1,47.935,0H41.821A7.645,7.645,0,0,1,26.532.008V0H19.979a7.644,7.644,0,0,1-7.644,7.644A7.644,7.644,0,0,1,4.691,0H0V15.185A7.645,7.645,0,0,1,7.645,22.83,7.644,7.644,0,0,1,0,30.474V37.1a7.644,7.644,0,0,1,7.645,7.644A7.645,7.645,0,0,1,0,52.393v6.244H.017A7.644,7.644,0,0,1,7.653,66.29,7.644,7.644,0,0,1,0,73.925v6.454a7.645,7.645,0,0,1,7.645,7.645A7.644,7.644,0,0,1,0,95.668v6.147H.017a7.644,7.644,0,0,1,7.636,7.653A7.644,7.644,0,0,1,0,117.1v15.114H4.665a7.644,7.644,0,0,1,15.288,0H26.5V132.2a7.644,7.644,0,1,1,15.288.017h6.117V132.2a7.644,7.644,0,1,1,15.288.017h6.4V132.2a7.644,7.644,0,1,1,15.288.017H91.52V132.2a7.644,7.644,0,1,1,15.288.017h6.244a7.645,7.645,0,1,1,15.29,0h6.453V132.2a7.644,7.644,0,1,1,15.288.017h6.477V132.2a7.644,7.644,0,1,1,15.288.017h5.332V117.055h-.017a7.644,7.644,0,1,1,.017-15.288V95.62a7.644,7.644,0,1,1,0-15.289V73.877h-.017a7.644,7.644,0,1,1,.017-15.288V52.345a7.645,7.645,0,1,1,0-15.289V30.427a7.645,7.645,0,1,1-.008-15.289h.008" transform="translate(471.529 1120.217) rotate(180)" fill="#e8f1fe"/>
    <g id="Grupo_1183848" data-name="Grupo 1183848" transform="translate(451.911 1072.732)">
      <g id="Grupo_1183846" data-name="Grupo 1183846" transform="translate(0 -0.001)">
        <rect id="Rectángulo_455879" data-name="Rectángulo 455879" width="24.716" height="23.733" transform="translate(0.186)" fill="#2cbe91"/>
        <path id="Trazado_1000145" data-name="Trazado 1000145" d="M0,1.084H.661a1.082,1.082,0,0,1,2.165,0h.928v0a1.082,1.082,0,1,1,2.165,0h.866v0a1.082,1.082,0,1,1,2.165,0h.907v0a1.082,1.082,0,1,1,2.165,0h.939v0a1.082,1.082,0,1,1,2.165,0h.884a1.082,1.082,0,1,1,2.165,0h.914v0a1.082,1.082,0,1,1,2.165,0h.917v0a1.082,1.082,0,1,1,2.165,0h.755" transform="translate(25.089 24.581) rotate(180)" fill="#2cbe91"/>
      </g>
      <path id="Trazado_1000133" data-name="Trazado 1000133" d="M.59,10.575c-.035-.056-.073-.111-.109-.168A2.76,2.76,0,0,1,.011,9.17a1.955,1.955,0,0,1,.021-.565,2.874,2.874,0,0,1,.384-1c.076-.118.164-.226.253-.349a.12.12,0,0,0,0-.042A1.913,1.913,0,0,1,.745,5.954a2.9,2.9,0,0,1,.506-.843,3.348,3.348,0,0,1,.885-.785c.078-.045.158-.089.242-.135A1.6,1.6,0,0,1,2.84,3.142,3.151,3.151,0,0,1,3.608,2.5a2.851,2.851,0,0,1,1.15-.412A.778.778,0,0,0,4.8,2a1.48,1.48,0,0,1,.5-.642A3.018,3.018,0,0,1,6.748.747,2.685,2.685,0,0,1,7.313.739c.066,0,.132,0,.193.007l.118-.1A2.779,2.779,0,0,1,9.216.014a3.1,3.1,0,0,1,1.4.189c.063.023.126.043.172.059A2.979,2.979,0,0,1,12.739.1a2.919,2.919,0,0,1,1.585,1.1,1.722,1.722,0,0,1,.551.051,2.381,2.381,0,0,1,.881.428,2.431,2.431,0,0,1,.4.37,1.7,1.7,0,0,1,.393.867,1.481,1.481,0,0,1-.4,1.246,2.932,2.932,0,0,1-.517.46,2.552,2.552,0,0,0-.336.308,10.313,10.313,0,0,1-.911.791q-.633.5-1.273.986c-.288.217-.585.421-.873.634-.955.7-1.943,1.354-2.916,2.028-.819.567-1.656,1.1-2.5,1.634q-.853.535-1.73,1.031a16.723,16.723,0,0,1-1.855.911.85.85,0,0,1-.121.041.369.369,0,0,0-.175.093.379.379,0,0,1-.1.073,2.359,2.359,0,0,1-.8.252,1.372,1.372,0,0,1-.434-.015,1.094,1.094,0,0,1-.392-.191,2,2,0,0,1-.7-.832,1.926,1.926,0,0,1-.15-.749c0-.11.007-.22.014-.329a1.544,1.544,0,0,1,.147-.582c.021-.043.038-.089.061-.14" transform="translate(9.701 2.944) rotate(34)" fill="#1b5b5b"/>
    </g>
    <g id="Grupo_1183896" data-name="Grupo 1183896" transform="translate(420.086 1100.895)">
      <g id="Grupo_1183847" data-name="Grupo 1183847" transform="translate(0 0)">
        <rect id="Rectángulo_455879-2" data-name="Rectángulo 455879" width="26.127" height="25.087" transform="translate(0.197)" fill="#ffb57d"/>
        <path id="Trazado_1000145-2" data-name="Trazado 1000145" d="M0,1.146H.7a1.144,1.144,0,0,1,2.288,0h.981v0a1.144,1.144,0,1,1,2.288,0h.916v0a1.144,1.144,0,1,1,2.288,0h.958v0a1.144,1.144,0,1,1,2.288,0H13.7v0a1.144,1.144,0,1,1,2.288,0h.935a1.144,1.144,0,1,1,2.289,0h.966v0a1.144,1.144,0,1,1,2.288,0h.969v0a1.144,1.144,0,1,1,2.288,0h.8" transform="translate(26.521 25.984) rotate(180)" fill="#ffb57d"/>
      </g>
      <path id="Trazado_1026845" data-name="Trazado 1026845" d="M19.883,4.309c-.082-1.439-.993-2.285-2.627-1.676a17.91,17.91,0,0,1-2.285.626c-.14-.535-.279-1.083-.381-1.509l-.014.007c-.034-.144-.064-.274-.089-.385A1.549,1.549,0,0,0,12.954,0L6.4.375c-.8.046-1.212.747-1.369,1.534-.083.416-.184,1.105-.277,1.793-1.319-.118-2.33-.226-2.33-.226C.478,3.089-.074,4,.008,5.439c.142,2.506,4.882,5.215,10.249,4.91s9.769-3.534,9.627-6.04" transform="translate(3.228 7.98) rotate(-1)" fill="#ffb57d" style="mix-blend-mode: multiply;isolation: isolate"/>
    </g>
    <g id="Grupo_1183368" data-name="Grupo 1183368" transform="translate(301.041 1105.66)">
      <g id="Grupo_1183367" data-name="Grupo 1183367" transform="translate(-0.001 0)" clip-path="url(#clip-path)">
        <path id="Trazado_1000146" data-name="Trazado 1000146" d="M181.531.128a1.031,1.031,0,0,0-1.1.083,3.074,3.074,0,0,0-.859.969,7.016,7.016,0,0,0-.716,1.36,3.929,3.929,0,0,0-.268,1.5,2.732,2.732,0,0,0-.01.335,4.246,4.246,0,0,0,.1.75c.03.138.061.285.1.426a1.943,1.943,0,0,0,.112.419c.019.045.072.016.075-.023,0-.009,0-.019,0-.028a.067.067,0,0,0,.086-.071,2.56,2.56,0,0,0-.125-.621c-.036-.235-.083-.47-.11-.69-.011-.089-.016-.178-.022-.266,0-.034,0-.068,0-.1a2.291,2.291,0,0,1,.566-1.387,4.663,4.663,0,0,1,1.033-.891,3.6,3.6,0,0,0,1.084-.787c.176-.245.338-.753.048-.976" transform="translate(-125.566 0)" fill="#ff6a7d"/>
        <path id="Trazado_1000147" data-name="Trazado 1000147" d="M183.934.125a.1.1,0,0,0-.185.029,3.243,3.243,0,0,1-2.111,2.591,5.408,5.408,0,0,0-2.41,1.559,6.564,6.564,0,0,0-1.257,2.946,3.722,3.722,0,0,0-.016,1.709,3.76,3.76,0,0,0,.331,1.05.106.106,0,1,0,.191-.09c-.012-.025-.018-.05-.029-.075a.1.1,0,0,0,.013-.113,3.323,3.323,0,0,1-.272-.79,5.164,5.164,0,0,1,.15-2.035,3.791,3.791,0,0,1,.3-.645,5.221,5.221,0,0,1,2.625-2.028,5.538,5.538,0,0,0,2.393-1.592,2.422,2.422,0,0,0,.278-2.517" transform="translate(-125.064 -0.044)" fill="#ffe1cb"/>
        <path id="Trazado_1000148" data-name="Trazado 1000148" d="M182.546,12.209A13.314,13.314,0,0,0,179.278,14a3.532,3.532,0,0,0-.921.911,1.642,1.642,0,0,0-.234,1.3" transform="translate(-125.211 -8.585)" fill="none" stroke="#12263f" stroke-linecap="round" stroke-linejoin="round" stroke-width="0.75"/>
        <path id="Trazado_1000149" data-name="Trazado 1000149" d="M191.57,22.741a6.838,6.838,0,0,0-1.745-3.995.2.2,0,0,0-.347.163,14.857,14.857,0,0,1,.033,3.266,2.145,2.145,0,0,1-1.475,1.623,2.536,2.536,0,0,1-2.124-.575,4.785,4.785,0,0,1-.51-.47,3.668,3.668,0,0,0-1.256-2.148,3.236,3.236,0,0,0-3.365.39,4.775,4.775,0,0,0-1.331,1.292,3.116,3.116,0,0,0-.654,1.642c0,.617.327.847.842.68a3.219,3.219,0,0,0,1.4-1.158,3.532,3.532,0,0,1,1.763-1.417,1.8,1.8,0,0,1,1.559.315.476.476,0,0,1,.093,0,.516.516,0,0,1,.318.124,1.834,1.834,0,0,1,.439.66,6.142,6.142,0,0,1,.3.9c.035.128.065.257.1.386a3.731,3.731,0,0,0,1.56,1.941,2.836,2.836,0,0,0,2.924-.152,3.993,3.993,0,0,0,1.478-3.466" transform="translate(-125.719 -13.128)" fill="#2079f3"/>
        <path id="Trazado_1000150" data-name="Trazado 1000150" d="M199.8,30.559a2.07,2.07,0,0,1-2.366.948A8.885,8.885,0,0,1,195,30.25a1.646,1.646,0,0,0-1.384-.32" transform="translate(-136.14 -21.003)" fill="none" stroke="#15260d" stroke-linecap="round" stroke-linejoin="round" stroke-width="0.75"/>
        <path id="Trazado_1000151" data-name="Trazado 1000151" d="M205.718,31.474a2.368,2.368,0,0,1-1.039,1.892,2.711,2.711,0,0,1-2.021.361,4.783,4.783,0,0,1-1.907-.908" transform="translate(-141.157 -22.131)" fill="none" stroke="#12263f" stroke-linecap="round" stroke-linejoin="round" stroke-width="0.75"/>
        <path id="Trazado_1000152" data-name="Trazado 1000152" d="M206.8,39.062a2.213,2.213,0,0,1-1.975,1.021,5.134,5.134,0,0,1-2.175-.682" transform="translate(-142.491 -27.466)" fill="none" stroke="#12263f" stroke-linecap="round" stroke-linejoin="round" stroke-width="0.75"/>
        <path id="Trazado_1000153" data-name="Trazado 1000153" d="M185.277,27.088a6.2,6.2,0,0,0-3.831,2.787" transform="translate(-127.583 -19.047)" fill="none" stroke="#15260d" stroke-linecap="round" stroke-linejoin="round" stroke-width="0.75"/>
        <path id="Trazado_1000154" data-name="Trazado 1000154" d="M189.127,10.238c.02-.081.041-.162.056-.244a.092.092,0,0,0-.118-.1v0c-.018-.089-.128-.069-.125.02s0,.195,0,.291a3.039,3.039,0,0,1-.9,1.437,2.19,2.19,0,0,1-2.129.137,5.357,5.357,0,0,0-3.552.26,5.293,5.293,0,0,0-2.569,2.459,5.9,5.9,0,0,0-.581,1.816,6.26,6.26,0,0,0-.077.948v.007a2.308,2.308,0,0,0,.15.865.152.152,0,0,0,.038.052c.013.025.023.052.038.075.055.091.159.019.164-.069a.144.144,0,0,0,.046-.1c.019-.353-.058-.7-.049-1.06a5.4,5.4,0,0,1,.1-.928,5.328,5.328,0,0,1,.161-.6,3.862,3.862,0,0,1,.753-1.113,4.284,4.284,0,0,1,3.587-1.12,14.7,14.7,0,0,0,2.112.321,2.928,2.928,0,0,0,1.522-.482,3.088,3.088,0,0,0,1.1-1.292,3.467,3.467,0,0,0,.269-.874,2.059,2.059,0,0,0,0-.7" transform="translate(-125.954 -6.913)" fill="#ffe76d"/>
        <path id="Trazado_1000155" data-name="Trazado 1000155" d="M199.788,13.6a4.609,4.609,0,0,1-4.83,1.387" transform="translate(-137.084 -9.566)" fill="none" stroke="#12263f" stroke-linecap="round" stroke-linejoin="round" stroke-width="0.75"/>
        <path id="Trazado_1000156" data-name="Trazado 1000156" d="M165.691.128a1.031,1.031,0,0,1,1.1.083,3.077,3.077,0,0,1,.859.969,7.016,7.016,0,0,1,.716,1.36,3.929,3.929,0,0,1,.268,1.5,2.732,2.732,0,0,1,.01.335,4.243,4.243,0,0,1-.1.75c-.03.138-.061.285-.1.426a1.944,1.944,0,0,1-.113.419c-.019.045-.072.016-.075-.023,0-.009,0-.019,0-.028a.067.067,0,0,1-.086-.071,2.562,2.562,0,0,1,.125-.621c.036-.235.083-.47.11-.69.011-.089.016-.178.022-.266,0-.034,0-.068,0-.1a2.291,2.291,0,0,0-.566-1.387,4.662,4.662,0,0,0-1.033-.891,3.6,3.6,0,0,1-1.083-.787c-.176-.245-.338-.753-.048-.976" transform="translate(-116.393 0)" fill="#ff6a7d"/>
        <path id="Trazado_1000157" data-name="Trazado 1000157" d="M155.732.125a.1.1,0,0,1,.185.029,3.243,3.243,0,0,0,2.111,2.591A5.406,5.406,0,0,1,160.437,4.3a6.561,6.561,0,0,1,1.257,2.946,3.722,3.722,0,0,1,.016,1.709,3.761,3.761,0,0,1-.331,1.05.106.106,0,1,1-.191-.09c.012-.025.019-.05.03-.075a.1.1,0,0,1-.013-.113,3.325,3.325,0,0,0,.272-.79,5.164,5.164,0,0,0-.151-2.035,3.79,3.79,0,0,0-.3-.645A5.221,5.221,0,0,0,158.4,4.234a5.538,5.538,0,0,1-2.393-1.592,2.422,2.422,0,0,1-.278-2.517" transform="translate(-109.338 -0.044)" fill="#ffe1cb"/>
        <path id="Trazado_1000158" data-name="Trazado 1000158" d="M161.451,12.209A13.313,13.313,0,0,1,164.719,14a3.531,3.531,0,0,1,.921.911,1.643,1.643,0,0,1,.234,1.3" transform="translate(-113.523 -8.585)" fill="none" stroke="#12263f" stroke-linecap="round" stroke-linejoin="round" stroke-width="0.75"/>
        <path id="Trazado_1000159" data-name="Trazado 1000159" d="M132.757,22.741a6.838,6.838,0,0,1,1.745-3.995.2.2,0,0,1,.347.163,14.856,14.856,0,0,0-.033,3.266,2.145,2.145,0,0,0,1.475,1.623,2.537,2.537,0,0,0,2.124-.575,4.786,4.786,0,0,0,.51-.47,3.669,3.669,0,0,1,1.256-2.148,3.236,3.236,0,0,1,3.365.39,4.776,4.776,0,0,1,1.331,1.292,3.116,3.116,0,0,1,.654,1.642c0,.617-.327.847-.842.68a3.219,3.219,0,0,1-1.4-1.158,3.532,3.532,0,0,0-1.763-1.417,1.8,1.8,0,0,0-1.559.315.476.476,0,0,0-.093,0,.516.516,0,0,0-.318.124,1.834,1.834,0,0,0-.439.66,6.144,6.144,0,0,0-.3.9c-.035.128-.065.257-.1.386a3.731,3.731,0,0,1-1.56,1.941,2.835,2.835,0,0,1-2.924-.152,3.993,3.993,0,0,1-1.478-3.466" transform="translate(-93.344 -13.128)" fill="#2079f3"/>
        <path id="Trazado_1000160" data-name="Trazado 1000160" d="M140.143,30.559a2.07,2.07,0,0,0,2.366.948,8.885,8.885,0,0,0,2.435-1.257,1.646,1.646,0,0,1,1.384-.32" transform="translate(-98.541 -21.003)" fill="none" stroke="#15260d" stroke-linecap="round" stroke-linejoin="round" stroke-width="0.75"/>
        <path id="Trazado_1000161" data-name="Trazado 1000161" d="M137.11,31.474a2.368,2.368,0,0,0,1.039,1.892,2.711,2.711,0,0,0,2.021.361,4.783,4.783,0,0,0,1.907-.908" transform="translate(-96.408 -22.131)" fill="none" stroke="#12263f" stroke-linecap="round" stroke-linejoin="round" stroke-width="0.75"/>
        <path id="Trazado_1000162" data-name="Trazado 1000162" d="M137.965,39.062a2.213,2.213,0,0,0,1.975,1.021,5.133,5.133,0,0,0,2.175-.682" transform="translate(-97.009 -27.466)" fill="none" stroke="#12263f" stroke-linecap="round" stroke-linejoin="round" stroke-width="0.75"/>
        <path id="Trazado_1000163" data-name="Trazado 1000163" d="M160.242,27.088a6.2,6.2,0,0,1,3.831,2.787" transform="translate(-112.673 -19.047)" fill="none" stroke="#12263f" stroke-linecap="round" stroke-linejoin="round" stroke-width="0.75"/>
        <path id="Trazado_1000164" data-name="Trazado 1000164" d="M141.651,10.238c-.02-.081-.041-.162-.055-.244a.092.092,0,0,1,.118-.1v0c.018-.089.128-.069.125.02s0,.195,0,.291a3.039,3.039,0,0,0,.9,1.437,2.19,2.19,0,0,0,2.129.137,5.357,5.357,0,0,1,3.552.26,5.292,5.292,0,0,1,2.569,2.459,5.906,5.906,0,0,1,.581,1.816,6.268,6.268,0,0,1,.077.948v.007a2.3,2.3,0,0,1-.15.865.152.152,0,0,1-.038.052c-.013.025-.023.052-.037.075-.056.091-.159.019-.164-.069a.144.144,0,0,1-.046-.1c-.019-.353.058-.7.049-1.06a5.461,5.461,0,0,0-.1-.928,5.406,5.406,0,0,0-.161-.6,3.85,3.85,0,0,0-.753-1.113,4.284,4.284,0,0,0-3.587-1.12,14.7,14.7,0,0,1-2.112.321,2.926,2.926,0,0,1-1.522-.482,3.089,3.089,0,0,1-1.1-1.292,3.479,3.479,0,0,1-.269-.874,2.059,2.059,0,0,1,0-.7" transform="translate(-99.561 -6.913)" fill="#ffe76d"/>
        <path id="Trazado_1000165" data-name="Trazado 1000165" d="M143.364,13.6a4.609,4.609,0,0,0,4.83,1.387" transform="translate(-100.806 -9.566)" fill="none" stroke="#12263f" stroke-linecap="round" stroke-linejoin="round" stroke-width="0.75"/>
        <path id="Trazado_1000166" data-name="Trazado 1000166" d="M231.139,3.96a.238.238,0,0,0-.47-.07,37.234,37.234,0,0,1-2.31,6.324c-.062.12-.122.241-.188.359a11.129,11.129,0,0,1-3.638,3.979,15.712,15.712,0,0,1-9.758,2.323,18.8,18.8,0,0,1-5.061-1.1,29.972,29.972,0,0,1-4.754-2.391c-.471-.273-.947-.542-1.43-.8a11.025,11.025,0,0,0,1.957.293c.837.071,1.675.155,2.513.2a8.666,8.666,0,0,0,4.276-.714,9.809,9.809,0,0,0,5.087-6.624,32.993,32.993,0,0,0,.83-5.394.272.272,0,0,0-.537-.08,17.057,17.057,0,0,1-4.14,7.421,13.89,13.89,0,0,1-7.423,4.079,15.674,15.674,0,0,1-3.645.286,10.758,10.758,0,0,0-2.27-.756,8.845,8.845,0,0,0-5.126.49,5.221,5.221,0,0,0-3.16,3.115c-.015.045-.026.091-.039.136a13.17,13.17,0,0,0-2.019,1.057c-1.426.908-2.837,2.038-4.5,2.319a5.088,5.088,0,0,1-4.369-1.449c-1.084-1.081-1.959-3.1-.745-4.472.016-.018.034-.029.05-.046.717-.2,1.317.829,1.649,1.4s.732,1.195,1.366,1.361a1.334,1.334,0,0,0,1.485-.471,1.628,1.628,0,0,0-.435-1.9c-.987-1.124-2.577-2.15-3.99-1.359a3.382,3.382,0,0,0-1.157,3.978,5.721,5.721,0,0,0,3.194,3.327,5.654,5.654,0,0,0,4.594-.1c1.534-.688,2.854-1.818,4.347-2.595.123-.064.25-.12.376-.179a5.222,5.222,0,0,0,.939,3.407c1.745,2.413,5.75,2.712,7.469.094a3.193,3.193,0,0,0-.623-4.1c-1.294-1.16-3.179-1.225-4.763-1.04a10.38,10.38,0,0,0-1.96.426,3.745,3.745,0,0,1,1-1.292A7.439,7.439,0,0,1,198.71,11.9a11.35,11.35,0,0,1,5.08,1.684,52.244,52.244,0,0,0,4.63,2.5,28.482,28.482,0,0,0,9.556,2.426,15.041,15.041,0,0,0,5.012-.641,14.32,14.32,0,0,0,4.583-2.307,8.1,8.1,0,0,0,2.755-4.491,24.1,24.1,0,0,0,.812-7.112M196.677,15.018a3.89,3.89,0,0,1,2.454.98,2.419,2.419,0,0,1,.722,2.268c-.405,1.623-2.2,2.278-3.558,2.215a4.051,4.051,0,0,1-3.625-2.584,4.171,4.171,0,0,1-.2-2.3,9.731,9.731,0,0,1,4.209-.578" transform="translate(-125.85 -0.044)" fill="#2cbe91"/>
        <path id="Trazado_1000167" data-name="Trazado 1000167" d="M257.209,40.255a14.364,14.364,0,0,1-4.252-1.226" transform="translate(-177.865 -27.443)" fill="none" stroke="#12263f" stroke-linecap="round" stroke-linejoin="round" stroke-width="0.75"/>
        <path id="Trazado_1000168" data-name="Trazado 1000168" d="M284.621,15.125a12.16,12.16,0,0,1-9.15,7.622" transform="translate(-193.696 -10.635)" fill="none" stroke="#12263f" stroke-linecap="round" stroke-linejoin="round" stroke-width="0.75"/>
        <path id="Trazado_1000169" data-name="Trazado 1000169" d="M314.4,23.622c-1.141,3.774-3.437,7.278-6.723,8.906a12.309,12.309,0,0,1-2.052.778,17.138,17.138,0,0,1-7.4.477" transform="translate(-209.696 -16.61)" fill="none" stroke="#15260d" stroke-linecap="round" stroke-linejoin="round" stroke-width="0.75"/>
        <path id="Trazado_1000170" data-name="Trazado 1000170" d="M225.5,45.355a4.628,4.628,0,0,0-1.3,3.762" transform="translate(-157.627 -31.891)" fill="none" stroke="#12263f" stroke-linecap="round" stroke-linejoin="round" stroke-width="0.75"/>
        <path id="Trazado_1000171" data-name="Trazado 1000171" d="M222.9,45.454a5.179,5.179,0,0,0-.841,3.213" transform="translate(-156.133 -31.961)" fill="none" stroke="#15260d" stroke-linecap="round" stroke-linejoin="round" stroke-width="0.75"/>
        <path id="Trazado_1000172" data-name="Trazado 1000172" d="M225.473,49.584a7.867,7.867,0,0,1,1.3-.521" transform="translate(-158.54 -34.498)" fill="none" stroke="#12263f" stroke-linecap="round" stroke-linejoin="round" stroke-width="0.75"/>
        <path id="Trazado_1000173" data-name="Trazado 1000173" d="M181.423,41.692A2.382,2.382,0,0,1,182,40.614a1.483,1.483,0,0,1,.538-.281,2.268,2.268,0,0,1,2.391.636,1.281,1.281,0,0,1,.346.855c-.012.32-.243.641-.533.64" transform="translate(-127.566 -28.284)" fill="none" stroke="#12263f" stroke-linecap="round" stroke-linejoin="round" stroke-width="0.75"/>
        <path id="Trazado_1000174" data-name="Trazado 1000174" d="M.825,11.072A8.1,8.1,0,0,0,3.58,15.563,14.323,14.323,0,0,0,8.164,17.87a15.049,15.049,0,0,0,5.012.641,28.48,28.48,0,0,0,9.556-2.426,52.319,52.319,0,0,0,4.63-2.5,11.351,11.351,0,0,1,5.08-1.684A7.439,7.439,0,0,1,37.4,13.417a3.742,3.742,0,0,1,1,1.292,10.377,10.377,0,0,0-1.96-.426c-1.584-.184-3.469-.119-4.763,1.04a3.192,3.192,0,0,0-.623,4.1c1.719,2.619,5.723,2.319,7.468-.094a5.222,5.222,0,0,0,.939-3.407c.126.059.252.115.376.179,1.493.777,2.813,1.907,4.347,2.595a5.653,5.653,0,0,0,4.594.1,5.721,5.721,0,0,0,3.194-3.326,3.382,3.382,0,0,0-1.157-3.978c-1.414-.791-3,.235-3.99,1.359a1.628,1.628,0,0,0-.435,1.9,1.333,1.333,0,0,0,1.485.47c.635-.166,1.033-.79,1.366-1.361s.932-1.594,1.65-1.4c.016.017.034.028.05.046,1.214,1.371.34,3.391-.745,4.472a5.088,5.088,0,0,1-4.369,1.449c-1.666-.281-3.077-1.411-4.5-2.319A13.145,13.145,0,0,0,39.3,15.045c-.013-.045-.024-.091-.038-.136a5.223,5.223,0,0,0-3.16-3.115,8.844,8.844,0,0,0-5.127-.49,10.763,10.763,0,0,0-2.27.756,15.691,15.691,0,0,1-3.645-.286A13.89,13.89,0,0,1,17.635,7.7,17.056,17.056,0,0,1,13.495.274a.272.272,0,0,0-.537.08,33.022,33.022,0,0,0,.83,5.394,9.808,9.808,0,0,0,5.087,6.624,8.665,8.665,0,0,0,4.276.714c.839-.05,1.676-.134,2.513-.2a11.022,11.022,0,0,0,1.957-.293c-.483.255-.959.524-1.43.8a29.971,29.971,0,0,1-4.754,2.391,18.8,18.8,0,0,1-5.061,1.1,15.712,15.712,0,0,1-9.758-2.323A11.131,11.131,0,0,1,2.98,10.573c-.065-.118-.126-.239-.187-.359A37.247,37.247,0,0,1,.482,3.89a.238.238,0,0,0-.469.07,24.084,24.084,0,0,0,.812,7.112M38.684,15.6a4.173,4.173,0,0,1-.2,2.3,4.053,4.053,0,0,1-3.625,2.584c-1.362.064-3.153-.592-3.558-2.215A2.42,2.42,0,0,1,32.021,16a3.892,3.892,0,0,1,2.454-.98,9.731,9.731,0,0,1,4.209.578" transform="translate(0 -0.044)" fill="#2cbe91"/>
        <path id="Trazado_1000175" data-name="Trazado 1000175" d="M87.443,40.255A14.363,14.363,0,0,0,91.7,39.029" transform="translate(-61.485 -27.443)" fill="none" stroke="#12263f" stroke-linecap="round" stroke-linejoin="round" stroke-width="0.75"/>
        <path id="Trazado_1000176" data-name="Trazado 1000176" d="M48.43,15.125a12.16,12.16,0,0,0,9.15,7.622" transform="translate(-34.053 -10.635)" fill="none" stroke="#15260d" stroke-linecap="round" stroke-linejoin="round" stroke-width="0.75"/>
        <path id="Trazado_1000177" data-name="Trazado 1000177" d="M2.019,23.622C3.16,27.4,5.456,30.9,8.742,32.528a12.309,12.309,0,0,0,2.052.778,17.138,17.138,0,0,0,7.4.477" transform="translate(-1.42 -16.61)" fill="none" stroke="#15260d" stroke-linecap="round" stroke-linejoin="round" stroke-width="0.75"/>
        <path id="Trazado_1000178" data-name="Trazado 1000178" d="M126.1,45.355a4.628,4.628,0,0,1,1.3,3.762" transform="translate(-88.666 -31.891)" fill="none" stroke="#15260d" stroke-linecap="round" stroke-linejoin="round" stroke-width="0.75"/>
        <path id="Trazado_1000179" data-name="Trazado 1000179" d="M129.8,45.454a5.178,5.178,0,0,1,.841,3.213" transform="translate(-91.268 -31.961)" fill="none" stroke="#12263f" stroke-linecap="round" stroke-linejoin="round" stroke-width="0.75"/>
        <path id="Trazado_1000180" data-name="Trazado 1000180" d="M126.174,49.584a7.865,7.865,0,0,0-1.3-.521" transform="translate(-87.805 -34.498)" fill="none" stroke="#12263f" stroke-linecap="round" stroke-linejoin="round" stroke-width="0.75"/>
        <path id="Trazado_1000181" data-name="Trazado 1000181" d="M164.17,41.692a2.386,2.386,0,0,0-.579-1.078,1.483,1.483,0,0,0-.538-.281,2.268,2.268,0,0,0-2.391.636,1.281,1.281,0,0,0-.346.855c.012.32.243.641.533.64" transform="translate(-112.724 -28.284)" fill="none" stroke="#15260d" stroke-linecap="round" stroke-linejoin="round" stroke-width="0.75"/>
        <path id="Trazado_1000182" data-name="Trazado 1000182" d="M176.26,33.01a1.331,1.331,0,1,0-1.325,1.464,1.4,1.4,0,0,0,1.325-1.464" transform="translate(-122.073 -22.181)" fill="#2cbe91"/>
      </g>
    </g>
    <g id="libro-de-leyes" transform="translate(325.531 978.375)">
      <path id="Trazado_1064010" data-name="Trazado 1064010" d="M85.568,139a24.184,24.184,0,0,0-6.811-3.334.954.954,0,0,0-1.269.958V144.4a1,1,0,0,0,.712.955,23.2,23.2,0,0,1,6.19,2.99,1.02,1.02,0,0,0,1.583-.805v-7.729a1,1,0,0,0-.4-.8Zm-1.587,6.72a25.035,25.035,0,0,0-4.5-2.056v-5.646a21.778,21.778,0,0,1,4.5,2.3Z" transform="translate(-50.431 -80.657)" fill="#2079f3"/>
      <path id="Trazado_1064011" data-name="Trazado 1064011" d="M78.268,62.57c.31.07,1.093.259,1.177.259a1,1,0,0,0,.253-1.96q-.491-.129-.99-.243a1,1,0,0,0-.44,1.944Z" transform="translate(-50.435 -27.002)" fill="#2079f3"/>
      <path id="Trazado_1064012" data-name="Trazado 1064012" d="M102.747,71.381a37.518,37.518,0,0,1,11.035,7.838,1.175,1.175,0,0,0,1.408.062.971.971,0,0,0,.062-1.407,38.859,38.859,0,0,0-11.7-8.315,1,1,0,1,0-.808,1.822Z" transform="translate(-68.076 -33.348)" fill="#2079f3"/>
      <path id="Trazado_1064013" data-name="Trazado 1064013" d="M78.268,88.424C88.3,90.7,96.077,98.671,96.16,98.746a.981.981,0,0,0,1.409.026,1.025,1.025,0,0,0,.026-1.409c-.332-.345-8.26-8.475-18.886-10.883a1,1,0,1,0-.441,1.944Z" transform="translate(-50.435 -45.495)" fill="#2079f3"/>
      <path id="Trazado_1064014" data-name="Trazado 1064014" d="M78.709,112.338a1,1,0,0,0-.44,1.944C88.3,116.554,96.082,124.524,96.16,124.6a1.136,1.136,0,0,0,1.409.025.974.974,0,0,0,.026-1.409C97.263,122.875,89.335,114.744,78.709,112.338Z" transform="translate(-50.435 -63.99)" fill="#2079f3"/>
      <path id="Trazado_1064015" data-name="Trazado 1064015" d="M119.01,155.916a1,1,0,1,0-.968,1.742,32.285,32.285,0,0,1,6.742,5.391,1.131,1.131,0,0,0,1.408.052.988.988,0,0,0,.053-1.408,33.774,33.774,0,0,0-7.235-5.777Z" transform="translate(-79.072 -95.087)" fill="#2079f3"/>
      <path id="Trazado_1064016" data-name="Trazado 1064016" d="M119.009,181.77a1,1,0,1,0-.968,1.742,32.289,32.289,0,0,1,6.742,5.391,1.133,1.133,0,0,0,1.408.052.993.993,0,0,0,.053-1.408A33.774,33.774,0,0,0,119.009,181.77Z" transform="translate(-79.072 -113.58)" fill="#2079f3"/>
      <path id="Trazado_1064017" data-name="Trazado 1064017" d="M98.843,43.528a1,1,0,0,0-1.019,1V95.669c-16.151-7.173-31.607-4.68-43.566.04V44.8a55.437,55.437,0,0,1,10.023-3.246,1.062,1.062,0,0,0,.556-.31A1,1,0,0,0,63.88,39.6a56.905,56.905,0,0,0-10.194,3.27c-6.7-10.365-17.364-18.352-35.88-20.015a.992.992,0,0,0-1.069.994V39.792A50.621,50.621,0,0,0,7.5,43.285a.988.988,0,0,0-.522.877v61.46a1.021,1.021,0,0,0,1.269.994c24.652-6.9,41.353-.893,45.018-.028,3.666-.862,20.644-6.868,45.283.028.816.151,1.269-.265,1.269-.988v-61.1a1,1,0,0,0-.974-1ZM8.971,44.771a49.751,49.751,0,0,1,7.767-2.9V76.845a1,1,0,0,0,.924.994c16.92,1.543,26.382,8.234,33.165,17.284-12.376-4.346-25.736-6.384-41.857.546Zm43.294,59.491c-12.535-3.5-25.226-4.408-43.294.087v-2.132c19.357-8.443,40.177-1.2,43.294-.021Zm0-4.194c-11.659-3.989-27.766-6.314-43.294-.019v-2.18c15.57-7.534,32.3-4.76,43.294.013Zm0-6.378C50.97,91.881,41.9,77.6,18.731,75.924v-51c17.028,1.621,27.93,10.058,33.534,19.479Zm45.559,10.659c-15.085-4.418-33.376-3.287-43.566-.082V102.22c2.933-1.106,24.081-8.5,43.566,0Zm0-4.3c-15.5-6.315-31.947-3.941-43.566.043V97.886c3.559-1.581,23.659-9.643,43.566-.017Z" fill="#2079f3"/>
      <path id="Trazado_1064018" data-name="Trazado 1064018" d="M205.806,61.9a3.273,3.273,0,0,0-2.712,5.386l7.877,9.133a3.263,3.263,0,0,0,5.46-3.44l4.335-3.739,8.066,9.352a3.189,3.189,0,1,0,4.83-4.166L225.6,65.074l4.334-3.738a3.271,3.271,0,0,0,4.206-4.9L226.261,47.3a3.267,3.267,0,0,0-5.461,3.44L207.3,62.388a3.246,3.246,0,0,0-1.494-.489Zm8.467,13.35a1.272,1.272,0,0,1-1.792-.132L204.6,65.984a1.27,1.27,0,0,1,1.924-1.659l7.877,9.133A1.273,1.273,0,0,1,214.273,75.249Zm17.882.479a1.2,1.2,0,0,1-.994,1.974,1.188,1.188,0,0,1-.818-.411l-8.066-9.352,1.812-1.562Zm-9.194-27.253a1.276,1.276,0,0,1,1.791.132l7.875,9.133A1.27,1.27,0,0,1,230.7,59.4l-7.876-9.133a1.276,1.276,0,0,1,.132-1.791Zm-.968,3.875,6.529,7.571L215.241,71.374l-6.53-7.572Z" transform="translate(-139.707 -16.679)" fill="#2079f3"/>
      <path id="Trazado_1064019" data-name="Trazado 1064019" d="M197.961,190.7v1.9a1,1,0,0,0,1,1h24.36a1,1,0,0,0,1-1v-1.9a3.71,3.71,0,0,0-3.79-3.7,3.517,3.517,0,0,0-3.412-4.07H205.163a3.517,3.517,0,0,0-3.412,4.07,3.71,3.71,0,0,0-3.79,3.7Zm5.783-4.361a1.421,1.421,0,0,1,1.419-1.419h11.949a1.42,1.42,0,0,1,1.419,1.419V187H203.744Zm-3.79,4.361a1.711,1.711,0,0,1,1.708-1.708h18.949a1.711,1.711,0,0,1,1.708,1.708v.9H199.954Z" transform="translate(-136.602 -114.496)" fill="#2079f3"/>
    </g>
  </g>
</svg>
