<svg xmlns="http://www.w3.org/2000/svg" width="104" height="104" viewBox="0 0 104 104">
  <g id="Grupo_1186091" data-name="Grupo 1186091" transform="translate(-1213.002 -7404.743)">
    <g id="Rectángulo_456615" data-name="Rectángulo 456615" transform="translate(1213.002 7404.743)" fill="none" stroke="#e6d062" stroke-width="2">
      <rect width="104" height="104" rx="52" stroke="none"/>
      <rect x="1" y="1" width="102" height="102" rx="51" fill="none"/>
    </g>
    <circle id="Elipse_11480" data-name="Elipse 11480" cx="1" cy="1" r="1" transform="translate(1252.002 7438.622)" fill="#e6d062"/>
    <circle id="Elipse_11481" data-name="Elipse 11481" cx="1" cy="1" r="1" transform="translate(1260.002 7438.622)" fill="#e6d062"/>
    <circle id="Elipse_11482" data-name="Elipse 11482" cx="1" cy="1" r="1" transform="translate(1268.002 7438.622)" fill="#e6d062"/>
    <circle id="Elipse_11483" data-name="Elipse 11483" cx="1" cy="1" r="1" transform="translate(1276.002 7438.622)" fill="#e6d062"/>
    <path id="Trazado_1085381" data-name="Trazado 1085381" d="M17,0H13a3,3,0,0,0-3,3V4A4,4,0,0,0,6,8V44a4,4,0,0,0,4,4h9v2a1.99,1.99,0,0,0-1.789,1.1l-2,4A2,2,0,0,0,17,58c6.5,0,6.156.027,6.519-.069A3.986,3.986,0,0,0,27,60H37a4,4,0,0,0,4-4V48h9a4,4,0,0,0,4-4V8a4,4,0,0,0-4-4V3a3,3,0,0,0-3-3H43a3,3,0,0,0-3,3V4H34.966V3a3,3,0,0,0-3-3h-4a3,3,0,0,0-3,3V4H20V3A3,3,0,0,0,17,0ZM12,3a1,1,0,0,1,1-1h4a1,1,0,0,1,1,1V4H12ZM32,24a2,2,0,1,1-2,2A2,2,0,0,1,32,24Zm-3,4.618V30a1,1,0,0,1-1,1H27a4,4,0,0,0-4,4v7H21V28a3,3,0,0,1,3-3h4.142A3.877,3.877,0,0,0,29,28.618ZM23,44v2H21V44Zm0,4v3.53l-.213-.426A1.988,1.988,0,0,0,21,50V48Zm-6,8,2-4h2l2,4Zm22,0a2,2,0,0,1-2,2H27a2,2,0,0,1-2-2V35a2,2,0,0,1,2-2h1a3.008,3.008,0,0,0,3-3.142,3.6,3.6,0,0,0,2,0A3.008,3.008,0,0,0,36,33h1a2,2,0,0,1,2,2ZM37,31H36a1,1,0,0,1-1-1V28.618a3.975,3.975,0,0,0,.919-1.818C42.38,28.1,41.858,28,42,28a1,1,0,0,0,.2-1.98l-6.421-1.289a4,4,0,0,0-.748-1.317L42.2,21.98a1,1,0,0,0-.392-1.96l-10,2a3.952,3.952,0,0,0-2.422.98H24a5.006,5.006,0,0,0-5,5V42H13a1,1,0,0,1-1-1V19a1,1,0,0,1,1-1H47a1,1,0,0,1,1,1V41a1,1,0,0,1-1,1H41V35A4,4,0,0,0,37,31ZM50,46H41V44h6a3,3,0,0,0,3-3V19a3,3,0,0,0-3-3H13a3,3,0,0,0-3,3V41a3,3,0,0,0,3,3h6v2H10a2,2,0,0,1-2-2V14H52V44A2,2,0,0,1,50,46ZM52,8v4H8V8a2,2,0,0,1,2-2H50A2,2,0,0,1,52,8ZM42,3a1,1,0,0,1,1-1h4a1,1,0,0,1,1,1V4H42ZM26.966,3a1,1,0,0,1,1-1h4a1,1,0,0,1,1,1V4h-6Z" transform="translate(1235.002 7430.622)" fill="#e6d062"/>
    <path id="Trazado_1085382" data-name="Trazado 1085382" d="M35.041,39.65a1.857,1.857,0,0,0-2.71-1.442c-7.18,3.664-6.622,11.875-1.164,12.728A4.948,4.948,0,0,0,37,46.192C37,42.357,35.316,42.832,35.041,39.65Zm-1.017,8.614A3.027,3.027,0,0,1,29,45.81c.179-3.217,2.642-4.989,4.064-5.781C33.432,43.484,35,43.224,35,46.192a2.735,2.735,0,0,1-.976,2.072Z" transform="translate(1235.002 7430.622)" fill="#e6d062"/>
  </g>
</svg>
