<svg xmlns="http://www.w3.org/2000/svg" width="109.333" height="109.333" viewBox="0 0 109.333 109.333">
  <path id="Trazado_1106651" data-name="Trazado 1106651" d="M33.646,49.494a7.058,7.058,0,0,0-9.93-.071A6.952,6.952,0,0,0,21.778,53L18.4,49.692a5.176,5.176,0,0,1-1.5-3L14.344,27.512A7.2,7.2,0,0,0,0,28.461V56a11.149,11.149,0,0,0,2.644,7.2l9.028,10.644a1.6,1.6,0,1,0,2.443-2.072L5.087,61.136A7.943,7.943,0,0,1,3.2,56V28.461a4,4,0,0,1,7.965-.527l2.549,19.177a8.392,8.392,0,0,0,2.438,4.87l7.588,7.428h0l7.183,7.031a1.6,1.6,0,0,0,2.24-2.289L25.984,57.12a3.8,3.8,0,0,1-.015-5.421,3.832,3.832,0,0,1,5.39.038l14.819,15.1a10.657,10.657,0,0,1,3.069,7.508v33.39a1.6,1.6,0,1,0,3.2,0V74.342a13.843,13.843,0,0,0-3.986-9.752ZM19.032,77.576a1.6,1.6,0,1,0-2.443,2.072l7.726,9.108A5.4,5.4,0,0,1,25.6,92.249v15.483a1.6,1.6,0,1,0,3.2,0V92.249a8.614,8.614,0,0,0-2.042-5.565Zm33.215-34.84h4.841A3.219,3.219,0,0,0,60.3,39.521V31.037h8.483A3.219,3.219,0,0,0,72,27.822V22.981a3.219,3.219,0,0,0-3.215-3.215H60.3V11.283a3.219,3.219,0,0,0-3.215-3.215H52.246a3.219,3.219,0,0,0-3.215,3.215v8.483H40.548a3.219,3.219,0,0,0-3.215,3.215v4.841a3.219,3.219,0,0,0,3.215,3.215h8.483v8.483a3.219,3.219,0,0,0,3.215,3.215ZM40.536,27.822l.012-4.853h9.278a2.411,2.411,0,0,0,2.408-2.408l.012-9.29,4.853.012v9.278a2.411,2.411,0,0,0,2.408,2.408h9.278l.012.012-.012,4.853H59.507A2.411,2.411,0,0,0,57.1,30.243l-.012,9.29-4.853-.012V30.243a2.411,2.411,0,0,0-2.408-2.408Zm36.695,9.241a1.6,1.6,0,1,0-2.843-1.475,22.074,22.074,0,1,1,2.2-6.639,1.6,1.6,0,1,0,3.162.51,25.425,25.425,0,1,0-2.514,7.6Zm24.9-15.8a7.225,7.225,0,0,0-7.14,6.254L92.44,46.689a5.175,5.175,0,0,1-1.5,3L87.555,53a6.949,6.949,0,0,0-1.938-3.58,7.055,7.055,0,0,0-9.93.071L60.869,64.59a13.843,13.843,0,0,0-3.986,9.752v33.39a1.6,1.6,0,1,0,3.2,0V74.342a10.657,10.657,0,0,1,3.069-7.508l14.819-15.1a3.834,3.834,0,0,1,5.39-.038,3.8,3.8,0,0,1-.015,5.421l-7.183,7.031a1.6,1.6,0,0,0,2.24,2.289l7.183-7.031h0l7.588-7.428a8.391,8.391,0,0,0,2.438-4.87l2.549-19.177a4,4,0,0,1,7.965.527V56a7.943,7.943,0,0,1-1.884,5.132L82.576,86.684a8.613,8.613,0,0,0-2.042,5.565v15.483a1.6,1.6,0,0,0,3.2,0V92.249a5.4,5.4,0,0,1,1.282-3.492l21.67-25.549a11.149,11.149,0,0,0,2.644-7.2V28.461a7.211,7.211,0,0,0-7.2-7.2Z" transform="translate(0 0)" fill="#2079f3"/>
</svg>
