<svg id="traje-de-cocinero" xmlns="http://www.w3.org/2000/svg" width="79.538" height="113.12" viewBox="0 0 79.538 113.12">
  <path id="Trazado_1106665" data-name="Trazado 1106665" d="M162.209,166a2.209,2.209,0,1,0,2.209,2.209A2.21,2.21,0,0,0,162.209,166Zm0,0" transform="translate(-124.65 -129.324)" fill="#2079f3"/>
  <path id="Trazado_1106666" data-name="Trazado 1106666" d="M162.209,246a2.209,2.209,0,1,0,2.209,2.209A2.21,2.21,0,0,0,162.209,246Zm0,0" transform="translate(-124.65 -191.649)" fill="#2079f3"/>
  <path id="Trazado_1106667" data-name="Trazado 1106667" d="M162.209,326a2.209,2.209,0,1,0,2.209,2.209A2.21,2.21,0,0,0,162.209,326Zm0,0" transform="translate(-124.65 -253.974)" fill="#2079f3"/>
  <path id="Trazado_1106668" data-name="Trazado 1106668" d="M162.209,406a2.209,2.209,0,1,0,2.209,2.209A2.21,2.21,0,0,0,162.209,406Zm0,0" transform="translate(-124.65 -316.299)" fill="#2079f3"/>
  <path id="Trazado_1106669" data-name="Trazado 1106669" d="M64.072,13.256H59.653V6.628C59.653.319,43.089,0,39.769,0S19.884.319,19.884,6.628v6.628H15.466A15.483,15.483,0,0,0,0,28.722V52.141a2.209,2.209,0,0,0,4.419,0V28.722A11.059,11.059,0,0,1,15.466,17.675h6.628A2.209,2.209,0,0,0,24.3,15.466V11.151c.122.045.241.091.368.135a33.78,33.78,0,0,0,6.26,1.4v5.366A6.638,6.638,0,0,0,26.513,24.3v84.4H17.675V38.885a2.209,2.209,0,0,0-4.419,0V80.863H4.419V69.816a2.209,2.209,0,0,0-4.419,0V91.91A2.209,2.209,0,0,0,2.209,94.12H13.256v16.791a2.209,2.209,0,0,0,2.209,2.209H64.072a2.209,2.209,0,0,0,2.209-2.209V94.12H77.328a2.209,2.209,0,0,0,2.209-2.209V28.722A15.483,15.483,0,0,0,64.072,13.256ZM4.419,89.7V85.282h8.838V89.7Zm20.5-83.078c1.912-.948,7.041-2.2,14.855-2.2s12.935,1.254,14.85,2.2c-1.165.583-3.725,1.429-8.445,1.907a2.209,2.209,0,0,0-1.987,2.2v4.739a2.211,2.211,0,0,1-2.209,2.209H35.35V10.727a2.209,2.209,0,0,0-1.987-2.2,26.9,26.9,0,0,1-8.449-1.906ZM66.281,89.7V85.282h8.838V89.7Zm8.838-8.838H66.281V38.885a2.209,2.209,0,0,0-4.419,0V108.7H30.931V24.3a2.211,2.211,0,0,1,2.209-2.209h8.838a6.635,6.635,0,0,0,6.628-6.628V12.691a30.776,30.776,0,0,0,6.628-1.518v4.293a2.209,2.209,0,0,0,2.209,2.209h6.628A11.059,11.059,0,0,1,75.119,28.722Zm0,0" transform="translate(0)" fill="#2079f3"/>
  <path id="Trazado_1106670" data-name="Trazado 1106670" d="M211.047,406h-8.838a2.209,2.209,0,0,0,0,4.419h8.838a2.209,2.209,0,1,0,0-4.419Zm0,0" transform="translate(-155.812 -316.299)" fill="#2079f3"/>
  <path id="Trazado_1106671" data-name="Trazado 1106671" d="M2.209,270.419A2.209,2.209,0,1,0,0,268.209,2.21,2.21,0,0,0,2.209,270.419Zm0,0" transform="translate(0 -207.23)" fill="#2079f3"/>
</svg>
