<svg xmlns="http://www.w3.org/2000/svg" width="104" height="104" viewBox="0 0 104 104">
  <g id="Grupo_1186518" data-name="Grupo 1186518" transform="translate(647.785 8443.293)">
    <g id="Rectángulo_456958" data-name="Rectángulo 456958" transform="translate(-647.785 -8443.293)" fill="none" stroke="#e6d062" stroke-width="2">
      <rect width="104" height="104" rx="52" stroke="none"/>
      <rect x="1" y="1" width="102" height="102" rx="51" fill="none"/>
    </g>
    <g id="estornudos" transform="translate(-616.248 -8423.254)">
      <path id="Trazado_1106698" data-name="Trazado 1106698" d="M129.749,42.464a.939.939,0,1,0-1.546,1.067,16.57,16.57,0,0,1,2.942,9.458v3.346h-7.093V51.91a.939.939,0,1,0-1.878,0V62.043H104.923l6.241-11.087a6.28,6.28,0,0,0,1.4.156,6.6,6.6,0,0,0,5.19-2.645,4.825,4.825,0,0,0,3.715-2.86.939.939,0,0,0,.07-.356,56.122,56.122,0,0,0-.457-7.569,16.551,16.551,0,0,1,4.643,3,.939.939,0,1,0,1.267-1.386,18.4,18.4,0,0,0-6.276-3.779c-.023-.112-.046-.223-.07-.333a12.852,12.852,0,0,0,4.2-6.406,4.621,4.621,0,0,0,5.09-7.108c2.316-5.749,2.326-11.342.011-15.416a8.393,8.393,0,0,0-5.983-4.45,10.87,10.87,0,0,0-5.481.637A5.491,5.491,0,0,0,117.3,1.426,11.3,11.3,0,0,0,110.737.011,11.591,11.591,0,0,0,103.908,2.9a.939.939,0,0,0,1.177,1.463A9.567,9.567,0,0,1,110.8,1.888c5.174-.171,6.411,1.957,6.5,2.115a.918.918,0,0,0,1.339.438,8.612,8.612,0,0,1,5.075-.773,6.548,6.548,0,0,1,4.6,3.517c.94,1.655,2.747,6.141.13,13.143a4.595,4.595,0,0,0-3.108-.524v-.154a4.666,4.666,0,0,0-1.485-3.425,44.365,44.365,0,0,1-5.514-6.87,1.574,1.574,0,0,0-2.455-.18,26,26,0,0,1-13.816,7.534,2.819,2.819,0,0,0-2.272,2.762V19.8a4.59,4.59,0,0,0-2.279.156A20.8,20.8,0,0,1,94.564,10.3a9.033,9.033,0,0,0,3.176-.192c1.64-.442,3.157-1.888,4.624-3.287a.939.939,0,0,0-1.3-1.359C99.772,6.7,98.43,7.977,97.251,8.3a8.193,8.193,0,0,1-3.424-.007.945.945,0,0,0-1.156.9A22.3,22.3,0,0,0,95.879,20.9a4.621,4.621,0,0,0,4.4,7.878,12.851,12.851,0,0,0,4.2,6.406c-.024.11-.048.221-.071.334A18.547,18.547,0,0,0,92.1,52.989v9.993a.939.939,0,0,0,.939.939h39.048a.939.939,0,0,0,.939-.939V52.989A18.442,18.442,0,0,0,129.749,42.464ZM118.07,46.475l-.883-7.947a.939.939,0,0,0-1.867.207l.952,8.574a4.544,4.544,0,0,1-7.425,0l.952-8.575a.939.939,0,1,0-1.867-.207l-.883,7.947a3.031,3.031,0,0,1-1.587-1.436c.016-6.049.744-10.57,2.163-13.439,1.188-2.4,2.8-3.57,4.933-3.57s3.745,1.168,4.933,3.57c1.419,2.869,2.147,7.39,2.163,13.439a3.033,3.033,0,0,1-1.587,1.437Zm8.1-24.869a2.746,2.746,0,1,1-.941,5.326,12.619,12.619,0,0,0,.107-1.631V21.736A2.757,2.757,0,0,1,126.166,21.606ZM98.955,27.1a2.746,2.746,0,1,1,.834-5.362V25.3a12.623,12.623,0,0,0,.107,1.631A2.738,2.738,0,0,1,98.955,27.1Zm2.712-1.8V19.473a.937.937,0,0,1,.754-.919A28.018,28.018,0,0,0,117,10.731a44.726,44.726,0,0,0,5.578,6.875,2.782,2.782,0,0,1,.881,2.044V25.3a10.95,10.95,0,0,1-3.343,7.848,16.244,16.244,0,0,0-.935-2.382c-1.041-2.105-3.035-4.615-6.616-4.615s-5.575,2.51-6.616,4.615a16.252,16.252,0,0,0-.935,2.381,10.951,10.951,0,0,1-3.343-7.848ZM97.233,43.09a16.6,16.6,0,0,1,6.81-5.408q-.245,1.785-.359,3.843l-4.465,8.2a.939.939,0,1,0,1.649.9l2.765-5.077c.007.021.013.042.022.062a4.825,4.825,0,0,0,3.715,2.86,7.193,7.193,0,0,0,2.031,1.791l-6.634,11.786h-8.12l4.428-8.131a.939.939,0,1,0-1.649-.9l-3.451,6.337V52.99A16.53,16.53,0,0,1,97.233,43.09Zm33.912,18.953h-7.093v-3.83h7.093Z" transform="translate(-92.098 0)" fill="#e6d062"/>
      <path id="Trazado_1106699" data-name="Trazado 1106699" d="M197.307,166.554l2.42-1.362a.939.939,0,0,0-.03-1.653l-2.42-1.249a.939.939,0,0,0-.861,1.669l.872.45-.9.508a.939.939,0,1,0,.921,1.637Z" transform="translate(-182.947 -141.937)" fill="#e6d062"/>
      <path id="Trazado_1106700" data-name="Trazado 1106700" d="M282.14,165.192l2.42,1.362a.939.939,0,1,0,.921-1.637l-.9-.508.872-.45a.939.939,0,1,0-.861-1.669l-2.42,1.249a.939.939,0,0,0-.03,1.653Z" transform="translate(-257.995 -141.938)" fill="#e6d062"/>
      <path id="Trazado_1106701" data-name="Trazado 1106701" d="M102.283,256.168a4.874,4.874,0,0,0,1.275-3.273,8,8,0,0,0-.111-1.794.939.939,0,0,0-.737-.737,7.992,7.992,0,0,0-1.795-.111,4.874,4.874,0,0,0-3.273,1.274,3.281,3.281,0,1,0,4.641,4.641Zm-3.724-2.32a1.394,1.394,0,0,1,.411-.992,3.412,3.412,0,0,1,2.364-.735c.121,0,.237,0,.347.009a3.709,3.709,0,0,1-.726,2.711,1.4,1.4,0,0,1-2.4-.992Z" transform="translate(-96.109 -219.001)" fill="#e6d062"/>
      <path id="Trazado_1106702" data-name="Trazado 1106702" d="M362.814,250.251a7.953,7.953,0,0,0-1.794.111.939.939,0,0,0-.737.737,7.989,7.989,0,0,0-.111,1.794,4.874,4.874,0,0,0,1.275,3.273,3.282,3.282,0,0,0,4.641-4.641A4.877,4.877,0,0,0,362.814,250.251Zm1.945,4.587a1.4,1.4,0,0,1-1.985,0,3.71,3.71,0,0,1-.726-2.711,3.711,3.711,0,0,1,2.711.726A1.405,1.405,0,0,1,364.76,254.838Z" transform="translate(-326.696 -218.999)" fill="#e6d062"/>
    </g>
  </g>
</svg>
