<svg xmlns="http://www.w3.org/2000/svg" width="104" height="104" viewBox="0 0 104 104">
  <g id="Grupo_1186520" data-name="Grupo 1186520" transform="translate(770.785 8567.293)">
    <g id="Rectángulo_456430" data-name="Rectángulo 456430" transform="translate(-770.785 -8567.293)" fill="none" stroke="#e6d062" stroke-width="2">
      <rect width="104" height="104" rx="52" stroke="none"/>
      <rect x="1" y="1" width="102" height="102" rx="51" fill="none"/>
    </g>
    <g id="cocinando_3_" data-name="cocinando (3)" transform="translate(-739.911 -8547.703)">
      <path id="Trazado_1106683" data-name="Trazado 1106683" d="M16.012,28.965a1.02,1.02,0,0,0-.489.351L7.291,40.248a1.007,1.007,0,0,0-.2.609v3.516c0,.035.018.066.02.1a1.08,1.08,0,0,0,.04.2,1.006,1.006,0,0,0,.074.175.953.953,0,0,0,.107.158,1.079,1.079,0,0,0,.135.135.919.919,0,0,0,.158.105.906.906,0,0,0,.186.078.839.839,0,0,0,.107.034,33.451,33.451,0,0,0,5.49.6c.216,0,.426,0,.632-.013a13.582,13.582,0,0,0,3.493-.908v3.423a1.012,1.012,0,1,0,2.024,0V44.244c2.066-.873,4.06-1.854,5.058-2.358a23.735,23.735,0,0,0,3.533,2.28,4.065,4.065,0,0,0,5.4-1.741,1.014,1.014,0,0,0-.135-1.2L29.43,36.914a1.01,1.01,0,0,0-.428-.27l-2.6-.86a1.043,1.043,0,0,0-.528-.027L17.89,37.484,14.31,34.291l2.647-3.509,9-3.011a4.075,4.075,0,0,0,7.928.065l8.137,3.216,2.853,7.6-3.548,1.634-1.252-2.548a1.012,1.012,0,0,0-1.35-.462,1,1,0,0,0-.525,1.112.891.891,0,0,0-.04.2v9.879a1.012,1.012,0,0,0,2.024,0V42.534l1.51,3.072c-.323.776-.7,1.984-.875,2.564a1.012,1.012,0,0,0,1.937.587,22.809,22.809,0,0,1,.923-2.629,1.011,1.011,0,0,0,.046-.977l-1.5-3.052L45.6,40.548l1.678,4.469-1.03,4.077a1.012,1.012,0,0,0,.736,1.228,1.048,1.048,0,0,0,.247.031,1.012,1.012,0,0,0,.981-.767l1.1-4.384a1.008,1.008,0,0,0-.035-.6L43.761,29.919a1.007,1.007,0,0,0-.576-.586L34.1,25.745v-.262h1.954A5.585,5.585,0,0,0,41.631,19.9V11.671a11.7,11.7,0,1,0-23.4,0V19.9a5.585,5.585,0,0,0,5.579,5.579h1.954V25.7Zm-.576,9.043-.294.065a1.011,1.011,0,1,0,.428,1.977L26.033,37.8l2.095.686,3.219,3.486a1.857,1.857,0,0,1-2.285.4,22.478,22.478,0,0,1-3.682-2.45,1.012,1.012,0,0,0-1.118-.124c-2.159,1.117-8.219,4.039-10.33,4.142a25.58,25.58,0,0,1-4.816-.4v-2.34l3.971-5.272ZM32.073,26.432c0,.254-.059,2.482-2.139,2.482-2.011,0-2.135-2.072-2.141-2.482V23.974a7.367,7.367,0,0,0,2.159.321,7.279,7.279,0,0,0,2.126-.317Zm-8.258-2.969a3.559,3.559,0,0,1-3.555-3.555V11.675a9.674,9.674,0,1,1,19.348,0V19.9a3.559,3.559,0,0,1-3.555,3.555H34.1V23a7.307,7.307,0,0,0,3.164-6.015V14.046a5.087,5.087,0,0,0-1.367-3.388,9.439,9.439,0,0,1-2.142-2.675h0a1.014,1.014,0,0,0-.966-.8,1,1,0,0,0-1,.756,5.8,5.8,0,0,1-2.85,3.18c-.355.189-.7.36-1.045.516a1.013,1.013,0,0,0,.841,1.842q.565-.259,1.155-.571a8.25,8.25,0,0,0,2.954-2.618A18.9,18.9,0,0,0,34.47,12.1a3.142,3.142,0,0,1,.761,1.95v2.938a5.3,5.3,0,1,1-10.607,0V14.875c.339-.077.765-.186,1.255-.331A1.012,1.012,0,1,0,25.3,12.6a15.272,15.272,0,0,1-1.838.44,1.012,1.012,0,0,0-.864,1v2.938a7.3,7.3,0,0,0,3.164,6.01v.467Z" transform="translate(-7.087 0.028)" fill="#e6d062"/>
      <path id="Trazado_1106684" data-name="Trazado 1106684" d="M25.285,36.184v-.64a1.012,1.012,0,0,0-2.024,0v.64a1.012,1.012,0,0,0,2.024,0Z" transform="translate(-1.432 12.112)" fill="#e6d062"/>
      <path id="Trazado_1106685" data-name="Trazado 1106685" d="M27.624,35.487v-.64a1.012,1.012,0,1,0-2.024,0v.64a1.012,1.012,0,1,0,2.024,0Z" transform="translate(-0.614 11.868)" fill="#e6d062"/>
      <path id="Trazado_1106686" data-name="Trazado 1106686" d="M22.949,35.487v-.64a1.012,1.012,0,0,0-2.024,0v.64a1.012,1.012,0,0,0,2.024,0Z" transform="translate(-2.249 11.868)" fill="#e6d062"/>
      <path id="Trazado_1106687" data-name="Trazado 1106687" d="M33.937,51.687a1.012,1.012,0,0,0,1.012-1.012v-.789H35.6a3.8,3.8,0,0,0,3.79-3.791V42.8l4.143-2.585a1.008,1.008,0,0,0,.476-.858v-.892a1.012,1.012,0,0,0-1.012-1.012H12.062a1.012,1.012,0,0,0-1.012,1.012v.892a1.011,1.011,0,0,0,.476.858L15.671,42.8v3.292a3.8,3.8,0,0,0,3.79,3.791h.675v.789a1.012,1.012,0,0,0,2.024,0v-.789H32.928v.789A1.012,1.012,0,0,0,33.937,51.687Zm5.449-12.207h1.5l-1.5.945Zm-23.71.945-1.5-.945h1.5Zm3.79,7.443A1.768,1.768,0,0,1,17.7,46.1V39.488H37.361V46.1A1.768,1.768,0,0,1,35.6,47.867Z" transform="translate(-5.701 13.134)" fill="#e6d062"/>
    </g>
  </g>
</svg>
