<svg xmlns="http://www.w3.org/2000/svg" width="70.666" height="70.667" viewBox="0 0 70.666 70.667">
  <path id="seguro-de-calidad" d="M70.9,85.38l-9.746-9.253,3.271-3.512L70.34,78.18a1.07,1.07,0,0,0,1.369.082l11.832-8.738ZM90.22,63.087a1.071,1.071,0,0,0-1.408-.118L71.157,76.008,65.11,70.319a1.069,1.069,0,0,0-1.516.05l-4.729,5.076a1.073,1.073,0,0,0,.045,1.506L70.274,87.738a1.075,1.075,0,0,0,.737.294l.075,0a1.071,1.071,0,0,0,.764-.4L90.287,64.5A1.072,1.072,0,0,0,90.22,63.087ZM77.263,104.574a29.727,29.727,0,0,0,27.225-26.386l-2.57,2.452a1.07,1.07,0,0,1-1.478,0l-2.953-2.819A22.855,22.855,0,0,1,77.471,97.528a1.07,1.07,0,0,1-1.192-1.064v-.529l-5,5.242,5,5.242v-.778A1.07,1.07,0,0,1,77.263,104.574ZM45.088,77.261a29.728,29.728,0,0,0,26.387,27.225l-2.453-2.569a1.073,1.073,0,0,1,0-1.479l2.818-2.953A22.854,22.854,0,0,1,52.134,77.47,1.071,1.071,0,0,1,53.2,76.278h.528l-5.242-5-5.242,5h.779a1.07,1.07,0,0,1,1.067.984ZM72.4,45.087A29.727,29.727,0,0,0,45.174,71.472l2.571-2.452a1.07,1.07,0,0,1,1.478,0l2.953,2.818A22.854,22.854,0,0,1,72.192,52.132,1.07,1.07,0,0,1,73.384,53.2v.53l5-5.242-5-5.243v.779A1.07,1.07,0,0,1,72.4,45.087Zm5.349,47.181a1.071,1.071,0,0,1,.672.994v1.966A20.816,20.816,0,0,0,95.512,75.938l-2.988-2.851a1.071,1.071,0,0,1,.74-1.846h1.966A20.818,20.818,0,0,0,75.938,54.15l-2.849,2.987a1.072,1.072,0,0,1-1.846-.74V54.432a20.817,20.817,0,0,0-17.091,19.29l2.989,2.851a1.071,1.071,0,0,1-.74,1.845H54.434A20.817,20.817,0,0,0,73.723,95.511l2.851-2.988a1.073,1.073,0,0,1,1.174-.255ZM104.576,72.4A29.727,29.727,0,0,0,78.189,45.174l2.453,2.569a1.073,1.073,0,0,1,0,1.479l-2.819,2.954A22.849,22.849,0,0,1,97.529,72.189a1.071,1.071,0,0,1-1.064,1.194h-.528l5.242,5,5.242-5h-.779A1.07,1.07,0,0,1,104.576,72.4Zm5.512-.483a1.068,1.068,0,0,0-.994-.673h-2.479A31.984,31.984,0,0,0,75.99,42.869l-2.9-3.041a1.072,1.072,0,0,0-1.846.74v2.479A31.984,31.984,0,0,0,42.87,73.673l-3.04,2.9a1.071,1.071,0,0,0,.739,1.845h2.478a31.986,31.986,0,0,0,30.626,28.374l2.9,3.039a1.07,1.07,0,0,0,.775.332,1.085,1.085,0,0,0,.4-.077,1.072,1.072,0,0,0,.672-.994v-2.479a31.986,31.986,0,0,0,28.373-30.625l3.039-2.9A1.069,1.069,0,0,0,110.087,71.914Z" transform="translate(-39.499 -39.497)" fill="#2cbe91" fill-rule="evenodd"/>
</svg>
