<svg id="responsabilidad" xmlns="http://www.w3.org/2000/svg" width="70.667" height="70.667" viewBox="0 0 70.667 70.667">
  <path id="Trazado_1106723" data-name="Trazado 1106723" d="M12.559,19.258v2.28a6.831,6.831,0,0,0,3.154,5.751,2.95,2.95,0,0,1-2.283,1.087h-.166A5.269,5.269,0,0,0,8,33.64v6.134a1.139,1.139,0,0,0,1.14,1.14H29.656a1.139,1.139,0,0,0,1.14-1.14V36.355h9.118v3.419a1.139,1.139,0,0,0,1.14,1.14H61.57a1.139,1.139,0,0,0,1.14-1.14V33.64a5.269,5.269,0,0,0-5.264-5.264H57.28A2.947,2.947,0,0,1,55,27.289a6.832,6.832,0,0,0,3.153-5.751v-2.28a6.839,6.839,0,0,0-13.677,0v2.28a6.831,6.831,0,0,0,3.154,5.751,2.924,2.924,0,0,1-1.285.9,5.272,5.272,0,0,0-4.853-3.228h-.166a2.947,2.947,0,0,1-2.282-1.087,6.832,6.832,0,0,0,3.153-5.751v-2.28a6.839,6.839,0,0,0-13.677,0v2.28A6.831,6.831,0,0,0,31.67,23.87a2.95,2.95,0,0,1-2.283,1.087H29.22a5.27,5.27,0,0,0-4.853,3.229,2.924,2.924,0,0,1-1.285-.9,6.834,6.834,0,0,0,3.154-5.752v-2.28a6.839,6.839,0,0,0-13.677,0ZM28.516,38.634H10.28V33.64a2.987,2.987,0,0,1,2.984-2.984h.166a5.368,5.368,0,0,0,.861-.076l.41.41a6.631,6.631,0,0,0,9.256.125v4.1a1.139,1.139,0,0,0,1.14,1.14h3.419Zm28.93-7.978A2.987,2.987,0,0,1,60.43,33.64v4.995H42.194v-2.28h3.419a1.139,1.139,0,0,0,1.14-1.14v-4.1a6.631,6.631,0,0,0,9.256-.125l.41-.41a5.367,5.367,0,0,0,.861.076Zm-10.693-11.4a4.559,4.559,0,0,1,9.118,0v2.28a4.559,4.559,0,0,1-9.118,0Zm4.559,9.118a6.821,6.821,0,0,0,1.527-.178,5.244,5.244,0,0,0,1.286,1.4,4.465,4.465,0,0,1-5.626,0,5.225,5.225,0,0,0,1.286-1.4A6.821,6.821,0,0,0,51.312,28.376ZM30.8,15.839a4.559,4.559,0,0,1,9.118,0v2.28a4.559,4.559,0,0,1-9.118,0Zm4.559,9.118a6.821,6.821,0,0,0,1.527-.178,5.244,5.244,0,0,0,1.286,1.4,4.465,4.465,0,0,1-5.626,0,5.226,5.226,0,0,0,1.286-1.4A6.821,6.821,0,0,0,35.355,24.957ZM26.237,30.22a2.987,2.987,0,0,1,2.984-2.984h.166a5.368,5.368,0,0,0,.861-.076l.41.41a6.643,6.643,0,0,0,9.394,0l.41-.41a5.368,5.368,0,0,0,.861.076h.166a2.987,2.987,0,0,1,2.984,2.984v3.855H26.237ZM22.211,29.6a4.465,4.465,0,0,1-5.626,0,5.225,5.225,0,0,0,1.286-1.4,6.628,6.628,0,0,0,3.055,0A5.2,5.2,0,0,0,22.211,29.6Zm1.746-10.339v2.28a4.559,4.559,0,0,1-9.118,0v-2.28a4.559,4.559,0,0,1,9.118,0Z" transform="translate(-0.022 0.118)" fill="#2cbe91"/>
  <path id="Trazado_1106724" data-name="Trazado 1106724" d="M64.479,43.923,41.126,50.292a4.381,4.381,0,0,0-.568-.7L32.58,41.612a1.14,1.14,0,0,0-.806-.333H19.237V40.14A1.139,1.139,0,0,0,18.1,39H2.14A1.139,1.139,0,0,0,1,40.14V65.215a1.139,1.139,0,0,0,1.14,1.14h9.118a1.139,1.139,0,0,0,1.14-1.14v-1.14h5.7a1.139,1.139,0,0,0,1.14-1.14V61.8H27.03l6.663,2.22a1.125,1.125,0,0,0,.731,0L70.9,51.475a1.138,1.138,0,0,0,.769-1.077v-1.14a5.538,5.538,0,0,0-7.187-5.335ZM10.118,64.075H3.28V41.28h6.839Zm6.839-2.28H12.4V41.28h4.559Zm52.43-12.212L34.048,61.732l-6.473-2.158a1.174,1.174,0,0,0-.36-.058H19.237V43.559H31.3L38.947,51.2A2.084,2.084,0,1,1,36,54.151l-5.7-5.7-1.612,1.612,5.7,5.7a4.348,4.348,0,0,0,7.427-3.3l23.264-6.345a3.262,3.262,0,0,1,4.308,3.136Z" transform="translate(-1 4.312)" fill="#2cbe91"/>
  <path id="Trazado_1106725" data-name="Trazado 1106725" d="M41.5,2.451q-1.108-.34-2.244-.612l-.529,2.217q1.065.253,2.1.574Z" transform="translate(4.274 -0.883)" fill="#2cbe91"/>
  <path id="Trazado_1106726" data-name="Trazado 1106726" d="M61,32.085c0,.513-.011,1.025-.035,1.532l2.277.1q.038-.814.038-1.637,0-.345-.007-.69L61,31.439c0,.215.007.431.007.645Z" transform="translate(7.383 3.249)" fill="#2cbe91"/>
  <path id="Trazado_1106727" data-name="Trazado 1106727" d="M37.5,1.471c-.751-.127-1.526-.231-2.306-.311l-.231,2.268q1.089.109,2.156.292Z" transform="translate(3.748 -0.977)" fill="#2cbe91"/>
  <path id="Trazado_1106728" data-name="Trazado 1106728" d="M60.392,26.089l2.226-.49c-.166-.757-.359-1.515-.573-2.254l-2.19.635q.3,1.043.537,2.11Z" transform="translate(7.227 2.123)" fill="#2cbe91"/>
  <path id="Trazado_1106729" data-name="Trazado 1106729" d="M45.342,3.95c-.707-.326-1.429-.63-2.147-.9L42.38,5.173q1.021.392,2.007.847Z" transform="translate(4.784 -0.714)" fill="#2cbe91"/>
  <path id="Trazado_1106730" data-name="Trazado 1106730" d="M60.927,29.833l2.272-.194q-.1-1.166-.272-2.309l-2.254.341q.164,1.07.255,2.162Z" transform="translate(7.341 2.681)" fill="#2cbe91"/>
  <path id="Trazado_1106731" data-name="Trazado 1106731" d="M55.9,15.731l1.865-1.311q-.668-.952-1.4-1.858L54.59,13.991q.684.848,1.311,1.739Z" transform="translate(6.491 0.616)" fill="#2cbe91"/>
  <path id="Trazado_1106732" data-name="Trazado 1106732" d="M59.361,22.447l2.143-.78c-.266-.729-.557-1.454-.866-2.156l-2.086.92q.436.992.809,2.016Z" transform="translate(7.045 1.588)" fill="#2cbe91"/>
  <path id="Trazado_1106733" data-name="Trazado 1106733" d="M55.21,11.219c-.519-.564-1.068-1.123-1.631-1.66l-1.573,1.649q.786.751,1.525,1.552Z" transform="translate(6.13 0.197)" fill="#2cbe91"/>
  <path id="Trazado_1106734" data-name="Trazado 1106734" d="M48.946,5.938c-.65-.411-1.326-.809-2.008-1.181l-1.088,2q.957.521,1.876,1.1Z" transform="translate(5.269 -0.475)" fill="#2cbe91"/>
  <path id="Trazado_1106735" data-name="Trazado 1106735" d="M59.627,41.1,61.8,41.8c.237-.741.45-1.5.635-2.241l-2.212-.547q-.263,1.062-.594,2.094Z" transform="translate(7.195 4.313)" fill="#2cbe91"/>
  <path id="Trazado_1106736" data-name="Trazado 1106736" d="M63.124,35.5l-2.266-.252q-.121,1.087-.312,2.153l2.244.4c.136-.759.247-1.534.334-2.3Z" transform="translate(7.324 3.788)" fill="#2cbe91"/>
  <path id="Trazado_1106737" data-name="Trazado 1106737" d="M52.254,8.375c-.595-.5-1.213-.979-1.834-1.433L49.076,8.783q.88.643,1.715,1.342Z" transform="translate(5.72 -0.169)" fill="#2cbe91"/>
  <path id="Trazado_1106738" data-name="Trazado 1106738" d="M57.855,18.978l2.021-1.055c-.357-.683-.741-1.363-1.143-2.023l-1.947,1.184Q57.352,18.01,57.855,18.978Z" transform="translate(6.798 1.083)" fill="#2cbe91"/>
  <path id="Trazado_1106739" data-name="Trazado 1106739" d="M4.546,23.775l-2.185-.652c-.221.744-.421,1.5-.59,2.252l2.223.5Q4.236,24.813,4.546,23.775Z" transform="translate(-0.892 2.093)" fill="#2cbe91"/>
  <path id="Trazado_1106740" data-name="Trazado 1106740" d="M5.9,20.233,3.823,19.3c-.316.7-.613,1.426-.884,2.155l2.136.794q.38-1.024.826-2.015Z" transform="translate(-0.729 1.558)" fill="#2cbe91"/>
  <path id="Trazado_1106741" data-name="Trazado 1106741" d="M7.713,16.891l-1.936-1.2c-.407.657-.8,1.336-1.161,2.019l2.012,1.071Q7.14,17.816,7.713,16.891Z" transform="translate(-0.495 1.053)" fill="#2cbe91"/>
  <path id="Trazado_1106742" data-name="Trazado 1106742" d="M9.944,13.813,8.179,12.37q-.737.9-1.414,1.846l1.853,1.327Q9.254,14.658,9.944,13.813Z" transform="translate(-0.194 0.589)" fill="#2cbe91"/>
  <path id="Trazado_1106743" data-name="Trazado 1106743" d="M3.3,33.4c-.017-.427-.025-.858-.025-1.288,0-.3,0-.594.011-.889l-2.278-.063C1,31.48,1,31.8,1,32.118q0,.689.026,1.373Z" transform="translate(-1 3.217)" fill="#2cbe91"/>
  <path id="Trazado_1106744" data-name="Trazado 1106744" d="M3.672,27.461,1.419,27.1c-.121.764-.218,1.54-.288,2.307l2.269.21Q3.5,28.529,3.672,27.461Z" transform="translate(-0.982 2.649)" fill="#2cbe91"/>
  <path id="Trazado_1106745" data-name="Trazado 1106745" d="M1.167,35.272q.121,1.166.317,2.3l2.248-.385q-.183-1.067-.3-2.156Z" transform="translate(-0.977 3.758)" fill="#2cbe91"/>
  <path id="Trazado_1106746" data-name="Trazado 1106746" d="M15.5,8.648,14.169,6.8q-.944.679-1.843,1.417l1.449,1.761Q14.614,9.285,15.5,8.648Z" transform="translate(0.583 -0.189)" fill="#2cbe91"/>
  <path id="Trazado_1106747" data-name="Trazado 1106747" d="M22.183,5.1l-.8-2.135c-.726.272-1.449.571-2.147.887l.939,2.077q.988-.446,2.008-.829Z" transform="translate(1.549 -0.725)" fill="#2cbe91"/>
  <path id="Trazado_1106748" data-name="Trazado 1106748" d="M25.813,4.008l-.508-2.221c-.752.172-1.51.373-2.251.6l.659,2.182C24.4,4.357,25.11,4.17,25.813,4.008Z" transform="translate(2.083 -0.89)" fill="#2cbe91"/>
  <path id="Trazado_1106749" data-name="Trazado 1106749" d="M29.552,3.408l-.212-2.27c-.764.071-1.541.17-2.309.3l.364,2.251c.712-.115,1.432-.21,2.158-.276Z" transform="translate(2.639 -0.981)" fill="#2cbe91"/>
  <path id="Trazado_1106750" data-name="Trazado 1106750" d="M18.728,6.654,17.654,4.643c-.684.365-1.361.756-2.014,1.164l1.207,1.934Q17.765,7.166,18.728,6.654Z" transform="translate(1.046 -0.491)" fill="#2cbe91"/>
  <path id="Trazado_1106751" data-name="Trazado 1106751" d="M32.029,3.28c.433,0,.875.007,1.31.022l.079-2.277C32.99,1.008,32.559,1,32.13,1c-.349,0-.694,0-1.039.014l.07,2.28c.287-.009.576-.014.869-.014Z" transform="translate(3.206 -1)" fill="#2cbe91"/>
  <path id="Trazado_1106752" data-name="Trazado 1106752" d="M12.554,11.054,11,9.389c-.557.521-1.11,1.075-1.645,1.647l1.666,1.556C11.516,12.056,12.034,11.539,12.554,11.054Z" transform="translate(0.167 0.173)" fill="#2cbe91"/>
</svg>
