<svg xmlns="http://www.w3.org/2000/svg" xmlns:xlink="http://www.w3.org/1999/xlink" width="289.811" height="51.938" viewBox="0 0 289.811 51.938">
  <defs>
    <clipPath id="clip-path">
      <rect id="Rectángulo_456127" data-name="Rectángulo 456127" width="14.762" height="20.779" fill="#ffb57d"/>
    </clipPath>
  </defs>
  <g id="Grupo_1186429" data-name="Grupo 1186429" transform="translate(-415.537 -8370.813)">
    <rect id="Rectángulo_456887" data-name="Rectángulo 456887" width="266" height="40" transform="translate(439.348 8379.622)" fill="#e8f1fe"/>
    <rect id="Rectángulo_455879" data-name="Rectángulo 455879" width="21.2" height="19.679" transform="translate(437.748 8401.935)" fill="#2cbe91"/>
    <path id="Trazado_1000145" data-name="Trazado 1000145" d="M0,3.128H1.906a3.124,3.124,0,0,1,6.248,0h2.677V3.121a3.124,3.124,0,1,1,6.248.007h2.5V3.121a3.124,3.124,0,1,1,6.248.007h2.617V3.121a3.124,3.124,0,1,1,6.248.007H37.4V3.121a3.124,3.124,0,1,1,6.248.007H46.2a3.124,3.124,0,0,1,6.248,0h2.637V3.121a3.124,3.124,0,1,1,6.248.007h2.647V3.121a3.124,3.124,0,1,1,6.248.007h2.179" transform="translate(705 8422.75) rotate(180)" fill="#2079f3"/>
    <path id="Trazado_1096067" data-name="Trazado 1096067" d="M0,3.128H1.906a3.124,3.124,0,0,1,6.248,0h2.677V3.121a3.124,3.124,0,1,1,6.248.007h2.5V3.121a3.124,3.124,0,1,1,6.248.007h2.617V3.121a3.124,3.124,0,1,1,6.248.007H37.4V3.121a3.124,3.124,0,1,1,6.248.007H46.2a3.124,3.124,0,0,1,6.248,0h2.637V3.121a3.124,3.124,0,1,1,6.248.007h2.647V3.121a3.124,3.124,0,1,1,6.248.007h2.179" transform="translate(435.348 8376.494)" fill="#2079f3"/>
    <path id="Trazado_1000140" data-name="Trazado 1000140" d="M78.924,670.2c.026-.035.051-.07.074-.105l.06-.094c.023-.037.045-.075.065-.112s.035-.064.051-.1.039-.079.059-.119.03-.064.044-.1.035-.083.052-.126l.037-.094c.016-.043.03-.087.045-.13s.021-.062.031-.093.027-.09.04-.136c.008-.028.017-.056.023-.084.014-.052.026-.1.039-.154,0-.02.011-.041.015-.061.017-.07.032-.141.045-.211a3.078,3.078,0,0,0-.168-2.077,1.193,1.193,0,0,0-.188-.228,1.336,1.336,0,0,0-.969-.276c-.117,0-.237,0-.357.006h-.037l-.136.008h-.01c-.049,0-.1.009-.147.015v-.169c0-.081,0-.166,0-.239,0-.051,0-.092,0-.139,0-.068,0-.141,0-.2s0-.09-.006-.134,0-.09-.005-.124c0-.072-.008-.129-.011-.168a.145.145,0,0,0,0-.019c0-.253-.443-.485-1.181-.665-.105-.026-.217-.051-.334-.074-.352-.07-.752-.132-1.191-.18a24.039,24.039,0,0,0-4.93,0c-.44.048-.841.109-1.192.18q-.176.035-.334.074c-.738.181-1.18.412-1.18.665v.019c-.047.636-.328,5.637,2.357,7.763a.829.829,0,0,1,.354.576c0,.007,0,.014,0,.021a.377.377,0,0,0,.193.289,1.344,1.344,0,0,0,.227.126,2.519,2.519,0,0,0,.3.11,5.647,5.647,0,0,0,1.245.2q.241.015.5.015c.075,0,.149,0,.223,0h.015c.072,0,.144-.005.213-.01h.014c.07,0,.141-.01.211-.016h.007c.07-.006.141-.013.208-.021a4.768,4.768,0,0,0,.931-.193l.009,0,.066-.023.026-.01.045-.017.028-.012.039-.016.027-.013.023-.011.007,0,.005,0,.026-.013.032-.017.023-.013.029-.017.023-.014.026-.017.021-.015.009-.007.005,0,.009-.007.019-.015.02-.019.016-.015.018-.019.013-.016.015-.019.011-.016,0,0,0,0,.008-.013.009-.015a.215.215,0,0,0,.009-.022l.006-.015c0-.008,0-.016.006-.023l0-.013a.239.239,0,0,0,0-.037.214.214,0,0,0,0-.028.888.888,0,0,1,.265-.5.521.521,0,0,1,.091-.07,4.441,4.441,0,0,0,.43-.394c.044-.045.083-.094.125-.139.089-.1.174-.2.255-.307.042-.056.083-.112.124-.17.075-.108.146-.218.213-.33.033-.056.068-.11.1-.166l.035-.06a1.065,1.065,0,0,0,.482.1l.086.005h.011l.074,0h0c.047,0,.094,0,.141,0h.022a2.355,2.355,0,0,0,.285-.029c.03-.005.057-.014.086-.019.061-.013.123-.025.179-.042.035-.01.067-.023.1-.037.048-.017.1-.033.142-.054s.065-.033.1-.05.082-.043.121-.066.062-.042.092-.063.073-.051.107-.078.056-.047.083-.072.065-.059.1-.089.05-.053.075-.081.057-.064.084-.1.047-.058.067-.088m-.492-2.206a2.156,2.156,0,0,1-.069.5c-.015.061-.032.123-.051.186-.006.019-.013.039-.02.058-.014.043-.029.086-.045.128-.009.023-.02.047-.031.072s-.031.074-.049.109-.028.051-.041.075-.036.066-.056.1-.033.048-.051.072-.043.059-.066.086-.04.044-.06.065-.05.05-.077.073l-.07.055a1.011,1.011,0,0,1-.088.058q-.04.023-.082.043a1.018,1.018,0,0,1-.152.061,1.641,1.641,0,0,1-.417.03c.027-.081.047-.163.073-.244.03-.1.061-.194.088-.292s.052-.208.077-.312.048-.2.068-.295.04-.2.058-.307.037-.2.052-.293.028-.2.041-.294.027-.194.038-.288c0-.014,0-.029.006-.043l.162-.007h.086c.047,0,.094,0,.146,0h0c.42.01.53.3.532.6" transform="translate(375.624 7742.998)" fill="#1b5b5b"/>
    <rect id="Rectángulo_455873" data-name="Rectángulo 455873" width="32.811" height="31.122" transform="translate(415.537 8370.813)" fill="#ffb57d"/>
    <g id="Grupo_1183588" data-name="Grupo 1183588" transform="matrix(0.996, 0.087, -0.087, 0.996, 425.495, 8375.38)" style="mix-blend-mode: multiply;isolation: isolate">
      <g id="Grupo_1183588-2" data-name="Grupo 1183588" clip-path="url(#clip-path)">
        <path id="Trazado_1026838" data-name="Trazado 1026838" d="M14.59,13.229c-.052-.2.091-.538-.111-.737a1.113,1.113,0,0,0-.583-.238c-.127-.039-.044-.078-.036-.153a.87.87,0,0,1,.185-.488c.462-.508.044-.726-.3-1.106a.915.915,0,0,1-.182-.845,4.012,4.012,0,0,1,.315-.817c.146-.276.367-.619.168-.923a.608.608,0,0,0-.475-.261,2.3,2.3,0,0,0-.74.253.8.8,0,0,1-.454.037,2.339,2.339,0,0,0-.554-.082,2.713,2.713,0,0,1-.282.02.175.175,0,0,1-.046-.01.3.3,0,0,1-.052-.019c.035.01-.032-.011-.038-.02a.832.832,0,0,1-.094-.059c-.188-.123-.287-.427-.439-.661-.329-.424-1.074-.389-1.553-.313a3.3,3.3,0,0,1-.56.058.586.586,0,0,1-.472-.212c-.059-.093-.062-.16-.126-.268a1.132,1.132,0,0,0-.206-.2.409.409,0,0,1-.169-.246A6.623,6.623,0,0,1,7.853,5.2.747.747,0,0,0,7.2,4.386a2.2,2.2,0,0,1-.267-.06.235.235,0,0,1-.129-.343,5.713,5.713,0,0,0,.347-.626,2.694,2.694,0,0,0,.065-.57c0-.007,0-.019,0-.023a.942.942,0,0,1,.021-.092,1.887,1.887,0,0,1,.078-.218.074.074,0,0,1,.006-.013c.018-.04.036-.08.056-.119a.525.525,0,0,1,.149-.175c.1-.08.307-.2.439-.306a2.6,2.6,0,0,0,.469-.592A.555.555,0,0,1,8.741,1c.14-.037.289-.037.426-.086A.408.408,0,0,0,9.36.8C9.372.788,9.422.7,9.435.67c.159-.331.027-.54-.34-.634a.565.565,0,0,0-.629.154C8.384.285,8.33.4,8.253.5a2.5,2.5,0,0,1-.511.481,3.053,3.053,0,0,1-1.333.53c-.248.013-.566-.2-.833-.028-.122.1-.051.295-.082.383l-.007.013-.016.016-.01.007a.257.257,0,0,1-.129.025,3.6,3.6,0,0,0-.457-.053.956.956,0,0,0-.635.271,1.18,1.18,0,0,0-.218.41,1.547,1.547,0,0,0-.032.659c.052.309.022.5-.265.6a1.582,1.582,0,0,0-.937.815c-.088.211-.107.442-.18.657-.043.129-.155.272-.249.269a.085.085,0,0,1-.032-.009l.012.005a.527.527,0,0,1-.074-.042,1.448,1.448,0,0,0-.24-.17c-.216-.118-.368.054-.442.251-.063.176-.06.369-.132.542-.115.26-.427.554-.28.923a.957.957,0,0,0,.112.222c.058.074.132.135.2.2a.711.711,0,0,1,.242.539,4.246,4.246,0,0,0-.068,1.509,3.536,3.536,0,0,1,.27.708c.061.328-.189.713-.3,1.076-.054.181-.062.372-.127.55a.7.7,0,0,1-.4.418c-.338.109-.812-.028-1.017.414-.1.187.085.407.132.533a.178.178,0,0,1,0,.05c.006-.033-.006.029-.013.04.008-.027,0,.017-.014.027-.022.039-.048.076-.072.115-.168.249-.17.5.133.651.17.089.3.115.449.21.27.191.56.519.882.714a.828.828,0,0,0,.787.081,1.707,1.707,0,0,1,.267-.106.658.658,0,0,1,.416.051,9.144,9.144,0,0,0,.77.541.813.813,0,0,0,.5.048.654.654,0,0,1,.37.009.945.945,0,0,1,.436.349A4.122,4.122,0,0,1,5.4,16.5a.8.8,0,0,0,.433.444,2.4,2.4,0,0,1,.586.261.918.918,0,0,1,.441.66.854.854,0,0,0,.421.658,1.426,1.426,0,0,0,.983-.033c.262-.081.58-.285.768-.323.343-.064.348.147.659.259.227.065.5-.036.692.03a.267.267,0,0,1,.067.041c-.029-.017.025.018.033.029a.288.288,0,0,1,.034.038l.014.021a.579.579,0,0,1,.035.069c.007.025.024.089.014.053a2.068,2.068,0,0,1-.3.985.935.935,0,0,0-.166.611.156.156,0,0,0,.2.108c.121-.039.227-.126.291-.122s.121.057.2.187a.828.828,0,0,0,.18.276c.287.191.281-.646.315-.793.089-.721.238-1.543.361-2.306a1.47,1.47,0,0,0-.041-.992c-.145-.212-.37-.353-.527-.555a1.216,1.216,0,0,1-.286-1.017.306.306,0,0,1,.285-.213,1.585,1.585,0,0,0,.51-.044.561.561,0,0,0,.3-.19.224.224,0,0,0-.027-.291c-.1-.112-.333-.124-.421-.168a.568.568,0,0,1-.321-.5c.016-.192.286-.326.555-.272a4.868,4.868,0,0,0,.849.115A.912.912,0,0,0,13,13.321a2.917,2.917,0,0,1,.58-.436.051.051,0,0,0,.015-.006.634.634,0,0,1,.075-.022.342.342,0,0,1,.18,0,.323.323,0,0,1,.069.042.156.156,0,0,1,.02.02.247.247,0,0,1,.03.038,1.389,1.389,0,0,1,.182.5c.04.205.125.789.411.716.416-.137.07-.657.031-.94" transform="translate(0 0)" fill="#ffb57d"/>
        <path id="Trazado_1026839" data-name="Trazado 1026839" d="M0,0H0" transform="translate(11.038 20.666)" fill="#ffb57d"/>
        <path id="Trazado_1026840" data-name="Trazado 1026840" d="M0,0,0,.007S0,.013,0,0" transform="translate(7.319 2.447)" fill="#ffb57d"/>
      </g>
    </g>
  </g>
</svg>
