<svg id="cuchilleria" xmlns="http://www.w3.org/2000/svg" width="66.854" height="82.176" viewBox="0 0 66.854 82.176">
  <path id="Trazado_1138619" data-name="Trazado 1138619" d="M65.627,0a1.2,1.2,0,0,0-1.2,1.2V18.065H61.239V1.2a1.2,1.2,0,0,0-2.409,0V18.065H55.718V1.2a1.2,1.2,0,0,0-2.409,0V18.065H50.12V1.2a1.2,1.2,0,0,0-2.409,0V26a7.187,7.187,0,0,0,3.6,6.219l2,1.145v7.386a5.243,5.243,0,0,0-1.257,3.4v1.233a3.168,3.168,0,0,0,.691,1.978,3.167,3.167,0,0,0-.691,1.978v18.84a1.2,1.2,0,0,0,2.409,0V49.335a.775.775,0,0,1,.774-.774h4.072a.775.775,0,0,1,.774.774V76.957a2.81,2.81,0,0,1-5.62,0V73.782a1.2,1.2,0,0,0-2.409,0v3.175a5.219,5.219,0,0,0,10.437,0V49.335a3.168,3.168,0,0,0-.691-1.978,3.167,3.167,0,0,0,.691-1.978V44.145a5.246,5.246,0,0,0-1.251-3.389V33.362l1.993-1.145A7.188,7.188,0,0,0,66.831,26V1.2a1.2,1.2,0,0,0-1.2-1.2Zm-1.2,26a4.773,4.773,0,0,1-2.39,4.128l-2.6,1.492a1.2,1.2,0,0,0-.6,1.044v8.568a1.2,1.2,0,0,0,.375.873,2.785,2.785,0,0,1,.876,2.038v1.233a.775.775,0,0,1-.774.774H55.235a.775.775,0,0,1-.774-.774V44.145a2.785,2.785,0,0,1,.88-2.042,1.2,1.2,0,0,0,.377-.875V32.665a1.2,1.2,0,0,0-.605-1.045l-2.6-1.492A4.772,4.772,0,0,1,50.12,26V20.474h14.3V26Z" transform="translate(-47.711 0)" fill="#2cbe91"/>
  <path id="Trazado_1138620" data-name="Trazado 1138620" d="M238.951,119.445c0,2.45-.538,4.358-1.514,5.372a5.478,5.478,0,0,1-6.768,0c-.976-1.014-1.514-2.921-1.514-5.372a1.2,1.2,0,0,0-2.409,0c0,3.121.756,5.557,2.188,7.043a7.821,7.821,0,0,0,10.238,0c1.431-1.486,2.188-3.921,2.188-7.043a1.2,1.2,0,1,0-2.409,0Z" transform="translate(-197.998 -99.254)" fill="#2cbe91"/>
  <path id="Trazado_1138621" data-name="Trazado 1138621" d="M208.871,0c-3.273,0-6.392,2.436-8.781,6.858a29.349,29.349,0,0,0-3.343,13.333c0,6.854,2.959,11.606,8.162,13.2v7.359a5.244,5.244,0,0,0-1.257,3.4v1.233a3.167,3.167,0,0,0,.691,1.978,3.167,3.167,0,0,0-.691,1.978V76.957a5.219,5.219,0,0,0,10.437,0V59.115a1.2,1.2,0,0,0-2.409,0V76.957a2.81,2.81,0,0,1-5.62,0V49.335a.775.775,0,0,1,.774-.774h4.072a.775.775,0,0,1,.774.774v4.227a1.2,1.2,0,1,0,2.409,0V49.335a3.167,3.167,0,0,0-.691-1.978,3.167,3.167,0,0,0,.691-1.978V44.145a5.245,5.245,0,0,0-1.251-3.389V33.388c5.2-1.595,8.156-6.346,8.156-13.2a29.349,29.349,0,0,0-3.343-13.333C215.262,2.436,212.144,0,208.871,0Zm2.5,31.286a1.2,1.2,0,0,0-.942,1.175v8.772a1.2,1.2,0,0,0,.375.873,2.784,2.784,0,0,1,.876,2.038v1.233a.775.775,0,0,1-.774.774h-4.072a.775.775,0,0,1-.774-.774V44.145a2.786,2.786,0,0,1,.88-2.043,1.2,1.2,0,0,0,.377-.875V32.462a1.2,1.2,0,0,0-.942-1.176c-4.656-1.037-7.22-4.977-7.22-11.1A26.825,26.825,0,0,1,202.209,8c1.92-3.555,4.349-5.594,6.662-5.594S213.612,4.448,215.532,8a26.828,26.828,0,0,1,3.054,12.188C218.586,26.307,216.024,30.247,211.372,31.286Z" transform="translate(-172.815 0)" fill="#2cbe91"/>
  <path id="Trazado_1138622" data-name="Trazado 1138622" d="M395.025,50.568a5.244,5.244,0,0,0-1.251-3.389V17.26a1.2,1.2,0,1,0-2.409,0v30.4a1.2,1.2,0,0,0,.375.873,2.784,2.784,0,0,1,.876,2.038V51.8a.775.775,0,0,1-.774.774H387.77A.775.775,0,0,1,387,51.8V50.568a2.785,2.785,0,0,1,.88-2.042,1.2,1.2,0,0,0,.377-.875V41.977a1.2,1.2,0,0,0-1.2-1.2H384.23V12.488a10.206,10.206,0,0,1,7.135-9.758v9.03a1.2,1.2,0,1,0,2.409,0V1.2a1.2,1.2,0,0,0-1.4-1.188,12.61,12.61,0,0,0-10.548,12.471V41.977a1.2,1.2,0,0,0,1.2,1.2h2.818v3.99a5.243,5.243,0,0,0-1.257,3.4V51.8a3.168,3.168,0,0,0,.691,1.978,3.167,3.167,0,0,0-.691,1.978v21.2a5.219,5.219,0,0,0,10.437,0v-21.2a3.168,3.168,0,0,0-.691-1.978,3.167,3.167,0,0,0,.691-1.978V50.568Zm-2.409,26.389a2.81,2.81,0,0,1-5.62,0v-21.2a.775.775,0,0,1,.774-.774h4.072a.775.775,0,0,1,.774.774v21.2Z" transform="translate(-328.172 0)" fill="#2cbe91"/>
</svg>
