<svg xmlns="http://www.w3.org/2000/svg" width="84.5" height="84.5" viewBox="0 0 84.5 84.5">
  <g id="Grupo_1186836" data-name="Grupo 1186836" transform="translate(-705 -8639.394)">
    <rect id="Rectángulo_402006" data-name="Rectángulo 402006" width="84.5" height="84.5" rx="5" transform="translate(705 8639.394)" fill="#ffb8c1"/>
    <g id="alta-temperatura" transform="translate(722.341 8653.644)">
      <path id="Trazado_1138661" data-name="Trazado 1138661" d="M12.447,53.34A12.24,12.24,0,0,0,14.8,53.1a3.637,3.637,0,0,0,1.285.237H49.7A3.577,3.577,0,0,0,52.9,51.427a3.693,3.693,0,0,0-.164-3.785L35.916,22.084a3.611,3.611,0,0,0-6.045,0L22.4,33.44a12.488,12.488,0,0,0-2.845-2.756V7.112a7.112,7.112,0,1,0-14.224,0V30.685A12.446,12.446,0,0,0,12.447,53.34Zm0-5.334a7.112,7.112,0,0,1-2.372-13.812.889.889,0,0,0,.594-.838V32h.889a.889.889,0,1,0,0-1.778h-.889V26.67h.889a.889.889,0,0,0,0-1.778h-.889V21.336h.889a.889.889,0,0,0,0-1.778h-.889V16h.889a.889.889,0,0,0,0-1.778h-.889V10.668h3.556V33.355a.889.889,0,0,0,.595.838A7.068,7.068,0,0,1,19.1,38.45l-6.045,9.192a3.512,3.512,0,0,0-.2.351C12.73,48,12.6,48.006,12.447,48.006ZM14.225,8.89H10.669V7.112a1.778,1.778,0,1,1,3.556,0Zm17.13,14.171a1.833,1.833,0,0,1,3.077,0L51.243,48.619a1.89,1.89,0,0,1,.084,1.964,1.822,1.822,0,0,1-1.623.979H16.083a1.822,1.822,0,0,1-1.623-.978,1.89,1.89,0,0,1,.089-1.964ZM6.7,31.908a.889.889,0,0,0,.41-.749V7.112a5.334,5.334,0,1,1,10.668,0V31.159a.889.889,0,0,0,.41.749,10.712,10.712,0,0,1,3.146,3.143L20.26,36.687A8.863,8.863,0,0,0,16,32.75V7.112a3.556,3.556,0,1,0-7.112,0V32.75a8.89,8.89,0,0,0,3.556,17.034h.013a3.685,3.685,0,0,0,.434,1.644c.02.037.046.07.068.107-.172.008-.337.028-.515.028A10.668,10.668,0,0,1,6.7,31.908Z" fill="#cc3e50"/>
      <path id="Trazado_1138662" data-name="Trazado 1138662" d="M36.667,45.224a2.667,2.667,0,0,0,2.667-2.667v-8.89a2.667,2.667,0,0,0-5.334,0v8.89A2.667,2.667,0,0,0,36.667,45.224Zm-.889-11.557a.889.889,0,0,1,1.778,0v8.89a.889.889,0,0,1-1.778,0Z" transform="translate(-3.773 -3.441)" fill="#cc3e50"/>
      <path id="Trazado_1138663" data-name="Trazado 1138663" d="M36.667,54.334A2.667,2.667,0,1,0,34,51.667,2.667,2.667,0,0,0,36.667,54.334Zm0-3.556a.889.889,0,1,1-.889.889A.889.889,0,0,1,36.667,50.778Z" transform="translate(-3.773 -5.439)" fill="#cc3e50"/>
    </g>
  </g>
</svg>
