<svg xmlns="http://www.w3.org/2000/svg" width="104" height="104" viewBox="0 0 104 104">
  <g id="Grupo_1187010" data-name="Grupo 1187010" transform="translate(-4589.653 -612)">
    <g id="Rectángulo_457413" data-name="Rectángulo 457413" transform="translate(4589.653 612)" fill="none" stroke="#e6d062" stroke-width="2">
      <rect width="104" height="104" rx="52" stroke="none"/>
      <rect x="1" y="1" width="102" height="102" rx="51" fill="none"/>
    </g>
    <path id="tabla-de-madera" d="M51.924,15.845,36.565.486a1.667,1.667,0,0,0-2.355,0L8.3,26.4a.768.768,0,0,0,1.086,1.086L19.419,17.45c-3.968,9.668-8.251,15.043-15.783,20.094L1.572,35.48a.13.13,0,0,1,0-.183l5.271-5.271A.768.768,0,0,0,5.757,28.94L.486,34.211a1.667,1.667,0,0,0,0,2.355L15.845,51.924a1.667,1.667,0,0,0,2.355,0L44.792,25.331a.768.768,0,0,0-1.086-1.086L17.114,50.838a.13.13,0,0,1-.183,0l-3.322-3.322A26.745,26.745,0,0,1,17,38.653c2.212-3.289,5.585-5.57,10.312-6.972C35.9,29.135,39.278,25.6,42.26,22.475c2.285-2.392,4.269-4.469,8.24-5.882l.338.338a.13.13,0,0,1,0,.183l-4.6,4.6A.768.768,0,0,0,47.325,22.8l4.6-4.6a1.667,1.667,0,0,0,0-2.355ZM39.268,5.361C37.038,6.39,36.689,8.1,36.4,9.515a6.3,6.3,0,0,1-.414,1.465,2.257,2.257,0,0,1-2.064,1.468c-.756-.087-1.048-.881-1.154-1.347-.453-1.979,2.413-4.835,5.434-6.8ZM35.3,1.572a.13.13,0,0,1,.183,0L37.1,3.191c-2.1,1.416-6.594,4.9-5.825,8.254a2.98,2.98,0,0,0,2.476,2.53,3.772,3.772,0,0,0,3.619-2.321,7.51,7.51,0,0,0,.539-1.832c.292-1.439.526-2.595,2.54-3.28l1.025,1.025c-1.625,1.15-2.505,3.384-3.121,4.949-.171.434-.319.809-.453,1.093-.882,1.854-2.786,3.454-5.821,4.892-1.558.738-5.009,1.781-6.054,1.141a.519.519,0,0,1-.244-.5c-.014-.458.437-.863,1.126-1.428.216-.177.439-.36.645-.555,1.385-1.305,2.058-3.365,2-6.121-.01-.5-.04-1.024-.072-1.576-.038-.654-.074-1.326-.08-1.993Zm-13.18,13.18,5.8-5.8q.016.3.033.6c.031.538.06,1.045.07,1.519.048,2.3-.463,3.978-1.519,4.973-.168.158-.361.317-.566.484a3.462,3.462,0,0,0-1.687,2.661,2.027,2.027,0,0,0,.977,1.764,3.42,3.42,0,0,0,1.809.423,10.149,10.149,0,0,0,2.358-.333,19.7,19.7,0,0,0,3.346-1.153c3.367-1.6,5.509-3.433,6.55-5.62.158-.331.314-.729.5-1.19.576-1.463,1.42-3.606,2.8-4.4l2.04,2.04c-1.71.856-2.611,2.334-3.626,4C38.859,18.23,35.93,23.04,23.17,27.075c-7.309,2.311-9.224,6.15-11.252,10.213A33.331,33.331,0,0,1,8.77,42.677L4.742,38.649c8.476-5.742,12.936-11.912,17.375-23.9Zm19.033,6.663c-2.988,3.129-6.079,6.365-14.269,8.794C21.8,31.717,18.15,34.2,15.731,37.8a25.922,25.922,0,0,0-3.391,8.452L9.866,43.773a33.847,33.847,0,0,0,3.427-5.8c2.041-4.089,3.652-7.319,10.341-9.435C29.5,26.685,33.9,24.491,37.1,21.833a22.868,22.868,0,0,0,5.211-6.316c1.1-1.8,1.848-3.032,3.481-3.633L49.308,15.4C45.433,16.931,43.346,19.115,41.149,21.415Z" transform="translate(4615.448 637.795)" fill="#e6d062"/>
  </g>
</svg>
