<svg xmlns="http://www.w3.org/2000/svg" width="86.305" height="119.856" viewBox="0 0 86.305 119.856">
  <g id="bote-de-basura" transform="translate(-71.662)">
    <path id="Trazado_1138692" data-name="Trazado 1138692" d="M153.311,29.531h-1.218l-5.287-24.67A6.181,6.181,0,0,0,140.794,0H111.069a1.756,1.756,0,1,0,0,3.511h19.656V13.647a3.231,3.231,0,0,1-3.228,3.228H102.132A3.231,3.231,0,0,1,98.9,13.647V3.511h4.081a1.756,1.756,0,1,0,0-3.511H88.835a6.181,6.181,0,0,0-6.013,4.861l-5.286,24.67H76.318a4.662,4.662,0,0,0-4.656,4.656v8.452A4.661,4.661,0,0,0,76.318,47.3h.214l4.652,62.921a10.45,10.45,0,0,0,10.379,9.64h46.5a10.45,10.45,0,0,0,10.379-9.64L152.6,54.053a1.756,1.756,0,1,0-3.5-.259l-4.153,56.162a6.924,6.924,0,0,1-6.877,6.388h-46.5a6.924,6.924,0,0,1-6.877-6.388L80.054,47.3h73.257a4.662,4.662,0,0,0,4.656-4.656V34.187A4.662,4.662,0,0,0,153.311,29.531ZM86.256,5.6a2.651,2.651,0,0,1,2.579-2.085h6.558V13.647a6.747,6.747,0,0,0,6.739,6.739H127.5a6.747,6.747,0,0,0,6.739-6.739V3.511h6.558A2.652,2.652,0,0,1,143.373,5.6L148.5,29.531H81.127Zm68.2,37.043a1.146,1.146,0,0,1-1.145,1.145H76.318a1.146,1.146,0,0,1-1.145-1.145V34.188a1.146,1.146,0,0,1,1.145-1.145h76.993a1.146,1.146,0,0,1,1.145,1.145v8.451Z" fill="#2079f3"/>
    <path id="Trazado_1138693" data-name="Trazado 1138693" d="M191.194,320.755a3.866,3.866,0,0,0,3.362,1.922,1.756,1.756,0,0,0,0-3.511.39.39,0,0,1-.341-.58l4.927-8.876.376,1.4a1.756,1.756,0,1,0,3.392-.909l-1.5-5.6a1.774,1.774,0,0,0-2.15-1.241l-5.6,1.5a1.756,1.756,0,1,0,.909,3.392l1.6-.428-5.025,9.053a3.866,3.866,0,0,0,.049,3.873Z" transform="translate(-91.133 -232.305)" fill="#2079f3"/>
    <path id="Trazado_1138694" data-name="Trazado 1138694" d="M255.9,359.238a3.866,3.866,0,0,0,.049-3.873,1.756,1.756,0,1,0-3.07,1.7.39.39,0,0,1-.341.58H242.6l1.1-1.1a1.756,1.756,0,0,0-2.483-2.483l-4.1,4.1a1.777,1.777,0,0,0,0,2.483l4.1,4.1a1.756,1.756,0,0,0,2.483-2.483l-1.1-1.1h9.944a3.867,3.867,0,0,0,3.363-1.923Z" transform="translate(-126.335 -270.788)" fill="#2079f3"/>
    <path id="Trazado_1138695" data-name="Trazado 1138695" d="M255.82,274.952a1.756,1.756,0,0,0-2.15,1.241l-.376,1.4L247.526,267.2a3.945,3.945,0,0,0-6.823,0,1.756,1.756,0,0,0,3.07,1.7.39.39,0,0,1,.683,0l5.866,10.568-1.6-.428a1.756,1.756,0,1,0-.909,3.392l5.6,1.5a1.771,1.771,0,0,0,2.151-1.241l1.5-5.6A1.755,1.755,0,0,0,255.82,274.952Z" transform="translate(-129.3 -203.149)" fill="#2079f3"/>
    <path id="Trazado_1138696" data-name="Trazado 1138696" d="M156.661,265.025a1.756,1.756,0,0,0-1.756,1.756v9.813a7.526,7.526,0,0,0,7.517,7.517h32.3a7.526,7.526,0,0,0,7.517-7.517V244.3a7.526,7.526,0,0,0-7.517-7.517h-32.3A7.526,7.526,0,0,0,154.9,244.3V258.6a1.756,1.756,0,0,0,3.511,0V244.3a4.01,4.01,0,0,1,4.006-4.006h32.3a4.011,4.011,0,0,1,4.006,4.006v32.3a4.01,4.01,0,0,1-4.006,4.006h-32.3a4.011,4.011,0,0,1-4.006-4.006v-9.813A1.756,1.756,0,0,0,156.661,265.025Z" transform="translate(-63.756 -181.351)" fill="#2079f3"/>
  </g>
</svg>
