<svg xmlns="http://www.w3.org/2000/svg" width="104" height="104" viewBox="0 0 104 104">
  <g id="Grupo_1187011" data-name="Grupo 1187011" transform="translate(-4469.653 -612)">
    <g id="Rectángulo_457411" data-name="Rectángulo 457411" transform="translate(4469.653 612)" fill="none" stroke="#e6d062" stroke-width="2">
      <rect width="104" height="104" rx="52" stroke="none"/>
      <rect x="1" y="1" width="102" height="102" rx="51" fill="none"/>
    </g>
    <g id="aluminio" transform="translate(4495.447 637.794)">
      <g id="Grupo_1186989" data-name="Grupo 1186989">
        <path id="Trazado_1138664" data-name="Trazado 1138664" d="M46.014,52.411H6.4a6.405,6.405,0,0,1-6.4-6.4V24.861a.768.768,0,0,1,1.535,0V46.013A4.868,4.868,0,0,0,6.4,50.876H46.014a4.868,4.868,0,0,0,4.862-4.862V6.4a4.868,4.868,0,0,0-4.862-4.862H6.4A4.868,4.868,0,0,0,1.535,6.4V21.79A.768.768,0,0,1,0,21.79V6.4A6.405,6.405,0,0,1,6.4,0H46.014a6.405,6.405,0,0,1,6.4,6.4V46.013A6.405,6.405,0,0,1,46.014,52.411Z" fill="#e6d062"/>
      </g>
      <g id="Grupo_1186990" data-name="Grupo 1186990" transform="translate(4.997 4.997)">
        <path id="Trazado_1138665" data-name="Trazado 1138665" d="M88.926,91.229H51.114a2.306,2.306,0,0,1-2.3-2.3V51.114a2.306,2.306,0,0,1,2.3-2.3H88.926a2.306,2.306,0,0,1,2.3,2.3V79.795a.768.768,0,1,1-1.535,0V51.114a.769.769,0,0,0-.768-.768H51.114a.769.769,0,0,0-.768.768V88.926a.769.769,0,0,0,.768.768H88.926a.769.769,0,0,0,.768-.768v-6.06a.768.768,0,1,1,1.535,0v6.06A2.306,2.306,0,0,1,88.926,91.229Z" transform="translate(-48.811 -48.811)" fill="#e6d062"/>
      </g>
      <g id="Grupo_1186991" data-name="Grupo 1186991" transform="translate(11.058 11.782)">
        <path id="Trazado_1138666" data-name="Trazado 1138666" d="M115.486,116.633H108.8a.768.768,0,0,1,0-1.535h6.691a.768.768,0,0,1,0,1.535Z" transform="translate(-108.028 -115.098)" fill="#e6d062"/>
      </g>
      <g id="Grupo_1186992" data-name="Grupo 1186992" transform="translate(11.058 40.352)">
        <path id="Trazado_1138667" data-name="Trazado 1138667" d="M110.844,395.725H108.8a.768.768,0,0,1,0-1.536h2.048a.768.768,0,0,1,0,1.536Z" transform="translate(-108.028 -394.189)" fill="#e6d062"/>
      </g>
      <g id="Grupo_1186993" data-name="Grupo 1186993" transform="translate(11.058 15.504)">
        <path id="Trazado_1138668" data-name="Trazado 1138668" d="M110.844,152.989H108.8a.768.768,0,1,1,0-1.535h2.048a.768.768,0,1,1,0,1.535Z" transform="translate(-108.028 -151.454)" fill="#e6d062"/>
      </g>
      <g id="Grupo_1186994" data-name="Grupo 1186994" transform="translate(31.654 10.586)">
        <path id="Trazado_1138669" data-name="Trazado 1138669" d="M311.35,111.294a.768.768,0,0,1-.768-.768v-5.573h-.588a.768.768,0,1,1,0-1.535h1.355a.768.768,0,0,1,.768.768v6.341A.768.768,0,0,1,311.35,111.294Z" transform="translate(-309.227 -103.417)" fill="#e6d062"/>
      </g>
      <g id="Grupo_1186995" data-name="Grupo 1186995" transform="translate(18.644 21.215)">
        <path id="Trazado_1138670" data-name="Trazado 1138670" d="M193.889,220.755l-4.841-12.829-.008-.021a1.059,1.059,0,0,0-.983-.658h0a1.059,1.059,0,0,0-.983.66l-.007.018-4.886,12.828a.768.768,0,1,0,1.435.546l1.029-2.7h6.79l1.018,2.7a.768.768,0,0,0,1.437-.542Zm-8.66-3.692,2.826-7.42,2.8,7.42Z" transform="translate(-182.13 -207.247)" fill="#e6d062"/>
      </g>
      <g id="Grupo_1186996" data-name="Grupo 1186996" transform="translate(32.232 22.028)">
        <path id="Trazado_1138671" data-name="Trazado 1138671" d="M315.635,228.924a.768.768,0,0,1-.768-.768v-12.2a.768.768,0,0,1,1.535,0v12.2A.768.768,0,0,1,315.635,228.924Z" transform="translate(-314.867 -215.19)" fill="#e6d062"/>
      </g>
      <path id="Trazado_1138672" data-name="Trazado 1138672" d="M359.467,105.221a2.388,2.388,0,0,0-4.731-.462.768.768,0,1,0,1.507.3.853.853,0,1,1,.837,1.019.768.768,0,0,0,0,1.535.852.852,0,1,1-.844.972.872.872,0,0,1-.008-.12.768.768,0,0,0-1.536,0,2.388,2.388,0,1,0,4.14-1.62A2.379,2.379,0,0,0,359.467,105.221Z" transform="translate(-318.383 -92.306)" fill="#e6d062"/>
    </g>
  </g>
</svg>
