<svg id="bateria-de-cocina" xmlns="http://www.w3.org/2000/svg" width="74.775" height="74.775" viewBox="0 0 74.775 74.775">
  <path id="Trazado_1138608" data-name="Trazado 1138608" d="M31.546,44H1.168A1.168,1.168,0,0,0,0,45.168v3.505a4.622,4.622,0,0,0,.7,2.435,1.168,1.168,0,0,0-.7,1.07v3.505a4.622,4.622,0,0,0,.7,2.435,1.168,1.168,0,0,0-.7,1.07v3.505a4.678,4.678,0,0,0,4.673,4.673H28.041a4.678,4.678,0,0,0,4.673-4.673V59.189a1.168,1.168,0,0,0-.7-1.07,4.622,4.622,0,0,0,.7-2.435V52.178a1.168,1.168,0,0,0-.7-1.07,4.622,4.622,0,0,0,.7-2.435V45.168A1.168,1.168,0,0,0,31.546,44ZM2.337,46.337H30.377v2.337a2.339,2.339,0,0,1-2.337,2.337H4.673a2.339,2.339,0,0,1-2.337-2.337Zm28.041,7.01v2.337a2.339,2.339,0,0,1-2.337,2.337H4.673a2.339,2.339,0,0,1-2.337-2.337V53.347H30.377Zm0,9.347a2.339,2.339,0,0,1-2.337,2.337H4.673a2.339,2.339,0,0,1-2.337-2.337V60.357H30.377Z" transform="translate(0 7.408)" fill="#2cbe91"/>
  <path id="Trazado_1138609" data-name="Trazado 1138609" d="M14.02,46.734A14.011,14.011,0,0,0,18.651,19.5a3.916,3.916,0,0,0-.861-1.924,4.309,4.309,0,0,1-.4-.591c-.674-1.282.48-7.5.916-9.847a19.342,19.342,0,0,0,.386-2.461,4.673,4.673,0,0,0-9.347,0,19.215,19.215,0,0,0,.387,2.461c.435,2.343,1.59,8.565.916,9.847a4.5,4.5,0,0,1-.4.591A3.911,3.911,0,0,0,9.39,19.5a14.011,14.011,0,0,0,4.63,27.238ZM12.032,6.708c-.159-.855-.339-1.825-.348-2.034a2.337,2.337,0,0,1,4.673-.012c-.009.221-.189,1.191-.348,2.046-.916,4.934-1.657,9.516-.686,11.362a5.581,5.581,0,0,0,.486.751,14.135,14.135,0,0,0-1.789-.127,14.355,14.355,0,0,0-1.789.126,5.7,5.7,0,0,0,.486-.751c.971-1.845.23-6.427-.686-11.361ZM14.02,21.03A11.684,11.684,0,1,1,2.337,32.714,11.7,11.7,0,0,1,14.02,21.03Z" transform="translate(0 0)" fill="#2cbe91"/>
  <path id="Trazado_1138610" data-name="Trazado 1138610" d="M12.168,5.335a1.157,1.157,0,0,0,1.168-1.168A1.226,1.226,0,0,0,13,3.337a1.223,1.223,0,0,0-1.659,0,1.229,1.229,0,0,0-.339.83,1.211,1.211,0,0,0,.339.83A1.229,1.229,0,0,0,12.168,5.335Z" transform="translate(1.852 0.507)" fill="#2cbe91"/>
  <path id="Trazado_1138611" data-name="Trazado 1138611" d="M13.347,38.694A9.337,9.337,0,0,0,21.007,24a1.168,1.168,0,0,0-1.915,1.339,7,7,0,1,1-5.745-3.006,1.168,1.168,0,1,0,0-2.337,9.347,9.347,0,1,0,0,18.694Z" transform="translate(0.673 3.367)" fill="#2cbe91"/>
  <path id="Trazado_1138612" data-name="Trazado 1138612" d="M15.168,23.335A1.229,1.229,0,0,0,16,23a1.207,1.207,0,0,0,.339-.83,1.168,1.168,0,1,0-2.337,0,1.207,1.207,0,0,0,.339.83A1.229,1.229,0,0,0,15.168,23.335Z" transform="translate(2.357 3.538)" fill="#2cbe91"/>
  <path id="Trazado_1138613" data-name="Trazado 1138613" d="M69.382,48.194a1.167,1.167,0,0,0-1.652,0l-1.994,1.994H63.882V47.852a1.168,1.168,0,0,0,1.168-1.168V43.178a4.678,4.678,0,0,0-4.673-4.673H51.031V37.337H52.2A1.168,1.168,0,1,0,52.2,35H47.525a1.168,1.168,0,1,0,0,2.337h1.168v1.168H39.347a4.678,4.678,0,0,0-4.673,4.673v3.505a1.168,1.168,0,0,0,1.168,1.168v2.337H33.989l-1.994-1.994a1.168,1.168,0,1,0-1.652,1.652l2.337,2.337a1.165,1.165,0,0,0,.826.342h2.337v9.347a7.017,7.017,0,0,0,7.01,7.01h14.02a7.017,7.017,0,0,0,7.01-7.01V52.525h2.337a1.167,1.167,0,0,0,.826-.342l2.337-2.337A1.167,1.167,0,0,0,69.382,48.194ZM37.01,43.178a2.339,2.339,0,0,1,2.337-2.337h21.03a2.339,2.339,0,0,1,2.337,2.337v2.337H37.01ZM56.872,66.546H42.852a4.678,4.678,0,0,1-4.673-4.673V47.852H61.546V59.535H56.872a1.168,1.168,0,1,0,0,2.337h4.673A4.678,4.678,0,0,1,56.872,66.546Z" transform="translate(5.051 5.892)" fill="#2cbe91"/>
  <path id="Trazado_1138614" data-name="Trazado 1138614" d="M48.339,56.337a1.185,1.185,0,0,0,0,1.659,1.207,1.207,0,0,0,.83.339A1.229,1.229,0,0,0,50,58a1.185,1.185,0,0,0,0-1.659A1.223,1.223,0,0,0,48.339,56.337Z" transform="translate(8.081 9.43)" fill="#2cbe91"/>
  <path id="Trazado_1138615" data-name="Trazado 1138615" d="M36.168,5.335A1.229,1.229,0,0,0,37,5a1.207,1.207,0,0,0,.339-.83A1.226,1.226,0,0,0,37,3.337a1.223,1.223,0,0,0-1.659,0,1.229,1.229,0,0,0-.339.83,1.211,1.211,0,0,0,.339.83A1.229,1.229,0,0,0,36.168,5.335Z" transform="translate(5.893 0.507)" fill="#2cbe91"/>
  <path id="Trazado_1138616" data-name="Trazado 1138616" d="M56.168,5.335A1.229,1.229,0,0,0,57,5a1.185,1.185,0,0,0,0-1.659,1.223,1.223,0,0,0-1.659,0,1.229,1.229,0,0,0-.339.83,1.157,1.157,0,0,0,1.168,1.168Z" transform="translate(9.26 0.507)" fill="#2cbe91"/>
  <path id="Trazado_1138617" data-name="Trazado 1138617" d="M52.505,38.556h9.347a3.509,3.509,0,0,0,3.505-3.505V24.535c0-2.15-1.99-2.973-3.059-3.416a2.257,2.257,0,0,1-1.615-2.426V10.515a22.985,22.985,0,0,1,.535-2.551,18.12,18.12,0,0,0,.633-3.291,4.673,4.673,0,0,0-9.347,0,18.121,18.121,0,0,0,.633,3.291,22.985,22.985,0,0,1,.535,2.551v8.178c0,1.765-.9,2.241-1.437,2.367C50.21,21.541,49,22.839,49,24.535V35.051A3.509,3.509,0,0,0,52.505,38.556Zm-1.168-14.02c0-.749.9-1.073,1.436-1.2,1.566-.37,3.238-1.784,3.238-4.643V10.515a17.145,17.145,0,0,0-.6-3.1,23.142,23.142,0,0,1-.568-2.744,2.337,2.337,0,0,1,4.673,0,23.384,23.384,0,0,1-.568,2.744,17.145,17.145,0,0,0-.6,3.1v8.178A4.552,4.552,0,0,0,61.4,23.278c1.238.513,1.616.806,1.616,1.257V35.051a1.17,1.17,0,0,1-1.168,1.168H52.505a1.17,1.17,0,0,1-1.168-1.168Z" transform="translate(8.25 0)" fill="#2cbe91"/>
  <path id="Trazado_1138618" data-name="Trazado 1138618" d="M37.179,38.556c4.51,0,8.179-4.193,8.179-9.347,0-1.937-1.865-3.525-4.673-4.249V10.515a22.985,22.985,0,0,1,.535-2.551,18.12,18.12,0,0,0,.633-3.291,4.673,4.673,0,0,0-9.347,0,18.121,18.121,0,0,0,.633,3.291,22.985,22.985,0,0,1,.535,2.551V24.96C30.865,25.684,29,27.272,29,29.209,29,34.363,32.669,38.556,37.179,38.556Zm0-2.337a5.687,5.687,0,0,1-4.912-3.229,12.891,12.891,0,0,0,4.912.893,12.891,12.891,0,0,0,4.912-.893A5.685,5.685,0,0,1,37.179,36.219ZM35.41,7.418a23.142,23.142,0,0,1-.568-2.744,2.337,2.337,0,0,1,4.673,0,23.142,23.142,0,0,1-.568,2.744,17.145,17.145,0,0,0-.6,3.1V24.585c-.381-.028-.769-.049-1.168-.049s-.787.021-1.168.049V10.515a17.145,17.145,0,0,0-.6-3.1Zm1.769,19.454c3.566,0,5.842,1.385,5.842,2.337s-2.276,2.337-5.842,2.337-5.842-1.385-5.842-2.337S33.613,26.872,37.179,26.872Z" transform="translate(4.882 0)" fill="#2cbe91"/>
</svg>
