<svg id="horneando" xmlns="http://www.w3.org/2000/svg" width="75.341" height="75.341" viewBox="0 0 75.341 75.341">
  <path id="Trazado_1138623" data-name="Trazado 1138623" d="M76.044,64.943l-25-25L35.353,11.834A17.276,17.276,0,1,0,12.028,35.447L39.939,51.036l25,25a7.848,7.848,0,1,0,11.1-11.1ZM43.634,44.905c-4.489-3.532-8.724-6.665-12.485-9.433C17.783,25.631,9.514,19.537,10.544,10.547c9-1.008,15.084,7.242,24.929,20.606,2.769,3.761,5.9,8,9.433,12.482ZM32.707,13.56l15.15,27.123-.719.719C43.732,37.061,40.693,32.948,38,29.291,29.184,17.321,22.846,8.76,14.32,7.5a13.987,13.987,0,0,1,5.946-1.356A14.242,14.242,0,0,1,32.707,13.56ZM6.139,20.266A13.959,13.959,0,0,1,7.5,14.326C8.76,22.856,17.321,29.187,29.288,38c3.657,2.693,7.77,5.735,12.111,9.141l-.716.716L13.378,32.619A14.194,14.194,0,0,1,6.139,20.266ZM49.818,43.16l4.059,4.059-6.658,6.658L43.16,49.818ZM70.493,75.2a4.573,4.573,0,0,1-3.3-1.378C65.414,72,73.755,80.375,49.439,56.1L56.1,49.438c.951.954,18.051,18.076,17.727,17.752a4.573,4.573,0,0,1,1.378,3.3A4.715,4.715,0,0,1,70.493,75.2Z" transform="translate(-3 -3)" fill="#2cbe91"/>
  <ellipse id="Elipse_11492" data-name="Elipse 11492" cx="1.5" cy="2" rx="1.5" ry="2" transform="translate(65.483 65.509)" fill="#2cbe91"/>
  <path id="Trazado_1138624" data-name="Trazado 1138624" d="M19.2,22.947l6.737-6.74L36.269,26.544,26.393,36.42a1.569,1.569,0,0,0,2.219,2.219L39.6,27.652a1.571,1.571,0,0,0,0-2.219l-2.515-2.515,10.206-8.893a6.2,6.2,0,0,0,2.185-4.746A6.285,6.285,0,0,0,43.2,3a6.184,6.184,0,0,0-4.731,2.169L29.558,15.394l-2.515-2.515a1.571,1.571,0,0,0-2.219,0l-7.848,7.848A1.569,1.569,0,0,0,19.2,22.947ZM40.85,7.216A3.057,3.057,0,0,1,43.2,6.139a3.144,3.144,0,0,1,3.139,3.139,3.069,3.069,0,0,1-1.1,2.364l-10.385,9.05-3.073-3.073Z" transform="translate(25.865 -3)" fill="#2cbe91"/>
  <path id="Trazado_1138625" data-name="Trazado 1138625" d="M36.42,26.39l-9.876,9.879L16.207,25.932,22.944,19.2a1.569,1.569,0,0,0-2.219-2.219l-7.848,7.848a1.571,1.571,0,0,0,0,2.219l2.515,2.515L5.185,38.451A6.2,6.2,0,0,0,3,43.2a6.285,6.285,0,0,0,6.278,6.278,6.184,6.184,0,0,0,4.731-2.169l8.909-10.224L25.433,39.6a1.571,1.571,0,0,0,2.219,0L38.64,28.61A1.569,1.569,0,0,0,36.42,26.39ZM11.627,45.26a3.057,3.057,0,0,1-2.348,1.077A3.144,3.144,0,0,1,6.139,43.2a3.069,3.069,0,0,1,1.1-2.364l10.385-9.05,3.073,3.073Z" transform="translate(-3 25.865)" fill="#2cbe91"/>
</svg>
