<svg id="Out_line" data-name="Out line" xmlns="http://www.w3.org/2000/svg" width="62.946" height="77.077" viewBox="0 0 62.946 77.077">
  <path id="Trazado_1138636" data-name="Trazado 1138636" d="M126.943,91.678,121.8,33.87a1.285,1.285,0,0,0-1.28-1.171h-3.854V28.846A12.861,12.861,0,0,0,103.825,16H88.409A11.575,11.575,0,0,0,76.848,27.561V32.7H71.709a1.285,1.285,0,0,0-1.277,1.143L64.01,91.651a1.286,1.286,0,0,0,1.277,1.426h60.377a1.286,1.286,0,0,0,1.28-1.4Zm-7.594-56.409.456,5.138H104.4l.572-5.138Zm-15.525-16.7A10.288,10.288,0,0,1,114.1,28.846V32.7h-5.138V28.846a12.834,12.834,0,0,0-5.146-10.277Zm-7.708,0a10.288,10.288,0,0,1,10.277,10.277V32.7H87.125V27.561a9,9,0,0,1,8.992-8.992Zm-16.7,8.992a9,9,0,0,1,8.992-8.992h.448a11.546,11.546,0,0,0-4.3,8.992V32.7H79.417Zm-6.558,7.708h29.53l-.57,5.138H72.288ZM66.722,90.507,72,42.977h29.53l-5.281,47.53Zm32.115,0,5.281-47.53h15.916l4.225,47.53Z" transform="translate(-64.002 -16)" fill="#2cbe91"/>
  <path id="Trazado_1138637" data-name="Trazado 1138637" d="M325.175,218.158h7.237a3.116,3.116,0,0,0,3.074-3.628l-.168-1.006a3.118,3.118,0,0,0-5.178-1.788h-2.693a3.118,3.118,0,0,0-5.178,1.788l-.167,1.006a3.116,3.116,0,0,0,3.074,3.628Zm-.539-3.206.168-1.006a.52.52,0,0,1,.425-.445.626.626,0,0,1,.13-.014.509.509,0,0,1,.44.245,1.284,1.284,0,0,0,1.069.572h3.854a1.284,1.284,0,0,0,1.069-.572.547.547,0,0,1,.995.213l.168,1.006a.547.547,0,0,1-.54.637h-7.237a.547.547,0,0,1-.539-.637Z" transform="translate(-280.621 -179.619)" fill="#2cbe91"/>
  <path id="Trazado_1138638" data-name="Trazado 1138638" d="M327.468,306.98a3.1,3.1,0,0,0-2.758.746h-5.263a3.118,3.118,0,0,0-5.178,1.788l-.167,1.006a3.116,3.116,0,0,0,3.074,3.628h9.806a3.116,3.116,0,0,0,3.074-3.628l-.168-1.006A3.1,3.1,0,0,0,327.468,306.98Zm-.069,4.407a.54.54,0,0,1-.418.193h-9.806a.547.547,0,0,1-.539-.637l.168-1.006a.52.52,0,0,1,.425-.445.625.625,0,0,1,.13-.014.509.509,0,0,1,.44.245,1.285,1.285,0,0,0,1.069.572h6.423a1.285,1.285,0,0,0,1.069-.572.547.547,0,0,1,.995.213l.168,1.006a.54.54,0,0,1-.122.443Z" transform="translate(-273.906 -260.196)" fill="#2cbe91"/>
  <path id="Trazado_1138639" data-name="Trazado 1138639" d="M329.888,405.523a3.118,3.118,0,0,0-5.178-1.788h-5.263a3.118,3.118,0,0,0-5.178,1.788l-.167,1.006a3.116,3.116,0,0,0,3.074,3.628h9.806a3.116,3.116,0,0,0,3.074-3.628Zm-2.489,1.872a.54.54,0,0,1-.417.193h-9.806a.547.547,0,0,1-.539-.637l.168-1.006a.52.52,0,0,1,.425-.445.629.629,0,0,1,.13-.014.509.509,0,0,1,.44.245,1.285,1.285,0,0,0,1.069.572h6.423a1.285,1.285,0,0,0,1.069-.572.547.547,0,0,1,.995.213l.168,1.006a.54.54,0,0,1-.122.443Z" transform="translate(-273.906 -340.789)" fill="#2cbe91"/>
  <path id="Trazado_1138640" data-name="Trazado 1138640" d="M123.854,215.708A3.854,3.854,0,1,0,120,211.854,3.854,3.854,0,0,0,123.854,215.708Zm0-5.138a1.285,1.285,0,1,1-1.285,1.285A1.285,1.285,0,0,1,123.854,210.569Z" transform="translate(-111.008 -177.169)" fill="#2cbe91"/>
  <path id="Trazado_1138641" data-name="Trazado 1138641" d="M179.854,215.708A3.854,3.854,0,1,0,176,211.854,3.854,3.854,0,0,0,179.854,215.708Zm0-5.138a1.285,1.285,0,1,1-1.285,1.285A1.285,1.285,0,0,1,179.854,210.569Z" transform="translate(-158.016 -177.169)" fill="#2cbe91"/>
  <path id="Trazado_1138642" data-name="Trazado 1138642" d="M235.854,208a3.854,3.854,0,1,0,3.854,3.854A3.854,3.854,0,0,0,235.854,208Zm0,5.138a1.285,1.285,0,1,1,1.285-1.285A1.285,1.285,0,0,1,235.854,213.138Z" transform="translate(-205.023 -177.169)" fill="#2cbe91"/>
  <path id="Trazado_1138643" data-name="Trazado 1138643" d="M115.854,279.708A3.854,3.854,0,1,0,112,275.854,3.854,3.854,0,0,0,115.854,279.708Zm0-5.138a1.285,1.285,0,1,1-1.285,1.285A1.285,1.285,0,0,1,115.854,274.569Z" transform="translate(-104.293 -230.893)" fill="#2cbe91"/>
  <path id="Trazado_1138644" data-name="Trazado 1138644" d="M171.854,279.708A3.854,3.854,0,1,0,168,275.854,3.854,3.854,0,0,0,171.854,279.708Zm0-5.138a1.285,1.285,0,1,1-1.285,1.285A1.285,1.285,0,0,1,171.854,274.569Z" transform="translate(-151.3 -230.893)" fill="#2cbe91"/>
  <path id="Trazado_1138645" data-name="Trazado 1138645" d="M227.854,272a3.854,3.854,0,1,0,3.854,3.854A3.854,3.854,0,0,0,227.854,272Zm0,5.138a1.285,1.285,0,1,1,1.285-1.285A1.285,1.285,0,0,1,227.854,277.138Z" transform="translate(-198.308 -230.893)" fill="#2cbe91"/>
  <path id="Trazado_1138646" data-name="Trazado 1138646" d="M107.854,336a3.854,3.854,0,1,0,3.854,3.854A3.854,3.854,0,0,0,107.854,336Zm0,5.138a1.285,1.285,0,1,1,1.285-1.285A1.285,1.285,0,0,1,107.854,341.138Z" transform="translate(-97.577 -284.616)" fill="#2cbe91"/>
  <path id="Trazado_1138647" data-name="Trazado 1138647" d="M163.854,336a3.854,3.854,0,1,0,3.854,3.854A3.854,3.854,0,0,0,163.854,336Zm0,5.138a1.285,1.285,0,1,1,1.285-1.285A1.285,1.285,0,0,1,163.854,341.138Z" transform="translate(-144.585 -284.616)" fill="#2cbe91"/>
  <path id="Trazado_1138648" data-name="Trazado 1138648" d="M219.854,336a3.854,3.854,0,1,0,3.854,3.854A3.854,3.854,0,0,0,219.854,336Zm0,5.138a1.285,1.285,0,1,1,1.285-1.285A1.285,1.285,0,0,1,219.854,341.138Z" transform="translate(-191.593 -284.616)" fill="#2cbe91"/>
  <path id="Trazado_1138649" data-name="Trazado 1138649" d="M99.854,400a3.854,3.854,0,1,0,3.854,3.854A3.854,3.854,0,0,0,99.854,400Zm0,5.138a1.285,1.285,0,1,1,1.285-1.285,1.285,1.285,0,0,1-1.285,1.285Z" transform="translate(-90.862 -338.339)" fill="#2cbe91"/>
  <path id="Trazado_1138650" data-name="Trazado 1138650" d="M155.854,400a3.854,3.854,0,1,0,3.854,3.854A3.854,3.854,0,0,0,155.854,400Zm0,5.138a1.285,1.285,0,1,1,1.285-1.285,1.285,1.285,0,0,1-1.285,1.285Z" transform="translate(-137.87 -338.339)" fill="#2cbe91"/>
  <path id="Trazado_1138651" data-name="Trazado 1138651" d="M211.854,400a3.854,3.854,0,1,0,3.854,3.854A3.854,3.854,0,0,0,211.854,400Zm0,5.138a1.285,1.285,0,1,1,1.285-1.285,1.285,1.285,0,0,1-1.285,1.285Z" transform="translate(-184.877 -338.339)" fill="#2cbe91"/>
</svg>
