<svg xmlns="http://www.w3.org/2000/svg" width="77.399" height="66.808" viewBox="0 0 77.399 66.808">
  <path id="utensilio-de-medicion" d="M70.174,37.518H59.711a5.3,5.3,0,0,0-5.243-4.539H1.447A1.446,1.446,0,0,0,.184,35.126l5.53,9.954,5.1,48.24A7.211,7.211,0,0,0,18,99.787h31.33a7.234,7.234,0,0,0,7.213-6.8l3.111-52.58h7.2V80.377a1.445,1.445,0,0,0,2.89,0V40.408h.433a4.34,4.34,0,0,1,4.336,4.336V81.834a4.347,4.347,0,0,1-3.185,4.18l-8.77,2.414a1.445,1.445,0,0,0,.767,2.787l8.77-2.414A7.245,7.245,0,0,0,77.4,81.834V44.743a7.234,7.234,0,0,0-7.226-7.226Zm-13.3.9-3.219,54.4A4.34,4.34,0,0,1,49.326,96.9H18a4.327,4.327,0,0,1-4.312-3.88L8.557,44.484c-.044-.415.219.156-4.654-8.615H54.468A2.407,2.407,0,0,1,56.872,38.42Zm-15.5,13.4a1.445,1.445,0,0,1-1.445,1.445H26.6a1.445,1.445,0,1,1,0-2.89h13.33A1.445,1.445,0,0,1,41.373,51.822ZM29.434,64.109a1.445,1.445,0,1,1,0-2.89h7.657a1.445,1.445,0,1,1,0,2.89Zm11.939,9.4a1.445,1.445,0,0,1-1.445,1.445H26.6a1.445,1.445,0,1,1,0-2.89h13.33A1.445,1.445,0,0,1,41.373,73.506ZM38.537,84.348a1.445,1.445,0,0,1-1.445,1.445H29.434a1.445,1.445,0,1,1,0-2.89h7.657A1.445,1.445,0,0,1,38.537,84.348Z" transform="translate(0 -32.979)" fill="#2cbe91"/>
</svg>
