<svg id="vajilla" xmlns="http://www.w3.org/2000/svg" width="84.564" height="83.236" viewBox="0 0 84.564 83.236">
  <path id="Trazado_1138652" data-name="Trazado 1138652" d="M75.3,52.181h.951a6.605,6.605,0,0,0,6.407-5.007l1.731-6.922a5.284,5.284,0,0,0-5.126-6.605H75.3V29.684a1.321,1.321,0,0,0-1.321-1.321H63.227A31.7,31.7,0,1,0,31.707,63.41h.172a7.926,7.926,0,0,0,6.433,3.3H75.3a7.926,7.926,0,0,0,7.926-7.926,1.321,1.321,0,0,0-1.321-1.321H74.562a5.165,5.165,0,0,0,.74-2.642Zm0-15.852h3.963a2.642,2.642,0,0,1,2.563,3.3L80.1,46.567a3.963,3.963,0,0,1-3.844,3H75.3Zm-2.642-5.284V54.823a2.642,2.642,0,0,1-2.642,2.642H43.6a2.642,2.642,0,0,1-2.642-2.642V31.045ZM39.633,28.4a1.321,1.321,0,0,0-1.321,1.321V47.558A17.173,17.173,0,1,1,48.55,28.4ZM31.707,57.465a1.321,1.321,0,0,0-1.321,1.321,7.926,7.926,0,0,0,.251,1.982A29.063,29.063,0,1,1,60.545,28.4H51.219A19.816,19.816,0,1,0,38.312,50.371v4.452a5.165,5.165,0,0,0,.74,2.642Zm48.707,2.642A5.284,5.284,0,0,1,75.3,64.07H38.312A5.284,5.284,0,0,1,33.2,60.107Z" transform="translate(0.007 0.001)" fill="#2cbe91"/>
  <path id="Trazado_1138653" data-name="Trazado 1138653" d="M67.771,53.773l-41.137,1.2a5.284,5.284,0,0,0-5.852-3.963l-12.642,1.8a1.334,1.334,0,1,0,.37,2.642l10.383-1.493v3.659H8.324a1.321,1.321,0,1,0,0,2.642H18.893v3.659L8.509,62.452a1.334,1.334,0,1,0-.37,2.642l12.642,1.77a7.206,7.206,0,0,0,.753,0,5.284,5.284,0,0,0,5.1-3.963l41.137,1.2a5.165,5.165,0,1,0,0-10.33Zm0,7.688L25.5,60.259a1.321,1.321,0,0,0-1.321,1.321,2.642,2.642,0,0,1-2.642,2.642V53.654A2.621,2.621,0,0,1,24.177,56.3,1.321,1.321,0,0,0,25.5,57.617l42.273-1.2a2.523,2.523,0,0,1,0,5.046Z" transform="translate(2.253 16.362)" fill="#2cbe91"/>
</svg>
