<svg id="lentes" xmlns="http://www.w3.org/2000/svg" width="74.506" height="77.077" viewBox="0 0 74.506 77.077">
  <g id="Grupo_1186967" data-name="Grupo 1186967" transform="translate(0 0)">
    <g id="Grupo_1186966" data-name="Grupo 1186966">
      <path id="Trazado_1138626" data-name="Trazado 1138626" d="M22,74.507H18.15V41.639l4.909-4.911a9.132,9.132,0,0,0,2.659-6.8l-1.145-28.7A1.285,1.285,0,0,0,23.289,0H10.443A1.285,1.285,0,0,0,9.158,1.233L8.01,29.931a9.121,9.121,0,0,0,2.658,6.8l4.914,4.908V74.507H11.727a1.285,1.285,0,1,0,0,2.569H22a1.285,1.285,0,1,0,0-2.569Zm-9.52-39.6a6.544,6.544,0,0,1-1.913-4.88l1.1-27.462H22.053l1.1,27.462a6.552,6.552,0,0,1-1.909,4.882l-4.377,4.378Z" transform="translate(-8.003 0)" fill="#2cbe91"/>
    </g>
  </g>
  <g id="Grupo_1186969" data-name="Grupo 1186969" transform="translate(20.553 10.277)">
    <g id="Grupo_1186968" data-name="Grupo 1186968">
      <path id="Trazado_1138627" data-name="Trazado 1138627" d="M159.121,128.23h-7.708v-33.4c0-.022-.012-.04-.013-.062a14.114,14.114,0,0,0,12.859-14.176l-1.285-15.415A1.285,1.285,0,0,0,161.69,64H138.567a1.285,1.285,0,0,0-1.285,1.178L136,80.7a14.123,14.123,0,0,0,12.859,14.069c0,.022-.013.04-.013.062v33.4h-7.708a1.285,1.285,0,0,0,0,2.569h17.985a1.285,1.285,0,0,0,0-2.569ZM141.953,88.875h.005a11.459,11.459,0,0,1-3.391-8.069l1.182-14.237h20.759L161.69,80.7a11.561,11.561,0,0,1-19.737,8.175Z" transform="translate(-135.998 -64)" fill="#2cbe91"/>
    </g>
  </g>
  <g id="Grupo_1186971" data-name="Grupo 1186971" transform="translate(38.538 15.415)">
    <g id="Grupo_1186970" data-name="Grupo 1186970">
      <path id="Trazado_1138628" data-name="Trazado 1138628" d="M251.844,107.4,250.56,97.126a1.285,1.285,0,0,0-1.434-1.115h0a1.285,1.285,0,0,0-1.115,1.434l1.285,10.277a1.285,1.285,0,0,0,1.274,1.125,1.375,1.375,0,0,0,.161-.01A1.285,1.285,0,0,0,251.844,107.4Z" transform="translate(-248 -96)" fill="#2cbe91"/>
    </g>
  </g>
  <g id="Grupo_1186973" data-name="Grupo 1186973" transform="translate(33.398 15.413)">
    <g id="Grupo_1186972" data-name="Grupo 1186972">
      <path id="Trazado_1138629" data-name="Trazado 1138629" d="M219.822,103.439h0l-1.285-6.423a1.274,1.274,0,0,0-1.5-1.006l-.021,0a1.285,1.285,0,0,0-1,1.515h0l1.285,6.423a1.285,1.285,0,0,0,1.259,1.028,1.232,1.232,0,0,0,.257-.026A1.285,1.285,0,0,0,219.822,103.439Z" transform="translate(-215.993 -95.985)" fill="#2cbe91"/>
    </g>
  </g>
  <g id="Grupo_1186975" data-name="Grupo 1186975" transform="translate(50.099 5.138)">
    <g id="Grupo_1186974" data-name="Grupo 1186974">
      <path id="Trazado_1138630" data-name="Trazado 1138630" d="M341.836,32H321.283a1.285,1.285,0,0,0,0,2.569h20.554a1.285,1.285,0,1,0,0-2.569Z" transform="translate(-319.998 -32)" fill="#2cbe91"/>
    </g>
  </g>
  <g id="Grupo_1186977" data-name="Grupo 1186977" transform="translate(48.815 10.277)">
    <g id="Grupo_1186976" data-name="Grupo 1186976">
      <path id="Trazado_1138631" data-name="Trazado 1138631" d="M334.317,96.134a24.3,24.3,0,0,1-3.05-11.77V82.832a24.242,24.242,0,0,1,.854-6.377l2.955-10.833A1.285,1.285,0,0,0,333.836,64H315.852a1.284,1.284,0,0,0-1.24,1.622l2.955,10.834a24.224,24.224,0,0,1,.854,6.375v1.533a24.3,24.3,0,0,1-3.05,11.77A26.857,26.857,0,0,0,312,109.15v20.365a1.285,1.285,0,0,0,1.285,1.285h23.123a1.285,1.285,0,0,0,1.285-1.285V109.15A26.857,26.857,0,0,0,334.317,96.134Zm.8,26.957H319.706a1.285,1.285,0,1,0,0,2.569h15.415v2.569H314.567V109.15a24.3,24.3,0,0,1,3.05-11.77,26.857,26.857,0,0,0,3.373-13.016V82.832a26.777,26.777,0,0,0-.944-7.051l-2.511-9.212h14.619l-2.511,9.211a26.8,26.8,0,0,0-.944,7.052v1.533a26.858,26.858,0,0,0,3.373,13.016,24.3,24.3,0,0,1,3.05,11.77Z" transform="translate(-311.998 -64)" fill="#2cbe91"/>
    </g>
  </g>
  <g id="Grupo_1186979" data-name="Grupo 1186979" transform="translate(56.515 50.083)">
    <g id="Grupo_1186978" data-name="Grupo 1186978">
      <path id="Trazado_1138632" data-name="Trazado 1138632" d="M366.278,321.681l-3.854-8.992a1.285,1.285,0,1,0-2.375.979l.014.034,3.854,8.992a1.284,1.284,0,0,0,1.181.778,1.258,1.258,0,0,0,.506-.1A1.285,1.285,0,0,0,366.278,321.681Z" transform="translate(-359.951 -311.893)" fill="#2cbe91"/>
    </g>
  </g>
  <g id="Grupo_1186981" data-name="Grupo 1186981" transform="translate(53.959 57.807)">
    <g id="Grupo_1186980" data-name="Grupo 1186980">
      <path id="Trazado_1138633" data-name="Trazado 1138633" d="M347.753,363.275l-1.285-2.569a1.285,1.285,0,0,0-2.3,1.148l1.285,2.569a1.285,1.285,0,0,0,2.3-1.148Z" transform="translate(-344.033 -359.995)" fill="#2cbe91"/>
    </g>
  </g>
  <g id="Grupo_1186983" data-name="Grupo 1186983" transform="translate(8.863 6.423)">
    <g id="Grupo_1186982" data-name="Grupo 1186982">
      <path id="Trazado_1138634" data-name="Trazado 1138634" d="M64.483,40A1.285,1.285,0,0,0,63.2,41.285V54.131a1.285,1.285,0,1,0,2.569,0V41.285A1.285,1.285,0,0,0,64.483,40Z" transform="translate(-63.198 -40)" fill="#2cbe91"/>
    </g>
  </g>
  <g id="Grupo_1186985" data-name="Grupo 1186985" transform="translate(8.863 24.408)">
    <g id="Grupo_1186984" data-name="Grupo 1186984">
      <path id="Trazado_1138635" data-name="Trazado 1138635" d="M64.483,152a1.285,1.285,0,0,0-1.285,1.285v1.285a1.285,1.285,0,0,0,2.569,0v-1.285A1.285,1.285,0,0,0,64.483,152Z" transform="translate(-63.198 -152)" fill="#2cbe91"/>
    </g>
  </g>
</svg>
