<svg xmlns="http://www.w3.org/2000/svg" width="84.5" height="84.5" viewBox="0 0 84.5 84.5">
  <g id="Grupo_1186895" data-name="Grupo 1186895" transform="translate(-705 -8639.393)">
    <rect id="Rectángulo_402006" data-name="Rectángulo 402006" width="84.5" height="84.5" rx="5" transform="translate(705 8639.394)" fill="#ffb8c1"/>
    <g id="etiqueta" transform="translate(718.76 8569.381)">
      <path id="Trazado_1138684" data-name="Trazado 1138684" d="M130.052,219.726a.959.959,0,0,0-.89-.6h0a.959.959,0,0,0-.89.6l-.007.019-2.118,5.562a.835.835,0,0,0,1.56.594l.323-.848h2.251l.319.845a.835.835,0,0,0,1.562-.589l-2.1-5.562Zm-1.388,3.66.5-1.3.491,1.3Z" transform="translate(-112.057 -110.97)" fill="#cc3e50"/>
      <path id="Trazado_1138685" data-name="Trazado 1138685" d="M63.837,219.177a.835.835,0,0,0-.586.8v5.631a.835.835,0,0,0,1.669,0v-2.954l2.286,3.311a.907.907,0,0,0,1.026.374.936.936,0,0,0,.641-.929l-.053-5.452a.835.835,0,0,0-.834-.827h-.008a.835.835,0,0,0-.827.843l.029,3.016L64.772,219.5A.834.834,0,0,0,63.837,219.177Z" transform="translate(-56.212 -110.97)" fill="#cc3e50"/>
      <path id="Trazado_1138686" data-name="Trazado 1138686" d="M194.608,225.708l.461-2.556.767,2.6.009.029a.96.96,0,0,0,.912.656h0a.96.96,0,0,0,.91-.665l.009-.029.741-2.6.491,2.57a.835.835,0,1,0,1.64-.313L199.5,219.9a.962.962,0,0,0-1.858-.1l-.009.029-.888,3.116-.922-3.124-.009-.03a.962.962,0,0,0-1.859.134l-.992,5.494a.835.835,0,0,0,1.643.3Z" transform="translate(-171.479 -110.968)" fill="#cc3e50"/>
      <path id="Trazado_1138687" data-name="Trazado 1138687" d="M279.121,221.029a.835.835,0,1,0,0-1.669h-2.355a.835.835,0,0,0-.835.835v5.59a.835.835,0,0,0,.835.835h2.355a.835.835,0,1,0,0-1.669H277.6v-1.126h1.347a.835.835,0,1,0,0-1.669H277.6v-1.126Z" transform="translate(-245.223 -111.175)" fill="#cc3e50"/>
      <path id="Trazado_1138688" data-name="Trazado 1138688" d="M226.6,169.557H193.787a.835.835,0,1,0,0,1.669h24v7.15a1.858,1.858,0,0,0,1.856,1.856h7.15v11.226a4.055,4.055,0,0,1-4.05,4.05h-2.11a.835.835,0,1,0,0,1.669h2.11a5.726,5.726,0,0,0,5.719-5.719V171.413A1.858,1.858,0,0,0,226.6,169.557Zm0,1.669a.187.187,0,0,1,.187.187v5.843l-6.029-6.029H226.6Zm-6.963,7.336a.187.187,0,0,1-.187-.187v-5.843l6.029,6.029H219.64Z" transform="translate(-171.478 -66.915)" fill="#cc3e50"/>
      <path id="Trazado_1138689" data-name="Trazado 1138689" d="M45.033,128.593H5.719a4.055,4.055,0,0,1-4.05-4.05V103.024a5,5,0,0,0,3.355,1.288H18.413a.835.835,0,1,0,0-1.669H12.77V95.1a.835.835,0,0,0-.835-.835H5.024A5.03,5.03,0,0,0,0,99.287v25.256a5.726,5.726,0,0,0,5.719,5.719H45.033a.835.835,0,1,0,0-1.669ZM5.024,95.932H11.1v6.71H5.024a3.355,3.355,0,0,1,0-6.71Z" fill="#cc3e50"/>
      <path id="Trazado_1138690" data-name="Trazado 1138690" d="M63.25,310.819a.835.835,0,0,0,.835.835H98.056a.835.835,0,1,0,0-1.669H64.085A.835.835,0,0,0,63.25,310.819Z" transform="translate(-56.211 -191.713)" fill="#cc3e50"/>
      <path id="Trazado_1138691" data-name="Trazado 1138691" d="M64.085,343.447a.835.835,0,0,0,0,1.669H77.418a.835.835,0,0,0,0-1.669Z" transform="translate(-56.211 -221.452)" fill="#cc3e50"/>
    </g>
  </g>
</svg>
