<svg xmlns="http://www.w3.org/2000/svg" width="104" height="104" viewBox="0 0 104 104">
  <g id="Grupo_1187012" data-name="Grupo 1187012" transform="translate(-4340.653 -612)">
    <g id="Rectángulo_456957" data-name="Rectángulo 456957" transform="translate(4340.653 612)" fill="none" stroke="#e6d062" stroke-width="2">
      <rect width="104" height="104" rx="52" stroke="none"/>
      <rect x="1" y="1" width="102" height="102" rx="51" fill="none"/>
    </g>
    <g id="cobre" transform="translate(4366.447 637.794)">
      <path id="Trazado_1138673" data-name="Trazado 1138673" d="M46.014,52.411H6.4a6.405,6.405,0,0,1-6.4-6.4V24.861a.768.768,0,0,1,1.535,0V46.013A4.868,4.868,0,0,0,6.4,50.876H46.014a4.868,4.868,0,0,0,4.862-4.862V6.4a4.868,4.868,0,0,0-4.862-4.862H6.4A4.868,4.868,0,0,0,1.535,6.4V21.79A.768.768,0,0,1,0,21.79V6.4A6.405,6.405,0,0,1,6.4,0H46.014a6.405,6.405,0,0,1,6.4,6.4V46.013A6.405,6.405,0,0,1,46.014,52.411Z" transform="translate(0)" fill="#e6d062"/>
      <g id="Grupo_1186997" data-name="Grupo 1186997" transform="translate(4.997 4.997)">
        <path id="Trazado_1138674" data-name="Trazado 1138674" d="M88.926,91.229H51.114a2.306,2.306,0,0,1-2.3-2.3V51.114a2.306,2.306,0,0,1,2.3-2.3H88.926a2.306,2.306,0,0,1,2.3,2.3V79.795a.768.768,0,0,1-1.535,0V51.114a.769.769,0,0,0-.768-.768H51.114a.769.769,0,0,0-.768.768V88.926a.769.769,0,0,0,.768.768H88.926a.769.769,0,0,0,.768-.768v-6.06a.768.768,0,0,1,1.535,0v6.06A2.306,2.306,0,0,1,88.926,91.229Z" transform="translate(-48.811 -48.811)" fill="#e6d062"/>
      </g>
      <g id="Grupo_1186998" data-name="Grupo 1186998" transform="translate(11.129 11.153)">
        <path id="Trazado_1138675" data-name="Trazado 1138675" d="M116.179,110.49h-6.691a.768.768,0,1,1,0-1.535h6.691a.768.768,0,1,1,0,1.535Z" transform="translate(-108.721 -108.954)" fill="#e6d062"/>
      </g>
      <g id="Grupo_1186999" data-name="Grupo 1186999" transform="translate(11.129 39.723)">
        <path id="Trazado_1138676" data-name="Trazado 1138676" d="M111.537,389.582h-2.048a.768.768,0,0,1,0-1.536h2.048a.768.768,0,1,1,0,1.536Z" transform="translate(-108.721 -388.046)" fill="#e6d062"/>
      </g>
      <g id="Grupo_1187000" data-name="Grupo 1187000" transform="translate(11.129 14.875)">
        <path id="Trazado_1138677" data-name="Trazado 1138677" d="M111.537,146.845h-2.048a.768.768,0,1,1,0-1.535h2.048a.768.768,0,1,1,0,1.535Z" transform="translate(-108.721 -145.31)" fill="#e6d062"/>
      </g>
      <g id="Grupo_1187002" data-name="Grupo 1187002" transform="translate(31.153 9.905)">
        <g id="Grupo_1187001" data-name="Grupo 1187001">
          <path id="Trazado_1138678" data-name="Trazado 1138678" d="M306.525,104.751a5.153,5.153,0,0,1-1.423-.066.8.8,0,0,1-.518-.525c-.13-.422.068-.682.463-1.2.321-.421.919-1.2,1.922-2.636a2.908,2.908,0,0,0,.565-1.22.853.853,0,0,0-1.688-.125.768.768,0,0,1-1.507-.3,2.392,2.392,0,0,1,2.343-1.926,2.235,2.235,0,0,1,2.118,1.418,3.051,3.051,0,0,1-.573,3.03c-.627.9-1.1,1.542-1.446,2.008.541,0,1.178-.007,1.78-.014h.01a.768.768,0,0,1,.009,1.535C307.672,104.746,307.01,104.751,306.525,104.751Z" transform="translate(-304.325 -96.758)" fill="#e6d062"/>
        </g>
      </g>
      <g id="Grupo_1187003" data-name="Grupo 1187003" transform="translate(37.439 10.097)">
        <path id="Trazado_1138679" data-name="Trazado 1138679" d="M370.933,101.231a2.6,2.6,0,1,0-2.6,2.6c.057,0,.114,0,.171-.006a5.308,5.308,0,0,1-1.073,1.226.768.768,0,0,0,.919,1.23,7.164,7.164,0,0,0,2.55-4.64A2.6,2.6,0,0,0,370.933,101.231Zm-3.662,0a1.063,1.063,0,1,1,1.063,1.063A1.065,1.065,0,0,1,367.27,101.231Z" transform="translate(-365.735 -98.632)" fill="#e6d062"/>
      </g>
      <g id="Grupo_1187008" data-name="Grupo 1187008" transform="translate(15.68 21.254)">
        <g id="Grupo_1187005" data-name="Grupo 1187005">
          <g id="Grupo_1187004" data-name="Grupo 1187004">
            <path id="Trazado_1138680" data-name="Trazado 1138680" d="M160.448,222.176a7.273,7.273,0,1,1,4.067-13.3.768.768,0,1,1-.859,1.272,5.738,5.738,0,1,0-3.208,10.5,4.355,4.355,0,0,0,3.51-1.562.768.768,0,1,1,1.176.987,5.888,5.888,0,0,1-4.687,2.111Z" transform="translate(-153.175 -207.629)" fill="#e6d062"/>
          </g>
        </g>
        <g id="Grupo_1187007" data-name="Grupo 1187007" transform="translate(13.65 4.716)">
          <g id="Grupo_1187006" data-name="Grupo 1187006">
            <path id="Trazado_1138681" data-name="Trazado 1138681" d="M290.3,263.528h-.164a3.517,3.517,0,0,1-3.619-3.489v-5.575a.768.768,0,1,1,1.536,0v5.575a1.977,1.977,0,0,0,2.083,1.953h.164a1.977,1.977,0,0,0,2.083-1.953v-5.575a.768.768,0,1,1,1.535,0v5.575A3.518,3.518,0,0,1,290.3,263.528Z" transform="translate(-286.52 -253.697)" fill="#e6d062"/>
          </g>
        </g>
      </g>
    </g>
  </g>
</svg>
