<svg xmlns="http://www.w3.org/2000/svg" width="104" height="104" viewBox="0 0 104 104">
  <g id="Grupo_1187009" data-name="Grupo 1187009" transform="translate(-4718.653 -612)">
    <g id="Rectángulo_457412" data-name="Rectángulo 457412" transform="translate(4718.653 612)" fill="none" stroke="#e6d062" stroke-width="2">
      <rect width="104" height="104" rx="52" stroke="none"/>
      <rect x="1" y="1" width="102" height="102" rx="51" fill="none"/>
    </g>
    <g id="estirar" transform="translate(4746.27 643.613)">
      <path id="Trazado_1138682" data-name="Trazado 1138682" d="M38.668.125H6.969a6.844,6.844,0,1,0,0,13.688h1.8V44.431a1.081,1.081,0,0,0,1.081,1.081h34.58a1.081,1.081,0,0,0,1.081-1.081V6.969A6.852,6.852,0,0,0,38.668.125ZM43.35,6.969a4.683,4.683,0,1,1-4.683-4.683A4.686,4.686,0,0,1,43.35,6.969Zm-41.064,0A4.686,4.686,0,0,1,6.969,2.286H33.7a6.774,6.774,0,0,0,0,9.365H6.969A4.686,4.686,0,0,1,2.286,6.969Zm36.381,6.844a6.8,6.8,0,0,0,4.683-1.879V43.35H10.931V13.813Z" transform="translate(-0.125 -0.125)" fill="#e6d062"/>
      <ellipse id="Elipse_11493" data-name="Elipse 11493" cx="1.081" cy="1.081" rx="1.081" ry="1.081" transform="translate(37.462 5.763)" fill="#e6d062"/>
    </g>
  </g>
</svg>
