<svg xmlns="http://www.w3.org/2000/svg" xmlns:xlink="http://www.w3.org/1999/xlink" width="84.5" height="84.5" viewBox="0 0 84.5 84.5">
  <defs>
    <clipPath id="clip-path">
      <path id="path3948" d="M0-682.665H55.35v55.35H0Z" transform="translate(0 682.665)" fill="#cc3e50"/>
    </clipPath>
  </defs>
  <g id="Grupo_1184048" data-name="Grupo 1184048" transform="translate(-705 -8639.394)">
    <rect id="Rectángulo_402006" data-name="Rectángulo 402006" width="84.5" height="84.5" rx="5" transform="translate(705 8639.394)" fill="#ffb8c1"/>
    <g id="g3942" transform="translate(719.575 9336.633)">
      <g id="g3944" transform="translate(0 -682.665)">
        <g id="g3946" transform="translate(0 0)" clip-path="url(#clip-path)">
          <g id="g3952" transform="translate(16.185 17.413)">
            <path id="path3954" d="M-380.135,0h2.075a.67.67,0,0,1,.67.67V2.827a.67.67,0,0,1-.67.67h-34.946a.67.67,0,0,1-.67-.67V.67a.67.67,0,0,1,.67-.67h29.088" transform="translate(413.676)" fill="none" stroke="#cc3e50" stroke-linecap="round" stroke-linejoin="round" stroke-miterlimit="10" stroke-width="1.5"/>
          </g>
          <g id="g3956" transform="translate(18.088 27.538)">
            <path id="path3958" d="M-368.088,0h-32.478" transform="translate(400.566)" fill="none" stroke="#cc3e50" stroke-linecap="round" stroke-linejoin="round" stroke-miterlimit="10" stroke-width="1.5"/>
          </g>
          <g id="g3960" transform="translate(18.973 35.357)">
            <path id="path3962" d="M-348.031,0h-30.708" transform="translate(378.739)" fill="none" stroke="#cc3e50" stroke-linecap="round" stroke-linejoin="round" stroke-miterlimit="10" stroke-width="1.5"/>
          </g>
          <g id="g3964" transform="translate(44.002 20.909)">
            <path id="path3966" d="M0-117.005l.714-10.324" transform="translate(0 127.329)" fill="none" stroke="#cc3e50" stroke-linecap="round" stroke-linejoin="round" stroke-miterlimit="10" stroke-width="1.5"/>
          </g>
          <g id="g3968" transform="translate(24.831 33.82)">
            <path id="path3970" d="M0,0,.279,4.027C.4,5.708,1.265,6.978,2.3,6.978H16.693c1.035,0,1.9-1.27,2.021-2.952L18.985.109" fill="none" stroke="#cc3e50" stroke-linecap="round" stroke-linejoin="round" stroke-miterlimit="10" stroke-width="1.5"/>
          </g>
          <g id="g3972" transform="translate(23.938 20.909)">
            <path id="path3974" d="M0,0,.7,10.148" fill="none" stroke="#cc3e50" stroke-linecap="round" stroke-linejoin="round" stroke-miterlimit="10" stroke-width="1.5"/>
          </g>
          <g id="g3976" transform="translate(37.523 20.909)">
            <path id="path3978" d="M0-105.535l.211-9.312" transform="translate(0 114.846)" fill="none" stroke="#cc3e50" stroke-linecap="round" stroke-linejoin="round" stroke-miterlimit="10" stroke-width="1.5"/>
          </g>
          <g id="g3980" transform="translate(31.211 32.923)">
            <path id="path3982" d="M0-8.961.094-4.828C.132-3.147.417-1.877.757-1.877h4.72c.339,0,.625-1.27.663-2.952l.112-4.924" transform="translate(0 9.752)" fill="none" stroke="#cc3e50" stroke-linecap="round" stroke-linejoin="round" stroke-miterlimit="10" stroke-width="1.5"/>
          </g>
          <g id="g3984" transform="translate(30.92 20.909)">
            <path id="path3986" d="M0,0,.229,10.065" fill="none" stroke="#cc3e50" stroke-linecap="round" stroke-linejoin="round" stroke-miterlimit="10" stroke-width="1.5"/>
          </g>
          <g id="g3988" transform="translate(13.999 10.603)">
            <path id="path3990" d="M0,0H2.066a.54.54,0,0,1,.522.4L4.305,6.809" fill="none" stroke="#cc3e50" stroke-linecap="round" stroke-linejoin="round" stroke-miterlimit="10" stroke-width="1.5"/>
          </g>
          <g id="g3992" transform="translate(2.88 7.557)">
            <path id="path3994" d="M-210.551-111.7l-2.046-7.636a3,3,0,0,0-2.893-2.219h-12.968a.672.672,0,0,0-.671.672,2.375,2.375,0,0,0,2.375,2.375h4.96" transform="translate(229.129 121.552)" fill="none" stroke="#cc3e50" stroke-linecap="round" stroke-linejoin="round" stroke-miterlimit="10" stroke-width="1.5"/>
          </g>
          <g id="g3996" transform="translate(0.811 30.205)">
            <path id="path3998" d="M0-144.7v7.668a.294.294,0,0,0,.294.294h53.14a.294.294,0,0,0,.294-.294v-20.138a.3.3,0,0,0-.3-.295c-4.181.047-4.281,1.079-8.657,1.079-4.478,0-4.478-1.081-8.955-1.081s-4.477,1.081-8.955,1.081-4.477-1.081-8.954-1.081-4.477,1.081-8.955,1.081c-4.375,0-4.475-1.032-8.656-1.079a.3.3,0,0,0-.3.295v8.687" transform="translate(0 157.464)" fill="none" stroke="#cc3e50" stroke-linecap="round" stroke-linejoin="round" stroke-miterlimit="10" stroke-width="1.5"/>
          </g>
          <g id="g4000" transform="translate(18.696 32.907)">
            <path id="path4002" d="M0,0,.559,4.939a3.326,3.326,0,0,0,3.3,2.951H27.4a3.326,3.326,0,0,0,3.3-2.951L31.189.655" fill="none" stroke="#cc3e50" stroke-linecap="round" stroke-linejoin="round" stroke-miterlimit="10" stroke-width="1.5"/>
          </g>
          <g id="g4004" transform="translate(7.289 38.856)">
            <path id="path4006" d="M0,0H0" fill="none" stroke="#cc3e50" stroke-linecap="round" stroke-linejoin="round" stroke-miterlimit="10" stroke-width="1.5"/>
          </g>
          <g id="g4008" transform="translate(13.607 36.065)">
            <path id="path4010" d="M0,0H0" fill="none" stroke="#cc3e50" stroke-linecap="round" stroke-linejoin="round" stroke-miterlimit="10" stroke-width="1.5"/>
          </g>
          <g id="g4012" transform="translate(13.607 43.041)">
            <path id="path4014" d="M0,0H0" fill="none" stroke="#cc3e50" stroke-linecap="round" stroke-linejoin="round" stroke-miterlimit="10" stroke-width="1.5"/>
          </g>
          <g id="g4016" transform="translate(21.986 46.978)">
            <path id="path4018" d="M0,0H0" fill="none" stroke="#cc3e50" stroke-linecap="round" stroke-linejoin="round" stroke-miterlimit="10" stroke-width="1.5"/>
          </g>
          <g id="g4020" transform="translate(31.034 44.772)">
            <path id="path4022" d="M0,0H0" fill="none" stroke="#cc3e50" stroke-linecap="round" stroke-linejoin="round" stroke-miterlimit="10" stroke-width="1.5"/>
          </g>
          <g id="g4024" transform="translate(41.216 46.978)">
            <path id="path4026" d="M0,0H0" fill="none" stroke="#cc3e50" stroke-linecap="round" stroke-linejoin="round" stroke-miterlimit="10" stroke-width="1.5"/>
          </g>
          <g id="g4028" transform="translate(45.528 44.772)">
            <path id="path4030" d="M0,0H0" fill="none" stroke="#cc3e50" stroke-linecap="round" stroke-linejoin="round" stroke-miterlimit="10" stroke-width="1.5"/>
          </g>
          <g id="g4032" transform="translate(50.566 46.393)">
            <path id="path4034" d="M0,0H0" fill="none" stroke="#cc3e50" stroke-linecap="round" stroke-linejoin="round" stroke-miterlimit="10" stroke-width="1.5"/>
          </g>
          <g id="g4036" transform="translate(9.006 45.583)">
            <path id="path4038" d="M0,0H0" fill="none" stroke="#cc3e50" stroke-linecap="round" stroke-linejoin="round" stroke-miterlimit="10" stroke-width="1.5"/>
          </g>
          <g id="g4040" transform="translate(33.688 4.417)">
            <path id="path4042" d="M-14.7,0c0,2.343-1.3,2.343-1.3,4.686s1.3,2.343,1.3,4.685" transform="translate(16)" fill="none" stroke="#cc3e50" stroke-linecap="round" stroke-linejoin="round" stroke-miterlimit="10" stroke-width="1.5"/>
          </g>
          <g id="g4044" transform="translate(39.122 4.417)">
            <path id="path4046" d="M-14.7,0c0,2.343-1.3,2.343-1.3,4.686s1.3,2.343,1.3,4.685" transform="translate(16)" fill="none" stroke="#cc3e50" stroke-linecap="round" stroke-linejoin="round" stroke-miterlimit="10" stroke-width="1.5"/>
          </g>
          <g id="g4048" transform="translate(28.253 4.417)">
            <path id="path4050" d="M-14.7,0c0,2.343-1.3,2.343-1.3,4.686s1.3,2.343,1.3,4.685" transform="translate(16)" fill="none" stroke="#cc3e50" stroke-linecap="round" stroke-linejoin="round" stroke-miterlimit="10" stroke-width="1.5"/>
          </g>
          <g id="g4052" transform="translate(50.207 20.909)">
            <path id="path4054" d="M0-111.085l1.109-9.8" transform="translate(0 120.886)" fill="none" stroke="#cc3e50" stroke-linecap="round" stroke-linejoin="round" stroke-miterlimit="10" stroke-width="1.5"/>
          </g>
          <g id="g4056" transform="translate(17.338 20.909)">
            <path id="path4058" d="M0,0,1.052,9.3" fill="none" stroke="#cc3e50" stroke-linecap="round" stroke-linejoin="round" stroke-miterlimit="10" stroke-width="1.5"/>
          </g>
        </g>
      </g>
    </g>
  </g>
</svg>
