<svg xmlns="http://www.w3.org/2000/svg" width="104" height="104" viewBox="0 0 104 104">
  <g id="Grupo_1186102" data-name="Grupo 1186102" transform="translate(-1026 -7383.743)">
    <g id="Rectángulo_456614" data-name="Rectángulo 456614" transform="translate(1026 7383.743)" fill="none" stroke="#e6d062" stroke-width="2">
      <rect width="104" height="104" rx="52" stroke="none"/>
      <rect x="1" y="1" width="102" height="102" rx="51" fill="none"/>
    </g>
    <g id="cocinando_2_" data-name="cocinando (2)" transform="translate(1053.681 7398.112)">
      <g id="Grupo_1186093" data-name="Grupo 1186093" transform="translate(0 30.76)">
        <g id="Grupo_1186092" data-name="Grupo 1186092">
          <path id="Trazado_1085408" data-name="Trazado 1085408" d="M51.776,201.955l-3.454.684a.812.812,0,0,0,.315,1.594c3.658-.717,3.494-.711,3.719-.711a1.355,1.355,0,0,1,1.325,1.09l0,.016a1.353,1.353,0,0,1-1.064,1.591l-13.356,2.645a11.2,11.2,0,0,0,.7-2.913l5.488-1.087a.812.812,0,0,0-.315-1.594L40,204.286A11.828,11.828,0,0,0,39.8,202.6a1.9,1.9,0,0,0-1.858-1.527c-.347,0,1.4-.3-27.832,5.477a.812.812,0,0,0,.315,1.593l27.463-5.44a.27.27,0,0,1,.318.213,9.708,9.708,0,0,1,.081,3.364,9.6,9.6,0,0,1-3.611,6.121c-1.459-3.64-3.251-3.3-4.043-1.387a14.926,14.926,0,0,1-2.163,3.642l-.657.13a6.226,6.226,0,0,0-.622-2.124,1.209,1.209,0,0,0-2.193.081,5.494,5.494,0,0,1-.674,1.185l-2.077-3.489a1.209,1.209,0,0,0-2.069-.015c-.35.566-.759,1.242-1.148,1.956a.812.812,0,0,0,1.425.779c.247-.452.5-.891.748-1.3l2.254,3.787a.826.826,0,0,0,.61.441.812.812,0,0,0,.667-.2,7.108,7.108,0,0,0,1.328-1.646,4.567,4.567,0,0,1-.241,3.1.812.812,0,0,0,1.237.983,17.148,17.148,0,0,0,5.209-6.952,8.76,8.76,0,0,1,.86,8.487.813.813,0,0,0,1.091,1.069,11.073,11.073,0,0,0,3.388-2.543,4.983,4.983,0,0,1-2.475,3.69H19.783a6.877,6.877,0,0,1-.58-6.091.812.812,0,0,0-1.548-.492,11.716,11.716,0,0,0-.35,1.377c-4.075.762-4.748,1.057-6.277,1.057A9.6,9.6,0,0,1,1.639,210.2l-.008-.04a.271.271,0,0,1,.212-.318l5.39-1.068a.812.812,0,0,0-.315-1.593l-5.39,1.068A1.9,1.9,0,0,0,.038,210.48l.009.039a11.227,11.227,0,0,0,10.982,9.032c1.738,0,2.655-.355,6.11-.992a8.276,8.276,0,0,0,.8,3.545H9.555a2.15,2.15,0,0,0-2.148,2.147v4.584a2.15,2.15,0,0,0,2.148,2.147h2.467v1.787a.812.812,0,0,0,.812.812H42.5a.812.812,0,0,0,.812-.812v-1.786h2.467a2.15,2.15,0,0,0,2.148-2.148v-4.584a2.15,2.15,0,0,0-2.148-2.148H37.616a5.759,5.759,0,0,0,1.49-5.058,1.21,1.21,0,0,0-2.147-.437,9.426,9.426,0,0,1-1.659,1.722,10.321,10.321,0,0,0-.118-4.3,10.831,10.831,0,0,0,3.168-3.331l14.584-2.889a2.986,2.986,0,0,0-1.16-5.858Zm-42.221,27.4a.524.524,0,0,1-.523-.523v-4.584a.524.524,0,0,1,.523-.523h17.3v5.631Zm32.136,2.6H13.646v-.974H41.691v.974Zm4.091-8.229h0a.524.524,0,0,1,.523.523v4.584a.524.524,0,0,1-.523.523H28.48v-5.631h17.3Z" transform="translate(-0.002 -201.074)" fill="#e6d062"/>
        </g>
      </g>
      <g id="Grupo_1186095" data-name="Grupo 1186095" transform="translate(21.493 16.101)">
        <g id="Grupo_1186094" data-name="Grupo 1186094">
          <path id="Trazado_1085409" data-name="Trazado 1085409" d="M213.787,65.717a.812.812,0,0,0-1.145-.095l-2.45,2.076a4.2,4.2,0,0,0-6.179,1.067,5.187,5.187,0,1,0,5.163,6.093,4.2,4.2,0,0,0,2.066-5.921l2.45-2.076A.812.812,0,0,0,213.787,65.717Zm-5.559,7.75a.812.812,0,0,0-.606.73,3.562,3.562,0,1,1-3.212-3.79.812.812,0,0,0,.82-.477,2.574,2.574,0,0,1,3.682-1.147L203.9,73.032a.813.813,0,0,0,.525,1.432c.539,0,.32-.111,5.538-4.442A2.574,2.574,0,0,1,208.228,73.467Z" transform="translate(-198.874 -65.43)" fill="#e6d062"/>
        </g>
      </g>
      <g id="Grupo_1186097" data-name="Grupo 1186097" transform="translate(16.64 11.062)">
        <g id="Grupo_1186096" data-name="Grupo 1186096">
          <path id="Trazado_1085410" data-name="Trazado 1085410" d="M157.337,18.8a3.369,3.369,0,1,0,3.369,3.369A3.372,3.372,0,0,0,157.337,18.8Zm0,5.113a1.744,1.744,0,1,1,1.744-1.744A1.746,1.746,0,0,1,157.337,23.912Z" transform="translate(-153.968 -18.799)" fill="#e6d062"/>
        </g>
      </g>
      <g id="Grupo_1186099" data-name="Grupo 1186099" transform="translate(1.286 29.028)">
        <g id="Grupo_1186098" data-name="Grupo 1186098">
          <path id="Trazado_1085411" data-name="Trazado 1085411" d="M15.265,185.044a3.369,3.369,0,1,0,3.369,3.369A3.372,3.372,0,0,0,15.265,185.044Zm0,5.113a1.744,1.744,0,1,1,1.744-1.744A1.747,1.747,0,0,1,15.265,190.157Z" transform="translate(-11.896 -185.044)" fill="#e6d062"/>
        </g>
      </g>
      <g id="Grupo_1186101" data-name="Grupo 1186101" transform="translate(0 10.124)">
        <g id="Grupo_1186100" data-name="Grupo 1186100">
          <path id="Trazado_1085412" data-name="Trazado 1085412" d="M17.951,23.144c-1.467-2.059-4.708-4.839-7.447-5.338L8.852,15.486a3.134,3.134,0,1,0-5.278-2.828,3.134,3.134,0,1,0,.946,5.913l1.914,2.688a14.247,14.247,0,0,0,2.346,8.415c2.2,3.092,6.081,4.4,8.712,2.532C19.833,30.539,20.407,26.6,17.951,23.144ZM7.878,18.263A3,3,0,0,0,7,19.258L5.384,16.982a.814.814,0,0,0-.662-.341,1.054,1.054,0,0,0-.713.35,1.51,1.51,0,1,1-.055-2.5.813.813,0,0,0,1.229-.876,1.51,1.51,0,1,1,2.168.976.811.811,0,0,0-.283,1.189L8.579,17.9a2.766,2.766,0,0,0-.7.361ZM10.1,28.732c-1.875-2.635-2.892-8-1.282-9.146.841-.6,2.438.065,3.359.575a14.532,14.532,0,0,1,4.447,3.925,6.632,6.632,0,0,1,1.29,3.78C17.917,32.245,12.9,32.658,10.1,28.732Z" transform="translate(0 -10.124)" fill="#e6d062"/>
        </g>
      </g>
    </g>
  </g>
</svg>
