<svg xmlns="http://www.w3.org/2000/svg" xmlns:xlink="http://www.w3.org/1999/xlink" width="210.333" height="209.73" viewBox="0 0 210.333 209.73">
  <defs>
    <clipPath id="clip-path">
      <rect id="Rectángulo_455881" data-name="Rectángulo 455881" width="117.876" height="23.752" fill="#2cbe91"/>
    </clipPath>
    <clipPath id="clip-path-2">
      <path id="path3267" d="M0-682.665H89.333v89.333H0Z" transform="translate(0 682.665)" fill="#2079f3"/>
    </clipPath>
    <clipPath id="clip-path-3">
      <rect id="Rectángulo_457403" data-name="Rectángulo 457403" width="95.333" height="98.761" fill="#2079f3"/>
    </clipPath>
  </defs>
  <g id="Grupo_1186933" data-name="Grupo 1186933" transform="translate(-1073.681 -400.235)">
    <g id="Grupo_1186531" data-name="Grupo 1186531" transform="translate(-11.326 -1894.082)">
      <path id="Trazado_1085278" data-name="Trazado 1085278" d="M198.338,16.945V0H192.4a8.556,8.556,0,0,1-8.622,8.49A8.556,8.556,0,0,1,175.285,0h-7.248a8.557,8.557,0,0,1-8.556,8.557A8.557,8.557,0,0,1,150.924,0H143.7a8.557,8.557,0,0,1-8.557,8.557A8.557,8.557,0,0,1,126.583,0h-6.989a8.557,8.557,0,0,1-8.557,8.557A8.557,8.557,0,0,1,102.479,0H95.058A8.557,8.557,0,0,1,86.5,8.557,8.557,8.557,0,0,1,77.945,0H70.772a8.557,8.557,0,0,1-8.557,8.557A8.557,8.557,0,0,1,53.658,0H46.815A8.557,8.557,0,0,1,29.7.009V0H22.364a8.557,8.557,0,0,1-8.557,8.557A8.557,8.557,0,0,1,5.251,0H0V17a8.557,8.557,0,0,1,8.557,8.558A8.557,8.557,0,0,1,0,34.113v7.421a8.557,8.557,0,0,1,8.557,8.557A8.557,8.557,0,0,1,0,58.649v6.99H.019a8.557,8.557,0,0,1,8.547,8.566A8.557,8.557,0,0,1,0,82.752v7.224a8.557,8.557,0,0,1,8.557,8.558A8.557,8.557,0,0,1,0,107.092v6.881H.019a8.557,8.557,0,0,1,8.547,8.566A8.557,8.557,0,0,1,0,131.086v16.919H5.222a8.557,8.557,0,0,1,17.113,0h7.334v-.019a8.557,8.557,0,1,1,17.113.019h6.847v-.019a8.557,8.557,0,1,1,17.113.019h7.168v-.019a8.557,8.557,0,1,1,17.113.019h7.423v-.019a8.557,8.557,0,1,1,17.113.019h6.99a8.558,8.558,0,1,1,17.115,0h7.224v-.019a8.557,8.557,0,1,1,17.113.019h7.25v-.019a8.557,8.557,0,1,1,17.113.019h5.969V131.033h-.019a8.557,8.557,0,1,1,.019-17.114v-6.882a8.557,8.557,0,1,1,0-17.114V82.7h-.019a8.557,8.557,0,1,1,.019-17.114V58.6a8.557,8.557,0,1,1,0-17.115v-7.42a8.558,8.558,0,0,1-.009-17.115h.009" transform="translate(1132.828 2492.655) rotate(-90)" fill="#bbd6fc"/>
      <g id="Grupo_1184022" data-name="Grupo 1184022" transform="translate(1255.51 2424.434)">
        <g id="Grupo_1183846" data-name="Grupo 1183846" transform="translate(0 0)">
          <rect id="Rectángulo_455879" data-name="Rectángulo 455879" width="39.24" height="37.678" transform="translate(0.296)" fill="#2cbe91"/>
          <path id="Trazado_1000145" data-name="Trazado 1000145" d="M0,1.72H1.049a1.718,1.718,0,0,1,3.437,0H5.958v0a1.718,1.718,0,1,1,3.437,0H10.77v0a1.718,1.718,0,1,1,3.437,0h1.439v0a1.718,1.718,0,1,1,3.437,0h1.491v0a1.718,1.718,0,1,1,3.437,0h1.4a1.719,1.719,0,0,1,3.437,0H30.3v0a1.718,1.718,0,1,1,3.437,0H35.2v0a1.718,1.718,0,1,1,3.437,0h1.2" transform="translate(39.831 39.025) rotate(180)" fill="#2cbe91"/>
        </g>
        <path id="Trazado_1000133" data-name="Trazado 1000133" d="M.937,16.789c-.056-.089-.116-.177-.173-.266a4.382,4.382,0,0,1-.746-1.964,3.1,3.1,0,0,1,.033-.9,4.563,4.563,0,0,1,.61-1.592c.12-.187.261-.359.4-.554a.19.19,0,0,0,0-.067,3.037,3.037,0,0,1,.119-2,4.6,4.6,0,0,1,.8-1.339,5.316,5.316,0,0,1,1.4-1.247c.124-.072.251-.141.384-.214a2.544,2.544,0,0,1,.734-1.663,5,5,0,0,1,1.22-1.026,4.526,4.526,0,0,1,1.825-.655,1.236,1.236,0,0,0,.065-.128,2.35,2.35,0,0,1,.793-1.019,4.791,4.791,0,0,1,2.3-.976,4.263,4.263,0,0,1,.9-.013c.105.007.21.008.306.011L12.1,1.02a4.413,4.413,0,0,1,2.526-1,4.928,4.928,0,0,1,2.227.3c.1.037.2.069.273.093a4.729,4.729,0,0,1,3.1-.252,4.635,4.635,0,0,1,2.517,1.749,2.734,2.734,0,0,1,.875.08,3.779,3.779,0,0,1,1.4.679,3.859,3.859,0,0,1,.634.587,2.691,2.691,0,0,1,.624,1.377,2.351,2.351,0,0,1-.632,1.977,4.654,4.654,0,0,1-.821.73,4.052,4.052,0,0,0-.534.49A16.372,16.372,0,0,1,22.842,9.09q-1,.792-2.021,1.565c-.457.345-.928.669-1.386,1.006-1.515,1.114-3.085,2.149-4.63,3.219-1.3.9-2.629,1.753-3.966,2.594q-1.354.85-2.746,1.637a26.549,26.549,0,0,1-2.945,1.446,1.349,1.349,0,0,1-.192.066.585.585,0,0,0-.277.148.6.6,0,0,1-.166.116,3.746,3.746,0,0,1-1.265.4,2.178,2.178,0,0,1-.688-.024,1.736,1.736,0,0,1-.623-.3,3.177,3.177,0,0,1-1.1-1.32,3.058,3.058,0,0,1-.237-1.189c0-.174.012-.349.023-.523A2.451,2.451,0,0,1,.849,17c.033-.069.061-.141.1-.222" transform="translate(15.401 4.675) rotate(34)" fill="#1b5b5b"/>
      </g>
      <g id="Grupo_1184023" data-name="Grupo 1184023" transform="translate(1085.007 2446.669)">
        <g id="Grupo_1183367" data-name="Grupo 1183367" transform="translate(0 0)" clip-path="url(#clip-path)">
          <path id="Trazado_1000146" data-name="Trazado 1000146" d="M181.884.143a1.154,1.154,0,0,0-1.23.092,3.441,3.441,0,0,0-.962,1.085,7.852,7.852,0,0,0-.8,1.522,4.4,4.4,0,0,0-.3,1.68,3.058,3.058,0,0,0-.011.375,4.756,4.756,0,0,0,.114.839c.034.155.068.319.115.477a2.178,2.178,0,0,0,.126.47c.021.051.08.018.084-.025,0-.01,0-.022,0-.032a.075.075,0,0,0,.1-.08,2.867,2.867,0,0,0-.14-.7c-.04-.264-.093-.526-.124-.772-.012-.1-.018-.2-.024-.3,0-.038,0-.076,0-.114a2.565,2.565,0,0,1,.633-1.553,5.221,5.221,0,0,1,1.156-1,4.025,4.025,0,0,0,1.213-.881c.2-.274.378-.842.054-1.093" transform="translate(-119.236 0)" fill="#ff6a7d"/>
          <path id="Trazado_1000147" data-name="Trazado 1000147" d="M184.659.132a.107.107,0,0,0-.207.032,3.63,3.63,0,0,1-2.363,2.9,6.054,6.054,0,0,0-2.7,1.746,7.347,7.347,0,0,0-1.407,3.3,4.166,4.166,0,0,0-.018,1.913,4.209,4.209,0,0,0,.371,1.175.118.118,0,1,0,.214-.1c-.013-.028-.021-.056-.033-.084a.114.114,0,0,0,.015-.126,3.719,3.719,0,0,1-.3-.884,5.781,5.781,0,0,1,.168-2.278A4.244,4.244,0,0,1,178.731,7a5.844,5.844,0,0,1,2.938-2.27,6.2,6.2,0,0,0,2.678-1.782,2.711,2.711,0,0,0,.312-2.818" transform="translate(-118.76 -0.042)" fill="#ffe1cb"/>
          <path id="Trazado_1000148" data-name="Trazado 1000148" d="M183.08,12.209a14.9,14.9,0,0,0-3.658,2,3.953,3.953,0,0,0-1.031,1.02,1.838,1.838,0,0,0-.262,1.455" transform="translate(-118.899 -8.152)" fill="none" stroke="#12263f" stroke-linecap="round" stroke-linejoin="round" stroke-width="0.75"/>
          <path id="Trazado_1000149" data-name="Trazado 1000149" d="M193.1,23.228a7.654,7.654,0,0,0-1.953-4.472.22.22,0,0,0-.388.182,16.631,16.631,0,0,1,.037,3.656,2.4,2.4,0,0,1-1.651,1.817,2.839,2.839,0,0,1-2.378-.644,5.358,5.358,0,0,1-.571-.526,4.106,4.106,0,0,0-1.406-2.4c-1.136-.739-2.71-.253-3.767.437a5.345,5.345,0,0,0-1.489,1.447,3.489,3.489,0,0,0-.732,1.839c0,.691.366.948.943.762a3.6,3.6,0,0,0,1.564-1.3,3.954,3.954,0,0,1,1.974-1.586,2.01,2.01,0,0,1,1.745.353.532.532,0,0,1,.1-.005.578.578,0,0,1,.356.139,2.054,2.054,0,0,1,.492.739,6.875,6.875,0,0,1,.338,1.01c.039.143.073.288.109.432a4.177,4.177,0,0,0,1.746,2.172,3.174,3.174,0,0,0,3.274-.17,4.47,4.47,0,0,0,1.654-3.88" transform="translate(-119.382 -12.466)" fill="#2079f3"/>
          <path id="Trazado_1000150" data-name="Trazado 1000150" d="M200.54,30.641a2.318,2.318,0,0,1-2.648,1.062,9.946,9.946,0,0,1-2.726-1.407,1.843,1.843,0,0,0-1.549-.358" transform="translate(-129.277 -19.944)" fill="none" stroke="#15260d" stroke-linecap="round" stroke-linejoin="round" stroke-width="0.75"/>
          <path id="Trazado_1000151" data-name="Trazado 1000151" d="M206.311,31.474a2.651,2.651,0,0,1-1.163,2.118,3.034,3.034,0,0,1-2.262.4,5.354,5.354,0,0,1-2.135-1.017" transform="translate(-134.041 -21.015)" fill="none" stroke="#12263f" stroke-linecap="round" stroke-linejoin="round" stroke-width="0.75"/>
          <path id="Trazado_1000152" data-name="Trazado 1000152" d="M207.295,39.062a2.477,2.477,0,0,1-2.211,1.143,5.748,5.748,0,0,1-2.435-.763" transform="translate(-135.308 -26.082)" fill="none" stroke="#12263f" stroke-linecap="round" stroke-linejoin="round" stroke-width="0.75"/>
          <path id="Trazado_1000153" data-name="Trazado 1000153" d="M185.734,27.088a6.942,6.942,0,0,0-4.288,3.12" transform="translate(-121.151 -18.087)" fill="none" stroke="#15260d" stroke-linecap="round" stroke-linejoin="round" stroke-width="0.75"/>
          <path id="Trazado_1000154" data-name="Trazado 1000154" d="M190.321,10.287c.022-.091.046-.182.062-.273a.1.1,0,0,0-.132-.114v0c-.02-.1-.143-.077-.14.023s0,.218,0,.326a3.4,3.4,0,0,1-1,1.608,2.451,2.451,0,0,1-2.384.154,6,6,0,0,0-3.976.291,5.925,5.925,0,0,0-2.876,2.752,6.609,6.609,0,0,0-.65,2.033,7,7,0,0,0-.086,1.061v.008a2.584,2.584,0,0,0,.167.969.171.171,0,0,0,.042.058c.014.028.026.058.042.084.062.1.177.022.184-.077a.161.161,0,0,0,.052-.116c.021-.4-.064-.788-.055-1.186a6.048,6.048,0,0,1,.116-1.039,5.966,5.966,0,0,1,.18-.671,4.323,4.323,0,0,1,.843-1.245,4.8,4.8,0,0,1,4.015-1.253,16.461,16.461,0,0,0,2.364.36,3.277,3.277,0,0,0,1.7-.539,3.457,3.457,0,0,0,1.236-1.446,3.88,3.88,0,0,0,.3-.979,2.305,2.305,0,0,0,0-.786" transform="translate(-119.604 -6.565)" fill="#ffe76d"/>
          <path id="Trazado_1000155" data-name="Trazado 1000155" d="M200.365,13.6a5.159,5.159,0,0,1-5.407,1.553" transform="translate(-130.173 -9.083)" fill="none" stroke="#12263f" stroke-linecap="round" stroke-linejoin="round" stroke-width="0.75"/>
          <path id="Trazado_1000156" data-name="Trazado 1000156" d="M165.71.143a1.154,1.154,0,0,1,1.23.092A3.445,3.445,0,0,1,167.9,1.32a7.855,7.855,0,0,1,.8,1.522,4.4,4.4,0,0,1,.3,1.68,3.055,3.055,0,0,1,.011.375,4.751,4.751,0,0,1-.114.839c-.034.155-.068.319-.115.477a2.179,2.179,0,0,1-.126.47c-.021.051-.08.018-.084-.025,0-.01,0-.022,0-.032a.075.075,0,0,1-.1-.08,2.868,2.868,0,0,1,.14-.7c.04-.264.093-.526.124-.772.012-.1.018-.2.024-.3,0-.038,0-.076,0-.114a2.565,2.565,0,0,0-.633-1.553,5.219,5.219,0,0,0-1.156-1,4.025,4.025,0,0,1-1.213-.881c-.2-.274-.378-.842-.054-1.093" transform="translate(-110.525 0)" fill="#ff6a7d"/>
          <path id="Trazado_1000157" data-name="Trazado 1000157" d="M155.759.132a.107.107,0,0,1,.207.032,3.63,3.63,0,0,0,2.363,2.9,6.051,6.051,0,0,1,2.7,1.746,7.345,7.345,0,0,1,1.407,3.3,4.166,4.166,0,0,1,.018,1.913,4.209,4.209,0,0,1-.371,1.175.118.118,0,1,1-.214-.1c.013-.028.021-.056.033-.084a.114.114,0,0,1-.015-.126,3.723,3.723,0,0,0,.3-.884,5.781,5.781,0,0,0-.169-2.278A4.242,4.242,0,0,0,161.688,7a5.845,5.845,0,0,0-2.938-2.27,6.2,6.2,0,0,1-2.678-1.782,2.711,2.711,0,0,1-.312-2.818" transform="translate(-103.827 -0.042)" fill="#ffe1cb"/>
          <path id="Trazado_1000158" data-name="Trazado 1000158" d="M161.451,12.209a14.9,14.9,0,0,1,3.658,2,3.953,3.953,0,0,1,1.031,1.02,1.839,1.839,0,0,1,.262,1.455" transform="translate(-107.8 -8.152)" fill="none" stroke="#12263f" stroke-linecap="round" stroke-linejoin="round" stroke-width="0.75"/>
          <path id="Trazado_1000159" data-name="Trazado 1000159" d="M132.757,23.228a7.654,7.654,0,0,1,1.953-4.472.22.22,0,0,1,.388.182,16.631,16.631,0,0,0-.037,3.656,2.4,2.4,0,0,0,1.651,1.817,2.84,2.84,0,0,0,2.378-.644,5.359,5.359,0,0,0,.571-.526,4.106,4.106,0,0,1,1.406-2.4c1.136-.739,2.71-.253,3.767.437a5.347,5.347,0,0,1,1.489,1.447,3.488,3.488,0,0,1,.732,1.839c0,.691-.366.948-.943.762a3.6,3.6,0,0,1-1.564-1.3,3.954,3.954,0,0,0-1.974-1.586,2.01,2.01,0,0,0-1.745.353.533.533,0,0,0-.1-.005.577.577,0,0,0-.356.139,2.053,2.053,0,0,0-.492.739,6.877,6.877,0,0,0-.338,1.01c-.039.143-.073.288-.109.432a4.177,4.177,0,0,1-1.746,2.172,3.174,3.174,0,0,1-3.274-.17,4.469,4.469,0,0,1-1.654-3.88" transform="translate(-88.639 -12.466)" fill="#2079f3"/>
          <path id="Trazado_1000160" data-name="Trazado 1000160" d="M140.143,30.641a2.318,2.318,0,0,0,2.648,1.062,9.945,9.945,0,0,0,2.726-1.407,1.843,1.843,0,0,1,1.549-.358" transform="translate(-93.573 -19.944)" fill="none" stroke="#15260d" stroke-linecap="round" stroke-linejoin="round" stroke-width="0.75"/>
          <path id="Trazado_1000161" data-name="Trazado 1000161" d="M137.11,31.474a2.651,2.651,0,0,0,1.163,2.118,3.034,3.034,0,0,0,2.262.4,5.354,5.354,0,0,0,2.135-1.017" transform="translate(-91.548 -21.015)" fill="none" stroke="#12263f" stroke-linecap="round" stroke-linejoin="round" stroke-width="0.75"/>
          <path id="Trazado_1000162" data-name="Trazado 1000162" d="M137.965,39.062a2.477,2.477,0,0,0,2.211,1.143,5.746,5.746,0,0,0,2.435-.763" transform="translate(-92.119 -26.082)" fill="none" stroke="#12263f" stroke-linecap="round" stroke-linejoin="round" stroke-width="0.75"/>
          <path id="Trazado_1000163" data-name="Trazado 1000163" d="M160.242,27.088a6.942,6.942,0,0,1,4.288,3.12" transform="translate(-106.993 -18.087)" fill="none" stroke="#12263f" stroke-linecap="round" stroke-linejoin="round" stroke-width="0.75"/>
          <path id="Trazado_1000164" data-name="Trazado 1000164" d="M141.658,10.287c-.022-.091-.046-.182-.062-.273a.1.1,0,0,1,.132-.114v0c.02-.1.143-.077.14.023s0,.218,0,.326a3.4,3.4,0,0,0,1,1.608,2.451,2.451,0,0,0,2.384.154,6,6,0,0,1,3.976.291,5.924,5.924,0,0,1,2.876,2.752,6.611,6.611,0,0,1,.651,2.033,7.015,7.015,0,0,1,.086,1.061v.008a2.571,2.571,0,0,1-.167.969.17.17,0,0,1-.042.058c-.014.028-.026.058-.042.084-.062.1-.178.022-.184-.077a.161.161,0,0,1-.052-.116c-.021-.4.064-.788.055-1.186a5.733,5.733,0,0,0-.3-1.71,4.31,4.31,0,0,0-.843-1.245,4.8,4.8,0,0,0-4.015-1.253,16.453,16.453,0,0,1-2.364.36,3.276,3.276,0,0,1-1.7-.539,3.458,3.458,0,0,1-1.236-1.446,3.893,3.893,0,0,1-.3-.979,2.3,2.3,0,0,1,0-.786" transform="translate(-94.542 -6.565)" fill="#ffe76d"/>
          <path id="Trazado_1000165" data-name="Trazado 1000165" d="M143.364,13.6a5.159,5.159,0,0,0,5.407,1.553" transform="translate(-95.724 -9.083)" fill="none" stroke="#12263f" stroke-linecap="round" stroke-linejoin="round" stroke-width="0.75"/>
          <path id="Trazado_1000166" data-name="Trazado 1000166" d="M237.367,4.426a.266.266,0,0,0-.526-.078,41.678,41.678,0,0,1-2.586,7.079c-.069.134-.137.269-.21.4a12.458,12.458,0,0,1-4.072,4.454,17.588,17.588,0,0,1-10.923,2.6,21.047,21.047,0,0,1-5.665-1.229,33.549,33.549,0,0,1-5.321-2.676c-.527-.306-1.06-.607-1.6-.892a12.341,12.341,0,0,0,2.191.328c.937.079,1.875.173,2.813.229a9.7,9.7,0,0,0,4.786-.8,10.98,10.98,0,0,0,5.695-7.415,36.936,36.936,0,0,0,.929-6.039.3.3,0,0,0-.6-.09,19.094,19.094,0,0,1-4.634,8.308,15.549,15.549,0,0,1-8.309,4.566,17.546,17.546,0,0,1-4.081.32,12.042,12.042,0,0,0-2.541-.846,9.9,9.9,0,0,0-5.739.548,5.845,5.845,0,0,0-3.538,3.487c-.016.051-.029.1-.043.153a14.742,14.742,0,0,0-2.26,1.184c-1.6,1.017-3.176,2.282-5.04,2.6a5.7,5.7,0,0,1-4.891-1.622c-1.214-1.21-2.193-3.471-.834-5.006.018-.02.038-.033.056-.052.8-.218,1.474.927,1.846,1.565s.819,1.337,1.529,1.524a1.493,1.493,0,0,0,1.662-.527,1.822,1.822,0,0,0-.487-2.124c-1.105-1.258-2.884-2.407-4.467-1.521-1.448.81-1.827,2.882-1.295,4.454a6.4,6.4,0,0,0,3.576,3.724,6.329,6.329,0,0,0,5.143-.11c1.717-.77,3.2-2.035,4.866-2.9.138-.072.28-.135.42-.2a5.845,5.845,0,0,0,1.051,3.814c1.953,2.7,6.436,3.036,8.36.105a3.574,3.574,0,0,0-.7-4.586c-1.449-1.3-3.559-1.371-5.331-1.165a11.619,11.619,0,0,0-2.194.477,4.192,4.192,0,0,1,1.116-1.446,8.327,8.327,0,0,1,5.545-1.693,12.705,12.705,0,0,1,5.686,1.885,58.483,58.483,0,0,0,5.183,2.8,31.882,31.882,0,0,0,10.7,2.715A16.836,16.836,0,0,0,228.243,20a16.029,16.029,0,0,0,5.131-2.582,9.067,9.067,0,0,0,3.085-5.027,26.975,26.975,0,0,0,.909-7.961M198.79,16.8a4.355,4.355,0,0,1,2.747,1.1,2.708,2.708,0,0,1,.808,2.539c-.454,1.816-2.459,2.55-3.983,2.479a4.535,4.535,0,0,1-4.058-2.893,4.668,4.668,0,0,1-.225-2.575,10.893,10.893,0,0,1,4.711-.647" transform="translate(-119.506 -0.042)" fill="#2cbe91"/>
          <path id="Trazado_1000167" data-name="Trazado 1000167" d="M257.717,40.4a16.078,16.078,0,0,1-4.76-1.372" transform="translate(-168.899 -26.06)" fill="none" stroke="#12263f" stroke-linecap="round" stroke-linejoin="round" stroke-width="0.75"/>
          <path id="Trazado_1000168" data-name="Trazado 1000168" d="M285.714,15.125a13.612,13.612,0,0,1-10.243,8.532" transform="translate(-183.931 -10.099)" fill="none" stroke="#12263f" stroke-linecap="round" stroke-linejoin="round" stroke-width="0.75"/>
          <path id="Trazado_1000169" data-name="Trazado 1000169" d="M316.33,23.622c-1.277,4.225-3.847,8.147-7.526,9.969a13.779,13.779,0,0,1-2.3.871,19.184,19.184,0,0,1-8.281.534" transform="translate(-199.125 -15.772)" fill="none" stroke="#15260d" stroke-linecap="round" stroke-linejoin="round" stroke-width="0.75"/>
          <path id="Trazado_1000170" data-name="Trazado 1000170" d="M225.654,45.355a5.181,5.181,0,0,0-1.461,4.211" transform="translate(-149.681 -30.283)" fill="none" stroke="#12263f" stroke-linecap="round" stroke-linejoin="round" stroke-width="0.75"/>
          <path id="Trazado_1000171" data-name="Trazado 1000171" d="M223.005,45.454a5.8,5.8,0,0,0-.941,3.6" transform="translate(-148.262 -30.35)" fill="none" stroke="#15260d" stroke-linecap="round" stroke-linejoin="round" stroke-width="0.75"/>
          <path id="Trazado_1000172" data-name="Trazado 1000172" d="M225.473,49.646a8.8,8.8,0,0,1,1.454-.583" transform="translate(-150.548 -32.759)" fill="none" stroke="#12263f" stroke-linecap="round" stroke-linejoin="round" stroke-width="0.75"/>
          <path id="Trazado_1000173" data-name="Trazado 1000173" d="M181.423,41.867a2.666,2.666,0,0,1,.648-1.207,1.661,1.661,0,0,1,.6-.314,2.538,2.538,0,0,1,2.677.711,1.434,1.434,0,0,1,.387.957c-.013.359-.272.718-.6.716" transform="translate(-121.136 -26.858)" fill="none" stroke="#12263f" stroke-linecap="round" stroke-linejoin="round" stroke-width="0.75"/>
          <path id="Trazado_1000174" data-name="Trazado 1000174" d="M.924,12.387a9.067,9.067,0,0,0,3.084,5.027A16.033,16.033,0,0,0,9.139,20a16.845,16.845,0,0,0,5.611.717A31.881,31.881,0,0,0,25.446,18a58.565,58.565,0,0,0,5.183-2.8,12.707,12.707,0,0,1,5.686-1.885,8.327,8.327,0,0,1,5.545,1.693,4.189,4.189,0,0,1,1.116,1.446,11.615,11.615,0,0,0-2.194-.477c-1.773-.206-3.883-.134-5.332,1.165a3.574,3.574,0,0,0-.7,4.586c1.924,2.931,6.407,2.6,8.36-.105a5.845,5.845,0,0,0,1.051-3.814c.141.066.282.129.42.2,1.671.869,3.149,2.135,4.866,2.9a6.328,6.328,0,0,0,5.143.11A6.4,6.4,0,0,0,58.17,17.3c.532-1.572.153-3.643-1.295-4.454-1.582-.886-3.362.264-4.467,1.521a1.823,1.823,0,0,0-.487,2.124,1.493,1.493,0,0,0,1.663.526c.71-.186,1.156-.884,1.529-1.524s1.044-1.784,1.847-1.565c.018.019.038.032.055.052,1.359,1.535.38,3.8-.834,5.006a5.7,5.7,0,0,1-4.89,1.622c-1.865-.314-3.444-1.579-5.04-2.6a14.714,14.714,0,0,0-2.26-1.184c-.014-.051-.027-.1-.043-.153a5.846,5.846,0,0,0-3.538-3.487,9.9,9.9,0,0,0-5.739-.548,12.048,12.048,0,0,0-2.541.846,17.565,17.565,0,0,1-4.081-.32A15.548,15.548,0,0,1,19.74,8.607,19.093,19.093,0,0,1,15.106.3a.3.3,0,0,0-.6.09,36.966,36.966,0,0,0,.929,6.039,10.979,10.979,0,0,0,5.695,7.415,9.7,9.7,0,0,0,4.786.8c.939-.056,1.876-.15,2.813-.229a12.337,12.337,0,0,0,2.191-.328c-.541.285-1.074.587-1.6.892A33.549,33.549,0,0,1,24,17.654a21.044,21.044,0,0,1-5.665,1.229,17.588,17.588,0,0,1-10.923-2.6,12.46,12.46,0,0,1-4.072-4.454c-.073-.132-.141-.268-.21-.4A41.694,41.694,0,0,1,.54,4.347a.266.266,0,0,0-.525.078,26.961,26.961,0,0,0,.909,7.961M43.3,17.45a4.672,4.672,0,0,1-.225,2.575,4.536,4.536,0,0,1-4.058,2.893c-1.525.071-3.529-.663-3.983-2.479a2.71,2.71,0,0,1,.808-2.539,4.357,4.357,0,0,1,2.747-1.1,10.893,10.893,0,0,1,4.711.647" transform="translate(0 -0.042)" fill="#2cbe91"/>
          <path id="Trazado_1000175" data-name="Trazado 1000175" d="M87.443,40.4a16.078,16.078,0,0,0,4.76-1.372" transform="translate(-58.386 -26.06)" fill="none" stroke="#12263f" stroke-linecap="round" stroke-linejoin="round" stroke-width="0.75"/>
          <path id="Trazado_1000176" data-name="Trazado 1000176" d="M48.43,15.125a13.612,13.612,0,0,0,10.243,8.532" transform="translate(-32.337 -10.099)" fill="none" stroke="#15260d" stroke-linecap="round" stroke-linejoin="round" stroke-width="0.75"/>
          <path id="Trazado_1000177" data-name="Trazado 1000177" d="M2.019,23.622c1.277,4.225,3.847,8.147,7.526,9.969a13.778,13.778,0,0,0,2.3.871A19.185,19.185,0,0,0,20.123,35" transform="translate(-1.348 -15.772)" fill="none" stroke="#15260d" stroke-linecap="round" stroke-linejoin="round" stroke-width="0.75"/>
          <path id="Trazado_1000178" data-name="Trazado 1000178" d="M126.1,45.355a5.181,5.181,0,0,1,1.461,4.211" transform="translate(-84.197 -30.283)" fill="none" stroke="#15260d" stroke-linecap="round" stroke-linejoin="round" stroke-width="0.75"/>
          <path id="Trazado_1000179" data-name="Trazado 1000179" d="M129.8,45.454a5.8,5.8,0,0,1,.941,3.6" transform="translate(-86.667 -30.35)" fill="none" stroke="#12263f" stroke-linecap="round" stroke-linejoin="round" stroke-width="0.75"/>
          <path id="Trazado_1000180" data-name="Trazado 1000180" d="M126.329,49.646a8.8,8.8,0,0,0-1.454-.583" transform="translate(-83.379 -32.759)" fill="none" stroke="#12263f" stroke-linecap="round" stroke-linejoin="round" stroke-width="0.75"/>
          <path id="Trazado_1000181" data-name="Trazado 1000181" d="M164.63,41.867a2.671,2.671,0,0,0-.648-1.207,1.661,1.661,0,0,0-.6-.314,2.538,2.538,0,0,0-2.677.711,1.434,1.434,0,0,0-.387.957c.013.359.272.718.6.716" transform="translate(-107.041 -26.858)" fill="none" stroke="#15260d" stroke-linecap="round" stroke-linejoin="round" stroke-width="0.75"/>
          <path id="Trazado_1000182" data-name="Trazado 1000182" d="M176.576,33.185a1.49,1.49,0,1,0-1.483,1.639,1.567,1.567,0,0,0,1.483-1.639" transform="translate(-115.919 -21.063)" fill="#2cbe91"/>
        </g>
      </g>
      <g id="Grupo_1186068" data-name="Grupo 1186068" transform="translate(1213.405 2462.795)">
        <g id="Grupo_1184024" data-name="Grupo 1184024" transform="translate(0 0)">
          <rect id="Rectángulo_455879-2" data-name="Rectángulo 455879" width="41.48" height="39.828" transform="translate(0.313 0)" fill="#ffb57d"/>
          <path id="Trazado_1000145-2" data-name="Trazado 1000145" d="M0,1.819H1.109a1.817,1.817,0,0,1,3.633,0H6.3v0a1.817,1.817,0,1,1,3.633,0h1.454v0a1.817,1.817,0,1,1,3.633,0H16.54v0a1.817,1.817,0,1,1,3.633,0h1.576v0a1.817,1.817,0,1,1,3.633,0h1.484a1.817,1.817,0,0,1,3.633,0h1.534v0a1.817,1.817,0,1,1,3.633,0H37.2v0a1.817,1.817,0,1,1,3.633,0H42.1" transform="translate(42.104 41.252) rotate(180)" fill="#ffb57d"/>
        </g>
        <path id="Trazado_1026845" data-name="Trazado 1026845" d="M31.567,6.841c-.13-2.285-1.576-3.628-4.171-2.661a28.435,28.435,0,0,1-3.627.994c-.221-.849-.443-1.719-.6-2.4l-.022.011c-.054-.228-.1-.436-.141-.612A2.459,2.459,0,0,0,20.567,0l-10.4.591C8.894.667,8.243,1.78,7.994,3.03c-.131.66-.292,1.755-.44,2.846-2.095-.187-3.7-.358-3.7-.358C.759,4.9-.118,6.35.012,8.635c.226,3.979,7.751,8.28,16.272,7.8s15.51-5.611,15.283-9.59" transform="translate(5.124 12.669) rotate(-1)" fill="#ffb57d" style="mix-blend-mode: multiply;isolation: isolate"/>
      </g>
      <g id="g3261" transform="translate(1158.217 3017.767)" opacity="0.5">
        <g id="g3263" transform="translate(0 -682.665)">
          <g id="g3265" clip-path="url(#clip-path-2)">
            <g id="g3271" transform="translate(-35.559 94.131)">
              <path id="path3273" d="M-102.665-164.82l-6.963,5.555m-8.494-7.967,11.71-16.795c9.76-14,26.122,1.361,13.061,11.781l-4.8,3.828" transform="translate(118.122 189.636)" fill="none" stroke="#000" stroke-linecap="round" stroke-linejoin="round" stroke-miterlimit="10" stroke-width="1"/>
            </g>
          </g>
        </g>
      </g>
    </g>
    <g id="Grupo_1186932" data-name="Grupo 1186932" transform="translate(1144.348 436.503)">
      <g id="Grupo_1186931" data-name="Grupo 1186931" clip-path="url(#clip-path-3)">
        <path id="Trazado_1138589" data-name="Trazado 1138589" d="M93.117,303.128a1.648,1.648,0,0,0-.026,2.181,1.322,1.322,0,0,0,1.99.028c2.813-3,1.66-5.477.9-7.113-.716-1.536-1.012-2.171.5-3.728a1.648,1.648,0,0,0,.06-2.18,1.322,1.322,0,0,0-1.989-.066c-3.048,3.144-1.86,5.691-1.074,7.377.687,1.474.971,2.084-.356,3.5" transform="translate(-79.647 -247.181)" fill="#2079f3"/>
        <path id="Trazado_1138590" data-name="Trazado 1138590" d="M148.884,249.086a1.648,1.648,0,0,0-.026,2.181,1.322,1.322,0,0,0,1.99.028c2.814-3.006,1.659-5.478.895-7.114-.717-1.535-1.014-2.171.495-3.727a1.648,1.648,0,0,0,.06-2.18,1.322,1.322,0,0,0-1.989-.066c-3.048,3.144-1.858,5.692-1.071,7.378.688,1.473.973,2.083-.354,3.5" transform="translate(-127.625 -201.408)" fill="#2079f3"/>
        <path id="Trazado_1138591" data-name="Trazado 1138591" d="M291.7,233.014a1.34,1.34,0,0,0,1-.463,3.443,3.443,0,0,1,2.96,0,1.322,1.322,0,0,0,1.99.007,1.649,1.649,0,0,0,.006-2.181,4.879,4.879,0,0,0-3.516-1.25,4.819,4.819,0,0,0-3.449,1.259,1.651,1.651,0,0,0,.021,2.183,1.343,1.343,0,0,0,.984.44" transform="translate(-249.759 -194.075)" fill="#2079f3"/>
        <path id="Trazado_1138592" data-name="Trazado 1138592" d="M373.32,233.015a1.341,1.341,0,0,0,1-.463,3.444,3.444,0,0,1,2.96,0,1.322,1.322,0,0,0,1.99.007,1.649,1.649,0,0,0,.006-2.181,4.878,4.878,0,0,0-3.516-1.25,4.82,4.82,0,0,0-3.449,1.259,1.651,1.651,0,0,0,.021,2.183,1.343,1.343,0,0,0,.984.44" transform="translate(-319.988 -194.076)" fill="#2079f3"/>
        <path id="Trazado_1138593" data-name="Trazado 1138593" d="M351.257,74.614a1.479,1.479,0,0,0,1.407-1.542V65.99a1.413,1.413,0,1,0-2.814,0v7.082a1.479,1.479,0,0,0,1.407,1.542" transform="translate(-301.005 -54.588)" fill="#2079f3"/>
        <path id="Trazado_1138594" data-name="Trazado 1138594" d="M282.829,85.373a1.479,1.479,0,0,0-1.407,1.542v7.076a1.413,1.413,0,1,0,2.814,0V86.915a1.479,1.479,0,0,0-1.407-1.542" transform="translate(-242.131 -72.311)" fill="#2079f3"/>
        <path id="Trazado_1138595" data-name="Trazado 1138595" d="M419.686,95.532a1.479,1.479,0,0,0,1.407-1.542V86.914a1.413,1.413,0,1,0-2.814,0V93.99a1.479,1.479,0,0,0,1.407,1.542" transform="translate(-359.88 -72.31)" fill="#2079f3"/>
        <path id="Trazado_1138596" data-name="Trazado 1138596" d="M89.874,53.458a5.748,5.748,0,0,0,5.46-5.987V34.043a5.748,5.748,0,0,0-5.46-5.987H83.9a5.748,5.748,0,0,0-5.46,5.987V47.471a5.748,5.748,0,0,0,5.46,5.987h1.58V75.052H84.315a4.315,4.315,0,0,0-1.168.161L81.8,68.979a13.265,13.265,0,0,0-6.092-8.888,18.286,18.286,0,0,0-6.078-2.26,1.316,1.316,0,0,0-.158-.03,29.526,29.526,0,0,0-4-.47h-.02a4.5,4.5,0,0,1-1.942-.464c-.024-.013-.048-.027-.073-.038a4.819,4.819,0,0,1-1.756-1.782q.45-.38.882-.783a18.7,18.7,0,0,0,6.308-13.6V30.737a1.676,1.676,0,0,0,0-.449V20.167a7.794,7.794,0,0,0,2.915-8.236,8.737,8.737,0,0,0-8.542-6.405H59.28A8.577,8.577,0,0,0,51.968.056a10.712,10.712,0,0,0-10.333,5.47H37.843a8.865,8.865,0,0,0-8.667,6.5,7.707,7.707,0,0,0,2.866,8.142V37.951s0,.007,0,.011v3.5c0,5.2,2.891,9.289,5.316,11.8.581.6,1.2,1.177,1.835,1.719a4.863,4.863,0,0,1-1.8,1.845l-.008,0a4.463,4.463,0,0,1-2,.491h-.02a29.816,29.816,0,0,0-4,.465l-.023,0c-6.122,1.165-10.078,4.287-11.795,9.318H4.756a5.241,5.241,0,0,0,0,10.437H8.414a21.881,21.881,0,0,0,6.361,8.938H13.407a4.378,4.378,0,0,0-4.158,4.559V94.2a4.377,4.377,0,0,0,4.158,4.559h8.241a1.549,1.549,0,0,0,0-3.084H13.407A1.416,1.416,0,0,1,12.063,94.2v-3.15a1.416,1.416,0,0,1,1.344-1.475H42.714a1.416,1.416,0,0,1,1.333,1.3c0,.006,0,.013,0,.019.005.051.008.1.008.155V94.2a1.415,1.415,0,0,1-1.344,1.475H28.058a1.549,1.549,0,0,0,0,3.084H42.714A4.377,4.377,0,0,0,46.872,94.2V92.128H79.606a4.941,4.941,0,0,0,4.708,4.929h2.572c4.018,0,7.286-3.585,7.286-7.991V83.043a7.851,7.851,0,0,0-5.879-7.84V53.458ZM79.066,69.688l1.573,7.3A5.46,5.46,0,0,0,79.6,80.222v8.822h-4l-2.3-14.6A4.817,4.817,0,0,0,70.724,70.6V61.23c4.658,1.307,7.4,4.1,8.341,8.458M67.91,60.654v9.654H64.3v-10a8.065,8.065,0,0,0,1.049.107c.9.047,1.747.129,2.556.242M54.7,70.307a4.785,4.785,0,0,0-4.386-3.19H39.465v-4.7c2.684,2.146,6.577,3.105,9.989,3.249q.447.019.91.019c3.713,0,8.1-.934,11.126-3.4v8.023ZM47.909,73.3a8.335,8.335,0,0,0,.1-3.1h2.306a2.143,2.143,0,0,1,0,4.269H47.642c.1-.387.188-.777.268-1.171M66.062,31.743V35.9A5.872,5.872,0,0,1,62.557,31q1.755.327,3.505.746M38.3,31a5.872,5.872,0,0,1-3.443,4.865V31.743Q36.574,31.326,38.3,31M34.856,41.465V39.153a10.345,10.345,0,0,0,3.178-1.806,8.825,8.825,0,0,0,3.118-6.82c2.12-.306,4.237-.508,6.339-.6a1.493,1.493,0,0,0,1.349-1.6,1.467,1.467,0,0,0-1.463-1.478,67.433,67.433,0,0,0-7.8.812l-.035,0a1.333,1.333,0,0,0-.147.027q-2.269.375-4.532.9V19.349a1.58,1.58,0,0,0-.663-1.309c-2-1.367-2.823-3.2-2.311-5.168a6.074,6.074,0,0,1,5.961-4.263h4.609A1.4,1.4,0,0,0,43.7,7.77a7.979,7.979,0,0,1,8-4.645A5.826,5.826,0,0,1,56.943,7.5a1.431,1.431,0,0,0,1.351,1.112h4.955a5.869,5.869,0,0,1,5.837,4.169c.514,1.97-.346,3.888-2.36,5.262a1.581,1.581,0,0,0-.663,1.309v9.239q-2.286-.527-4.582-.9a1.286,1.286,0,0,0-.155-.029l-.039,0a69.5,69.5,0,0,0-7.109-.776,1.462,1.462,0,0,0-1.478,1.46,1.5,1.5,0,0,0,1.333,1.62q2.824.16,5.676.569a8.786,8.786,0,0,0,3.355,7.022,10.388,10.388,0,0,0,3,1.628v1.488a15.554,15.554,0,0,1-5.321,11.253,20.107,20.107,0,0,1-1.667,1.4c-.021.015-.041.03-.061.046a17.065,17.065,0,0,1-8.687,3.517c-.083,0-.168.007-.256.007-1.976,0-5.165-1.261-8.166-3.538a1.409,1.409,0,0,0-.132-.1,22.616,22.616,0,0,1-2.481-2.217c-2.024-2.1-4.436-5.463-4.436-9.565m15.216,18.5c.139,0,.276,0,.41-.012a18.868,18.868,0,0,0,8.874-3.177,8.669,8.669,0,0,0,1.569,1.906c-2.3,2.916-7.168,4.077-11.363,3.9-4.363-.183-8.032-1.709-9.633-3.909a8.715,8.715,0,0,0,1.581-1.934c2.962,1.994,6.121,3.225,8.562,3.225m-14.581.444a7.958,7.958,0,0,0,1.16-.128v6.834H33.045v-6.48c.776-.105,1.589-.181,2.446-.226m-5.26.786v5.92H22.622c1.36-2.94,3.877-4.9,7.609-5.92M4.756,74.471a2.144,2.144,0,0,1,0-4.269H7.064a8.315,8.315,0,0,0,.1,3.1v0c.08.395.17.784.267,1.169ZM20.424,86.493c-5.388-2.417-9.213-7.454-10.515-13.862a3.515,3.515,0,0,1,.079-2.3c.029-.04.1-.133.406-.133H44.677c.31,0,.382.1.408.133a3.524,3.524,0,0,1,.076,2.3,19.375,19.375,0,0,1-10.375,13.86Zm26.022,2.551a4.147,4.147,0,0,0-3.732-2.551H40.287a22.648,22.648,0,0,0,6.356-8.938h3.672a4.9,4.9,0,0,0,4.664-4.163H69.317c.939,0,1.181,1.4,1.207,1.571l2.219,14.082Zm44.914-6v6.023a4.71,4.71,0,0,1-4.472,4.907H84.315a2,2,0,0,1-1.9-2.091V80.222a2.167,2.167,0,0,1,.673-1.59l.037-.034a1.789,1.789,0,0,1,1.19-.462h2.572a4.71,4.71,0,0,1,4.472,4.907m-10.1-35.572V34.043a2.786,2.786,0,0,1,2.645-2.9h5.974a2.786,2.786,0,0,1,2.645,2.9V47.471a2.786,2.786,0,0,1-2.645,2.9H83.9a2.786,2.786,0,0,1-2.645-2.9" transform="translate(0 0)" fill="#2079f3"/>
      </g>
    </g>
  </g>
</svg>
