<svg xmlns="http://www.w3.org/2000/svg" xmlns:xlink="http://www.w3.org/1999/xlink" width="212.55" height="212.708" viewBox="0 0 212.55 212.708">
  <defs>
    <clipPath id="clip-path">
      <rect id="Rectángulo_455881" data-name="Rectángulo 455881" width="119.549" height="24.09" fill="#2cbe91"/>
    </clipPath>
  </defs>
  <g id="Grupo_1186067" data-name="Grupo 1186067" transform="translate(-1070.451 -3848.971)">
    <path id="Trazado_1085321" data-name="Trazado 1085321" d="M201.153,17.186V0h-6.024a8.678,8.678,0,0,1-8.744,8.611A8.678,8.678,0,0,1,177.774,0h-7.351a8.678,8.678,0,0,1-8.678,8.678A8.678,8.678,0,0,1,153.067,0h-7.33a8.678,8.678,0,0,1-8.678,8.678A8.678,8.678,0,0,1,128.38,0h-7.088a8.679,8.679,0,0,1-8.679,8.679A8.679,8.679,0,0,1,103.934,0H96.408A8.678,8.678,0,0,1,87.73,8.678,8.678,8.678,0,0,1,79.052,0H71.777A8.678,8.678,0,0,1,63.1,8.678,8.678,8.678,0,0,1,54.42,0H47.479A8.679,8.679,0,0,1,30.121.009V0H22.682A8.678,8.678,0,0,1,14,8.678,8.678,8.678,0,0,1,5.325,0H0V17.24a8.679,8.679,0,0,1,8.679,8.679A8.679,8.679,0,0,1,0,34.6v7.526A8.679,8.679,0,0,1,8.679,50.8,8.679,8.679,0,0,1,0,59.482v7.089H.019a8.679,8.679,0,0,1,8.669,8.688A8.678,8.678,0,0,1,0,83.927v7.327a8.679,8.679,0,0,1,8.679,8.679A8.679,8.679,0,0,1,0,108.612v6.979H.019a8.678,8.678,0,0,1,8.669,8.688A8.679,8.679,0,0,1,0,132.947v17.159H5.3a8.678,8.678,0,0,1,17.356,0H30.09v-.019a8.678,8.678,0,1,1,17.356.019h6.944v-.019a8.678,8.678,0,1,1,17.356.019h7.27v-.019a8.678,8.678,0,1,1,17.356.019H103.9v-.019a8.678,8.678,0,1,1,17.356.019h7.089a8.679,8.679,0,1,1,17.358,0h7.326v-.019a8.678,8.678,0,1,1,17.356.019h7.353v-.019a8.678,8.678,0,1,1,17.356.019h6.054V132.894h-.019a8.678,8.678,0,1,1,.019-17.356v-6.979a8.679,8.679,0,1,1,0-17.357V83.873h-.019a8.678,8.678,0,1,1,.019-17.356V59.428a8.679,8.679,0,1,1,0-17.358V34.545a8.679,8.679,0,0,1-.009-17.358h.009" transform="translate(1118.181 4050.124) rotate(-90)" fill="#bbd6fc"/>
    <g id="Grupo_1184041" data-name="Grupo 1184041" transform="translate(1070.451 4029.485)">
      <g id="Grupo_1183367" data-name="Grupo 1183367" transform="translate(0 0)" clip-path="url(#clip-path)">
        <path id="Trazado_1000146" data-name="Trazado 1000146" d="M181.931.145a1.17,1.17,0,0,0-1.248.094,3.49,3.49,0,0,0-.975,1.1,7.964,7.964,0,0,0-.813,1.544,4.461,4.461,0,0,0-.3,1.7,3.1,3.1,0,0,0-.011.38,4.823,4.823,0,0,0,.116.851c.034.157.069.324.116.483a2.208,2.208,0,0,0,.128.476c.021.051.081.018.086-.026,0-.01,0-.022,0-.032a.076.076,0,0,0,.1-.081,2.906,2.906,0,0,0-.142-.705c-.04-.267-.094-.534-.125-.783-.012-.1-.018-.2-.025-.3,0-.039,0-.077,0-.116a2.6,2.6,0,0,1,.642-1.575,5.294,5.294,0,0,1,1.173-1.011,4.082,4.082,0,0,0,1.23-.893c.2-.278.383-.854.055-1.108" transform="translate(-118.394 0)" fill="#ff6a7d"/>
        <path id="Trazado_1000147" data-name="Trazado 1000147" d="M184.755.133a.108.108,0,0,0-.21.033,3.682,3.682,0,0,1-2.4,2.942,6.14,6.14,0,0,0-2.736,1.77,7.452,7.452,0,0,0-1.427,3.345,4.225,4.225,0,0,0-.018,1.941,4.269,4.269,0,0,0,.376,1.192.12.12,0,1,0,.217-.1c-.013-.028-.021-.057-.033-.085a.116.116,0,0,0,.015-.128,3.773,3.773,0,0,1-.309-.9,5.862,5.862,0,0,1,.171-2.31,4.3,4.3,0,0,1,.338-.732,5.927,5.927,0,0,1,2.98-2.3,6.287,6.287,0,0,0,2.716-1.807,2.749,2.749,0,0,0,.316-2.858" transform="translate(-117.921 -0.042)" fill="#ffe1cb"/>
        <path id="Trazado_1000148" data-name="Trazado 1000148" d="M183.151,12.209a15.116,15.116,0,0,0-3.71,2.032,4.009,4.009,0,0,0-1.045,1.035,1.864,1.864,0,0,0-.266,1.476" transform="translate(-118.059 -8.094)" fill="none" stroke="#12263f" stroke-linecap="round" stroke-linejoin="round" stroke-width="0.75"/>
        <path id="Trazado_1000149" data-name="Trazado 1000149" d="M193.3,23.292a7.763,7.763,0,0,0-1.981-4.535.223.223,0,0,0-.394.185,16.868,16.868,0,0,1,.037,3.708,2.435,2.435,0,0,1-1.675,1.843,2.88,2.88,0,0,1-2.411-.653,5.433,5.433,0,0,1-.579-.534,4.165,4.165,0,0,0-1.426-2.438c-1.152-.75-2.748-.256-3.82.443a5.421,5.421,0,0,0-1.511,1.467,3.538,3.538,0,0,0-.743,1.865c0,.7.371.962.956.772a3.655,3.655,0,0,0,1.586-1.314,4.01,4.01,0,0,1,2-1.609,2.038,2.038,0,0,1,1.77.358.54.54,0,0,1,.106-.005.586.586,0,0,1,.361.141,2.083,2.083,0,0,1,.5.75,6.973,6.973,0,0,1,.343,1.025c.04.145.074.292.111.438a4.236,4.236,0,0,0,1.771,2.2,3.219,3.219,0,0,0,3.32-.173,4.533,4.533,0,0,0,1.678-3.935" transform="translate(-118.538 -12.378)" fill="#2079f3"/>
        <path id="Trazado_1000150" data-name="Trazado 1000150" d="M200.638,30.652a2.35,2.35,0,0,1-2.686,1.077,10.087,10.087,0,0,1-2.765-1.427,1.869,1.869,0,0,0-1.571-.363" transform="translate(-128.364 -19.803)" fill="none" stroke="#15260d" stroke-linecap="round" stroke-linejoin="round" stroke-width="0.75"/>
        <path id="Trazado_1000151" data-name="Trazado 1000151" d="M206.39,31.474a2.689,2.689,0,0,1-1.18,2.148,3.077,3.077,0,0,1-2.294.41A5.43,5.43,0,0,1,200.751,33" transform="translate(-133.094 -20.867)" fill="none" stroke="#12263f" stroke-linecap="round" stroke-linejoin="round" stroke-width="0.75"/>
        <path id="Trazado_1000152" data-name="Trazado 1000152" d="M207.361,39.062a2.512,2.512,0,0,1-2.242,1.159,5.829,5.829,0,0,1-2.469-.774" transform="translate(-134.352 -25.897)" fill="none" stroke="#12263f" stroke-linecap="round" stroke-linejoin="round" stroke-width="0.75"/>
        <path id="Trazado_1000153" data-name="Trazado 1000153" d="M185.8,27.088a7.04,7.04,0,0,0-4.349,3.164" transform="translate(-120.295 -17.959)" fill="none" stroke="#15260d" stroke-linecap="round" stroke-linejoin="round" stroke-width="0.75"/>
        <path id="Trazado_1000154" data-name="Trazado 1000154" d="M190.48,10.293c.022-.092.047-.184.063-.277a.1.1,0,0,0-.134-.116v0c-.02-.1-.145-.079-.142.023s0,.221,0,.331a3.45,3.45,0,0,1-1.017,1.631,2.486,2.486,0,0,1-2.417.156,6.082,6.082,0,0,0-4.033.3,6.009,6.009,0,0,0-2.917,2.792,6.7,6.7,0,0,0-.66,2.062,7.1,7.1,0,0,0-.087,1.076v.008a2.621,2.621,0,0,0,.17.982.173.173,0,0,0,.043.059c.015.028.026.059.043.086.063.1.18.022.186-.078a.163.163,0,0,0,.052-.117c.021-.4-.065-.8-.056-1.2a6.135,6.135,0,0,1,.118-1.054,6.051,6.051,0,0,1,.182-.68A4.385,4.385,0,0,1,180.724,15a4.864,4.864,0,0,1,4.072-1.271,16.694,16.694,0,0,0,2.4.365,3.324,3.324,0,0,0,1.728-.547,3.506,3.506,0,0,0,1.254-1.467,3.935,3.935,0,0,0,.306-.993,2.337,2.337,0,0,0,0-.8" transform="translate(-118.759 -6.518)" fill="#ffe76d"/>
        <path id="Trazado_1000155" data-name="Trazado 1000155" d="M200.442,13.6a5.232,5.232,0,0,1-5.484,1.575" transform="translate(-129.253 -9.019)" fill="none" stroke="#12263f" stroke-linecap="round" stroke-linejoin="round" stroke-width="0.75"/>
        <path id="Trazado_1000156" data-name="Trazado 1000156" d="M165.712.145a1.17,1.17,0,0,1,1.248.094,3.493,3.493,0,0,1,.975,1.1,7.966,7.966,0,0,1,.813,1.544,4.46,4.46,0,0,1,.3,1.7,3.1,3.1,0,0,1,.011.38,4.817,4.817,0,0,1-.116.851c-.034.157-.069.324-.116.483a2.209,2.209,0,0,1-.128.476c-.021.051-.081.018-.086-.026,0-.01,0-.022,0-.032a.076.076,0,0,1-.1-.081,2.908,2.908,0,0,1,.142-.705c.04-.267.094-.534.125-.783.012-.1.018-.2.025-.3,0-.039,0-.077,0-.116a2.6,2.6,0,0,0-.642-1.575A5.292,5.292,0,0,0,167,2.147a4.082,4.082,0,0,1-1.23-.893c-.2-.278-.383-.854-.055-1.108" transform="translate(-109.744 0)" fill="#ff6a7d"/>
        <path id="Trazado_1000157" data-name="Trazado 1000157" d="M155.763.133a.108.108,0,0,1,.21.033,3.682,3.682,0,0,0,2.4,2.942,6.137,6.137,0,0,1,2.735,1.77,7.449,7.449,0,0,1,1.427,3.345,4.225,4.225,0,0,1,.018,1.941,4.269,4.269,0,0,1-.376,1.192.12.12,0,1,1-.217-.1c.014-.028.021-.057.034-.085a.115.115,0,0,1-.015-.128,3.775,3.775,0,0,0,.309-.9,5.863,5.863,0,0,0-.171-2.31,4.3,4.3,0,0,0-.338-.732,5.928,5.928,0,0,0-2.98-2.3,6.287,6.287,0,0,1-2.716-1.807,2.749,2.749,0,0,1-.316-2.858" transform="translate(-103.093 -0.042)" fill="#ffe1cb"/>
        <path id="Trazado_1000158" data-name="Trazado 1000158" d="M161.451,12.209a15.115,15.115,0,0,1,3.71,2.032,4.009,4.009,0,0,1,1.045,1.035,1.865,1.865,0,0,1,.266,1.476" transform="translate(-107.039 -8.094)" fill="none" stroke="#12263f" stroke-linecap="round" stroke-linejoin="round" stroke-width="0.75"/>
        <path id="Trazado_1000159" data-name="Trazado 1000159" d="M132.758,23.292a7.763,7.763,0,0,1,1.981-4.535.223.223,0,0,1,.394.185,16.867,16.867,0,0,0-.037,3.708,2.436,2.436,0,0,0,1.674,1.843,2.88,2.88,0,0,0,2.412-.653,5.435,5.435,0,0,0,.579-.534,4.165,4.165,0,0,1,1.426-2.438c1.152-.75,2.748-.256,3.82.443a5.422,5.422,0,0,1,1.511,1.467,3.538,3.538,0,0,1,.743,1.865c0,.7-.371.962-.956.772a3.655,3.655,0,0,1-1.586-1.314,4.01,4.01,0,0,0-2-1.609,2.038,2.038,0,0,0-1.77.358.541.541,0,0,0-.106-.005.586.586,0,0,0-.361.141,2.082,2.082,0,0,0-.5.75,6.975,6.975,0,0,0-.343,1.025c-.04.145-.074.292-.111.438a4.236,4.236,0,0,1-1.771,2.2,3.219,3.219,0,0,1-3.32-.173,4.533,4.533,0,0,1-1.678-3.935" transform="translate(-88.012 -12.378)" fill="#2079f3"/>
        <path id="Trazado_1000160" data-name="Trazado 1000160" d="M140.143,30.652a2.35,2.35,0,0,0,2.686,1.077,10.086,10.086,0,0,0,2.765-1.427,1.869,1.869,0,0,1,1.571-.363" transform="translate(-92.912 -19.803)" fill="none" stroke="#15260d" stroke-linecap="round" stroke-linejoin="round" stroke-width="0.75"/>
        <path id="Trazado_1000161" data-name="Trazado 1000161" d="M137.11,31.474a2.689,2.689,0,0,0,1.18,2.148,3.077,3.077,0,0,0,2.294.41A5.431,5.431,0,0,0,142.749,33" transform="translate(-90.901 -20.867)" fill="none" stroke="#12263f" stroke-linecap="round" stroke-linejoin="round" stroke-width="0.75"/>
        <path id="Trazado_1000162" data-name="Trazado 1000162" d="M137.965,39.062a2.512,2.512,0,0,0,2.242,1.159,5.828,5.828,0,0,0,2.469-.774" transform="translate(-91.468 -25.897)" fill="none" stroke="#12263f" stroke-linecap="round" stroke-linejoin="round" stroke-width="0.75"/>
        <path id="Trazado_1000163" data-name="Trazado 1000163" d="M160.242,27.088a7.04,7.04,0,0,1,4.349,3.164" transform="translate(-106.237 -17.959)" fill="none" stroke="#12263f" stroke-linecap="round" stroke-linejoin="round" stroke-width="0.75"/>
        <path id="Trazado_1000164" data-name="Trazado 1000164" d="M141.659,10.293c-.022-.092-.047-.184-.063-.277a.1.1,0,0,1,.134-.116v0c.02-.1.145-.079.142.023s0,.221,0,.331a3.45,3.45,0,0,0,1.017,1.631,2.486,2.486,0,0,0,2.417.156,6.082,6.082,0,0,1,4.033.3,6.008,6.008,0,0,1,2.917,2.792,6.705,6.705,0,0,1,.66,2.062,7.114,7.114,0,0,1,.087,1.076v.008a2.608,2.608,0,0,1-.17.982.172.172,0,0,1-.043.059c-.014.028-.026.059-.042.086-.063.1-.18.022-.187-.078a.163.163,0,0,1-.052-.117c-.021-.4.065-.8.056-1.2a5.815,5.815,0,0,0-.3-1.734A4.371,4.371,0,0,0,151.414,15a4.864,4.864,0,0,0-4.072-1.271,16.687,16.687,0,0,1-2.4.365,3.322,3.322,0,0,1-1.728-.547,3.507,3.507,0,0,1-1.254-1.467,3.949,3.949,0,0,1-.306-.993,2.337,2.337,0,0,1,0-.8" transform="translate(-93.874 -6.518)" fill="#ffe76d"/>
        <path id="Trazado_1000165" data-name="Trazado 1000165" d="M143.364,13.6a5.232,5.232,0,0,0,5.484,1.575" transform="translate(-95.048 -9.019)" fill="none" stroke="#12263f" stroke-linecap="round" stroke-linejoin="round" stroke-width="0.75"/>
        <path id="Trazado_1000166" data-name="Trazado 1000166" d="M238.2,4.488a.27.27,0,0,0-.533-.08,42.269,42.269,0,0,1-2.623,7.18c-.07.136-.139.273-.213.407a12.635,12.635,0,0,1-4.13,4.517,17.838,17.838,0,0,1-11.079,2.638,21.345,21.345,0,0,1-5.745-1.247,34.027,34.027,0,0,1-5.4-2.714c-.534-.31-1.075-.616-1.623-.9a12.517,12.517,0,0,0,2.222.332c.95.081,1.9.176,2.853.232a9.838,9.838,0,0,0,4.854-.811,11.136,11.136,0,0,0,5.776-7.521A37.459,37.459,0,0,0,223.5.394.309.309,0,0,0,222.89.3a19.365,19.365,0,0,1-4.7,8.426,15.77,15.77,0,0,1-8.427,4.631,17.8,17.8,0,0,1-4.139.325,12.213,12.213,0,0,0-2.577-.858,10.041,10.041,0,0,0-5.82.556,5.928,5.928,0,0,0-3.588,3.536c-.017.051-.029.1-.044.155a14.953,14.953,0,0,0-2.292,1.2c-1.619,1.031-3.221,2.314-5.112,2.633a5.777,5.777,0,0,1-4.96-1.645c-1.231-1.227-2.224-3.52-.846-5.077.018-.02.038-.033.057-.053.814-.221,1.5.941,1.872,1.588s.831,1.356,1.551,1.545a1.515,1.515,0,0,0,1.686-.534,1.848,1.848,0,0,0-.494-2.155c-1.121-1.276-2.925-2.441-4.53-1.543-1.468.822-1.853,2.923-1.313,4.517a6.5,6.5,0,0,0,3.626,3.777,6.419,6.419,0,0,0,5.216-.112c1.742-.781,3.24-2.064,4.935-2.946.14-.073.284-.136.426-.2a5.928,5.928,0,0,0,1.066,3.868c1.981,2.739,6.527,3.079,8.479.107a3.625,3.625,0,0,0-.707-4.652c-1.469-1.317-3.609-1.39-5.407-1.181a11.784,11.784,0,0,0-2.225.484,4.252,4.252,0,0,1,1.131-1.467,8.445,8.445,0,0,1,5.624-1.717,12.886,12.886,0,0,1,5.767,1.912,59.312,59.312,0,0,0,5.257,2.835,32.335,32.335,0,0,0,10.849,2.754,17.075,17.075,0,0,0,5.69-.728,16.257,16.257,0,0,0,5.2-2.619,9.2,9.2,0,0,0,3.128-5.1,27.357,27.357,0,0,0,.922-8.074M199.071,17.041a4.417,4.417,0,0,1,2.786,1.113,2.746,2.746,0,0,1,.819,2.575c-.46,1.842-2.494,2.587-4.04,2.514a4.6,4.6,0,0,1-4.116-2.934,4.735,4.735,0,0,1-.228-2.612,11.047,11.047,0,0,1,4.778-.656" transform="translate(-118.661 -0.042)" fill="#2cbe91"/>
        <path id="Trazado_1000167" data-name="Trazado 1000167" d="M257.785,40.421a16.307,16.307,0,0,1-4.828-1.392" transform="translate(-167.705 -25.875)" fill="none" stroke="#12263f" stroke-linecap="round" stroke-linejoin="round" stroke-width="0.75"/>
        <path id="Trazado_1000168" data-name="Trazado 1000168" d="M285.859,15.125a13.805,13.805,0,0,1-10.388,8.653" transform="translate(-182.632 -10.028)" fill="none" stroke="#12263f" stroke-linecap="round" stroke-linejoin="round" stroke-width="0.75"/>
        <path id="Trazado_1000169" data-name="Trazado 1000169" d="M316.587,23.622c-1.3,4.285-3.9,8.263-7.633,10.111a13.975,13.975,0,0,1-2.329.884,19.457,19.457,0,0,1-8.4.541" transform="translate(-197.718 -15.661)" fill="none" stroke="#15260d" stroke-linecap="round" stroke-linejoin="round" stroke-width="0.75"/>
        <path id="Trazado_1000170" data-name="Trazado 1000170" d="M225.675,45.355a5.254,5.254,0,0,0-1.481,4.271" transform="translate(-148.624 -30.069)" fill="none" stroke="#12263f" stroke-linecap="round" stroke-linejoin="round" stroke-width="0.75"/>
        <path id="Trazado_1000171" data-name="Trazado 1000171" d="M223.019,45.454a5.879,5.879,0,0,0-.955,3.648" transform="translate(-147.215 -30.135)" fill="none" stroke="#15260d" stroke-linecap="round" stroke-linejoin="round" stroke-width="0.75"/>
        <path id="Trazado_1000172" data-name="Trazado 1000172" d="M225.473,49.654a8.93,8.93,0,0,1,1.475-.591" transform="translate(-149.484 -32.528)" fill="none" stroke="#12263f" stroke-linecap="round" stroke-linejoin="round" stroke-width="0.75"/>
        <path id="Trazado_1000173" data-name="Trazado 1000173" d="M181.423,41.89a2.7,2.7,0,0,1,.657-1.224,1.684,1.684,0,0,1,.611-.318,2.574,2.574,0,0,1,2.715.722,1.454,1.454,0,0,1,.393.97c-.014.364-.276.728-.606.727" transform="translate(-120.28 -26.668)" fill="none" stroke="#12263f" stroke-linecap="round" stroke-linejoin="round" stroke-width="0.75"/>
        <path id="Trazado_1000174" data-name="Trazado 1000174" d="M.937,12.562a9.2,9.2,0,0,0,3.128,5.1,16.261,16.261,0,0,0,5.2,2.619,17.085,17.085,0,0,0,5.691.728,32.333,32.333,0,0,0,10.849-2.754,59.4,59.4,0,0,0,5.257-2.835,12.887,12.887,0,0,1,5.767-1.912,8.445,8.445,0,0,1,5.624,1.717,4.248,4.248,0,0,1,1.131,1.467,11.78,11.78,0,0,0-2.225-.484c-1.8-.209-3.938-.135-5.407,1.181a3.624,3.624,0,0,0-.707,4.652c1.951,2.973,6.5,2.632,8.479-.107a5.928,5.928,0,0,0,1.066-3.868c.143.067.286.13.426.2,1.695.882,3.194,2.165,4.935,2.946a6.418,6.418,0,0,0,5.216.111A6.5,6.5,0,0,0,59,17.549c.54-1.594.155-3.7-1.313-4.517-1.6-.9-3.409.267-4.53,1.543a1.849,1.849,0,0,0-.494,2.155,1.514,1.514,0,0,0,1.686.534c.721-.189,1.173-.9,1.551-1.545s1.059-1.809,1.873-1.587c.018.019.038.032.056.053,1.378,1.557.386,3.85-.846,5.077a5.777,5.777,0,0,1-4.96,1.645c-1.891-.319-3.493-1.6-5.112-2.633a14.923,14.923,0,0,0-2.292-1.2c-.014-.052-.027-.1-.043-.155a5.929,5.929,0,0,0-3.588-3.536,10.04,10.04,0,0,0-5.82-.556,12.219,12.219,0,0,0-2.577.858,17.814,17.814,0,0,1-4.139-.325,15.769,15.769,0,0,1-8.427-4.631A19.364,19.364,0,0,1,15.321.3a.309.309,0,0,0-.61.091,37.49,37.49,0,0,0,.942,6.124,11.135,11.135,0,0,0,5.776,7.521,9.837,9.837,0,0,0,4.854.811c.952-.057,1.9-.152,2.853-.232a12.513,12.513,0,0,0,2.222-.332c-.548.289-1.089.595-1.623.9a34.026,34.026,0,0,1-5.4,2.714,21.343,21.343,0,0,1-5.745,1.247A17.838,17.838,0,0,1,7.514,16.513,12.637,12.637,0,0,1,3.384,12c-.074-.134-.143-.271-.213-.407A42.286,42.286,0,0,1,.548,4.408a.27.27,0,0,0-.533.08,27.343,27.343,0,0,0,.922,8.074M43.918,17.7a4.738,4.738,0,0,1-.228,2.612,4.6,4.6,0,0,1-4.116,2.934c-1.546.072-3.579-.672-4.04-2.514a2.748,2.748,0,0,1,.819-2.575,4.419,4.419,0,0,1,2.786-1.113,11.048,11.048,0,0,1,4.778.656" transform="translate(0 -0.042)" fill="#2cbe91"/>
        <path id="Trazado_1000175" data-name="Trazado 1000175" d="M87.443,40.421a16.306,16.306,0,0,0,4.828-1.392" transform="translate(-57.973 -25.875)" fill="none" stroke="#12263f" stroke-linecap="round" stroke-linejoin="round" stroke-width="0.75"/>
        <path id="Trazado_1000176" data-name="Trazado 1000176" d="M48.43,15.125a13.805,13.805,0,0,0,10.388,8.653" transform="translate(-32.108 -10.028)" fill="none" stroke="#15260d" stroke-linecap="round" stroke-linejoin="round" stroke-width="0.75"/>
        <path id="Trazado_1000177" data-name="Trazado 1000177" d="M2.019,23.622c1.3,4.285,3.9,8.263,7.632,10.111a13.974,13.974,0,0,0,2.329.884,19.457,19.457,0,0,0,8.4.541" transform="translate(-1.339 -15.661)" fill="none" stroke="#15260d" stroke-linecap="round" stroke-linejoin="round" stroke-width="0.75"/>
        <path id="Trazado_1000178" data-name="Trazado 1000178" d="M126.1,45.355a5.254,5.254,0,0,1,1.482,4.271" transform="translate(-83.602 -30.069)" fill="none" stroke="#15260d" stroke-linecap="round" stroke-linejoin="round" stroke-width="0.75"/>
        <path id="Trazado_1000179" data-name="Trazado 1000179" d="M129.8,45.454a5.879,5.879,0,0,1,.955,3.648" transform="translate(-86.055 -30.135)" fill="none" stroke="#12263f" stroke-linecap="round" stroke-linejoin="round" stroke-width="0.75"/>
        <path id="Trazado_1000180" data-name="Trazado 1000180" d="M126.35,49.654a8.929,8.929,0,0,0-1.475-.591" transform="translate(-82.79 -32.528)" fill="none" stroke="#12263f" stroke-linecap="round" stroke-linejoin="round" stroke-width="0.75"/>
        <path id="Trazado_1000181" data-name="Trazado 1000181" d="M164.691,41.89a2.709,2.709,0,0,0-.657-1.224,1.684,1.684,0,0,0-.611-.318,2.574,2.574,0,0,0-2.715.722,1.454,1.454,0,0,0-.393.97c.013.364.276.728.606.727" transform="translate(-106.285 -26.668)" fill="none" stroke="#15260d" stroke-linecap="round" stroke-linejoin="round" stroke-width="0.75"/>
        <path id="Trazado_1000182" data-name="Trazado 1000182" d="M176.618,33.208a1.512,1.512,0,1,0-1.5,1.662,1.589,1.589,0,0,0,1.5-1.662" transform="translate(-115.1 -20.914)" fill="#2cbe91"/>
      </g>
    </g>
    <g id="Grupo_1186066" data-name="Grupo 1186066" transform="translate(-15 29)">
      <g id="Grupo_1184039" data-name="Grupo 1184039" transform="translate(1257.604 3951.935)">
        <g id="Grupo_1183846" data-name="Grupo 1183846" transform="translate(0 0)">
          <rect id="Rectángulo_455879" data-name="Rectángulo 455879" width="39.797" height="38.213" transform="translate(0.3)" fill="#2cbe91"/>
          <path id="Trazado_1000145" data-name="Trazado 1000145" d="M0,1.745H1.064a1.743,1.743,0,0,1,3.486,0H6.043v0a1.743,1.743,0,1,1,3.486,0h1.395v0a1.743,1.743,0,1,1,3.486,0h1.46v0a1.743,1.743,0,1,1,3.486,0h1.512v0a1.743,1.743,0,1,1,3.486,0h1.424a1.743,1.743,0,0,1,3.486,0h1.471v0a1.743,1.743,0,1,1,3.486,0H35.7v0a1.743,1.743,0,1,1,3.486,0H40.4" transform="translate(40.397 39.579) rotate(180)" fill="#2cbe91"/>
        </g>
        <path id="Trazado_1000133" data-name="Trazado 1000133" d="M.95,17.027c-.056-.091-.117-.179-.175-.27a4.444,4.444,0,0,1-.756-1.992,3.149,3.149,0,0,1,.034-.91,4.628,4.628,0,0,1,.619-1.615c.122-.189.264-.364.408-.562a.193.193,0,0,0,0-.067A3.08,3.08,0,0,1,1.2,9.587a4.666,4.666,0,0,1,.814-1.358A5.391,5.391,0,0,1,3.438,6.964c.126-.073.255-.143.39-.218A2.58,2.58,0,0,1,4.573,5.06,5.074,5.074,0,0,1,5.81,4.019a4.59,4.59,0,0,1,1.851-.664,1.254,1.254,0,0,0,.066-.129,2.383,2.383,0,0,1,.8-1.033,4.859,4.859,0,0,1,2.334-.99,4.323,4.323,0,0,1,.911-.013c.107.007.213.008.31.011l.191-.166A4.475,4.475,0,0,1,14.839.023a5,5,0,0,1,2.258.3c.1.037.2.07.276.094A4.8,4.8,0,0,1,20.512.166,4.7,4.7,0,0,1,23.065,1.94a2.773,2.773,0,0,1,.888.082,3.833,3.833,0,0,1,1.419.689,3.913,3.913,0,0,1,.643.6,2.729,2.729,0,0,1,.633,1.4,2.384,2.384,0,0,1-.641,2.006,4.72,4.72,0,0,1-.833.74,4.109,4.109,0,0,0-.541.5,16.6,16.6,0,0,1-1.467,1.274q-1.019.8-2.05,1.587c-.463.35-.942.678-1.406,1.021-1.537,1.13-3.129,2.18-4.7,3.265-1.318.912-2.667,1.778-4.022,2.631q-1.373.862-2.785,1.661a26.927,26.927,0,0,1-2.986,1.467,1.368,1.368,0,0,1-.194.066.594.594,0,0,0-.281.15.61.61,0,0,1-.169.117,3.8,3.8,0,0,1-1.283.406,2.209,2.209,0,0,1-.7-.024,1.761,1.761,0,0,1-.632-.307A3.222,3.222,0,0,1,.843,19.919,3.1,3.1,0,0,1,.6,18.713c0-.176.012-.353.023-.53a2.486,2.486,0,0,1,.236-.937c.034-.07.062-.143.1-.225" transform="translate(15.62 4.741) rotate(34)" fill="#1b5b5b"/>
      </g>
      <g id="Grupo_1186065" data-name="Grupo 1186065">
        <g id="Grupo_1184040" data-name="Grupo 1184040" transform="translate(1214.902 3990.841)">
          <rect id="Rectángulo_455879-2" data-name="Rectángulo 455879" width="42.069" height="40.394" transform="translate(0.317 0)" fill="#ffb57d"/>
          <path id="Trazado_1000145-2" data-name="Trazado 1000145" d="M0,1.844H1.124a1.842,1.842,0,0,1,3.685,0H6.388v0a1.842,1.842,0,1,1,3.685,0h1.474v0a1.842,1.842,0,1,1,3.685,0h1.543v0a1.842,1.842,0,1,1,3.685,0h1.6v0a1.842,1.842,0,1,1,3.685,0h1.505a1.842,1.842,0,0,1,3.685,0h1.555v0a1.842,1.842,0,1,1,3.685,0h1.561v0a1.842,1.842,0,1,1,3.685,0H42.7" transform="translate(42.702 41.838) rotate(180)" fill="#ffb57d"/>
        </g>
        <path id="Trazado_1085366" data-name="Trazado 1085366" d="M32.015,6.938c-.132-2.317-1.6-3.679-4.23-2.7a28.838,28.838,0,0,1-3.679,1.009c-.225-.861-.45-1.744-.613-2.43l-.022.011c-.055-.231-.1-.442-.143-.621A2.494,2.494,0,0,0,20.859,0L10.312.6c-1.291.073-1.952,1.2-2.2,2.47-.133.67-.3,1.78-.446,2.887C5.536,5.771,3.909,5.6,3.909,5.6.769,4.974-.119,6.44.012,8.757c.229,4.035,7.861,8.4,16.5,7.906s15.73-5.691,15.5-9.726" transform="translate(1220.099 4003.689) rotate(-1)" fill="#ffb57d" style="mix-blend-mode: multiply;isolation: isolate"/>
      </g>
    </g>
    <g id="pollo" transform="translate(1142.602 3892.614)">
      <path id="Trazado_1085367" data-name="Trazado 1085367" d="M92.955,67.068a1.279,1.279,0,0,0,0-1.879A1.31,1.31,0,0,0,91,65.267l-.157.157a1.372,1.372,0,0,0,.392,1.879,1.554,1.554,0,0,0,1.723-.235Z" transform="translate(-19.184 -9.521)" fill="#2079f3"/>
      <path id="Trazado_1085368" data-name="Trazado 1085368" d="M85.444,71.044a1.384,1.384,0,1,0-1.958,0A1.371,1.371,0,0,0,85.444,71.044Z" transform="translate(-17.546 -10.365)" fill="#2079f3"/>
      <path id="Trazado_1085369" data-name="Trazado 1085369" d="M91.544,75.144a1.384,1.384,0,1,0-1.958,0A1.536,1.536,0,0,0,91.544,75.144Z" transform="translate(-18.869 -11.254)" fill="#2079f3"/>
      <path id="Trazado_1085370" data-name="Trazado 1085370" d="M2.2,80.177a8.188,8.188,0,0,0,8.144,8.144H90.92a8.137,8.137,0,0,0,8.144-8.144,3.058,3.058,0,0,0-3.054-3.054H92.877a5.179,5.179,0,0,0,.47-2.427A41.346,41.346,0,0,0,85.36,53.788a11.646,11.646,0,0,0-.392-2.819l3.759-3.759a7.412,7.412,0,0,1,5.246-2.193,3.445,3.445,0,1,0,0-6.891H92.329a.7.7,0,0,1-.7-.7V35.778a3.485,3.485,0,1,0-6.969,0,7.412,7.412,0,0,1-2.193,5.246L78.7,44.783a8.832,8.832,0,0,0-3.211-.392,1.708,1.708,0,0,1-.392-.313,8.493,8.493,0,0,0,.94-6.734l3.132-3.132a6.159,6.159,0,0,1,4.385-1.8,3.172,3.172,0,0,0,0-6.343H82.15a.438.438,0,0,1-.47-.392V24.111a3.172,3.172,0,1,0-6.343,0,6.159,6.159,0,0,1-1.8,4.385L70.4,31.628a8.174,8.174,0,0,0-6.343.7c-6.343,3.6-6.734,3.524-8.3,4.855a41.562,41.562,0,0,0-28.425,7.987c.313-2.662.078-5.09-.548-5.795a1.362,1.362,0,0,0-1.409-.313c-8.927,3.289-14.095,13.468-13.7,18.95a11.984,11.984,0,0,0,1.8,5.325A43.728,43.728,0,0,0,10.735,74.7a4.369,4.369,0,0,0,.47,2.427H5.254A3.058,3.058,0,0,0,2.2,80.177ZM84.264,42.825A10.145,10.145,0,0,0,87.239,35.7a.833.833,0,0,1,.7-.783.785.785,0,0,1,.783.783v1.644a2.867,2.867,0,0,0,.313,1.409,3.272,3.272,0,0,0-.783.313,1.3,1.3,0,0,0-.47,1.8,1.476,1.476,0,0,0,1.879.548A10.881,10.881,0,0,1,93.9,40.79a.7.7,0,0,1,0,1.409,10.145,10.145,0,0,0-7.126,2.976l-3.054,3.054a9.563,9.563,0,0,0-2.349-2.349Zm-3.68,6.108a6.63,6.63,0,0,1,1.1,7.987l-4.15,7.6A9.286,9.286,0,1,1,65,51.987l7.517-4.15a6.745,6.745,0,0,1,8.065,1.1Zm-5.246-18.48a8.892,8.892,0,0,0,2.584-6.264.439.439,0,0,1,.392-.47.505.505,0,0,1,.47.47V25.6a3.968,3.968,0,0,0,.157,1.018,1.348,1.348,0,0,0-.7,1.8,1.436,1.436,0,0,0,1.879.7,5.407,5.407,0,0,1,1.958-.313H83.4a.439.439,0,0,1,.392.47.37.37,0,0,1-.392.392,8.892,8.892,0,0,0-6.264,2.584L74.632,34.76a7.861,7.861,0,0,0-1.8-1.8Zm-10.1,4.307a5.578,5.578,0,0,1,7.439,7.831,42.113,42.113,0,0,0-12.92-4.777Zm-40.64,7.6a17.227,17.227,0,0,1-.783,5.638,40.783,40.783,0,0,0-9.083,12.137,5.617,5.617,0,0,1-.47-2.271C13.946,54.18,17.47,45.879,24.6,42.356Zm47.14,2.819c-.47.235-.548.313-7.987,4.385-7.2,3.994-8.692,13.468-2.9,19.106a11.97,11.97,0,0,0,19.106-2.9l4.15-7.6c.157-.235.235-.548.392-.783a38.843,38.843,0,0,1,6.029,17.462,2.06,2.06,0,0,1-2.036,2.193H51.062c.078-8.3-6.891-11.981-15.348-12.451C39,59.818,39,52.457,37.907,51.282a1.362,1.362,0,0,0-1.409-.313c-8.614,3.289-14.095,13-13.7,18.95a12.274,12.274,0,0,0,3.289,7.2H15.355a2.06,2.06,0,0,1-2.036-2.193c2.584-28.112,33.828-44.4,58.416-29.756ZM29.45,67.961a8.75,8.75,0,0,0,3.445-.7c7.674-.235,15.583,2.114,15.426,9.866H30c-3.132-2.584-4.15-4.7-4.542-7.517-.235-4.385,3.837-12.137,10.415-15.426.078,3.837-.94,7.831-3.915,10.493a6.284,6.284,0,0,1-2.349.47A1.4,1.4,0,0,0,28.2,66.552a1.327,1.327,0,0,0,1.253,1.409Zm66.481,11.9a.337.337,0,0,1,.313.313,5.414,5.414,0,0,1-5.4,5.4h-80.5a5.414,5.414,0,0,1-5.4-5.4.337.337,0,0,1,.313-.313Z" fill="#2079f3"/>
    </g>
  </g>
</svg>
