<svg xmlns="http://www.w3.org/2000/svg" width="104" height="104" viewBox="0 0 104 104">
  <g id="Grupo_1183884" data-name="Grupo 1183884" transform="translate(6821.333 10037.309)">
    <g id="Rectángulo_456429" data-name="Rectángulo 456429" transform="translate(-6821.333 -10037.309)" fill="none" stroke="#e6d062" stroke-width="2">
      <rect width="104" height="104" rx="52" stroke="none"/>
      <rect x="1" y="1" width="102" height="102" rx="51" fill="none"/>
    </g>
    <g id="caja-de-entrega" transform="translate(-6796.374 -10012.682)">
      <path id="Trazado_1063997" data-name="Trazado 1063997" d="M53.881,46.446H51.365V12.5a.8.8,0,0,0-1.6,0V46.446H48.047V1.621h1.716V9.01a.8.8,0,0,0,1.6,0V.82a.8.8,0,0,0-.8-.8H47.246a.8.8,0,0,0-.8.8V19.925H44.818V4.1a.8.8,0,0,0-.8-.8H10.665a.8.8,0,0,0-.8.8V19.925H8.237V.8a.8.8,0,0,0-.8-.8H4.119a.8.8,0,0,0-.8.8V46.446H.8a.8.8,0,0,0-.8.8v3.318a.8.8,0,0,0,.8.8H3.318v2.516a.8.8,0,0,0,.8.8h6.635a.8.8,0,0,0,.8-.8V51.367h3.977a.8.8,0,1,0,0-1.6H1.6V48.048H53.08v1.716H19.022a.8.8,0,1,0,0,1.6H43.128v2.516a.8.8,0,0,0,.8.8h6.635a.8.8,0,0,0,.8-.8V51.367h2.517a.8.8,0,0,0,.8-.8V47.247a.8.8,0,0,0-.8-.8ZM9.953,53.082H4.92V51.367H9.953ZM43.216,19.925H28.142V4.9h5.01V8.7a.815.815,0,0,0,1.163.715l1.39-.7,1.327.7A.8.8,0,0,0,38.206,8.7V4.9h5.01ZM36.6,4.9V7.377a1.6,1.6,0,0,0-1.85.023V4.9Zm-16.676,0V7.377a1.6,1.6,0,0,0-1.85.023V4.9Zm-8.462,0h5.01V8.7a.815.815,0,0,0,1.163.715l1.39-.7,1.327.7A.8.8,0,0,0,21.53,8.7V4.9h5.01V19.925H11.466Zm14.251,18.34H8.238V21.528H46.445v1.715H29.208a.8.8,0,1,0,0,1.6H46.445v21.6H44.818V30.572a.8.8,0,0,0-.8-.8H10.665a.8.8,0,0,0-.8.8V46.446H8.237v-21.6H25.717a.8.8,0,1,0,0-1.6Zm-14.251,23.2V31.373h5.01v3.8a.8.8,0,0,0,1.163.715l1.39-.7,1.327.7a.814.814,0,0,0,1.174-.709v-3.8h5.01V46.446Zm6.612-15.074h1.85v2.475a1.6,1.6,0,0,0-1.85.023ZM28.142,46.446V31.373h5.01v3.8a.8.8,0,0,0,1.163.715l1.39-.7,1.327.7a.814.814,0,0,0,1.174-.709v-3.8h5.01V46.446Zm6.612-15.074H36.6v2.475a1.6,1.6,0,0,0-1.85.023ZM4.92,1.6H6.635V46.446H4.92ZM49.763,53.082H44.73V51.367h5.033Z" transform="translate(0 -0.002)" fill="#e6d062"/>
      <path id="Trazado_1063998" data-name="Trazado 1063998" d="M190.641,403.812h-3.25a.8.8,0,1,0,0,1.6h3.25a.8.8,0,1,0,0-1.6Z" transform="translate(-166.662 -360.685)" fill="#e6d062"/>
      <path id="Trazado_1063999" data-name="Trazado 1063999" d="M346.78,403.812h-3.25a.8.8,0,0,0,0,1.6h3.25a.8.8,0,1,0,0-1.6Z" transform="translate(-306.125 -360.685)" fill="#e6d062"/>
      <path id="Trazado_1064000" data-name="Trazado 1064000" d="M190.641,155.965h-3.25a.8.8,0,1,0,0,1.6h3.25a.8.8,0,1,0,0-1.6Z" transform="translate(-166.662 -139.308)" fill="#e6d062"/>
      <path id="Trazado_1064001" data-name="Trazado 1064001" d="M343.53,155.965a.8.8,0,0,0,0,1.6h3.25a.8.8,0,1,0,0-1.6Z" transform="translate(-306.125 -139.308)" fill="#e6d062"/>
    </g>
  </g>
</svg>
