<svg xmlns="http://www.w3.org/2000/svg" xmlns:xlink="http://www.w3.org/1999/xlink" width="263.853" height="263.097" viewBox="0 0 263.853 263.097">
  <defs>
    <clipPath id="clip-path">
      <rect id="Rectángulo_455881" data-name="Rectángulo 455881" width="147.87" height="29.796" fill="#2cbe91"/>
    </clipPath>
  </defs>
  <g id="Grupo_1186069" data-name="Grupo 1186069" transform="translate(-1085.007 -2294.317)">
    <path id="Trazado_1085278" data-name="Trazado 1085278" d="M248.8,21.257V0h-7.451a10.733,10.733,0,0,1-10.816,10.651A10.734,10.734,0,0,1,219.887,0h-9.093a10.734,10.734,0,0,1-10.734,10.734A10.734,10.734,0,0,1,189.327,0h-9.066a10.734,10.734,0,0,1-10.734,10.734A10.734,10.734,0,0,1,158.793,0h-8.767A10.735,10.735,0,0,1,139.29,10.735,10.735,10.735,0,0,1,128.556,0h-9.309a10.734,10.734,0,0,1-10.734,10.734A10.734,10.734,0,0,1,97.778,0h-9A10.734,10.734,0,0,1,78.046,10.734,10.734,10.734,0,0,1,67.312,0H58.727a10.735,10.735,0,0,1-21.47.011V0h-9.2A10.734,10.734,0,0,1,17.321,10.734,10.734,10.734,0,0,1,6.587,0H0V21.324A10.735,10.735,0,0,1,10.735,32.059,10.735,10.735,0,0,1,0,42.794V52.1A10.735,10.735,0,0,1,10.735,62.838,10.735,10.735,0,0,1,0,73.573v8.768H.024A10.735,10.735,0,0,1,10.746,93.087,10.734,10.734,0,0,1,0,103.809v9.063a10.735,10.735,0,0,1,10.735,10.735A10.735,10.735,0,0,1,0,134.342v8.632H.024A10.734,10.734,0,0,1,10.746,153.72,10.734,10.734,0,0,1,0,164.442v21.224H6.551a10.734,10.734,0,0,1,21.468,0h9.2v-.024a10.734,10.734,0,1,1,21.468.024h8.589v-.024a10.734,10.734,0,1,1,21.468.024h8.992v-.024a10.734,10.734,0,1,1,21.468.024h9.312v-.024a10.734,10.734,0,1,1,21.468.024h8.769a10.735,10.735,0,1,1,21.47,0h9.062v-.024a10.734,10.734,0,1,1,21.468.024h9.1v-.024a10.734,10.734,0,1,1,21.468.024H248.8V164.375h-.024a10.734,10.734,0,1,1,.024-21.468v-8.633a10.735,10.735,0,1,1,0-21.469v-9.063h-.024a10.734,10.734,0,1,1,.024-21.468V73.505a10.735,10.735,0,1,1,0-21.47V42.728a10.735,10.735,0,0,1-.011-21.47h.011" transform="translate(1144.996 2543.122) rotate(-90)" fill="#bbd6fc"/>
    <g id="Grupo_1184022" data-name="Grupo 1184022" transform="translate(1298.894 2457.542)">
      <g id="Grupo_1183846" data-name="Grupo 1183846" transform="translate(0 0)">
        <rect id="Rectángulo_455879" data-name="Rectángulo 455879" width="49.225" height="47.265" transform="translate(0.371)" fill="#2cbe91"/>
        <path id="Trazado_1000145" data-name="Trazado 1000145" d="M0,2.158H1.316a2.156,2.156,0,0,1,4.311,0H7.474v0a2.156,2.156,0,1,1,4.311,0h1.725v0a2.156,2.156,0,1,1,4.311,0h1.806v0a2.156,2.156,0,1,1,4.311,0h1.87v0a2.156,2.156,0,1,1,4.311,0h1.761a2.156,2.156,0,0,1,4.312,0h1.82v0a2.156,2.156,0,1,1,4.311,0h1.826v0a2.156,2.156,0,1,1,4.311,0h1.5" transform="translate(49.966 48.955) rotate(180)" fill="#2cbe91"/>
      </g>
      <path id="Trazado_1000133" data-name="Trazado 1000133" d="M1.175,21.061c-.07-.112-.145-.222-.217-.334a5.5,5.5,0,0,1-.935-2.464,3.894,3.894,0,0,1,.042-1.126,5.724,5.724,0,0,1,.765-2c.151-.234.327-.451.5-.7a.239.239,0,0,0,0-.083,3.809,3.809,0,0,1,.15-2.5,5.772,5.772,0,0,1,1.007-1.68A6.668,6.668,0,0,1,4.253,8.614c.156-.09.315-.177.482-.269a3.192,3.192,0,0,1,.921-2.087,6.277,6.277,0,0,1,1.53-1.287A5.678,5.678,0,0,1,9.475,4.15a1.551,1.551,0,0,0,.082-.16,2.947,2.947,0,0,1,.995-1.278,6.011,6.011,0,0,1,2.887-1.224,5.347,5.347,0,0,1,1.127-.016c.132.009.264.01.384.013.089-.077.162-.139.236-.2A5.535,5.535,0,0,1,18.354.028a6.182,6.182,0,0,1,2.793.377c.125.046.251.086.342.117A5.932,5.932,0,0,1,25.372.206,5.814,5.814,0,0,1,28.528,2.4a3.43,3.43,0,0,1,1.1.1,4.741,4.741,0,0,1,1.755.852,4.84,4.84,0,0,1,.8.736,3.376,3.376,0,0,1,.783,1.727A2.949,2.949,0,0,1,32.168,8.3a5.839,5.839,0,0,1-1.03.915,5.083,5.083,0,0,0-.669.614A20.538,20.538,0,0,1,28.654,11.4q-1.26.993-2.536,1.963c-.573.433-1.165.839-1.739,1.262-1.9,1.4-3.87,2.7-5.808,4.038-1.63,1.128-3.3,2.2-4.975,3.254q-1.7,1.066-3.445,2.054a33.3,33.3,0,0,1-3.694,1.814,1.693,1.693,0,0,1-.241.082.734.734,0,0,0-.348.186.755.755,0,0,1-.209.145,4.7,4.7,0,0,1-1.587.5,2.733,2.733,0,0,1-.863-.03,2.178,2.178,0,0,1-.781-.38,3.985,3.985,0,0,1-1.386-1.656,3.837,3.837,0,0,1-.3-1.491c0-.218.015-.437.028-.656a3.074,3.074,0,0,1,.292-1.159c.042-.086.077-.177.121-.278" transform="translate(19.32 5.864) rotate(34)" fill="#1b5b5b"/>
    </g>
    <g id="Grupo_1184023" data-name="Grupo 1184023" transform="translate(1085.007 2485.435)">
      <g id="Grupo_1183367" data-name="Grupo 1183367" transform="translate(0 0)" clip-path="url(#clip-path)">
        <path id="Trazado_1000146" data-name="Trazado 1000146" d="M182.725.18A1.448,1.448,0,0,0,181.182.3a4.316,4.316,0,0,0-1.206,1.361,9.851,9.851,0,0,0-1.005,1.91,5.517,5.517,0,0,0-.376,2.108,3.835,3.835,0,0,0-.014.47,5.965,5.965,0,0,0,.143,1.053c.043.194.085.4.144.6a2.731,2.731,0,0,0,.158.589c.026.063.1.023.106-.032,0-.013,0-.027,0-.04a.1.1,0,0,0,.121-.1,3.6,3.6,0,0,0-.175-.872c-.05-.331-.117-.66-.155-.969-.015-.125-.023-.249-.031-.374,0-.048,0-.1,0-.143a3.218,3.218,0,0,1,.794-1.948,6.549,6.549,0,0,1,1.451-1.251,5.049,5.049,0,0,0,1.521-1.105c.248-.343.474-1.057.068-1.371" transform="translate(-104.136 0)" fill="#ff6a7d"/>
        <path id="Trazado_1000147" data-name="Trazado 1000147" d="M186.388.15a.134.134,0,0,0-.26.04,4.554,4.554,0,0,1-2.964,3.639,7.6,7.6,0,0,0-3.384,2.19,9.217,9.217,0,0,0-1.765,4.137,5.226,5.226,0,0,0-.022,2.4,5.28,5.28,0,0,0,.465,1.474.148.148,0,1,0,.268-.126c-.016-.035-.026-.07-.041-.105a.143.143,0,0,0,.019-.158,4.666,4.666,0,0,1-.382-1.109,7.251,7.251,0,0,1,.211-2.858,5.323,5.323,0,0,1,.418-.906,7.332,7.332,0,0,1,3.686-2.848A7.776,7.776,0,0,0,186,3.685,3.4,3.4,0,0,0,186.388.15" transform="translate(-103.72 -0.037)" fill="#ffe1cb"/>
        <path id="Trazado_1000148" data-name="Trazado 1000148" d="M184.354,12.209a18.7,18.7,0,0,0-4.589,2.514A4.96,4.96,0,0,0,178.473,16a2.306,2.306,0,0,0-.328,1.825" transform="translate(-103.842 -7.12)" fill="none" stroke="#12263f" stroke-linecap="round" stroke-linejoin="round" stroke-width="0.75"/>
        <path id="Trazado_1000149" data-name="Trazado 1000149" d="M196.734,24.387a9.6,9.6,0,0,0-2.45-5.61.276.276,0,0,0-.487.229,20.863,20.863,0,0,1,.046,4.586,3.012,3.012,0,0,1-2.071,2.279,3.562,3.562,0,0,1-2.983-.808,6.72,6.72,0,0,1-.717-.66,5.151,5.151,0,0,0-1.764-3.016c-1.425-.927-3.4-.317-4.725.548a6.705,6.705,0,0,0-1.868,1.815,4.376,4.376,0,0,0-.919,2.306c0,.867.459,1.189,1.183.955a4.521,4.521,0,0,0,1.962-1.626,4.96,4.96,0,0,1,2.476-1.99,2.521,2.521,0,0,1,2.189.442.668.668,0,0,1,.131-.007.725.725,0,0,1,.447.175,2.576,2.576,0,0,1,.617.927,8.623,8.623,0,0,1,.424,1.267c.049.179.092.361.137.541a5.24,5.24,0,0,0,2.191,2.725,3.982,3.982,0,0,0,4.106-.214,5.607,5.607,0,0,0,2.075-4.867" transform="translate(-104.264 -10.888)" fill="#2079f3"/>
        <path id="Trazado_1000150" data-name="Trazado 1000150" d="M202.3,30.837a2.907,2.907,0,0,1-3.322,1.332,12.477,12.477,0,0,1-3.42-1.765,2.312,2.312,0,0,0-1.943-.449" transform="translate(-112.906 -17.419)" fill="none" stroke="#15260d" stroke-linecap="round" stroke-linejoin="round" stroke-width="0.75"/>
        <path id="Trazado_1000151" data-name="Trazado 1000151" d="M207.726,31.474a3.325,3.325,0,0,1-1.459,2.657,3.806,3.806,0,0,1-2.838.507,6.717,6.717,0,0,1-2.678-1.275" transform="translate(-117.066 -18.354)" fill="none" stroke="#12263f" stroke-linecap="round" stroke-linejoin="round" stroke-width="0.75"/>
        <path id="Trazado_1000152" data-name="Trazado 1000152" d="M208.477,39.062A3.107,3.107,0,0,1,205.7,40.5a7.21,7.21,0,0,1-3.054-.957" transform="translate(-118.173 -22.779)" fill="none" stroke="#12263f" stroke-linecap="round" stroke-linejoin="round" stroke-width="0.75"/>
        <path id="Trazado_1000153" data-name="Trazado 1000153" d="M186.826,27.088A8.708,8.708,0,0,0,181.446,31" transform="translate(-105.809 -15.796)" fill="none" stroke="#15260d" stroke-linecap="round" stroke-linejoin="round" stroke-width="0.75"/>
        <path id="Trazado_1000154" data-name="Trazado 1000154" d="M193.168,10.4c.027-.114.058-.228.078-.342a.129.129,0,0,0-.166-.143v0c-.025-.125-.179-.1-.176.028s0,.273-.006.409a4.268,4.268,0,0,1-1.258,2.018c-.935.762-1.953.465-2.99.193a7.523,7.523,0,0,0-4.988.366,7.433,7.433,0,0,0-3.607,3.453,8.291,8.291,0,0,0-.816,2.551,8.788,8.788,0,0,0-.108,1.331v.01a3.241,3.241,0,0,0,.21,1.215.214.214,0,0,0,.053.073c.018.035.033.073.053.106.078.128.223.027.23-.1a.2.2,0,0,0,.065-.145c.026-.5-.081-.988-.069-1.488a7.586,7.586,0,0,1,.146-1.3,7.484,7.484,0,0,1,.225-.842,5.423,5.423,0,0,1,1.058-1.562,6.016,6.016,0,0,1,5.037-1.572,20.649,20.649,0,0,0,2.966.451,4.111,4.111,0,0,0,2.137-.677,4.336,4.336,0,0,0,1.551-1.814,4.867,4.867,0,0,0,.378-1.228,2.892,2.892,0,0,0,0-.986" transform="translate(-104.458 -5.733)" fill="#ffe76d"/>
        <path id="Trazado_1000155" data-name="Trazado 1000155" d="M201.741,13.6a6.472,6.472,0,0,1-6.783,1.948" transform="translate(-113.688 -7.933)" fill="none" stroke="#12263f" stroke-linecap="round" stroke-linejoin="round" stroke-width="0.75"/>
        <path id="Trazado_1000156" data-name="Trazado 1000156" d="M165.755.18A1.448,1.448,0,0,1,167.3.3,4.321,4.321,0,0,1,168.5,1.656a9.853,9.853,0,0,1,1.005,1.91,5.517,5.517,0,0,1,.376,2.108,3.832,3.832,0,0,1,.014.47,5.958,5.958,0,0,1-.143,1.053c-.043.194-.085.4-.144.6a2.732,2.732,0,0,1-.158.589c-.026.063-.1.023-.106-.032,0-.013,0-.027,0-.04a.1.1,0,0,1-.12-.1,3.6,3.6,0,0,1,.175-.872c.05-.331.117-.66.155-.969.015-.125.022-.249.03-.374,0-.048,0-.1,0-.143a3.217,3.217,0,0,0-.794-1.948,6.546,6.546,0,0,0-1.451-1.251,5.049,5.049,0,0,1-1.521-1.105c-.248-.343-.474-1.057-.068-1.371" transform="translate(-96.529 0)" fill="#ff6a7d"/>
        <path id="Trazado_1000157" data-name="Trazado 1000157" d="M155.826.15a.134.134,0,0,1,.26.04,4.554,4.554,0,0,0,2.964,3.639,7.591,7.591,0,0,1,3.383,2.19,9.214,9.214,0,0,1,1.765,4.137,5.226,5.226,0,0,1,.022,2.4,5.28,5.28,0,0,1-.465,1.474.148.148,0,1,1-.268-.126c.017-.035.026-.07.042-.105a.143.143,0,0,1-.019-.158,4.67,4.67,0,0,0,.382-1.109,7.252,7.252,0,0,0-.211-2.858,5.32,5.32,0,0,0-.418-.906,7.332,7.332,0,0,0-3.686-2.848,7.777,7.777,0,0,1-3.36-2.235A3.4,3.4,0,0,1,155.826.15" transform="translate(-90.678 -0.037)" fill="#ffe1cb"/>
        <path id="Trazado_1000158" data-name="Trazado 1000158" d="M161.451,12.209a18.7,18.7,0,0,1,4.589,2.514A4.959,4.959,0,0,1,167.333,16a2.307,2.307,0,0,1,.328,1.825" transform="translate(-94.149 -7.12)" fill="none" stroke="#12263f" stroke-linecap="round" stroke-linejoin="round" stroke-width="0.75"/>
        <path id="Trazado_1000159" data-name="Trazado 1000159" d="M132.759,24.387a9.6,9.6,0,0,1,2.45-5.61.276.276,0,0,1,.487.229,20.863,20.863,0,0,0-.046,4.586,3.013,3.013,0,0,0,2.071,2.279,3.562,3.562,0,0,0,2.983-.808,6.723,6.723,0,0,0,.717-.66,5.151,5.151,0,0,1,1.764-3.016c1.425-.927,3.4-.317,4.725.548a6.707,6.707,0,0,1,1.868,1.815,4.376,4.376,0,0,1,.919,2.306c0,.867-.459,1.189-1.183.955a4.521,4.521,0,0,1-1.962-1.626,4.96,4.96,0,0,0-2.476-1.99,2.521,2.521,0,0,0-2.189.442.668.668,0,0,0-.131-.007.724.724,0,0,0-.446.175,2.575,2.575,0,0,0-.617.927,8.627,8.627,0,0,0-.424,1.267c-.049.179-.092.361-.137.541a5.239,5.239,0,0,1-2.191,2.725,3.982,3.982,0,0,1-4.106-.214,5.607,5.607,0,0,1-2.075-4.867" transform="translate(-77.414 -10.888)" fill="#2079f3"/>
        <path id="Trazado_1000160" data-name="Trazado 1000160" d="M140.143,30.837a2.907,2.907,0,0,0,3.322,1.332,12.476,12.476,0,0,0,3.42-1.765,2.312,2.312,0,0,1,1.943-.449" transform="translate(-81.723 -17.419)" fill="none" stroke="#15260d" stroke-linecap="round" stroke-linejoin="round" stroke-width="0.75"/>
        <path id="Trazado_1000161" data-name="Trazado 1000161" d="M137.11,31.474a3.325,3.325,0,0,0,1.459,2.657,3.806,3.806,0,0,0,2.838.507,6.717,6.717,0,0,0,2.678-1.275" transform="translate(-79.955 -18.354)" fill="none" stroke="#12263f" stroke-linecap="round" stroke-linejoin="round" stroke-width="0.75"/>
        <path id="Trazado_1000162" data-name="Trazado 1000162" d="M137.965,39.062a3.107,3.107,0,0,0,2.773,1.434,7.208,7.208,0,0,0,3.054-.957" transform="translate(-80.453 -22.779)" fill="none" stroke="#12263f" stroke-linecap="round" stroke-linejoin="round" stroke-width="0.75"/>
        <path id="Trazado_1000163" data-name="Trazado 1000163" d="M160.242,27.088A8.708,8.708,0,0,1,165.622,31" transform="translate(-93.444 -15.796)" fill="none" stroke="#12263f" stroke-linecap="round" stroke-linejoin="round" stroke-width="0.75"/>
        <path id="Trazado_1000164" data-name="Trazado 1000164" d="M141.674,10.4c-.028-.114-.058-.228-.078-.342a.129.129,0,0,1,.166-.143v0c.025-.125.179-.1.176.028s0,.273.006.409a4.268,4.268,0,0,0,1.258,2.018c.935.762,1.953.465,2.99.193a7.523,7.523,0,0,1,4.988.366,7.431,7.431,0,0,1,3.608,3.453,8.294,8.294,0,0,1,.816,2.551,8.8,8.8,0,0,1,.108,1.331v.01a3.225,3.225,0,0,1-.21,1.215.213.213,0,0,1-.053.073c-.018.035-.033.073-.052.106-.078.128-.223.027-.231-.1a.2.2,0,0,1-.065-.145c-.026-.5.081-.988.069-1.488a7.192,7.192,0,0,0-.371-2.145,5.407,5.407,0,0,0-1.058-1.562,6.016,6.016,0,0,0-5.037-1.572,20.64,20.64,0,0,1-2.966.451,4.109,4.109,0,0,1-2.137-.677,4.337,4.337,0,0,1-1.551-1.814,4.884,4.884,0,0,1-.378-1.228,2.89,2.89,0,0,1,0-.986" transform="translate(-82.569 -5.733)" fill="#ffe76d"/>
        <path id="Trazado_1000165" data-name="Trazado 1000165" d="M143.364,13.6a6.471,6.471,0,0,0,6.783,1.948" transform="translate(-83.602 -7.933)" fill="none" stroke="#12263f" stroke-linecap="round" stroke-linejoin="round" stroke-width="0.75"/>
        <path id="Trazado_1000166" data-name="Trazado 1000166" d="M252.223,5.536a.334.334,0,0,0-.66-.1,52.283,52.283,0,0,1-3.244,8.88c-.087.168-.172.338-.263.5a15.628,15.628,0,0,1-5.108,5.588,22.063,22.063,0,0,1-13.7,3.263,26.4,26.4,0,0,1-7.106-1.542,42.087,42.087,0,0,1-6.675-3.357c-.661-.384-1.33-.762-2.008-1.119a15.482,15.482,0,0,0,2.748.411c1.176.1,2.351.217,3.529.287a12.168,12.168,0,0,0,6-1c3.645-1.7,6.04-5.174,7.144-9.3A46.331,46.331,0,0,0,234.045.472a.382.382,0,0,0-.754-.113,23.952,23.952,0,0,1-5.813,10.421,19.505,19.505,0,0,1-10.424,5.728,22.01,22.01,0,0,1-5.119.4,15.106,15.106,0,0,0-3.187-1.061,12.42,12.42,0,0,0-7.2.687,7.332,7.332,0,0,0-4.438,4.374c-.02.063-.036.128-.054.191a18.494,18.494,0,0,0-2.835,1.485c-2,1.276-3.984,2.862-6.323,3.256a7.145,7.145,0,0,1-6.135-2.035c-1.523-1.518-2.75-4.354-1.046-6.28.022-.025.047-.041.07-.065,1.007-.274,1.85,1.163,2.316,1.964s1.028,1.677,1.918,1.911a1.873,1.873,0,0,0,2.086-.661,2.286,2.286,0,0,0-.612-2.665c-1.386-1.578-3.618-3.019-5.6-1.908-1.816,1.016-2.292,3.615-1.624,5.587a8.033,8.033,0,0,0,4.485,4.671,7.94,7.94,0,0,0,6.451-.138c2.154-.965,4.008-2.552,6.1-3.643.173-.09.351-.169.527-.251a7.333,7.333,0,0,0,1.319,4.784c2.45,3.388,8.074,3.809,10.488.132a4.483,4.483,0,0,0-.875-5.753c-1.817-1.629-4.464-1.72-6.688-1.461a14.576,14.576,0,0,0-2.753.6,5.259,5.259,0,0,1,1.4-1.814,10.446,10.446,0,0,1,6.956-2.124,15.938,15.938,0,0,1,7.133,2.365,73.363,73.363,0,0,0,6.5,3.507,39.995,39.995,0,0,0,13.419,3.406,21.12,21.12,0,0,0,7.038-.9,20.108,20.108,0,0,0,6.436-3.239,11.375,11.375,0,0,0,3.869-6.307,33.839,33.839,0,0,0,1.141-9.987M203.83,21.063a5.463,5.463,0,0,1,3.446,1.376,3.4,3.4,0,0,1,1.013,3.185c-.569,2.279-3.084,3.2-5,3.11a5.689,5.689,0,0,1-5.091-3.629,5.856,5.856,0,0,1-.283-3.231,13.664,13.664,0,0,1,5.91-.812" transform="translate(-104.372 -0.037)" fill="#2cbe91"/>
        <path id="Trazado_1000167" data-name="Trazado 1000167" d="M258.928,40.751a20.17,20.17,0,0,1-5.971-1.722" transform="translate(-147.51 -22.76)" fill="none" stroke="#12263f" stroke-linecap="round" stroke-linejoin="round" stroke-width="0.75"/>
        <path id="Trazado_1000168" data-name="Trazado 1000168" d="M288.32,15.125c-2.253,5.67-7.3,9.87-12.849,10.7" transform="translate(-160.639 -8.82)" fill="none" stroke="#12263f" stroke-linecap="round" stroke-linejoin="round" stroke-width="0.75"/>
        <path id="Trazado_1000169" data-name="Trazado 1000169" d="M320.936,23.622c-1.6,5.3-4.826,10.22-9.441,12.506a17.285,17.285,0,0,1-2.881,1.093,24.066,24.066,0,0,1-10.388.669" transform="translate(-173.908 -13.775)" fill="none" stroke="#15260d" stroke-linecap="round" stroke-linejoin="round" stroke-width="0.75"/>
        <path id="Trazado_1000170" data-name="Trazado 1000170" d="M226.03,45.355a6.5,6.5,0,0,0-1.832,5.282" transform="translate(-130.726 -26.448)" fill="none" stroke="#12263f" stroke-linecap="round" stroke-linejoin="round" stroke-width="0.75"/>
        <path id="Trazado_1000171" data-name="Trazado 1000171" d="M223.248,45.454a7.272,7.272,0,0,0-1.181,4.512" transform="translate(-129.487 -26.506)" fill="none" stroke="#15260d" stroke-linecap="round" stroke-linejoin="round" stroke-width="0.75"/>
        <path id="Trazado_1000172" data-name="Trazado 1000172" d="M225.473,49.795a11.045,11.045,0,0,1,1.824-.732" transform="translate(-131.483 -28.611)" fill="none" stroke="#12263f" stroke-linecap="round" stroke-linejoin="round" stroke-width="0.75"/>
        <path id="Trazado_1000173" data-name="Trazado 1000173" d="M181.423,42.285a3.344,3.344,0,0,1,.812-1.514,2.083,2.083,0,0,1,.756-.394,3.184,3.184,0,0,1,3.358.892,1.8,1.8,0,0,1,.486,1.2c-.017.45-.341.9-.749.9" transform="translate(-105.796 -23.457)" fill="none" stroke="#12263f" stroke-linecap="round" stroke-linejoin="round" stroke-width="0.75"/>
        <path id="Trazado_1000174" data-name="Trazado 1000174" d="M1.159,15.523A11.374,11.374,0,0,0,5.028,21.83a20.113,20.113,0,0,0,6.436,3.239,21.132,21.132,0,0,0,7.039.9,39.993,39.993,0,0,0,13.419-3.406,73.468,73.468,0,0,0,6.5-3.507,15.94,15.94,0,0,1,7.133-2.365,10.446,10.446,0,0,1,6.956,2.124,5.255,5.255,0,0,1,1.4,1.814,14.571,14.571,0,0,0-2.752-.6c-2.224-.258-4.871-.168-6.688,1.461a4.483,4.483,0,0,0-.874,5.753c2.414,3.677,8.037,3.256,10.487-.132A7.333,7.333,0,0,0,55.4,22.329c.176.083.354.161.527.251,2.1,1.09,3.95,2.678,6.1,3.643a7.938,7.938,0,0,0,6.451.138,8.033,8.033,0,0,0,4.486-4.671c.667-1.972.192-4.57-1.624-5.587-1.985-1.111-4.217.331-5.6,1.908a2.287,2.287,0,0,0-.612,2.665,1.873,1.873,0,0,0,2.086.66c.891-.233,1.451-1.109,1.918-1.911s1.309-2.238,2.316-1.963c.023.024.048.04.07.065,1.7,1.926.477,4.762-1.046,6.28a7.145,7.145,0,0,1-6.135,2.035c-2.339-.394-4.32-1.981-6.323-3.256A18.458,18.458,0,0,0,55.184,21.1c-.018-.064-.034-.128-.054-.191a7.334,7.334,0,0,0-4.438-4.374,12.418,12.418,0,0,0-7.2-.687,15.113,15.113,0,0,0-3.187,1.061,22.034,22.034,0,0,1-5.119-.4,19.5,19.5,0,0,1-10.424-5.728A23.951,23.951,0,0,1,18.95.359.382.382,0,0,0,18.2.472a46.371,46.371,0,0,0,1.166,7.575c1.1,4.128,3.5,7.6,7.144,9.3a12.168,12.168,0,0,0,6,1c1.178-.07,2.353-.188,3.529-.287a15.477,15.477,0,0,0,2.748-.411c-.678.358-1.347.736-2.008,1.119A42.086,42.086,0,0,1,30.1,22.13,26.4,26.4,0,0,1,23,23.672a22.063,22.063,0,0,1-13.7-3.263,15.631,15.631,0,0,1-5.108-5.588c-.091-.166-.176-.336-.263-.5A52.3,52.3,0,0,1,.677,5.437a.334.334,0,0,0-.659.1,33.821,33.821,0,0,0,1.141,9.987m53.163,6.352a5.86,5.86,0,0,1-.282,3.231,5.691,5.691,0,0,1-5.091,3.629c-1.913.09-4.427-.831-5-3.11a3.4,3.4,0,0,1,1.013-3.185,5.466,5.466,0,0,1,3.446-1.376,13.665,13.665,0,0,1,5.91.812" transform="translate(0 -0.037)" fill="#2cbe91"/>
        <path id="Trazado_1000175" data-name="Trazado 1000175" d="M87.443,40.751a20.169,20.169,0,0,0,5.971-1.722" transform="translate(-50.992 -22.76)" fill="none" stroke="#12263f" stroke-linecap="round" stroke-linejoin="round" stroke-width="0.75"/>
        <path id="Trazado_1000176" data-name="Trazado 1000176" d="M48.43,15.125c2.253,5.67,7.3,9.87,12.849,10.7" transform="translate(-28.242 -8.82)" fill="none" stroke="#15260d" stroke-linecap="round" stroke-linejoin="round" stroke-width="0.75"/>
        <path id="Trazado_1000177" data-name="Trazado 1000177" d="M2.019,23.622c1.6,5.3,4.826,10.22,9.441,12.506a17.284,17.284,0,0,0,2.881,1.093,24.066,24.066,0,0,0,10.389.669" transform="translate(-1.177 -13.775)" fill="none" stroke="#15260d" stroke-linecap="round" stroke-linejoin="round" stroke-width="0.75"/>
        <path id="Trazado_1000178" data-name="Trazado 1000178" d="M126.1,45.355a6.5,6.5,0,0,1,1.832,5.282" transform="translate(-73.534 -26.448)" fill="none" stroke="#15260d" stroke-linecap="round" stroke-linejoin="round" stroke-width="0.75"/>
        <path id="Trazado_1000179" data-name="Trazado 1000179" d="M129.8,45.454a7.272,7.272,0,0,1,1.181,4.512" transform="translate(-75.692 -26.506)" fill="none" stroke="#12263f" stroke-linecap="round" stroke-linejoin="round" stroke-width="0.75"/>
        <path id="Trazado_1000180" data-name="Trazado 1000180" d="M126.7,49.795a11.045,11.045,0,0,0-1.824-.732" transform="translate(-72.82 -28.611)" fill="none" stroke="#12263f" stroke-linecap="round" stroke-linejoin="round" stroke-width="0.75"/>
        <path id="Trazado_1000181" data-name="Trazado 1000181" d="M165.728,42.285a3.35,3.35,0,0,0-.813-1.514,2.083,2.083,0,0,0-.756-.394,3.184,3.184,0,0,0-3.358.892,1.8,1.8,0,0,0-.486,1.2c.017.45.341.9.749.9" transform="translate(-93.486 -23.457)" fill="none" stroke="#15260d" stroke-linecap="round" stroke-linejoin="round" stroke-width="0.75"/>
        <path id="Trazado_1000182" data-name="Trazado 1000182" d="M177.331,33.6a1.87,1.87,0,1,0-1.86,2.056,1.965,1.965,0,0,0,1.86-2.056" transform="translate(-101.239 -18.396)" fill="#2cbe91"/>
      </g>
    </g>
    <g id="cocina" transform="translate(1182.597 2356.984)">
      <path id="Trazado_1085357" data-name="Trazado 1085357" d="M19.976,17.134l-1.8-3.283a3.562,3.562,0,0,0-6.245,0l-1.8,3.283-3.283,1.8a3.563,3.563,0,0,0,0,6.248l3.283,1.8,1.8,3.292a3.562,3.562,0,0,0,6.245,0l1.8-3.283,3.292-1.805a3.563,3.563,0,0,0,0-6.248Zm1.676,5.1c-3.55,1.956-4.034,2.063-4.383,2.7L15.238,28.65a.4.4,0,0,1-.365,0c-2.2-3.992-2.124-4.068-2.7-4.381-4.046-2.214-3.823-2.036-3.823-2.214s-.194-.018,3.823-2.214c.585-.32.515-.421,2.7-4.381a.206.206,0,0,1,.365,0c2.259,3.959,2.124,4.068,2.7,4.381,4.046,2.214,3.823,2.036,3.823,2.214a.194.194,0,0,1-.107.183Z" transform="translate(3.381 8.111)" fill="#2079f3"/>
      <path id="Trazado_1085358" data-name="Trazado 1085358" d="M27.849,27.179l3.283,1.8,1.8,3.292a3.562,3.562,0,0,0,6.245,0l1.8-3.283,3.292-1.805a3.563,3.563,0,0,0,0-6.248l-3.283-1.8-1.8-3.283a3.562,3.562,0,0,0-6.245,0l-1.8,3.283-3.283,1.8a3.563,3.563,0,0,0-.008,6.248Zm1.607-3.307c3.55-1.956,4.034-2.063,4.383-2.7,2.186-3.991,2.028-3.823,2.214-3.823s.015-.193,2.214,3.823c.32.585.411.5,4.383,2.7a.208.208,0,0,1,0,.365c-3.55,1.956-4.034,2.063-4.383,2.7L36.236,30.65a.4.4,0,0,1-.365,0c-2.2-3.992-2.124-4.068-2.7-4.381-4.046-2.214-3.823-2.036-3.823-2.214A.194.194,0,0,1,29.457,23.872Z" transform="translate(17.579 9.464)" fill="#2079f3"/>
      <path id="Trazado_1085359" data-name="Trazado 1085359" d="M23.95,22.994a4.126,4.126,0,0,0,7.237,0L33.6,18.6,38,16.189a4.131,4.131,0,0,0,0-7.24L33.6,6.544l-2.415-4.4a4.126,4.126,0,0,0-7.237,0l-2.407,4.4-4.4,2.405a4.131,4.131,0,0,0,0,7.24l4.4,2.413Zm-5.2-11.1,4.83-2.641c.575-.313.407-.191,3.308-5.5a.773.773,0,0,1,1.358,0c2.821,5.137,2.718,5.174,3.308,5.5L36.385,11.9a.773.773,0,0,1,0,1.358l-4.829,2.633c-.575.313-.407.191-3.308,5.5a.773.773,0,0,1-1.358,0c-2.812-5.142-2.718-5.174-3.308-5.5l-4.829-2.641a.773.773,0,0,1,0-1.349Z" transform="translate(10.141 -0.001)" fill="#2079f3"/>
      <path id="Trazado_1085360" data-name="Trazado 1085360" d="M97.209,15H77.1a3.352,3.352,0,0,0-3.352,3.352V46.844H3.352A3.352,3.352,0,0,0,0,50.2V87.069a3.352,3.352,0,0,0,3.352,3.352H97.209a3.352,3.352,0,0,0,3.352-3.352V18.352A3.352,3.352,0,0,0,97.209,15Zm0,3.352V38.464H77.1V18.352Zm-56.984,48.6H55.308V87.069H40.224Zm18.436,0H73.745V87.069H58.66ZM73.745,63.6H40.224V50.2h33.52ZM36.872,50.2V60.252H3.352V50.2ZM3.352,63.6h33.52V87.069H3.352ZM77.1,87.069V41.816H97.209V87.069Z" transform="translate(0 10.138)" fill="#2079f3"/>
      <circle id="Elipse_11477" data-name="Elipse 11477" cx="1.469" cy="1.469" r="1.469" transform="translate(8.817 63.675)" fill="#2079f3"/>
      <circle id="Elipse_11478" data-name="Elipse 11478" cx="1.469" cy="1.469" r="1.469" transform="translate(18.613 63.675)" fill="#2079f3"/>
      <ellipse id="Elipse_11479" data-name="Elipse 11479" cx="1.959" cy="1.469" rx="1.959" ry="1.469" transform="translate(28.409 63.675)" fill="#2079f3"/>
      <path id="Trazado_1085361" data-name="Trazado 1085361" d="M27.464,46H7.352A3.352,3.352,0,0,0,4,49.352V59.408A3.352,3.352,0,0,0,7.352,62.76H27.464a3.352,3.352,0,0,0,3.352-3.352V49.352A3.352,3.352,0,0,0,27.464,46ZM7.352,59.408V49.352H27.464V59.408Z" transform="translate(2.704 31.095)" fill="#2079f3"/>
      <path id="Trazado_1085362" data-name="Trazado 1085362" d="M49.676,28.7a1.676,1.676,0,0,0,1.676-1.676V23.676a1.676,1.676,0,0,0-3.352,0v3.352A1.676,1.676,0,0,0,49.676,28.7Z" transform="translate(32.449 14.87)" fill="#2079f3"/>
      <path id="Trazado_1085363" data-name="Trazado 1085363" d="M49.676,34A1.676,1.676,0,0,0,48,35.676v3.352a1.676,1.676,0,0,0,3.352,0V35.676A1.676,1.676,0,0,0,49.676,34Z" transform="translate(32.449 22.982)" fill="#2079f3"/>
      <path id="Trazado_1085364" data-name="Trazado 1085364" d="M38.676,48A1.676,1.676,0,0,0,37,49.676v3.352a1.676,1.676,0,0,0,3.352,0V49.676A1.676,1.676,0,0,0,38.676,48Z" transform="translate(25.013 32.447)" fill="#2079f3"/>
      <path id="Trazado_1085365" data-name="Trazado 1085365" d="M30.676,48A1.676,1.676,0,0,0,29,49.676v3.352a1.676,1.676,0,0,0,3.352,0V49.676A1.676,1.676,0,0,0,30.676,48Z" transform="translate(19.604 32.447)" fill="#2079f3"/>
    </g>
    <g id="Grupo_1186068" data-name="Grupo 1186068" transform="translate(1246.076 2505.665)">
      <g id="Grupo_1184024" data-name="Grupo 1184024" transform="translate(0 0)">
        <rect id="Rectángulo_455879-2" data-name="Rectángulo 455879" width="52.034" height="49.963" transform="translate(0.392 0)" fill="#ffb57d"/>
        <path id="Trazado_1000145-2" data-name="Trazado 1000145" d="M0,2.281H1.391a2.279,2.279,0,0,1,4.557,0H7.9v0a2.279,2.279,0,1,1,4.557,0h1.823v0a2.279,2.279,0,1,1,4.557,0h1.909v0a2.279,2.279,0,1,1,4.557,0h1.977v0a2.279,2.279,0,1,1,4.557,0H33.7a2.279,2.279,0,0,1,4.558,0h1.924v0a2.279,2.279,0,1,1,4.557,0h1.931v0a2.279,2.279,0,1,1,4.557,0h1.589" transform="translate(52.818 51.749) rotate(180)" fill="#ffb57d"/>
      </g>
      <path id="Trazado_1026845" data-name="Trazado 1026845" d="M39.6,8.581c-.163-2.866-1.977-4.551-5.232-3.338a35.67,35.67,0,0,1-4.55,1.247c-.278-1.065-.556-2.157-.758-3.006l-.028.013c-.068-.286-.128-.547-.176-.768A3.085,3.085,0,0,0,25.8,0L12.754.746c-1.6.091-2.414,1.487-2.727,3.055-.165.828-.367,2.2-.552,3.571-2.628-.234-4.64-.45-4.64-.45C.952,6.152-.148,7.966.015,10.832.3,15.823,9.739,21.219,20.428,20.611S39.884,13.572,39.6,8.581" transform="translate(6.428 15.893) rotate(-1)" fill="#ffb57d" style="mix-blend-mode: multiply;isolation: isolate"/>
    </g>
  </g>
</svg>
