<svg xmlns="http://www.w3.org/2000/svg" width="104" height="104" viewBox="0 0 104 104">
  <g id="Grupo_1183886" data-name="Grupo 1183886" transform="translate(7221.333 10023.309)">
    <g id="Rectángulo_456430" data-name="Rectángulo 456430" transform="translate(-7221.333 -10023.309)" fill="none" stroke="#e6d062" stroke-width="2">
      <rect width="104" height="104" rx="52" stroke="none"/>
      <rect x="1" y="1" width="102" height="102" rx="51" fill="none"/>
    </g>
    <g id="lavado-de-manos" transform="translate(-7202 -10003)">
      <path id="Trazado_1063991" data-name="Trazado 1063991" d="M50,29a4,4,0,1,0,4-4A4,4,0,0,0,50,29Zm4-2a2,2,0,1,1-2,2,2,2,0,0,1,2-2Z" fill="#e6d062"/>
      <path id="Trazado_1063992" data-name="Trazado 1063992" d="M47,23a5,5,0,1,0-5-5,5,5,0,0,0,5,5Zm0-8a3,3,0,1,1-3,3A3,3,0,0,1,47,15Z" fill="#e6d062"/>
      <path id="Trazado_1063993" data-name="Trazado 1063993" d="M62.668,45.927,40.39,25.908a6.928,6.928,0,0,0-2.8-1.595V15a4,4,0,0,0-4-4,3.954,3.954,0,0,0-2,.556V9a4,4,0,0,0-6.239-3.313A3.99,3.99,0,0,0,17.592,7v.556a3.955,3.955,0,0,0-2-.556,4,4,0,0,0-4,4V29.348a5.5,5.5,0,0,0-1.681.994c-.261-1.593-.553-3.448-.789-4.971A5.137,5.137,0,0,0,4.018,21a3.015,3.015,0,0,0-2.329,1.089,2.98,2.98,0,0,0-.636,2.46c.614,3.282,1.7,9.8,2.135,12.45a11.009,11.009,0,0,0,2.227,5.029l4.1,5.172a5.023,5.023,0,0,1,1.08,3.1V60a1,1,0,0,0,1,1h22a1,1,0,0,0,1-1V50.327a15.617,15.617,0,0,0,1.062-1.713c.013.036.032.069.045.1a13.006,13.006,0,0,0,10.189,8.393c1.08.175,4.662,2.06,6.666,3.207a1,1,0,0,0,1.316-.294l8.949-12.78A1,1,0,0,0,62.668,45.927ZM40.6,38.173a.979.979,0,1,1-1.386,1.382l-1.24-1.24a5.944,5.944,0,0,0,.866-2.005c.545.588,1.131,1.212,1.76,1.863ZM33.592,13a2,2,0,0,1,2,2V29.612a5.921,5.921,0,0,0-1.7-.546,4.007,4.007,0,0,0-2.3-2.721V15a2,2,0,0,1,2-2Zm-6-6a2,2,0,0,1,2,2V26.035a3.948,3.948,0,0,0-.93.2,7.459,7.459,0,0,0-3.07-2.553V9A2,2,0,0,1,27.592,7Zm-8,0a2,2,0,0,1,4,0V23.087A7.547,7.547,0,0,0,22.5,23a7.446,7.446,0,0,0-2.908.594Zm-6,4a2,2,0,0,1,4,0V24.837a7.5,7.5,0,0,0-2.485,4.4,5.508,5.508,0,0,0-1.515-.232ZM13.5,31a3.486,3.486,0,0,1,1.955.6,1,1,0,0,0,1.558-.873L17,30.5A5.5,5.5,0,0,1,27.395,28a1,1,0,0,0,1.464.363A1.982,1.982,0,0,1,30,28a2,2,0,0,1,2,2,1,1,0,0,0,1,1,4,4,0,0,1,4,4,3.924,3.924,0,0,1-.486,1.857L31.49,31.833a3.993,3.993,0,0,0-5.633,5.66l4.168,4.128a3.509,3.509,0,0,1-3.561-.287,1,1,0,0,0-1.411.25A5.5,5.5,0,0,1,15.02,38.88a1,1,0,0,0-1.115-.925l-.157.02A1.813,1.813,0,0,1,13.5,38a3.5,3.5,0,0,1,0-7ZM32.792,49.4a1,1,0,0,0-.2.6v9h-20V50.3a7.036,7.036,0,0,0-1.512-4.346l-4.1-5.172A9.017,9.017,0,0,1,5.16,36.673c-.438-2.656-1.524-9.192-2.143-12.492a.978.978,0,0,1,.21-.815A1.009,1.009,0,0,1,4.018,23a3.147,3.147,0,0,1,3.127,2.678c.353,2.276.829,5.285,1.145,7.074a5.488,5.488,0,0,0,4.866,7.237A7.495,7.495,0,0,0,26.13,43.455,5.531,5.531,0,0,0,31.5,43.08l1.6,1.589A11.021,11.021,0,0,1,34.5,46.376,13.914,13.914,0,0,1,32.792,49.4Zm19.96,8.734c-1.674-.931-5.1-2.763-6.549-3a11.007,11.007,0,0,1-8.625-7.1,13.1,13.1,0,0,0-3.067-4.788l-7.246-7.175a1.993,1.993,0,1,1,2.812-2.825L37.8,40.97A3.036,3.036,0,0,0,42,40.963a2.994,2.994,0,0,0,.032-4.179C40.73,35.43,39.584,34.176,38.7,33.2a5.98,5.98,0,0,0-1.11-2.043V26.44a5,5,0,0,1,1.444.939L60.673,46.822Z" fill="#e6d062"/>
    </g>
  </g>
</svg>
