<svg xmlns="http://www.w3.org/2000/svg" width="104" height="104" viewBox="0 0 104 104">
  <g id="Grupo_1186103" data-name="Grupo 1186103" transform="translate(-893 -7385.742)">
    <g id="Rectángulo_456431" data-name="Rectángulo 456431" transform="translate(893 7385.742)" fill="none" stroke="#e6d062" stroke-width="2">
      <rect width="104" height="104" rx="52" stroke="none"/>
      <rect x="1" y="1" width="102" height="102" rx="51" fill="none"/>
    </g>
    <g id="Grupo_1186090" data-name="Grupo 1186090" transform="translate(-454.002 -19.88)">
      <path id="Trazado_1085398" data-name="Trazado 1085398" d="M4.429,53.045h28.2a4.411,4.411,0,0,0,4.406-4.406V43.233l6.774,8.006a5.112,5.112,0,0,0,3.682,1.806c.071,0,.141,0,.211,0a5.106,5.106,0,0,0,3.613-8.714L39.344,32.361l-2.309-2.309V16.914a4.411,4.411,0,0,0-4.406-4.406H23.07l.867-6.081a4.847,4.847,0,0,0,.056-.8,5.464,5.464,0,1,0-10.875.786l.352,2.475a3.836,3.836,0,0,0-.441.137,3.483,3.483,0,0,0-2.245,3.132l-.01.353H4.429A4.411,4.411,0,0,0,.023,16.914V48.639a4.411,4.411,0,0,0,4.406,4.406ZM50.069,50.3a3.34,3.34,0,0,1-4.912-.2l-8.372-9.9,0,0L34.933,38.02l3.789-3.79L50.069,45.578a3.348,3.348,0,0,1,0,4.723Zm-14.8-33.388V28.29L21.252,14.27H32.629a2.644,2.644,0,0,1,2.644,2.644ZM15.728,3.208a3.7,3.7,0,0,1,6.5,2.416,3.37,3.37,0,0,1-.035.537l-.906,6.346h-1.8L16.8,9.816a3.525,3.525,0,0,0-1.542-.9l-.394-2.752a3.7,3.7,0,0,1,.865-2.954Zm-2.061,7.457a1.823,1.823,0,0,1,.657-.126,1.727,1.727,0,0,1,1.229.523L35.519,31.028l.031.031,1.926,1.925-4.362,4.362-1.247,1.246a.882.882,0,0,1-1.247,0L14.941,22.914A8.836,8.836,0,0,1,12.368,16.3l.176-4.067a1.721,1.721,0,0,1,1.123-1.567ZM13.7,24.16l.853.853A4.406,4.406,0,1,1,10.6,18.676c.076,0,.134.015.206.019A10.59,10.59,0,0,0,13.7,24.16ZM1.786,16.914A2.644,2.644,0,0,1,4.429,14.27h6.264L10.6,16.223c-.01.232,0,.461.006.691H10.6a6.169,6.169,0,1,0,5.241,9.39L29.374,39.84a2.644,2.644,0,0,0,3.739,0l.569-.569,1.591,1.877v7.49a2.644,2.644,0,0,1-2.644,2.644H4.429a2.644,2.644,0,0,1-2.644-2.644Zm0,0" transform="translate(1373.979 7430.452)" fill="#e6d062"/>
      <path id="Trazado_1085399" data-name="Trazado 1085399" d="M78.583,214.213a.881.881,0,1,0-1.762,0,2.644,2.644,0,0,0,2.644,2.644.881.881,0,0,0,0-1.763.881.881,0,0,1-.881-.881Zm0,0" transform="translate(1305.113 7239.321)" fill="#e6d062"/>
      <path id="Trazado_1085400" data-name="Trazado 1085400" d="M37.651,308.03a.881.881,0,0,0,.623-1.5,2.644,2.644,0,0,1,3.739-3.739.881.881,0,1,0,1.246-1.246,4.406,4.406,0,0,0-6.231,6.231A.882.882,0,0,0,37.651,308.03Zm0,0" transform="translate(1341.941 7161.368)" fill="#e6d062"/>
      <path id="Trazado_1085401" data-name="Trazado 1085401" d="M82.12,373.9a.882.882,0,0,0-.948-1.487,4.407,4.407,0,0,0,4.738,7.432.881.881,0,0,0-.947-1.487A2.643,2.643,0,1,1,82.12,373.9Zm0,0" transform="translate(1303.038 7096.794)" fill="#e6d062"/>
      <path id="Trazado_1085402" data-name="Trazado 1085402" d="M152.737,398.589a.882.882,0,0,0,.947,1.489,2.644,2.644,0,1,1,2.842,4.458.881.881,0,0,0,.948,1.486,4.406,4.406,0,0,0-4.738-7.431Zm0,0" transform="translate(1237.403 7073.814)" fill="#e6d062"/>
      <path id="Trazado_1085403" data-name="Trazado 1085403" d="M137.244,321.86a.881.881,0,0,0,1.051-.67,2.644,2.644,0,1,1,5.162,1.145.882.882,0,1,0,1.722.382,4.407,4.407,0,0,0-8.605-1.905A.882.882,0,0,0,137.244,321.86Zm0,0" transform="translate(1251.549 7146.04)" fill="#e6d062"/>
      <path id="Trazado_1085404" data-name="Trazado 1085404" d="M171.076,44.265a.666.666,0,0,0,.159.079.56.56,0,0,0,.159.053,1.225,1.225,0,0,0,.176.018.882.882,0,1,0-.176-1.745.549.549,0,0,0-.159.053.65.65,0,0,0-.159.079l-.132.106a.893.893,0,0,0,0,1.251Zm0,0" transform="translate(1220.939 7392.376)" fill="#e6d062"/>
      <path id="Trazado_1085405" data-name="Trazado 1085405" d="M450.942,455.508a.882.882,0,0,0,1.508-.623.872.872,0,0,0-.548-.811,1,1,0,0,0-.336-.074.922.922,0,0,0-.881.881,1.039,1.039,0,0,0,.075.337A.734.734,0,0,0,450.942,455.508Zm0,0" transform="translate(969.858 7023.507)" fill="#e6d062"/>
      <path id="Trazado_1085406" data-name="Trazado 1085406" d="M384.285,0a7.879,7.879,0,0,0-5.609,2.323.881.881,0,0,0,0,1.246l9.971,9.971a.881.881,0,0,0,1.246,0A7.931,7.931,0,0,0,384.285,0Zm2.379,9.063-3.511-3.511a2.627,2.627,0,0,1,3.511,3.511Zm2.564,2.564-1.265-1.265a4.407,4.407,0,0,0-6.106-6.106L380.589,2.99a6.169,6.169,0,0,1,8.636,8.637Zm0,0" transform="translate(1034.661 7430.623)" fill="#e6d062"/>
      <path id="Trazado_1085407" data-name="Trazado 1085407" d="M386.345,153.6a7.931,7.931,0,0,0-5.608,13.54.881.881,0,0,0,1.247,0l9.969-9.971a.881.881,0,0,0,0-1.246A7.878,7.878,0,0,0,386.345,153.6Zm-1.869,6.061a2.636,2.636,0,0,1,3-.508l-3.51,3.509A2.643,2.643,0,0,1,384.476,159.663Zm4.3-1.806a4.406,4.406,0,0,0-6.106,6.105l-1.266,1.265a6.169,6.169,0,0,1,8.637-8.636Zm0,0" transform="translate(1034.665 7292.883)" fill="#e6d062"/>
    </g>
  </g>
</svg>
