<svg xmlns="http://www.w3.org/2000/svg" width="104" height="104" viewBox="0 0 104 104">
  <g id="Grupo_1186521" data-name="Grupo 1186521" transform="translate(647.785 8567.293)">
    <g id="Rectángulo_456955" data-name="Rectángulo 456955" transform="translate(-647.785 -8567.293)" fill="none" stroke="#e6d062" stroke-width="2">
      <rect width="104" height="104" rx="52" stroke="none"/>
      <rect x="1" y="1" width="102" height="102" rx="51" fill="none"/>
    </g>
    <g id="apreton-de-manos" transform="translate(-625.216 -8538.642)">
      <path id="Trazado_1106672" data-name="Trazado 1106672" d="M29.43,19.148A9.572,9.572,0,0,0,33.073.726a.862.862,0,1,0-.657,1.595,7.851,7.851,0,1,1-2.986-.588.862.862,0,1,0,0-1.724,9.57,9.57,0,1,0,0,19.14ZM26.368,9.9a.862.862,0,0,0-1.219,1.219l1.735,1.735a1.669,1.669,0,0,0,2.357,0l4.471-4.471a.862.862,0,0,0-1.219-1.219l-4.431,4.431ZM58.609,27.037a.862.862,0,0,0-1.219,0l-3.258,3.255L40.779,16.672,55.991,1.48A.862.862,0,0,0,54.772.26L36.092,18.916a4.265,4.265,0,0,0-1.255,3.313H33.685a6.125,6.125,0,0,0-4.557,2.036l-.167.186a12.419,12.419,0,0,0-5.112-1.305,4.323,4.323,0,0,0-1.135-4.233L3.849.327a.862.862,0,1,0-1.21,1.229l16.11,15.87L7.134,29.272A.862.862,0,1,0,8.366,30.48L19.977,18.636l1.529,1.507a2.581,2.581,0,0,1,.019,3.671l-9.811,9.8a2.592,2.592,0,0,1-3.659,0L1.471,27.037a.862.862,0,1,0-1.219,1.22l6.585,6.578a4.32,4.32,0,0,0,4.235,1.093,12.447,12.447,0,0,0,.189,1.745,3.718,3.718,0,0,0-1.078.751L8.289,40.315a3.732,3.732,0,0,0,2.986,6.356A3.731,3.731,0,0,0,15,50.747q.172,0,.344-.016A3.732,3.732,0,0,0,19.4,54.791a3.738,3.738,0,0,0,6.362,2.985l1.245-1.244,1.245,1.244a3.736,3.736,0,0,0,6.362-2.985,3.732,3.732,0,0,0,4.065-4.061,3.732,3.732,0,0,0,4.065-4.061,3.732,3.732,0,0,0,2.986-6.356L44.69,39.271a12.662,12.662,0,0,0,3.063-3.353,4.325,4.325,0,0,0,4.271-1.084l6.585-6.578a.862.862,0,0,0,0-1.219ZM12.354,44.375a2.016,2.016,0,0,1-2.846,0,2.007,2.007,0,0,1,0-2.841L11.4,39.644a2.01,2.01,0,1,1,2.846,2.841Zm1.219,4.061a2.007,2.007,0,0,1,0-2.841L15.466,43.7a2.017,2.017,0,0,1,2.846,0,2.007,2.007,0,0,1,0,2.841l-1.893,1.891A2.017,2.017,0,0,1,13.573,48.436Zm4.065,4.06a2.007,2.007,0,0,1,0-2.841l1.893-1.891a2.01,2.01,0,1,1,2.846,2.841L20.483,52.5A2.016,2.016,0,0,1,17.637,52.5Zm8.8,2.17-1.893,1.891a2.017,2.017,0,0,1-2.846,0h0a2.007,2.007,0,0,1,0-2.841l1.893-1.891a2.01,2.01,0,1,1,2.846,2.841ZM45.1,42.955a1.994,1.994,0,0,1-.589,1.42,2.016,2.016,0,0,1-2.846,0L35.492,38.2a.862.862,0,1,0-1.219,1.22L40.451,45.6a2.007,2.007,0,0,1,0,2.841,2.016,2.016,0,0,1-2.845,0h0l-6.178-6.172a.862.862,0,1,0-1.219,1.22l6.178,6.172a2.007,2.007,0,0,1,0,2.841,2.016,2.016,0,0,1-2.846,0l-6.178-6.172a.862.862,0,1,0-1.219,1.22l6.178,6.172a2.007,2.007,0,0,1,0,2.841,2.016,2.016,0,0,1-2.846,0L28.17,55.251a3.732,3.732,0,0,0-3.5-5.722c.01-.114.016-.229.016-.345a3.732,3.732,0,0,0-4.081-3.716c.01-.114.016-.229.016-.345a3.732,3.732,0,0,0-4.081-3.716c.01-.114.016-.229.016-.345a3.73,3.73,0,0,0-3.609-3.729,10.664,10.664,0,0,1-.151-2.374c.045-.041.089-.083.133-.126l9.811-9.8q.078-.078.151-.158a10.691,10.691,0,0,1,4.866.915L22.31,31.878a2.676,2.676,0,0,0,.1,3.678,4.9,4.9,0,0,0,6.918,0l3.991-3.987a.863.863,0,0,1,1.219,0l8.206,8.2,1.77,1.768a2,2,0,0,1,.589,1.42Zm.278-6.706a11.027,11.027,0,0,1-1.924,1.793l-7.7-7.693a2.59,2.59,0,0,0-3.656,0l-3.991,3.987a3.174,3.174,0,0,1-4.481,0,.951.951,0,0,1-.036-1.307l6.819-7.614a4.4,4.4,0,0,1,3.273-1.462h1.63a4.321,4.321,0,0,0,.777,1.056l9.836,9.826c.1.1.2.185.3.27a11,11,0,0,1-.842,1.144ZM50.8,33.615a2.592,2.592,0,0,1-3.659,0L37.31,23.789a2.581,2.581,0,0,1,0-3.653l2.248-2.245,13.352,13.62Z" transform="translate(0.001 -0.008)" fill="#e6d062"/>
    </g>
  </g>
</svg>
