<svg xmlns="http://www.w3.org/2000/svg" width="83" height="83" viewBox="0 0 83 83">
  <g id="Grupo_1183474" data-name="Grupo 1183474" transform="translate(-175.889 -5519.5)">
    <rect id="Rectángulo_402006" data-name="Rectángulo 402006" width="83" height="83" rx="5" transform="translate(175.889 5519.5)" fill="#bbd6fc"/>
    <g id="alimento" transform="translate(186.535 5516.791)">
      <path id="Trazado_1064003" data-name="Trazado 1064003" d="M61.167,106h-48.2a.964.964,0,0,0,0,1.928h48.2a.964.964,0,0,0,0-1.928Z" transform="translate(-6.213 -45.581)" fill="#2079f3"/>
      <circle id="Elipse_11472" data-name="Elipse 11472" cx="1.089" cy="1.089" r="1.089" transform="translate(10.893 39.775)" fill="#2079f3"/>
      <circle id="Elipse_11473" data-name="Elipse 11473" cx="1.089" cy="1.089" r="1.089" transform="translate(2.183 60.461)" fill="#2079f3"/>
      <circle id="Elipse_11474" data-name="Elipse 11474" cx="1.089" cy="1.089" r="1.089" transform="translate(57.709 60.461)" fill="#2079f3"/>
      <path id="Trazado_1064004" data-name="Trazado 1064004" d="M9.374,60.788c.376.246.8.506,1.244.781h3.991a42.531,42.531,0,0,1-4.2-2.41c-.41-.265-.482-.482-.482-.53s.087-.193.352-.371A42.3,42.3,0,0,1,17.631,54.4a2.058,2.058,0,0,1,.858.9,1.928,1.928,0,0,1-.092,1.528.964.964,0,1,0,1.784.728,3.779,3.779,0,0,0,.063-3.051,3.524,3.524,0,0,0-.554-.863,31.491,31.491,0,0,1,10-1.711h.482v1.446a.964.964,0,0,0,1.928,0v-1.34c8.228.718,15.1,4.907,17.637,6.642a41.679,41.679,0,0,1-4.946,2.892h4.035c1.07-.651,1.89-1.21,2.41-1.6l2.805,1.6H57.9l-4.762-2.733,6.078-4.415L57.967,58.4a.964.964,0,0,0,0,.622l.969,2.55h2.053l-1.065-2.892,2.02-6.445a.964.964,0,0,0-1.485-1.07l-8.893,6.445C49.556,56.117,40.633,50,29.691,50A34.291,34.291,0,0,0,17.26,52.482H17.2A44.01,44.01,0,0,0,9.2,56.642,2.41,2.41,0,0,0,8,58.648,2.577,2.577,0,0,0,9.374,60.788Z" transform="translate(-4.141 -16.575)" fill="#2079f3"/>
      <path id="Trazado_1064005" data-name="Trazado 1064005" d="M61.65,78.651A.964.964,0,0,0,60.739,78H.967a.964.964,0,0,0-.588,1.726l10.229,7.915H9.644a.964.964,0,0,0,0,1.928H52.062a.964.964,0,0,0,0-1.928H51.1l10.224-7.915a.964.964,0,0,0,.328-1.075Zm-13.69,8.99H13.736L3.787,79.928H57.919Z" transform="translate(0 -31.078)" fill="#2079f3"/>
      <path id="Trazado_1064006" data-name="Trazado 1064006" d="M56,30.533a.964.964,0,1,0,1.928,0c0-.54.207-.776.68-1.248a3.374,3.374,0,0,0,0-5.22c-.482-.482-.68-.7-.68-1.248s.207-.771.68-1.244a3.437,3.437,0,0,0,1.248-2.608.964.964,0,0,0-1.928,0c0,.54-.207.771-.68,1.244a3.374,3.374,0,0,0,0,5.22c.482.482.68.7.68,1.248s-.207.776-.68,1.248A3.437,3.437,0,0,0,56,30.533Z" transform="translate(-29.003)" fill="#2079f3"/>
      <path id="Trazado_1064007" data-name="Trazado 1064007" d="M66,30.533a.964.964,0,1,0,1.928,0c0-.54.207-.776.68-1.248a3.374,3.374,0,0,0,0-5.22c-.482-.482-.68-.7-.68-1.248s.207-.771.68-1.244a3.437,3.437,0,0,0,1.248-2.608.964.964,0,0,0-1.928,0c0,.54-.207.771-.68,1.244a3.374,3.374,0,0,0,0,5.22c.482.482.68.7.68,1.248s-.207.776-.68,1.248A3.437,3.437,0,0,0,66,30.533Z" transform="translate(-34.183)" fill="#2079f3"/>
      <path id="Trazado_1064008" data-name="Trazado 1064008" d="M46,30.533a.964.964,0,1,0,1.928,0c0-.54.207-.776.68-1.248a3.374,3.374,0,0,0,0-5.22c-.482-.482-.68-.7-.68-1.248s.207-.771.68-1.244a3.437,3.437,0,0,0,1.248-2.608.964.964,0,1,0-1.928,0c0,.54-.207.771-.68,1.244a3.374,3.374,0,0,0,0,5.22c.482.482.68.7.68,1.248s-.207.776-.68,1.248A3.437,3.437,0,0,0,46,30.533Z" transform="translate(-23.824 0)" fill="#2079f3"/>
      <path id="Trazado_1064009" data-name="Trazado 1064009" d="M51.964,90.928h10.6a.964.964,0,0,0,0-1.928h-10.6a.964.964,0,0,0,0,1.928Z" transform="translate(-26.413 -36.776)" fill="#2079f3"/>
      <circle id="Elipse_11475" data-name="Elipse 11475" cx="1.089" cy="1.089" r="1.089" transform="translate(39.2 51.751)" fill="#2079f3"/>
      <circle id="Elipse_11476" data-name="Elipse 11476" cx="1.089" cy="1.089" r="1.089" transform="translate(20.692 51.751)" fill="#2079f3"/>
    </g>
  </g>
</svg>
