<svg xmlns="http://www.w3.org/2000/svg" width="104" height="104" viewBox="0 0 104 104">
  <g id="Grupo_1186519" data-name="Grupo 1186519" transform="translate(772.785 8439.211)">
    <g id="Rectángulo_456957" data-name="Rectángulo 456957" transform="translate(-772.785 -8439.211)" fill="none" stroke="#e6d062" stroke-width="2">
      <rect width="104" height="104" rx="52" stroke="none"/>
      <rect x="1" y="1" width="102" height="102" rx="51" fill="none"/>
    </g>
    <g id="cocinero_1_" data-name="cocinero (1)" transform="translate(-744.739 -8419.171)">
      <g id="Grupo_1186510" data-name="Grupo 1186510" transform="translate(20.016 34.027)">
        <g id="Grupo_1186509" data-name="Grupo 1186509">
          <path id="Trazado_1106688" data-name="Trazado 1106688" d="M232.059,272.827a.936.936,0,0,0-1.324-.009,4.127,4.127,0,0,1-4.69,0,.936.936,0,0,0-1.315,1.333,5.907,5.907,0,0,0,7.32,0A.936.936,0,0,0,232.059,272.827Z" transform="translate(-224.452 -272.548)" fill="#e6d062"/>
        </g>
      </g>
      <g id="Grupo_1186512" data-name="Grupo 1186512" transform="translate(17.013 26.02)">
        <g id="Grupo_1186511" data-name="Grupo 1186511">
          <path id="Trazado_1106689" data-name="Trazado 1106689" d="M201.339,208.419a.936.936,0,0,0-.936.936v1a.936.936,0,0,0,1.873,0v-1A.936.936,0,0,0,201.339,208.419Z" transform="translate(-200.403 -208.419)" fill="#e6d062"/>
        </g>
      </g>
      <g id="Grupo_1186514" data-name="Grupo 1186514" transform="translate(29.023 26.02)">
        <g id="Grupo_1186513" data-name="Grupo 1186513">
          <path id="Trazado_1106690" data-name="Trazado 1106690" d="M297.533,208.419a.936.936,0,0,0-.936.936v1a.936.936,0,0,0,1.873,0v-1A.936.936,0,0,0,297.533,208.419Z" transform="translate(-296.597 -208.419)" fill="#e6d062"/>
        </g>
      </g>
      <g id="Grupo_1186516" data-name="Grupo 1186516" transform="translate(0)">
        <g id="Grupo_1186515" data-name="Grupo 1186515">
          <path id="Trazado_1106691" data-name="Trazado 1106691" d="M107.407,50.68,96.736,46.914a1.067,1.067,0,0,1-.711-1V43.451a4.937,4.937,0,0,0,7.005-4.485c0-.124-.006-.249-.017-.379a3.918,3.918,0,0,0-1.2-6.165c.031-.174.058-.35.083-.526h.7a3.438,3.438,0,0,0,1.437-6.561V14.1A5.938,5.938,0,0,0,101.093,3H96.559a7.406,7.406,0,0,0-5.974-3h-5a7.406,7.406,0,0,0-5.974,3H75.073a5.938,5.938,0,0,0-2.938,11.1V25.335A3.438,3.438,0,0,0,73.572,31.9h.7c.025.176.051.352.083.526a3.918,3.918,0,0,0-1.2,6.165c-.011.13-.017.255-.017.379a4.937,4.937,0,0,0,7.005,4.485V45.91a1.067,1.067,0,0,1-.711,1L68.76,50.68a6.951,6.951,0,0,0-4.631,6.545v5.759a.936.936,0,1,0,1.873,0v-5.76a5.05,5.05,0,0,1,.328-1.789L71.064,59.5a3.063,3.063,0,0,1,1.071,2.328v1.161a.936.936,0,1,0,1.873,0V61.824a4.933,4.933,0,0,0-1.725-3.75L67.32,53.819a5.055,5.055,0,0,1,2.063-1.373L77.1,49.723c2.026,2.562,6.25,4.19,10.991,4.19a19.178,19.178,0,0,0,4.972-.639l.193.193a3.047,3.047,0,0,1,.9,2.169v7.349a.936.936,0,1,0,1.873,0V55.636A4.9,4.9,0,0,0,95,52.618a10.112,10.112,0,0,0,4.081-2.892l7.707,2.72a5.055,5.055,0,0,1,2.063,1.373l-4.963,4.254a4.933,4.933,0,0,0-1.725,3.75v1.161a.936.936,0,0,0,1.873,0V61.824A3.062,3.062,0,0,1,105.1,59.5l4.735-4.059a5.047,5.047,0,0,1,.328,1.789v5.759a.936.936,0,1,0,1.873,0v-5.76A6.952,6.952,0,0,0,107.407,50.68Zm-5.248-14.716a2.058,2.058,0,0,1-.742,1.568.937.937,0,0,0-.316.883,3.062,3.062,0,0,1-4.957,2.92,14.008,14.008,0,0,0,5.19-7.024A2.065,2.065,0,0,1,102.159,35.964ZM71.006,8.943a4.072,4.072,0,0,1,4.068-4.067H78.6a7.556,7.556,0,0,0-.256.85.936.936,0,1,0,1.822.431,5.543,5.543,0,0,1,5.413-4.283h5A5.543,5.543,0,0,1,96,6.156a.936.936,0,1,0,1.822-.431,7.56,7.56,0,0,0-.256-.85h3.529a4.068,4.068,0,0,1,0,8.135.936.936,0,0,0,0,1.873,5.943,5.943,0,0,0,1.065-.1v2.228H99.092a.936.936,0,1,0,0,1.873h3.067v2.13H74.008v-2.13h21.08a.936.936,0,0,0,0-1.873H74.008V14.785a5.945,5.945,0,0,0,1.065.1.936.936,0,1,0,0-1.873A4.072,4.072,0,0,1,71.006,8.943Zm31.153,13.947v2.13H102.1a2.069,2.069,0,0,1-2.069-2.066v-.064h2.13Zm-26.02,0v.064a2.069,2.069,0,0,1-2.069,2.066h-.061v-2.13Zm1.937,19.144a3.031,3.031,0,0,1-3.009-3.619.936.936,0,0,0-.316-.882,2.049,2.049,0,0,1,.083-3.221,14.009,14.009,0,0,0,5.19,7.024A3.069,3.069,0,0,1,78.076,42.033ZM76.009,29.959a.936.936,0,0,0-1.873,0c0,.021,0,.043,0,.064h-.566a1.566,1.566,0,1,1,0-3.131h.5a3.941,3.941,0,0,0,3.942-3.939v-.065H98.156v.065a3.941,3.941,0,0,0,3.942,3.939h.5a1.566,1.566,0,0,1,0,3.131h-.566c0-.021,0-.043,0-.064a.936.936,0,0,0-1.873,0,12.074,12.074,0,1,1-24.148,0Zm12.08,22.082c-3.8,0-7.269-1.171-9.087-2.99l1.052-.371a2.943,2.943,0,0,0,1.82-1.876c.308.114.619.22.931.316a.936.936,0,0,0,.55-1.79c-.452-.139-.9-.3-1.341-.48V42.514a13.932,13.932,0,0,0,12.138,0V44.85a15.952,15.952,0,0,1-6.069,1.186c-.315,0-.634-.009-.947-.027a.936.936,0,0,0-.109,1.87c.349.02.7.031,1.056.031a17.828,17.828,0,0,0,6.209-1.1,2.943,2.943,0,0,0,1.82,1.875l1.059.374C95.35,50.869,91.867,52.041,88.089,52.041Z" transform="translate(-64.129)" fill="#e6d062"/>
        </g>
      </g>
    </g>
  </g>
</svg>
