<svg xmlns="http://www.w3.org/2000/svg" width="89.336" height="89.299" viewBox="0 0 89.336 89.299">
  <g id="_032---Improved-Mental-Health" data-name="032---Improved-Mental-Health" transform="translate(-0.995 -0.003)">
    <path id="Shape" d="M56.205,7.6l-7.9,10.54-1.765-1.765a1.489,1.489,0,0,0-2.106,2.106c3.246,3.246,3.229,3.415,4.031,3.415a1.489,1.489,0,0,0,1.191-.6L58.588,9.383A1.489,1.489,0,0,0,56.205,7.6Z" transform="translate(21.043 3.423)" fill="#2079f3"/>
    <path id="Shape-2" data-name="Shape" d="M62.143,3.321c-10.243-4.847-19.2-3.6-30.92-1.206-6.7,1.34-11.563,3.695-14.88,7.214a28.564,28.564,0,0,0-5.973,9.744A40.316,40.316,0,0,0,9,24.087c-.777,3.425-2.956,6.013-2.625,8.321C6.749,35,9.75,36.2,9.744,37.3A56.718,56.718,0,0,1,3,48.511c-2.978,3.634-2.411,5.251.174,7.172,1.051.783,3.232,1.562,3.345,2.164a3.766,3.766,0,0,1-.816,2.736c-1.52,2.707-.776,3.223,1.3,4.82a2.681,2.681,0,0,0,.4,3.611c1.051.752,2.186,1.1,2.371,1.835.351,1.391-1.257,3.062.112,6.99a5.5,5.5,0,0,0,6.473,3.933A119.549,119.549,0,0,0,28.9,78.01c3.26,1.924,5.19,7.508,5.723,9.242A2.934,2.934,0,0,0,37.465,89.3H71.142a3.013,3.013,0,0,0,2.485-4.654c-2.764-4.205-3.891-9.829-4.5-14.819a25.316,25.316,0,0,1,1.936-13.072c3.164-7.178,10.5-10.892,10.351-23.431A17.851,17.851,0,1,0,62.143,3.321Zm6.2,52.245a28.318,28.318,0,0,0-2.168,14.621c1.377,11.346,4.179,14.466,4.963,16.165H37.468a23.161,23.161,0,0,0-5.236-9.495c.4-.14,3.048-1.068,3.471-1.2,6.36-2.016,9.54-4.914,9.452-8.637a1.49,1.49,0,1,0-2.978.07c.036,1.534-1.214,3.771-7.374,5.724-2.572.815-13.356,4.867-19.051,6.04a2.633,2.633,0,0,1-3.054-2c-1.148-3.3.648-4.021-.036-6.74C12.223,68.378,11,67.707,9.6,66.883c.439-.922.992-1.157.877-2.034-.11-.835-.569-.934-2.4-2.4a7.069,7.069,0,0,0,1.377-5.16c-.459-2.441-3.349-3.151-4.584-4.07a7.024,7.024,0,0,1-.885-.722c0-.226.241-.776,1.375-2.162a58.673,58.673,0,0,0,6.788-11.066,4.274,4.274,0,0,0,.578-2.027,5.242,5.242,0,0,0-2.164-3.711c-1.5-1.391-1.379-1.567-1-2.588a44.41,44.41,0,0,0,2.261-5.821,42.427,42.427,0,0,1,1.34-5.023,25.569,25.569,0,0,1,5.348-8.731c2.837-3.011,7.31-5.144,13.3-6.338,10.344-2.109,18.726-3.456,27.847.42a17.955,17.955,0,0,0-3.233,4.627c-19.134-8.311-39.04,4.934-39.04,18.957,0,12.549,14.348,14.147,26.79,14.147a4.479,4.479,0,0,1,4.482,4.468,6.7,6.7,0,0,0,13.4-.149V45.314a5.986,5.986,0,0,1,3.425-5.371,12.679,12.679,0,0,0,5.227-4.293,17.587,17.587,0,0,0,7.708-.946c-.375,10.254-6.829,13.486-10.071,20.862Zm-.928-20.571A10.942,10.942,0,0,1,64.2,37.249a8.975,8.975,0,0,0-5.118,8.065V47.5a3.793,3.793,0,0,1-2.941,3.784,3.713,3.713,0,0,1-4.5-3.635,7.462,7.462,0,0,0-7.461-7.446c-10.467,0-23.812-.87-23.812-11.169,0-12.043,17.778-23.73,34.979-16.178A17.855,17.855,0,0,0,67.419,34.994Zm5.063-2.234A14.892,14.892,0,1,1,87.374,17.869,14.892,14.892,0,0,1,72.482,32.76Z" transform="translate(0 0)" fill="#2079f3"/>
    <path id="Shape-3" data-name="Shape" d="M38.87,15.957H35.892V12.978A2.978,2.978,0,0,0,32.913,10H29.935a2.978,2.978,0,0,0-2.978,2.978v2.978H23.978A2.978,2.978,0,0,0,21,18.935v2.978a2.978,2.978,0,0,0,2.978,2.978h2.978V27.87a2.978,2.978,0,0,0,2.978,2.978h2.978a2.978,2.978,0,0,0,2.978-2.978V24.892H38.87a2.978,2.978,0,0,0,2.978-2.978V18.935A2.978,2.978,0,0,0,38.87,15.957Zm0,5.957H35.147a2.234,2.234,0,0,0-2.234,2.234V27.87H29.935V24.147A2.234,2.234,0,0,0,27.7,21.913H23.978V18.935H27.7A2.234,2.234,0,0,0,29.935,16.7V12.978h2.978V16.7a2.234,2.234,0,0,0,2.234,2.234H38.87Z" transform="translate(9.786 4.89)" fill="#2079f3"/>
  </g>
</svg>
