<svg xmlns="http://www.w3.org/2000/svg" xmlns:xlink="http://www.w3.org/1999/xlink" width="257" height="256.264" viewBox="0 0 257 256.264">
  <defs>
    <clipPath id="clip-path">
      <rect id="Rectángulo_455881" data-name="Rectángulo 455881" width="144.03" height="29.022" fill="#2cbe91"/>
    </clipPath>
  </defs>
  <g id="Grupo_1186530" data-name="Grupo 1186530" transform="translate(-1132 -10044.456)">
    <g id="Grupo_1186162" data-name="Grupo 1186162" transform="translate(101.241 1690.767)">
      <path id="Trazado_1053331" data-name="Trazado 1053331" d="M242.343,20.705V0h-7.258a10.455,10.455,0,0,1-10.535,10.374A10.455,10.455,0,0,1,214.176,0H205.32a10.455,10.455,0,0,1-10.455,10.455A10.455,10.455,0,0,1,184.41,0h-8.831a10.455,10.455,0,0,1-10.455,10.455A10.455,10.455,0,0,1,154.669,0h-8.54a10.456,10.456,0,0,1-10.456,10.456A10.456,10.456,0,0,1,125.217,0h-9.068a10.455,10.455,0,0,1-10.455,10.455A10.455,10.455,0,0,1,95.239,0H86.474A10.455,10.455,0,0,1,76.019,10.455,10.455,10.455,0,0,1,65.564,0H57.2A10.456,10.456,0,0,1,36.289.011V0H27.326A10.455,10.455,0,0,1,16.871,10.455,10.455,10.455,0,0,1,6.416,0H0V20.77A10.456,10.456,0,0,1,10.456,31.226,10.456,10.456,0,0,1,0,41.682V50.75A10.456,10.456,0,0,1,10.456,61.206,10.456,10.456,0,0,1,0,71.662V80.2H.023A10.456,10.456,0,0,1,10.467,90.67,10.455,10.455,0,0,1,0,101.113v8.827A10.456,10.456,0,0,1,10.456,120.4,10.456,10.456,0,0,1,0,130.853v8.408H.023a10.455,10.455,0,0,1,10.444,10.467A10.456,10.456,0,0,1,0,160.171v20.673H6.38a10.455,10.455,0,0,1,20.91,0h8.961v-.023a10.455,10.455,0,1,1,20.91.023h8.366v-.023a10.455,10.455,0,1,1,20.91.023H95.2v-.023a10.455,10.455,0,1,1,20.91.023h9.07v-.023a10.455,10.455,0,1,1,20.91.023h8.541a10.456,10.456,0,1,1,20.913,0h8.827v-.023a10.455,10.455,0,1,1,20.91.023h8.859v-.023a10.455,10.455,0,1,1,20.91.023h7.293V160.106h-.023a10.455,10.455,0,1,1,.023-20.911v-8.408a10.456,10.456,0,1,1,0-20.912v-8.828h-.023a10.455,10.455,0,1,1,.023-20.911V71.6a10.456,10.456,0,1,1,0-20.912V41.618a10.456,10.456,0,0,1-.011-20.912h.011" transform="translate(1089.19 8596.033) rotate(-90)" fill="#bbd6fc"/>
      <g id="Grupo_1183848" data-name="Grupo 1183848" transform="translate(1239.09 8512.676)">
        <g id="Grupo_1183846" data-name="Grupo 1183846" transform="translate(0 0)">
          <rect id="Rectángulo_455879" data-name="Rectángulo 455879" width="47.947" height="46.037" transform="translate(0.361)" fill="#2cbe91"/>
          <path id="Trazado_1000145" data-name="Trazado 1000145" d="M0,2.1H1.281a2.1,2.1,0,0,1,4.2,0h1.8v0a2.1,2.1,0,1,1,4.2,0h1.68v0a2.1,2.1,0,1,1,4.2,0h1.759v0a2.1,2.1,0,1,1,4.2,0h1.821v0a2.1,2.1,0,1,1,4.2,0h1.715a2.1,2.1,0,0,1,4.2,0h1.773v0a2.1,2.1,0,1,1,4.2,0H43v0a2.1,2.1,0,1,1,4.2,0h1.465" transform="translate(48.669 47.684) rotate(180)" fill="#2cbe91"/>
        </g>
        <path id="Trazado_1000133" data-name="Trazado 1000133" d="M1.145,20.514C1.077,20.4,1,20.3.933,20.189a5.354,5.354,0,0,1-.911-2.4,3.793,3.793,0,0,1,.04-1.1,5.576,5.576,0,0,1,.745-1.946c.147-.228.318-.439.492-.677a.233.233,0,0,0,0-.081,3.71,3.71,0,0,1,.146-2.439,5.622,5.622,0,0,1,.981-1.636A6.5,6.5,0,0,1,4.143,8.39c.152-.088.307-.172.469-.262a3.109,3.109,0,0,1,.9-2.032A6.114,6.114,0,0,1,7,4.842a5.53,5.53,0,0,1,2.23-.8,1.51,1.51,0,0,0,.08-.156,2.871,2.871,0,0,1,.969-1.245A5.855,5.855,0,0,1,13.09,1.449a5.208,5.208,0,0,1,1.1-.016c.129.008.257.01.374.013.087-.075.157-.136.23-.2A5.392,5.392,0,0,1,17.877.028,6.021,6.021,0,0,1,20.6.395c.122.045.245.084.333.114A5.778,5.778,0,0,1,24.713.2a5.663,5.663,0,0,1,3.075,2.137,3.341,3.341,0,0,1,1.07.1,4.618,4.618,0,0,1,1.71.83,4.715,4.715,0,0,1,.775.717,3.288,3.288,0,0,1,.763,1.682,2.872,2.872,0,0,1-.772,2.416,5.687,5.687,0,0,1-1,.892,4.951,4.951,0,0,0-.652.6,20,20,0,0,1-1.768,1.535q-1.228.968-2.47,1.912c-.558.422-1.134.817-1.694,1.23-1.852,1.361-3.769,2.626-5.657,3.933-1.588,1.1-3.213,2.142-4.846,3.169q-1.654,1.038-3.356,2a32.44,32.44,0,0,1-3.6,1.767,1.648,1.648,0,0,1-.234.08.715.715,0,0,0-.339.181.735.735,0,0,1-.2.142,4.577,4.577,0,0,1-1.546.489,2.662,2.662,0,0,1-.841-.029,2.122,2.122,0,0,1-.761-.37A3.882,3.882,0,0,1,1.015,24a3.737,3.737,0,0,1-.29-1.453c0-.213.014-.426.028-.639a3,3,0,0,1,.285-1.128c.041-.084.075-.172.118-.271" transform="translate(18.819 5.712) rotate(34)" fill="#1b5b5b"/>
      </g>
      <g id="Grupo_1183904" data-name="Grupo 1183904" transform="translate(1187.645 8559.548)">
        <g id="Grupo_1183847" data-name="Grupo 1183847" transform="translate(0)">
          <rect id="Rectángulo_455879-2" data-name="Rectángulo 455879" width="50.683" height="48.665" transform="translate(0.382)" fill="#ffb57d"/>
          <path id="Trazado_1000145-2" data-name="Trazado 1000145" d="M0,2.222H1.354a2.22,2.22,0,0,1,4.439,0H7.7v0a2.22,2.22,0,1,1,4.439,0h1.776v0a2.22,2.22,0,1,1,4.439,0h1.859v0a2.22,2.22,0,1,1,4.439,0h1.925v0a2.22,2.22,0,1,1,4.439,0h1.813a2.22,2.22,0,0,1,4.439,0h1.874v0a2.22,2.22,0,1,1,4.439,0h1.881v0a2.22,2.22,0,1,1,4.439,0h1.548" transform="translate(51.446 50.405) rotate(180)" fill="#ffb57d"/>
        </g>
        <path id="Trazado_1026845" data-name="Trazado 1026845" d="M38.571,8.358c-.159-2.792-1.926-4.433-5.1-3.251a34.743,34.743,0,0,1-4.432,1.215c-.271-1.038-.542-2.1-.739-2.927l-.027.013c-.067-.279-.125-.532-.172-.748A3,3,0,0,0,25.13,0L12.423.727C10.868.815,10.071,2.175,9.767,3.7c-.161.807-.357,2.144-.538,3.478-2.56-.228-4.52-.438-4.52-.438C.927,5.992-.144,7.759.015,10.551.291,15.412,9.486,20.668,19.9,20.076S38.848,13.22,38.571,8.358" transform="translate(6.262 15.479) rotate(-1)" fill="#ffb57d" style="mix-blend-mode: multiply;isolation: isolate"/>
      </g>
      <g id="Grupo_1183368" data-name="Grupo 1183368" transform="translate(1030.759 8539.845)">
        <g id="Grupo_1183367" data-name="Grupo 1183367" transform="translate(0 0)" clip-path="url(#clip-path)">
          <path id="Trazado_1000146" data-name="Trazado 1000146" d="M182.617.175a1.41,1.41,0,0,0-1.5.113,4.2,4.2,0,0,0-1.175,1.325,9.6,9.6,0,0,0-.979,1.86,5.374,5.374,0,0,0-.367,2.053,3.734,3.734,0,0,0-.013.458,5.807,5.807,0,0,0,.14,1.026c.041.189.083.39.14.582a2.661,2.661,0,0,0,.154.574c.026.062.1.022.1-.031,0-.013,0-.026,0-.039a.092.092,0,0,0,.117-.1,3.5,3.5,0,0,0-.171-.849c-.049-.322-.114-.643-.151-.944-.015-.122-.022-.243-.03-.364,0-.047,0-.093,0-.139a3.135,3.135,0,0,1,.773-1.9,6.378,6.378,0,0,1,1.413-1.218,4.918,4.918,0,0,0,1.482-1.076c.241-.335.462-1.029.066-1.335" transform="translate(-106.07 0)" fill="#ff6a7d"/>
          <path id="Trazado_1000147" data-name="Trazado 1000147" d="M186.166.148a.131.131,0,0,0-.253.039,4.436,4.436,0,0,1-2.887,3.544,7.4,7.4,0,0,0-3.3,2.133,8.979,8.979,0,0,0-1.719,4.03,5.09,5.09,0,0,0-.021,2.338,5.144,5.144,0,0,0,.453,1.436.144.144,0,1,0,.261-.123c-.016-.034-.025-.069-.04-.1a.139.139,0,0,0,.018-.154,4.546,4.546,0,0,1-.372-1.08,7.062,7.062,0,0,1,.206-2.783,5.186,5.186,0,0,1,.407-.882,7.141,7.141,0,0,1,3.59-2.774,7.575,7.575,0,0,0,3.273-2.177,3.312,3.312,0,0,0,.381-3.443" transform="translate(-105.646 -0.037)" fill="#ffe1cb"/>
          <path id="Trazado_1000148" data-name="Trazado 1000148" d="M184.191,12.209a18.211,18.211,0,0,0-4.47,2.448,4.83,4.83,0,0,0-1.26,1.247,2.246,2.246,0,0,0-.32,1.778" transform="translate(-105.77 -7.252)" fill="none" stroke="#12263f" stroke-linecap="round" stroke-linejoin="round" stroke-width="0.75"/>
          <path id="Trazado_1000149" data-name="Trazado 1000149" d="M196.268,24.239a9.353,9.353,0,0,0-2.387-5.464.269.269,0,0,0-.475.223,20.321,20.321,0,0,1,.045,4.467,2.934,2.934,0,0,1-2.018,2.22,3.469,3.469,0,0,1-2.905-.787,6.544,6.544,0,0,1-.7-.643,5.018,5.018,0,0,0-1.718-2.938c-1.388-.9-3.311-.309-4.6.534a6.532,6.532,0,0,0-1.82,1.767,4.263,4.263,0,0,0-.895,2.247c0,.845.447,1.158,1.152.931a4.4,4.4,0,0,0,1.911-1.584,4.831,4.831,0,0,1,2.411-1.938,2.456,2.456,0,0,1,2.132.431.65.65,0,0,1,.127-.007.706.706,0,0,1,.435.17,2.509,2.509,0,0,1,.6.9,8.4,8.4,0,0,1,.413,1.234c.048.175.089.352.134.527a5.1,5.1,0,0,0,2.134,2.654,3.878,3.878,0,0,0,4-.208,5.461,5.461,0,0,0,2.021-4.741" transform="translate(-106.199 -11.09)" fill="#2079f3"/>
          <path id="Trazado_1000150" data-name="Trazado 1000150" d="M202.076,30.812a2.832,2.832,0,0,1-3.236,1.3,12.153,12.153,0,0,1-3.331-1.719,2.252,2.252,0,0,0-1.893-.438" transform="translate(-115.002 -17.742)" fill="none" stroke="#15260d" stroke-linecap="round" stroke-linejoin="round" stroke-width="0.75"/>
          <path id="Trazado_1000151" data-name="Trazado 1000151" d="M207.545,31.474a3.239,3.239,0,0,1-1.422,2.588,3.708,3.708,0,0,1-2.764.494,6.543,6.543,0,0,1-2.608-1.242" transform="translate(-119.24 -18.695)" fill="none" stroke="#12263f" stroke-linecap="round" stroke-linejoin="round" stroke-width="0.75"/>
          <path id="Trazado_1000152" data-name="Trazado 1000152" d="M208.325,39.062a3.027,3.027,0,0,1-2.7,1.4,7.023,7.023,0,0,1-2.975-.932" transform="translate(-120.367 -23.202)" fill="none" stroke="#12263f" stroke-linecap="round" stroke-linejoin="round" stroke-width="0.75"/>
          <path id="Trazado_1000153" data-name="Trazado 1000153" d="M186.686,27.088a8.482,8.482,0,0,0-5.24,3.812" transform="translate(-107.773 -16.089)" fill="none" stroke="#15260d" stroke-linecap="round" stroke-linejoin="round" stroke-width="0.75"/>
          <path id="Trazado_1000154" data-name="Trazado 1000154" d="M192.8,10.388c.027-.111.056-.222.076-.333a.126.126,0,0,0-.162-.14v0c-.024-.122-.175-.095-.171.028s0,.266-.006.4a4.157,4.157,0,0,1-1.226,1.965c-.911.742-1.9.453-2.912.188a7.327,7.327,0,0,0-4.859.356,7.24,7.24,0,0,0-3.514,3.363,8.076,8.076,0,0,0-.795,2.485,8.563,8.563,0,0,0-.105,1.3V20a3.157,3.157,0,0,0,.2,1.184.208.208,0,0,0,.052.071c.017.034.032.071.052.1.076.125.217.026.225-.094a.2.2,0,0,0,.063-.141c.026-.483-.079-.963-.067-1.45A7.394,7.394,0,0,1,179.8,18.4a7.288,7.288,0,0,1,.22-.82,5.282,5.282,0,0,1,1.03-1.522,5.86,5.86,0,0,1,4.906-1.532,20.113,20.113,0,0,0,2.889.44,4,4,0,0,0,2.082-.659,4.224,4.224,0,0,0,1.51-1.767,4.741,4.741,0,0,0,.368-1.2,2.816,2.816,0,0,0,0-.96" transform="translate(-106.397 -5.84)" fill="#ffe76d"/>
          <path id="Trazado_1000155" data-name="Trazado 1000155" d="M201.565,13.6a6.3,6.3,0,0,1-6.607,1.9" transform="translate(-115.799 -8.08)" fill="none" stroke="#12263f" stroke-linecap="round" stroke-linejoin="round" stroke-width="0.75"/>
          <path id="Trazado_1000156" data-name="Trazado 1000156" d="M165.749.175a1.41,1.41,0,0,1,1.5.113,4.208,4.208,0,0,1,1.175,1.325,9.6,9.6,0,0,1,.979,1.86,5.373,5.373,0,0,1,.367,2.053,3.734,3.734,0,0,1,.013.458,5.8,5.8,0,0,1-.14,1.026c-.041.189-.083.39-.14.582a2.66,2.66,0,0,1-.154.574c-.026.062-.1.022-.1-.031,0-.013,0-.026,0-.039a.092.092,0,0,1-.117-.1,3.5,3.5,0,0,1,.171-.849c.049-.322.114-.643.151-.944.015-.122.022-.243.03-.364,0-.047,0-.093,0-.139a3.134,3.134,0,0,0-.773-1.9A6.376,6.376,0,0,0,167.3,2.587a4.918,4.918,0,0,1-1.482-1.076c-.241-.335-.462-1.029-.066-1.335" transform="translate(-98.321 0)" fill="#ff6a7d"/>
          <path id="Trazado_1000157" data-name="Trazado 1000157" d="M155.817.148a.131.131,0,0,1,.253.039,4.436,4.436,0,0,0,2.887,3.544,7.394,7.394,0,0,1,3.3,2.133,8.975,8.975,0,0,1,1.72,4.03,5.09,5.09,0,0,1,.022,2.338,5.144,5.144,0,0,1-.453,1.436.145.145,0,1,1-.261-.123c.016-.034.026-.069.041-.1a.139.139,0,0,1-.018-.154,4.549,4.549,0,0,0,.372-1.08,7.063,7.063,0,0,0-.206-2.783,5.181,5.181,0,0,0-.407-.882,7.141,7.141,0,0,0-3.59-2.774A7.575,7.575,0,0,1,156.2,3.591a3.312,3.312,0,0,1-.381-3.443" transform="translate(-92.362 -0.037)" fill="#ffe1cb"/>
          <path id="Trazado_1000158" data-name="Trazado 1000158" d="M161.451,12.209a18.211,18.211,0,0,1,4.47,2.448,4.83,4.83,0,0,1,1.26,1.247,2.247,2.247,0,0,1,.32,1.778" transform="translate(-95.897 -7.252)" fill="none" stroke="#12263f" stroke-linecap="round" stroke-linejoin="round" stroke-width="0.75"/>
          <path id="Trazado_1000159" data-name="Trazado 1000159" d="M132.759,24.239a9.353,9.353,0,0,1,2.387-5.464.269.269,0,0,1,.475.223,20.321,20.321,0,0,0-.045,4.467,2.934,2.934,0,0,0,2.017,2.22A3.47,3.47,0,0,0,140.5,24.9a6.546,6.546,0,0,0,.7-.643,5.018,5.018,0,0,1,1.718-2.938c1.388-.9,3.311-.309,4.6.534a6.532,6.532,0,0,1,1.82,1.767,4.262,4.262,0,0,1,.895,2.247c0,.845-.447,1.158-1.152.931a4.4,4.4,0,0,1-1.911-1.584,4.831,4.831,0,0,0-2.411-1.938,2.456,2.456,0,0,0-2.132.431.651.651,0,0,0-.128-.007.706.706,0,0,0-.435.17,2.509,2.509,0,0,0-.6.9,8.4,8.4,0,0,0-.413,1.234c-.048.175-.089.352-.134.527a5.1,5.1,0,0,1-2.134,2.654,3.878,3.878,0,0,1-4-.208,5.461,5.461,0,0,1-2.021-4.741" transform="translate(-78.851 -11.09)" fill="#2079f3"/>
          <path id="Trazado_1000160" data-name="Trazado 1000160" d="M140.143,30.812a2.832,2.832,0,0,0,3.236,1.3,12.152,12.152,0,0,0,3.331-1.719,2.252,2.252,0,0,1,1.893-.438" transform="translate(-83.241 -17.742)" fill="none" stroke="#15260d" stroke-linecap="round" stroke-linejoin="round" stroke-width="0.75"/>
          <path id="Trazado_1000161" data-name="Trazado 1000161" d="M137.11,31.474a3.239,3.239,0,0,0,1.422,2.588,3.708,3.708,0,0,0,2.764.494,6.542,6.542,0,0,0,2.608-1.242" transform="translate(-81.439 -18.695)" fill="none" stroke="#12263f" stroke-linecap="round" stroke-linejoin="round" stroke-width="0.75"/>
          <path id="Trazado_1000162" data-name="Trazado 1000162" d="M137.965,39.062a3.027,3.027,0,0,0,2.7,1.4,7.021,7.021,0,0,0,2.975-.932" transform="translate(-81.947 -23.202)" fill="none" stroke="#12263f" stroke-linecap="round" stroke-linejoin="round" stroke-width="0.75"/>
          <path id="Trazado_1000163" data-name="Trazado 1000163" d="M160.242,27.088a8.482,8.482,0,0,1,5.24,3.812" transform="translate(-95.179 -16.089)" fill="none" stroke="#12263f" stroke-linecap="round" stroke-linejoin="round" stroke-width="0.75"/>
          <path id="Trazado_1000164" data-name="Trazado 1000164" d="M141.672,10.388c-.027-.111-.056-.222-.076-.333a.126.126,0,0,1,.162-.14v0c.024-.122.175-.095.171.028s0,.266.006.4a4.157,4.157,0,0,0,1.226,1.965c.911.742,1.9.453,2.912.188a7.327,7.327,0,0,1,4.859.356,7.238,7.238,0,0,1,3.514,3.363,8.078,8.078,0,0,1,.8,2.485,8.571,8.571,0,0,1,.1,1.3V20a3.142,3.142,0,0,1-.2,1.184.208.208,0,0,1-.052.071c-.017.034-.032.071-.051.1-.076.125-.217.026-.225-.094a.2.2,0,0,1-.063-.141c-.026-.483.079-.963.067-1.45a7.007,7.007,0,0,0-.362-2.089,5.267,5.267,0,0,0-1.03-1.522,5.86,5.86,0,0,0-4.906-1.532,20.1,20.1,0,0,1-2.889.44,4,4,0,0,1-2.081-.659,4.225,4.225,0,0,1-1.511-1.767,4.757,4.757,0,0,1-.368-1.2,2.815,2.815,0,0,1,0-.96" transform="translate(-84.102 -5.84)" fill="#ffe76d"/>
          <path id="Trazado_1000165" data-name="Trazado 1000165" d="M143.364,13.6a6.3,6.3,0,0,0,6.607,1.9" transform="translate(-85.154 -8.08)" fill="none" stroke="#12263f" stroke-linecap="round" stroke-linejoin="round" stroke-width="0.75"/>
          <path id="Trazado_1000166" data-name="Trazado 1000166" d="M250.321,5.394a.326.326,0,0,0-.642-.1,50.925,50.925,0,0,1-3.16,8.65c-.085.164-.167.329-.257.491a15.222,15.222,0,0,1-4.976,5.442,21.49,21.49,0,0,1-13.347,3.178,25.716,25.716,0,0,1-6.922-1.5,41,41,0,0,1-6.5-3.27c-.644-.374-1.3-.742-1.956-1.09a15.08,15.08,0,0,0,2.677.4c1.145.1,2.29.212,3.437.28a11.852,11.852,0,0,0,5.848-.977c3.55-1.657,5.883-5.04,6.958-9.061A45.132,45.132,0,0,0,232.615.461a.372.372,0,0,0-.735-.11A23.33,23.33,0,0,1,226.218,10.5a19,19,0,0,1-10.153,5.579,21.438,21.438,0,0,1-4.986.391,14.713,14.713,0,0,0-3.1-1.034,12.1,12.1,0,0,0-7.012.67,7.141,7.141,0,0,0-4.323,4.26c-.02.062-.035.124-.053.186A18.015,18.015,0,0,0,193.826,22c-1.95,1.242-3.88,2.788-6.159,3.172a6.959,6.959,0,0,1-5.976-1.982c-1.483-1.478-2.679-4.241-1.019-6.116.022-.024.046-.04.068-.063.981-.267,1.8,1.133,2.256,1.913s1,1.634,1.869,1.862a1.825,1.825,0,0,0,2.031-.644,2.227,2.227,0,0,0-.6-2.6c-1.35-1.537-3.524-2.941-5.458-1.859-1.769.99-2.232,3.521-1.582,5.442a7.825,7.825,0,0,0,4.369,4.55,7.734,7.734,0,0,0,6.284-.134c2.1-.94,3.9-2.486,5.946-3.549.169-.088.342-.164.514-.245a7.142,7.142,0,0,0,1.285,4.66c2.387,3.3,7.864,3.71,10.215.128a4.367,4.367,0,0,0-.852-5.6c-1.77-1.586-4.348-1.675-6.514-1.423a14.2,14.2,0,0,0-2.681.583,5.122,5.122,0,0,1,1.363-1.767,10.174,10.174,0,0,1,6.775-2.069,15.524,15.524,0,0,1,6.948,2.3,71.455,71.455,0,0,0,6.333,3.416A38.956,38.956,0,0,0,232.317,25.3a20.572,20.572,0,0,0,6.855-.877,19.586,19.586,0,0,0,6.269-3.155,11.079,11.079,0,0,0,3.769-6.143,32.958,32.958,0,0,0,1.111-9.728M203.184,20.518a5.321,5.321,0,0,1,3.357,1.341,3.309,3.309,0,0,1,.987,3.1c-.554,2.219-3,3.116-4.867,3.029a5.541,5.541,0,0,1-4.958-3.535,5.7,5.7,0,0,1-.275-3.147,13.309,13.309,0,0,1,5.757-.791" transform="translate(-106.309 -0.037)" fill="#2cbe91"/>
          <path id="Trazado_1000167" data-name="Trazado 1000167" d="M258.773,40.706a19.646,19.646,0,0,1-5.816-1.677" transform="translate(-150.248 -23.182)" fill="none" stroke="#12263f" stroke-linecap="round" stroke-linejoin="round" stroke-width="0.75"/>
          <path id="Trazado_1000168" data-name="Trazado 1000168" d="M287.986,15.125A16.632,16.632,0,0,1,275.471,25.55" transform="translate(-163.621 -8.984)" fill="none" stroke="#12263f" stroke-linecap="round" stroke-linejoin="round" stroke-width="0.75"/>
          <path id="Trazado_1000169" data-name="Trazado 1000169" d="M320.347,23.622c-1.56,5.162-4.7,9.955-9.2,12.181a16.836,16.836,0,0,1-2.807,1.065,23.441,23.441,0,0,1-10.119.652" transform="translate(-177.137 -14.031)" fill="none" stroke="#15260d" stroke-linecap="round" stroke-linejoin="round" stroke-width="0.75"/>
          <path id="Trazado_1000170" data-name="Trazado 1000170" d="M225.982,45.355A6.33,6.33,0,0,0,224.2,50.5" transform="translate(-133.153 -26.939)" fill="none" stroke="#12263f" stroke-linecap="round" stroke-linejoin="round" stroke-width="0.75"/>
          <path id="Trazado_1000171" data-name="Trazado 1000171" d="M223.217,45.454a7.083,7.083,0,0,0-1.15,4.394" transform="translate(-131.891 -26.998)" fill="none" stroke="#15260d" stroke-linecap="round" stroke-linejoin="round" stroke-width="0.75"/>
          <path id="Trazado_1000172" data-name="Trazado 1000172" d="M225.473,49.776a10.758,10.758,0,0,1,1.777-.713" transform="translate(-133.924 -29.142)" fill="none" stroke="#12263f" stroke-linecap="round" stroke-linejoin="round" stroke-width="0.75"/>
          <path id="Trazado_1000173" data-name="Trazado 1000173" d="M181.423,42.231a3.258,3.258,0,0,1,.791-1.474,2.029,2.029,0,0,1,.737-.384,3.1,3.1,0,0,1,3.271.869,1.752,1.752,0,0,1,.473,1.169c-.016.438-.333.877-.73.875" transform="translate(-107.76 -23.892)" fill="none" stroke="#12263f" stroke-linecap="round" stroke-linejoin="round" stroke-width="0.75"/>
          <path id="Trazado_1000174" data-name="Trazado 1000174" d="M1.129,15.121A11.078,11.078,0,0,0,4.9,21.264a19.59,19.59,0,0,0,6.269,3.155,20.583,20.583,0,0,0,6.856.877,38.954,38.954,0,0,0,13.07-3.318,71.561,71.561,0,0,0,6.333-3.416,15.526,15.526,0,0,1,6.948-2.3,10.174,10.174,0,0,1,6.775,2.069,5.118,5.118,0,0,1,1.363,1.767,14.193,14.193,0,0,0-2.681-.583c-2.167-.252-4.745-.163-6.515,1.423a4.366,4.366,0,0,0-.851,5.6c2.351,3.582,7.828,3.172,10.215-.128a7.142,7.142,0,0,0,1.285-4.66c.172.08.345.157.514.245,2.042,1.062,3.848,2.608,5.946,3.549a7.732,7.732,0,0,0,6.284.134,7.825,7.825,0,0,0,4.369-4.55c.65-1.921.187-4.452-1.582-5.442-1.934-1.082-4.107.322-5.458,1.859a2.227,2.227,0,0,0-.6,2.6,1.824,1.824,0,0,0,2.031.643c.868-.227,1.413-1.08,1.869-1.862s1.275-2.18,2.256-1.912c.022.023.046.039.068.063,1.66,1.876.464,4.638-1.019,6.116a6.959,6.959,0,0,1-5.976,1.982c-2.278-.384-4.208-1.929-6.159-3.172a17.979,17.979,0,0,0-2.761-1.446c-.017-.062-.033-.125-.052-.186a7.143,7.143,0,0,0-4.323-4.26,12.1,12.1,0,0,0-7.012-.67,14.721,14.721,0,0,0-3.1,1.034,21.462,21.462,0,0,1-4.986-.391A19,19,0,0,1,24.12,10.5,23.329,23.329,0,0,1,18.458.352a.372.372,0,0,0-.735.11A45.167,45.167,0,0,0,18.859,7.84c1.075,4.021,3.408,7.4,6.958,9.061a11.852,11.852,0,0,0,5.848.977c1.147-.068,2.292-.183,3.437-.28a15.075,15.075,0,0,0,2.677-.4c-.661.348-1.312.717-1.956,1.09a40.994,40.994,0,0,1-6.5,3.27,25.713,25.713,0,0,1-6.922,1.5A21.49,21.49,0,0,1,9.052,19.881a15.225,15.225,0,0,1-4.976-5.442c-.089-.162-.172-.327-.256-.491A50.945,50.945,0,0,1,.66,5.3a.325.325,0,0,0-.642.1,32.943,32.943,0,0,0,1.111,9.728m51.782,6.187a5.708,5.708,0,0,1-.275,3.147,5.543,5.543,0,0,1-4.958,3.535c-1.863.087-4.312-.81-4.867-3.029a3.311,3.311,0,0,1,.987-3.1,5.324,5.324,0,0,1,3.357-1.34,13.31,13.31,0,0,1,5.757.791" transform="translate(0 -0.037)" fill="#2cbe91"/>
          <path id="Trazado_1000175" data-name="Trazado 1000175" d="M87.443,40.706a19.645,19.645,0,0,0,5.816-1.677" transform="translate(-51.938 -23.182)" fill="none" stroke="#12263f" stroke-linecap="round" stroke-linejoin="round" stroke-width="0.75"/>
          <path id="Trazado_1000176" data-name="Trazado 1000176" d="M48.43,15.125A16.632,16.632,0,0,0,60.946,25.55" transform="translate(-28.766 -8.984)" fill="none" stroke="#15260d" stroke-linecap="round" stroke-linejoin="round" stroke-width="0.75"/>
          <path id="Trazado_1000177" data-name="Trazado 1000177" d="M2.019,23.622c1.56,5.162,4.7,9.955,9.2,12.181a16.835,16.835,0,0,0,2.806,1.065,23.441,23.441,0,0,0,10.119.652" transform="translate(-1.199 -14.031)" fill="none" stroke="#15260d" stroke-linecap="round" stroke-linejoin="round" stroke-width="0.75"/>
          <path id="Trazado_1000178" data-name="Trazado 1000178" d="M126.1,45.355a6.33,6.33,0,0,1,1.785,5.145" transform="translate(-74.899 -26.939)" fill="none" stroke="#15260d" stroke-linecap="round" stroke-linejoin="round" stroke-width="0.75"/>
          <path id="Trazado_1000179" data-name="Trazado 1000179" d="M129.8,45.454a7.083,7.083,0,0,1,1.15,4.394" transform="translate(-77.097 -26.998)" fill="none" stroke="#12263f" stroke-linecap="round" stroke-linejoin="round" stroke-width="0.75"/>
          <path id="Trazado_1000180" data-name="Trazado 1000180" d="M126.652,49.776a10.758,10.758,0,0,0-1.777-.713" transform="translate(-74.172 -29.142)" fill="none" stroke="#12263f" stroke-linecap="round" stroke-linejoin="round" stroke-width="0.75"/>
          <path id="Trazado_1000181" data-name="Trazado 1000181" d="M165.587,42.231a3.263,3.263,0,0,0-.792-1.474,2.029,2.029,0,0,0-.737-.384,3.1,3.1,0,0,0-3.271.869,1.752,1.752,0,0,0-.473,1.169c.016.438.333.877.73.875" transform="translate(-95.221 -23.892)" fill="none" stroke="#15260d" stroke-linecap="round" stroke-linejoin="round" stroke-width="0.75"/>
          <path id="Trazado_1000182" data-name="Trazado 1000182" d="M177.234,33.548a1.821,1.821,0,1,0-1.812,2,1.914,1.914,0,0,0,1.812-2" transform="translate(-103.119 -18.737)" fill="#2cbe91"/>
        </g>
      </g>
    </g>
    <g id="taza-de-cafe" transform="translate(1225 10089.275)">
      <path id="Trazado_1106756" data-name="Trazado 1106756" d="M84.244,118.492H50.407a1.607,1.607,0,0,1,0-3.214H84.244a1.608,1.608,0,0,0,1.607-1.607,1.607,1.607,0,0,1,1.32-1.581l17.983-3.265a1.607,1.607,0,0,0-.287-3.188H8.8a1.607,1.607,0,0,0-.287,3.188L26.5,112.091a1.607,1.607,0,0,1,1.32,1.581,1.608,1.608,0,0,0,1.607,1.607H43.98a1.607,1.607,0,1,1,0,3.214H29.424a4.829,4.829,0,0,1-4.62-3.443L7.941,111.987a4.82,4.82,0,0,1,.861-9.563H31.251a8.028,8.028,0,0,1-1.536-3.91c-.889-2.3-4.925-4.884-9.192-7.615C11.862,85.356,0,77.763,0,63.968A14.616,14.616,0,0,1,5.036,52.4,15.838,15.838,0,0,1,15.2,48.7a22.257,22.257,0,0,1,6.238.766,4.828,4.828,0,0,1,4.75-3.98H63.261a1.607,1.607,0,1,1,0,3.214H26.186a1.606,1.606,0,0,0-1.563,1.978q.168.7.36,1.5c.628,2.615,1.415,5.892,2.258,9.731l0,.012a284.62,284.62,0,0,1,5.648,36.066c0,.023,0,.045.006.068a4.791,4.791,0,0,0,4.8,4.37H75.88a4.792,4.792,0,0,0,4.8-4.392,300.483,300.483,0,0,1,8-45.868q.192-.787.36-1.484A1.606,1.606,0,0,0,87.48,48.7H69.688a1.607,1.607,0,0,1,0-3.214H87.481a4.819,4.819,0,0,1,4.686,5.95q-.169.7-.361,1.489a297.533,297.533,0,0,0-7.924,45.392,8.036,8.036,0,0,1-1.557,4.109h22.541a4.82,4.82,0,0,1,.861,9.563l-16.864,3.062a4.828,4.828,0,0,1-4.62,3.443ZM15.2,51.911c-4.817,0-11.984,3.211-11.984,12.056C3.214,76,13.772,82.762,22.255,88.193a72.445,72.445,0,0,1,6.911,4.775q-.41-3.744-.9-7.281C20.68,83.056,6.427,77.672,6.427,63.866A8.485,8.485,0,0,1,15.2,55.112a13.918,13.918,0,0,1,7.733,2.326c-.376-1.608-.726-3.067-1.038-4.366-.675-.355-2.652-1.161-6.7-1.161Zm0,6.415a5.261,5.261,0,0,0-5.557,5.54c0,5.114,2.353,9.306,7.193,12.813a45.124,45.124,0,0,0,10.91,5.415c-1.108-7.3-2.391-13.785-3.571-19.177A11.417,11.417,0,0,0,15.2,58.326Zm54.49,32.767H43.98a1.607,1.607,0,0,1-1.607-1.607V61.636a1.607,1.607,0,0,1,1.607-1.607H69.688a1.607,1.607,0,0,1,1.607,1.607v27.85A1.607,1.607,0,0,1,69.688,91.093Zm-4.82-3.214h3.214V63.243H64.868Zm-6.427,0h3.214V63.243H58.441Zm-12.854,0h9.64V63.243h-9.64Zm-9.311-46.31c-5.054-6.622-2.31-10.651-.1-13.888,2.054-3.016,3.538-5.195.1-9.7a1.607,1.607,0,1,1,2.555-1.95c4.842,6.345,2.157,10.287,0,13.455-2.116,3.106-3.644,5.35,0,10.13a1.607,1.607,0,0,1-2.555,1.95Zm19.281,0c-5.054-6.622-2.31-10.651-.1-13.888,2.054-3.016,3.538-5.195.1-9.7a1.607,1.607,0,1,1,2.555-1.95c4.842,6.345,2.157,10.287,0,13.455-2.116,3.106-3.644,5.35,0,10.13a1.607,1.607,0,0,1-2.555,1.95ZM74.733,27.681a19,19,0,0,0,1.619-2.668,1.607,1.607,0,0,1,2.922,1.337,21.593,21.593,0,0,1-1.885,3.14c-2.116,3.106-3.644,5.35,0,10.13a1.607,1.607,0,0,1-2.555,1.95c-5.054-6.622-2.31-10.651-.1-13.888Zm3.729-6.41a1.607,1.607,0,0,1-2.119-.822,12.408,12.408,0,0,0-1.508-2.464,1.607,1.607,0,1,1,2.555-1.95,15.6,15.6,0,0,1,1.894,3.118,1.607,1.607,0,0,1-.822,2.119Z" fill="#2079f3"/>
    </g>
  </g>
</svg>
