<svg xmlns="http://www.w3.org/2000/svg" width="84.5" height="84.5" viewBox="0 0 84.5 84.5">
  <g id="Grupo_1186214" data-name="Grupo 1186214" transform="translate(-705 -8639.394)">
    <rect id="Rectángulo_402006" data-name="Rectángulo 402006" width="84.5" height="84.5" rx="5" transform="translate(705 8639.394)" fill="#ffb8c1"/>
    <g id="Page-1" transform="translate(719.348 8653.534)">
      <g id="_008---Paper-Towels" data-name="008---Paper-Towels">
        <path id="Shape" d="M54.133,0H1.867A1.867,1.867,0,0,0,0,1.867V12.133A4.672,4.672,0,0,0,4.667,16.8h2.8V33.395a2.786,2.786,0,0,0-.933,2.072V42.04a6.527,6.527,0,0,0,3.96,6.006l.707.3v5.787A1.867,1.867,0,0,0,13.067,56H23.333A1.867,1.867,0,0,0,25.2,54.133V51.249a1.947,1.947,0,0,1,.308-1.039l.456-.68a6.461,6.461,0,0,0,1.1-3.629V39.2h1.867v6.7a6.462,6.462,0,0,0,1.1,3.628l.446.665a1.96,1.96,0,0,1,.319,1.055v2.884A1.867,1.867,0,0,0,32.667,56H42.933A1.867,1.867,0,0,0,44.8,54.133V48.347l.707-.3a6.527,6.527,0,0,0,3.96-6V35.467a2.786,2.786,0,0,0-.933-2.072V16.8h2.8A4.672,4.672,0,0,0,56,12.133V1.867A1.867,1.867,0,0,0,54.133,0ZM25.2,45.9a4.613,4.613,0,0,1-.784,2.588l-.467.7a3.827,3.827,0,0,0-.616,2.062v2.884H13.067V49.148l.566.243a.933.933,0,1,0,.735-1.715l-1.861-.8-.027-.011-1.252-.538A4.667,4.667,0,0,1,8.4,42.04V35.467a.933.933,0,1,1,1.867,0v2.9A1.872,1.872,0,0,0,11.789,40.2a3.81,3.81,0,0,1,3.173,2.956.933.933,0,0,0,1.811-.454A5.551,5.551,0,0,0,14.28,39.2H25.2ZM47.6,42.04a4.667,4.667,0,0,1-2.828,4.293l-1.254.538-.027.011-1.858.8a.933.933,0,1,0,.735,1.715l.566-.243v4.982H32.667V51.249a3.841,3.841,0,0,0-.625-2.079l-.458-.683A4.61,4.61,0,0,1,30.8,45.9V39.2H41.72a5.554,5.554,0,0,0-2.5,3.507.933.933,0,0,0,1.811.454A3.81,3.81,0,0,1,44.208,40.2a1.872,1.872,0,0,0,1.525-1.834v-2.9a.933.933,0,1,1,1.867,0Zm-3.733-6.573v1.867H12.133V35.467a2.8,2.8,0,0,0-2.8-2.8V11.2H46.667V32.667A2.8,2.8,0,0,0,43.867,35.467ZM54.133,12.133a2.8,2.8,0,0,1-2.8,2.8h-2.8V11.2H49.3a1.027,1.027,0,0,1,1.1.933v.933a.933.933,0,1,0,1.867,0v-.933a2.888,2.888,0,0,0-2.962-2.8H6.7a2.888,2.888,0,0,0-2.962,2.8v.933a.933.933,0,0,0,1.867,0v-.933A1.027,1.027,0,0,1,6.7,11.2h.771v3.733h-2.8a2.8,2.8,0,0,1-2.8-2.8V1.867H54.133Z" fill="#cc3e50"/>
      </g>
    </g>
  </g>
</svg>
