<svg xmlns="http://www.w3.org/2000/svg" xmlns:xlink="http://www.w3.org/1999/xlink" width="225.693" height="225.046" viewBox="0 0 225.693 225.046">
  <defs>
    <clipPath id="clip-path">
      <rect id="Rectángulo_455881" data-name="Rectángulo 455881" width="126.484" height="25.487" fill="#2cbe91"/>
    </clipPath>
  </defs>
  <g id="Grupo_1186986" data-name="Grupo 1186986" transform="translate(-1068.002 -6119.371)">
    <g id="Grupo_1186834" data-name="Grupo 1186834" transform="translate(-17.006 3825.054)">
      <path id="Trazado_1085278" data-name="Trazado 1085278" d="M212.821,18.183V0h-6.374A9.181,9.181,0,0,1,197.2,9.11,9.181,9.181,0,0,1,188.086,0h-7.778a9.181,9.181,0,0,1-9.181,9.182A9.182,9.182,0,0,1,161.945,0H154.19a9.182,9.182,0,0,1-9.182,9.182A9.182,9.182,0,0,1,135.827,0h-7.5a9.182,9.182,0,0,1-9.182,9.182A9.182,9.182,0,0,1,109.963,0H102a9.181,9.181,0,0,1-9.182,9.182A9.182,9.182,0,0,1,83.637,0h-7.7a9.182,9.182,0,0,1-9.182,9.182A9.182,9.182,0,0,1,57.577,0H50.233A9.182,9.182,0,0,1,31.868.009V0H24a9.182,9.182,0,0,1-9.182,9.182A9.182,9.182,0,0,1,5.634,0H0V18.24a9.182,9.182,0,0,1,9.182,9.183A9.182,9.182,0,0,1,0,36.6v7.963A9.182,9.182,0,0,1,9.182,53.75,9.182,9.182,0,0,1,0,62.932v7.5H.02a9.182,9.182,0,0,1,9.172,9.192A9.182,9.182,0,0,1,0,88.8v7.752a9.182,9.182,0,0,1,9.182,9.183A9.182,9.182,0,0,1,0,114.912V122.3H.02a9.182,9.182,0,0,1,9.172,9.192A9.182,9.182,0,0,1,0,140.659v18.155H5.6a9.182,9.182,0,0,1,18.363,0h7.869v-.02a9.182,9.182,0,1,1,18.363.02h7.347v-.02a9.182,9.182,0,1,1,18.363.02H83.6v-.02a9.182,9.182,0,1,1,18.363.02h7.965v-.02a9.182,9.182,0,1,1,18.363.02h7.5a9.183,9.183,0,1,1,18.365,0h7.751v-.02a9.182,9.182,0,1,1,18.363.02h7.78v-.02a9.181,9.181,0,1,1,18.363.02h6.4V140.6h-.02a9.182,9.182,0,1,1,.02-18.363v-7.384a9.182,9.182,0,1,1,0-18.364V88.738h-.02a9.182,9.182,0,1,1,.02-18.363v-7.5a9.182,9.182,0,1,1,0-18.365V36.548a9.182,9.182,0,0,1-.009-18.365h.009" transform="translate(1136.32 2507.138) rotate(-90)" fill="#bbd6fc"/>
      <g id="Grupo_1184022" data-name="Grupo 1184022" transform="translate(1267.96 2433.936)">
        <g id="Grupo_1183846" data-name="Grupo 1183846" transform="translate(0 0)">
          <rect id="Rectángulo_455879" data-name="Rectángulo 455879" width="42.106" height="40.429" transform="translate(0.317)" fill="#2cbe91"/>
          <path id="Trazado_1000145" data-name="Trazado 1000145" d="M0,1.846H1.125a1.844,1.844,0,0,1,3.688,0h1.58v0a1.844,1.844,0,1,1,3.688,0h1.476v0a1.844,1.844,0,1,1,3.688,0h1.545v0a1.844,1.844,0,1,1,3.688,0h1.6v0a1.844,1.844,0,1,1,3.688,0h1.506a1.844,1.844,0,0,1,3.688,0h1.557v0a1.844,1.844,0,1,1,3.688,0h1.562v0a1.844,1.844,0,1,1,3.688,0H42.74" transform="translate(42.74 41.875) rotate(180)" fill="#2cbe91"/>
        </g>
        <path id="Trazado_1000133" data-name="Trazado 1000133" d="M1.005,18.015c-.06-.1-.124-.19-.186-.286a4.7,4.7,0,0,1-.8-2.107,3.331,3.331,0,0,1,.036-.963A4.9,4.9,0,0,1,.71,12.951c.129-.2.28-.385.432-.595a.2.2,0,0,0,0-.071,3.258,3.258,0,0,1,.128-2.142,4.937,4.937,0,0,1,.861-1.437A5.7,5.7,0,0,1,3.638,7.368c.133-.077.27-.151.412-.23a2.73,2.73,0,0,1,.788-1.785,5.369,5.369,0,0,1,1.309-1.1A4.856,4.856,0,0,1,8.1,3.55a1.327,1.327,0,0,0,.07-.137A2.521,2.521,0,0,1,9.026,2.32a5.141,5.141,0,0,1,2.469-1.047,4.574,4.574,0,0,1,.964-.014c.113.007.226.008.328.011.076-.065.138-.119.2-.175A4.735,4.735,0,0,1,15.7.024a5.288,5.288,0,0,1,2.389.322c.107.039.215.074.292.1A5.074,5.074,0,0,1,21.7.176a4.973,4.973,0,0,1,2.7,1.877,2.934,2.934,0,0,1,.939.086,4.055,4.055,0,0,1,1.5.729,4.14,4.14,0,0,1,.681.63,2.887,2.887,0,0,1,.67,1.477A2.523,2.523,0,0,1,27.516,7.1a4.994,4.994,0,0,1-.881.783,4.348,4.348,0,0,0-.572.525A17.568,17.568,0,0,1,24.51,9.754q-1.078.85-2.169,1.679c-.49.37-1,.718-1.488,1.08-1.626,1.2-3.31,2.306-4.968,3.454-1.395.965-2.821,1.881-4.256,2.783q-1.452.912-2.947,1.757a28.488,28.488,0,0,1-3.16,1.552,1.448,1.448,0,0,1-.206.07.628.628,0,0,0-.3.159.645.645,0,0,1-.178.124,4.019,4.019,0,0,1-1.358.43,2.338,2.338,0,0,1-.739-.026,1.863,1.863,0,0,1-.668-.325A3.409,3.409,0,0,1,.892,21.074,3.282,3.282,0,0,1,.637,19.8c0-.187.012-.374.024-.561a2.63,2.63,0,0,1,.25-.991c.036-.074.066-.151.1-.238" transform="translate(16.526 5.016) rotate(34)" fill="#1b5b5b"/>
      </g>
      <g id="Grupo_1184023" data-name="Grupo 1184023" transform="translate(1085.007 2457.794)">
        <g id="Grupo_1183367" data-name="Grupo 1183367" transform="translate(0 0)" clip-path="url(#clip-path)">
          <path id="Trazado_1000146" data-name="Trazado 1000146" d="M182.125.154a1.238,1.238,0,0,0-1.32.1,3.692,3.692,0,0,0-1.032,1.164,8.425,8.425,0,0,0-.86,1.633,4.719,4.719,0,0,0-.322,1.8,3.278,3.278,0,0,0-.012.4,5.1,5.1,0,0,0,.123.9c.036.166.073.342.123.511a2.336,2.336,0,0,0,.135.5c.022.054.086.019.091-.027,0-.011,0-.023,0-.034a.081.081,0,0,0,.1-.086,3.076,3.076,0,0,0-.15-.746c-.043-.283-.1-.564-.133-.829-.013-.107-.019-.213-.026-.319,0-.041,0-.081,0-.122a2.753,2.753,0,0,1,.679-1.666,5.6,5.6,0,0,1,1.241-1.07,4.319,4.319,0,0,0,1.3-.945c.212-.294.405-.9.058-1.173" transform="translate(-114.903 0)" fill="#ff6a7d"/>
          <path id="Trazado_1000147" data-name="Trazado 1000147" d="M185.155.137a.115.115,0,0,0-.222.035A3.9,3.9,0,0,1,182.4,3.284,6.5,6.5,0,0,0,179.5,5.158a7.884,7.884,0,0,0-1.51,3.539,4.47,4.47,0,0,0-.019,2.053,4.516,4.516,0,0,0,.4,1.261.127.127,0,1,0,.229-.108c-.014-.03-.022-.06-.035-.09a.122.122,0,0,0,.016-.135,3.991,3.991,0,0,1-.327-.949,6.2,6.2,0,0,1,.181-2.444,4.554,4.554,0,0,1,.357-.775,6.271,6.271,0,0,1,3.153-2.436,6.652,6.652,0,0,0,2.874-1.912,2.909,2.909,0,0,0,.335-3.024" transform="translate(-114.444 -0.04)" fill="#ffe1cb"/>
          <path id="Trazado_1000148" data-name="Trazado 1000148" d="M183.446,12.209a15.992,15.992,0,0,0-3.925,2.15,4.242,4.242,0,0,0-1.106,1.095,1.972,1.972,0,0,0-.281,1.561" transform="translate(-114.578 -7.856)" fill="none" stroke="#12263f" stroke-linecap="round" stroke-linejoin="round" stroke-width="0.75"/>
          <path id="Trazado_1000149" data-name="Trazado 1000149" d="M194.14,23.56a8.213,8.213,0,0,0-2.1-4.8.236.236,0,0,0-.417.2,17.846,17.846,0,0,1,.04,3.923,2.577,2.577,0,0,1-1.772,1.95,3.047,3.047,0,0,1-2.551-.691,5.748,5.748,0,0,1-.613-.564A4.406,4.406,0,0,0,185.222,21c-1.219-.793-2.908-.271-4.042.469a5.736,5.736,0,0,0-1.6,1.552,3.743,3.743,0,0,0-.786,1.973c0,.742.393,1.017,1.012.817a3.867,3.867,0,0,0,1.678-1.391,4.243,4.243,0,0,1,2.118-1.7,2.157,2.157,0,0,1,1.873.378.571.571,0,0,1,.112-.006.62.62,0,0,1,.382.149,2.2,2.2,0,0,1,.528.793,7.376,7.376,0,0,1,.363,1.084c.042.153.078.309.117.463a4.482,4.482,0,0,0,1.874,2.331,3.406,3.406,0,0,0,3.513-.183,4.8,4.8,0,0,0,1.775-4.163" transform="translate(-115.043 -12.013)" fill="#2079f3"/>
          <path id="Trazado_1000150" data-name="Trazado 1000150" d="M201.045,30.7a2.487,2.487,0,0,1-2.841,1.139,10.672,10.672,0,0,1-2.925-1.51,1.977,1.977,0,0,0-1.662-.384" transform="translate(-124.579 -19.219)" fill="none" stroke="#15260d" stroke-linecap="round" stroke-linejoin="round" stroke-width="0.75"/>
          <path id="Trazado_1000151" data-name="Trazado 1000151" d="M206.717,31.474a2.845,2.845,0,0,1-1.248,2.273,3.256,3.256,0,0,1-2.428.434,5.745,5.745,0,0,1-2.291-1.091" transform="translate(-129.169 -20.251)" fill="none" stroke="#12263f" stroke-linecap="round" stroke-linejoin="round" stroke-width="0.75"/>
          <path id="Trazado_1000152" data-name="Trazado 1000152" d="M207.634,39.062a2.658,2.658,0,0,1-2.372,1.226,6.167,6.167,0,0,1-2.613-.819" transform="translate(-130.391 -25.134)" fill="none" stroke="#12263f" stroke-linecap="round" stroke-linejoin="round" stroke-width="0.75"/>
          <path id="Trazado_1000153" data-name="Trazado 1000153" d="M186.048,27.088a7.449,7.449,0,0,0-4.6,3.348" transform="translate(-116.748 -17.429)" fill="none" stroke="#15260d" stroke-linecap="round" stroke-linejoin="round" stroke-width="0.75"/>
          <path id="Trazado_1000154" data-name="Trazado 1000154" d="M191.138,10.32c.023-.1.049-.2.067-.293a.11.11,0,0,0-.142-.123v0c-.021-.107-.153-.083-.15.024s0,.234-.005.35A3.65,3.65,0,0,1,189.83,12a2.63,2.63,0,0,1-2.558.165,6.435,6.435,0,0,0-4.267.313,6.358,6.358,0,0,0-3.086,2.953,7.092,7.092,0,0,0-.7,2.182,7.515,7.515,0,0,0-.092,1.138v.009a2.773,2.773,0,0,0,.18,1.039.183.183,0,0,0,.045.063c.015.03.028.062.045.091.066.11.19.023.2-.082a.173.173,0,0,0,.055-.124c.022-.424-.069-.845-.059-1.273a6.49,6.49,0,0,1,.125-1.115,6.4,6.4,0,0,1,.193-.72,4.639,4.639,0,0,1,.9-1.336,5.146,5.146,0,0,1,4.308-1.345,17.663,17.663,0,0,0,2.537.386,3.516,3.516,0,0,0,1.828-.579,3.709,3.709,0,0,0,1.326-1.552,4.163,4.163,0,0,0,.323-1.05,2.474,2.474,0,0,0,0-.843" transform="translate(-115.258 -6.326)" fill="#ffe76d"/>
          <path id="Trazado_1000155" data-name="Trazado 1000155" d="M200.76,13.6a5.536,5.536,0,0,1-5.8,1.666" transform="translate(-125.442 -8.753)" fill="none" stroke="#12263f" stroke-linecap="round" stroke-linejoin="round" stroke-width="0.75"/>
          <path id="Trazado_1000156" data-name="Trazado 1000156" d="M165.723.154a1.238,1.238,0,0,1,1.32.1,3.7,3.7,0,0,1,1.032,1.164,8.43,8.43,0,0,1,.86,1.633,4.719,4.719,0,0,1,.322,1.8,3.278,3.278,0,0,1,.012.4,5.1,5.1,0,0,1-.123.9c-.036.166-.073.342-.123.511a2.339,2.339,0,0,1-.135.5c-.022.054-.086.019-.091-.027,0-.011,0-.023,0-.034a.081.081,0,0,1-.1-.086,3.077,3.077,0,0,1,.15-.746c.043-.283.1-.564.133-.829.013-.107.019-.213.026-.319,0-.041,0-.081,0-.122a2.752,2.752,0,0,0-.679-1.666,5.6,5.6,0,0,0-1.241-1.07,4.319,4.319,0,0,1-1.3-.945c-.212-.294-.405-.9-.058-1.173" transform="translate(-106.508 0)" fill="#ff6a7d"/>
          <path id="Trazado_1000157" data-name="Trazado 1000157" d="M155.778.137A.115.115,0,0,1,156,.172a3.9,3.9,0,0,0,2.535,3.112,6.493,6.493,0,0,1,2.894,1.873A7.881,7.881,0,0,1,162.94,8.7a4.47,4.47,0,0,1,.019,2.053,4.516,4.516,0,0,1-.4,1.261.127.127,0,1,1-.23-.108c.014-.03.022-.06.036-.09a.122.122,0,0,1-.016-.135,4,4,0,0,0,.327-.949,6.2,6.2,0,0,0-.181-2.444,4.551,4.551,0,0,0-.357-.775,6.271,6.271,0,0,0-3.153-2.436,6.652,6.652,0,0,1-2.874-1.912,2.909,2.909,0,0,1-.334-3.024" transform="translate(-100.053 -0.04)" fill="#ffe1cb"/>
          <path id="Trazado_1000158" data-name="Trazado 1000158" d="M161.451,12.209a15.992,15.992,0,0,1,3.925,2.15,4.242,4.242,0,0,1,1.106,1.095,1.974,1.974,0,0,1,.281,1.561" transform="translate(-103.883 -7.856)" fill="none" stroke="#12263f" stroke-linecap="round" stroke-linejoin="round" stroke-width="0.75"/>
          <path id="Trazado_1000159" data-name="Trazado 1000159" d="M132.758,23.56a8.213,8.213,0,0,1,2.1-4.8.236.236,0,0,1,.417.2,17.846,17.846,0,0,0-.04,3.923A2.577,2.577,0,0,0,137,24.83a3.047,3.047,0,0,0,2.552-.691,5.751,5.751,0,0,0,.613-.564A4.406,4.406,0,0,1,141.676,21c1.219-.793,2.908-.271,4.042.469a5.737,5.737,0,0,1,1.6,1.552,3.743,3.743,0,0,1,.786,1.973c0,.742-.393,1.017-1.012.817a3.867,3.867,0,0,1-1.678-1.391,4.243,4.243,0,0,0-2.118-1.7,2.157,2.157,0,0,0-1.873.378.572.572,0,0,0-.112-.006.62.62,0,0,0-.382.149,2.2,2.2,0,0,0-.528.793,7.38,7.38,0,0,0-.363,1.084c-.042.153-.078.309-.117.463a4.482,4.482,0,0,1-1.874,2.331,3.406,3.406,0,0,1-3.513-.183,4.8,4.8,0,0,1-1.775-4.163" transform="translate(-85.417 -12.013)" fill="#2079f3"/>
          <path id="Trazado_1000160" data-name="Trazado 1000160" d="M140.143,30.7a2.487,2.487,0,0,0,2.841,1.139,10.671,10.671,0,0,0,2.925-1.51,1.977,1.977,0,0,1,1.662-.384" transform="translate(-90.172 -19.219)" fill="none" stroke="#15260d" stroke-linecap="round" stroke-linejoin="round" stroke-width="0.75"/>
          <path id="Trazado_1000161" data-name="Trazado 1000161" d="M137.11,31.474a2.845,2.845,0,0,0,1.248,2.273,3.256,3.256,0,0,0,2.427.434,5.745,5.745,0,0,0,2.291-1.091" transform="translate(-88.221 -20.251)" fill="none" stroke="#12263f" stroke-linecap="round" stroke-linejoin="round" stroke-width="0.75"/>
          <path id="Trazado_1000162" data-name="Trazado 1000162" d="M137.965,39.062a2.658,2.658,0,0,0,2.372,1.226,6.166,6.166,0,0,0,2.613-.819" transform="translate(-88.771 -25.134)" fill="none" stroke="#12263f" stroke-linecap="round" stroke-linejoin="round" stroke-width="0.75"/>
          <path id="Trazado_1000163" data-name="Trazado 1000163" d="M160.242,27.088a7.449,7.449,0,0,1,4.6,3.348" transform="translate(-103.105 -17.429)" fill="none" stroke="#12263f" stroke-linecap="round" stroke-linejoin="round" stroke-width="0.75"/>
          <path id="Trazado_1000164" data-name="Trazado 1000164" d="M141.662,10.32c-.024-.1-.049-.2-.067-.293a.11.11,0,0,1,.142-.123v0c.021-.107.153-.083.15.024s0,.234.005.35A3.651,3.651,0,0,0,142.97,12a2.63,2.63,0,0,0,2.558.165,6.435,6.435,0,0,1,4.267.313,6.356,6.356,0,0,1,3.086,2.953,7.094,7.094,0,0,1,.7,2.182,7.528,7.528,0,0,1,.092,1.138v.009a2.759,2.759,0,0,1-.18,1.039.182.182,0,0,1-.045.063c-.015.03-.028.062-.045.091-.067.11-.191.023-.2-.082a.173.173,0,0,1-.055-.124c-.022-.424.069-.845.059-1.273a6.151,6.151,0,0,0-.318-1.835,4.624,4.624,0,0,0-.9-1.336,5.146,5.146,0,0,0-4.308-1.345,17.655,17.655,0,0,1-2.537.386,3.515,3.515,0,0,1-1.828-.579,3.71,3.71,0,0,1-1.327-1.552,4.177,4.177,0,0,1-.323-1.05,2.472,2.472,0,0,1,0-.843" transform="translate(-91.106 -6.326)" fill="#ffe76d"/>
          <path id="Trazado_1000165" data-name="Trazado 1000165" d="M143.364,13.6a5.536,5.536,0,0,0,5.8,1.666" transform="translate(-92.245 -8.753)" fill="none" stroke="#12263f" stroke-linecap="round" stroke-linejoin="round" stroke-width="0.75"/>
          <path id="Trazado_1000166" data-name="Trazado 1000166" d="M241.631,4.744a.286.286,0,0,0-.564-.084,44.721,44.721,0,0,1-2.775,7.6c-.074.144-.147.289-.225.431a13.368,13.368,0,0,1-4.369,4.779,18.873,18.873,0,0,1-11.721,2.791,22.584,22.584,0,0,1-6.078-1.319,36,36,0,0,1-5.71-2.872c-.565-.328-1.137-.651-1.718-.957a13.242,13.242,0,0,0,2.35.352c1.006.085,2.011.186,3.019.246a10.409,10.409,0,0,0,5.136-.858,11.782,11.782,0,0,0,6.111-7.957,39.635,39.635,0,0,0,1-6.48.327.327,0,0,0-.645-.1,20.488,20.488,0,0,1-4.973,8.914,16.684,16.684,0,0,1-8.916,4.9,18.827,18.827,0,0,1-4.379.344,12.922,12.922,0,0,0-2.726-.908,10.624,10.624,0,0,0-6.158.588,6.271,6.271,0,0,0-3.8,3.741c-.017.054-.031.109-.046.164a15.818,15.818,0,0,0-2.425,1.27c-1.713,1.091-3.408,2.448-5.408,2.786a6.112,6.112,0,0,1-5.248-1.741c-1.3-1.3-2.353-3.724-.895-5.371.019-.021.04-.035.06-.056.861-.234,1.582,1,1.981,1.68s.879,1.435,1.641,1.635a1.6,1.6,0,0,0,1.784-.565,1.955,1.955,0,0,0-.523-2.28c-1.186-1.35-3.1-2.583-4.793-1.632-1.554.869-1.96,3.092-1.389,4.779a6.872,6.872,0,0,0,3.837,4,6.792,6.792,0,0,0,5.518-.118c1.843-.826,3.428-2.183,5.222-3.116.148-.077.3-.144.451-.215a6.272,6.272,0,0,0,1.128,4.092c2.1,2.9,6.906,3.258,8.971.113a3.835,3.835,0,0,0-.748-4.921c-1.554-1.393-3.819-1.471-5.721-1.25a12.468,12.468,0,0,0-2.354.512,4.5,4.5,0,0,1,1.2-1.552,8.935,8.935,0,0,1,5.95-1.817,13.633,13.633,0,0,1,6.1,2.023,62.751,62.751,0,0,0,5.562,3,34.21,34.21,0,0,0,11.478,2.914,18.066,18.066,0,0,0,6.02-.77,17.2,17.2,0,0,0,5.505-2.771,9.73,9.73,0,0,0,3.31-5.395,28.945,28.945,0,0,0,.976-8.543M200.236,18.026a4.673,4.673,0,0,1,2.948,1.177,2.906,2.906,0,0,1,.867,2.724c-.487,1.949-2.638,2.737-4.274,2.66a4.866,4.866,0,0,1-4.354-3.1,5.009,5.009,0,0,1-.242-2.763,11.688,11.688,0,0,1,5.055-.694" transform="translate(-115.162 -0.041)" fill="#2cbe91"/>
          <path id="Trazado_1000167" data-name="Trazado 1000167" d="M258.065,40.5a17.253,17.253,0,0,1-5.108-1.473" transform="translate(-162.76 -25.113)" fill="none" stroke="#12263f" stroke-linecap="round" stroke-linejoin="round" stroke-width="0.75"/>
          <path id="Trazado_1000168" data-name="Trazado 1000168" d="M286.462,15.125a14.606,14.606,0,0,1-10.991,9.155" transform="translate(-177.247 -9.732)" fill="none" stroke="#12263f" stroke-linecap="round" stroke-linejoin="round" stroke-width="0.75"/>
          <path id="Trazado_1000169" data-name="Trazado 1000169" d="M317.652,23.622c-1.37,4.533-4.128,8.742-8.075,10.7a14.786,14.786,0,0,1-2.465.935,20.585,20.585,0,0,1-8.886.573" transform="translate(-191.888 -15.199)" fill="none" stroke="#15260d" stroke-linecap="round" stroke-linejoin="round" stroke-width="0.75"/>
          <path id="Trazado_1000170" data-name="Trazado 1000170" d="M225.762,45.355a5.559,5.559,0,0,0-1.567,4.518" transform="translate(-144.241 -29.183)" fill="none" stroke="#12263f" stroke-linecap="round" stroke-linejoin="round" stroke-width="0.75"/>
          <path id="Trazado_1000171" data-name="Trazado 1000171" d="M223.075,45.454a6.22,6.22,0,0,0-1.01,3.859" transform="translate(-142.874 -29.247)" fill="none" stroke="#15260d" stroke-linecap="round" stroke-linejoin="round" stroke-width="0.75"/>
          <path id="Trazado_1000172" data-name="Trazado 1000172" d="M225.473,49.689a9.447,9.447,0,0,1,1.56-.626" transform="translate(-145.076 -31.569)" fill="none" stroke="#12263f" stroke-linecap="round" stroke-linejoin="round" stroke-width="0.75"/>
          <path id="Trazado_1000173" data-name="Trazado 1000173" d="M181.423,41.987a2.861,2.861,0,0,1,.695-1.295,1.782,1.782,0,0,1,.647-.337,2.724,2.724,0,0,1,2.873.763,1.539,1.539,0,0,1,.416,1.027c-.014.385-.292.771-.641.769" transform="translate(-116.733 -25.882)" fill="none" stroke="#12263f" stroke-linecap="round" stroke-linejoin="round" stroke-width="0.75"/>
          <path id="Trazado_1000174" data-name="Trazado 1000174" d="M.991,13.287A9.729,9.729,0,0,0,4.3,18.682a17.2,17.2,0,0,0,5.505,2.771,18.076,18.076,0,0,0,6.021.77A34.209,34.209,0,0,0,27.3,19.309a62.842,62.842,0,0,0,5.562-3,13.635,13.635,0,0,1,6.1-2.023,8.935,8.935,0,0,1,5.95,1.817,4.5,4.5,0,0,1,1.2,1.552,12.464,12.464,0,0,0-2.354-.512c-1.9-.221-4.167-.143-5.721,1.25a3.834,3.834,0,0,0-.748,4.921c2.065,3.145,6.875,2.785,8.971-.113a6.272,6.272,0,0,0,1.128-4.092c.151.071.3.138.451.215,1.793.933,3.379,2.291,5.222,3.116a6.79,6.79,0,0,0,5.518.118,6.871,6.871,0,0,0,3.837-4c.571-1.687.164-3.909-1.39-4.779-1.7-.95-3.607.283-4.793,1.632a1.956,1.956,0,0,0-.523,2.28,1.6,1.6,0,0,0,1.784.565c.762-.2,1.241-.948,1.641-1.635s1.12-1.914,1.981-1.679c.019.02.041.034.06.056,1.458,1.647.408,4.073-.895,5.371a6.112,6.112,0,0,1-5.248,1.741c-2-.337-3.7-1.694-5.408-2.786a15.789,15.789,0,0,0-2.425-1.27c-.015-.055-.029-.11-.046-.164a6.273,6.273,0,0,0-3.8-3.741,10.622,10.622,0,0,0-6.158-.588,12.928,12.928,0,0,0-2.726.908A18.847,18.847,0,0,1,30.1,14.13a16.684,16.684,0,0,1-8.916-4.9A20.487,20.487,0,0,1,16.209.316a.327.327,0,0,0-.645.1,39.665,39.665,0,0,0,1,6.48,11.781,11.781,0,0,0,6.111,7.957,10.408,10.408,0,0,0,5.136.858c1.007-.06,2.013-.16,3.018-.246a13.238,13.238,0,0,0,2.351-.352c-.58.306-1.152.629-1.718.957a36,36,0,0,1-5.71,2.872,22.581,22.581,0,0,1-6.078,1.319A18.872,18.872,0,0,1,7.949,17.467,13.37,13.37,0,0,1,3.58,12.687c-.078-.142-.151-.287-.225-.431A44.739,44.739,0,0,1,.579,4.66a.286.286,0,0,0-.564.084,28.929,28.929,0,0,0,.976,8.543M46.465,18.72a5.013,5.013,0,0,1-.241,2.763,4.868,4.868,0,0,1-4.354,3.1c-1.636.077-3.787-.711-4.274-2.66a2.907,2.907,0,0,1,.867-2.725,4.675,4.675,0,0,1,2.948-1.177,11.688,11.688,0,0,1,5.055.694" transform="translate(0 -0.041)" fill="#2cbe91"/>
          <path id="Trazado_1000175" data-name="Trazado 1000175" d="M87.443,40.5a17.252,17.252,0,0,0,5.108-1.473" transform="translate(-56.264 -25.113)" fill="none" stroke="#12263f" stroke-linecap="round" stroke-linejoin="round" stroke-width="0.75"/>
          <path id="Trazado_1000176" data-name="Trazado 1000176" d="M48.43,15.125A14.606,14.606,0,0,0,59.421,24.28" transform="translate(-31.161 -9.732)" fill="none" stroke="#15260d" stroke-linecap="round" stroke-linejoin="round" stroke-width="0.75"/>
          <path id="Trazado_1000177" data-name="Trazado 1000177" d="M2.019,23.622c1.37,4.533,4.128,8.742,8.075,10.7a14.784,14.784,0,0,0,2.465.935,20.586,20.586,0,0,0,8.886.573" transform="translate(-1.299 -15.199)" fill="none" stroke="#15260d" stroke-linecap="round" stroke-linejoin="round" stroke-width="0.75"/>
          <path id="Trazado_1000178" data-name="Trazado 1000178" d="M126.1,45.355a5.559,5.559,0,0,1,1.567,4.518" transform="translate(-81.137 -29.183)" fill="none" stroke="#15260d" stroke-linecap="round" stroke-linejoin="round" stroke-width="0.75"/>
          <path id="Trazado_1000179" data-name="Trazado 1000179" d="M129.8,45.454a6.22,6.22,0,0,1,1.01,3.859" transform="translate(-83.517 -29.247)" fill="none" stroke="#12263f" stroke-linecap="round" stroke-linejoin="round" stroke-width="0.75"/>
          <path id="Trazado_1000180" data-name="Trazado 1000180" d="M126.435,49.689a9.448,9.448,0,0,0-1.56-.626" transform="translate(-80.348 -31.569)" fill="none" stroke="#12263f" stroke-linecap="round" stroke-linejoin="round" stroke-width="0.75"/>
          <path id="Trazado_1000181" data-name="Trazado 1000181" d="M164.945,41.987a2.866,2.866,0,0,0-.7-1.295,1.782,1.782,0,0,0-.647-.337,2.724,2.724,0,0,0-2.873.763,1.539,1.539,0,0,0-.416,1.027c.014.385.292.771.641.769" transform="translate(-103.151 -25.882)" fill="none" stroke="#15260d" stroke-linecap="round" stroke-linejoin="round" stroke-width="0.75"/>
          <path id="Trazado_1000182" data-name="Trazado 1000182" d="M176.793,33.3a1.6,1.6,0,1,0-1.591,1.758,1.681,1.681,0,0,0,1.591-1.758" transform="translate(-111.706 -20.298)" fill="#2cbe91"/>
        </g>
      </g>
      <g id="Grupo_1186068" data-name="Grupo 1186068" transform="translate(1222.781 2475.098)">
        <g id="Grupo_1184024" data-name="Grupo 1184024" transform="translate(0 0)">
          <rect id="Rectángulo_455879-2" data-name="Rectángulo 455879" width="44.509" height="42.737" transform="translate(0.335 0)" fill="#ffb57d"/>
          <path id="Trazado_1000145-2" data-name="Trazado 1000145" d="M0,1.951H1.189a1.949,1.949,0,0,1,3.9,0h1.67v0a1.949,1.949,0,1,1,3.9,0h1.56v0a1.949,1.949,0,1,1,3.9,0h1.633v0a1.949,1.949,0,1,1,3.9,0h1.691v0a1.949,1.949,0,1,1,3.9,0h1.592a1.949,1.949,0,0,1,3.9,0h1.646v0a1.949,1.949,0,1,1,3.9,0h1.651v0a1.949,1.949,0,1,1,3.9,0h1.36" transform="translate(45.179 44.265) rotate(180)" fill="#ffb57d"/>
        </g>
        <path id="Trazado_1026845" data-name="Trazado 1026845" d="M33.873,7.34c-.139-2.452-1.691-3.893-4.475-2.855A30.511,30.511,0,0,1,25.5,5.552c-.238-.911-.476-1.845-.649-2.571l-.024.012c-.058-.245-.11-.468-.151-.657A2.639,2.639,0,0,0,22.068,0L10.91.638C9.544.716,8.844,1.91,8.577,3.252c-.141.708-.314,1.883-.472,3.054-2.248-.2-3.969-.385-3.969-.385C.814,5.262-.126,6.814.013,9.265c.243,4.269,8.317,8.884,17.46,8.365s16.642-6.021,16.4-10.29" transform="translate(5.499 13.594) rotate(-1)" fill="#ffb57d" style="mix-blend-mode: multiply;isolation: isolate"/>
      </g>
    </g>
    <g id="cortar" transform="translate(1153.348 6166.004)">
      <path id="Trazado_1138654" data-name="Trazado 1138654" d="M87.548,46.6A6.4,6.4,0,0,0,97.5,41.274V38.349a6.408,6.408,0,0,0-6.4-6.4H59.6a7.876,7.876,0,0,0-7.7-6.29h-15.7a16.493,16.493,0,0,1,2.893-8.124,11.007,11.007,0,1,0-20.214-6.029,10.9,10.9,0,0,0,2.148,6.525,14.065,14.065,0,0,1,2.542,7.629H7.863A7.872,7.872,0,0,0,0,33.521V90.134A7.872,7.872,0,0,0,7.863,98H51.9a7.872,7.872,0,0,0,7.863-7.863V81l5.309,13.271a5.861,5.861,0,0,0,8.769,2.7,5.571,5.571,0,0,0,6.441,0,5.861,5.861,0,0,0,8.769-2.7l7.68-19.2A10.8,10.8,0,0,0,86.7,60.255H84.919a12.469,12.469,0,0,0-3.145.415V52.392a10.972,10.972,0,0,0-3.318-7.863h2.257A12.293,12.293,0,0,1,87.549,46.6ZM72.339,60.67a12.469,12.469,0,0,0-3.145-.415H67.417a10.767,10.767,0,0,0-7.659,3.192V52.994l9.435,1.179V50.82h1.573a1.576,1.576,0,0,1,1.573,1.573Zm-6.29-10.06-35.686-4.46A17.487,17.487,0,0,1,16.293,35.094H66.048Zm-36.076-1.34,16.823,2.1c-.055.171-.1.344-.165.511l-7.68,19.2a2.768,2.768,0,0,1-4.691.762L33.026,70.4l-1.19,1.483a2.562,2.562,0,0,1-3.913,0L26.732,70.4,25.5,71.85a2.767,2.767,0,0,1-4.689-.761l-7.682-19.2A7.644,7.644,0,0,1,16.9,42.164a20.58,20.58,0,0,0,13.076,7.107ZM56.613,90.134A4.724,4.724,0,0,1,51.9,94.852H7.863a4.724,4.724,0,0,1-4.718-4.718V33.521A4.724,4.724,0,0,1,7.863,28.8H26.734V26.647A17.462,17.462,0,0,0,23.548,16.16a7.773,7.773,0,0,1-1.532-4.655,7.864,7.864,0,1,1,14.441,4.3,19.217,19.217,0,0,0-3.433,10.629V28.8H51.9a4.711,4.711,0,0,1,4.428,3.145H12.139l.488,1.955a20.249,20.249,0,0,0,2.4,5.694,10.781,10.781,0,0,0-4.818,13.457l7.682,19.2a5.909,5.909,0,0,0,8.784,2.721,5.766,5.766,0,0,0,6.412,0,5.907,5.907,0,0,0,8.783-2.721l7.68-19.2a10.614,10.614,0,0,0,.415-1.285l6.649.83ZM67.987,93.1,60.306,73.9a7.658,7.658,0,0,1,7.111-10.5h1.777c.054,0,.1.014.157.016a10.969,10.969,0,0,0-3.3,7.847V71.6a11.066,11.066,0,0,0,.371,2.837l5.162,19.354a5.552,5.552,0,0,0,.263.731,2.727,2.727,0,0,1-1.275.33A2.766,2.766,0,0,1,67.987,93.1Zm9.069,1.747a2.523,2.523,0,0,1-2.436-1.871L69.459,73.625a7.865,7.865,0,0,1-.266-2.026v-.336a7.863,7.863,0,0,1,15.726,0V71.6a7.856,7.856,0,0,1-.266,2.026L79.492,92.981a2.523,2.523,0,0,1-2.436,1.871ZM86.7,63.4a7.655,7.655,0,0,1,7.11,10.5l-7.68,19.2a2.766,2.766,0,0,1-2.581,1.747,2.738,2.738,0,0,1-1.277-.33,5.762,5.762,0,0,0,.263-.729l5.162-19.354a11.021,11.021,0,0,0,.372-2.839v-.336a10.969,10.969,0,0,0-3.3-7.847c.054,0,.1-.016.157-.016ZM78.629,52.392v7.989a9.882,9.882,0,0,0-3.145,0V52.392a4.724,4.724,0,0,0-4.718-4.718H69.194V44.529h1.573A7.872,7.872,0,0,1,78.629,52.392ZM69.194,41.384v-6.29H91.1a3.259,3.259,0,0,1,3.255,3.255v2.924a3.254,3.254,0,0,1-5.06,2.707,15.438,15.438,0,0,0-8.583-2.6Zm0,0" transform="translate(0 0)" fill="#2079f3"/>
      <path id="Trazado_1138655" data-name="Trazado 1138655" d="M137.435,37.206a4.718,4.718,0,1,0-4.718,4.718A4.724,4.724,0,0,0,137.435,37.206Zm-6.29,0a1.573,1.573,0,1,1,1.573,1.573A1.576,1.576,0,0,1,131.145,37.206Zm0,0" transform="translate(-102.839 -25.701)" fill="#2079f3"/>
      <path id="Trazado_1138656" data-name="Trazado 1138656" d="M111.863,268.846v3.369h3.145v-3.369a6.281,6.281,0,0,0,4.494-4.494h3.369v-3.145H119.5a6.26,6.26,0,0,0-12.134,0H104v3.145h3.369A6.281,6.281,0,0,0,111.863,268.846Zm1.573-9.212a3.145,3.145,0,1,1-3.145,3.145A3.148,3.148,0,0,1,113.435,259.634Zm0,0" transform="translate(-83.556 -205.669)" fill="#2079f3"/>
      <path id="Trazado_1138657" data-name="Trazado 1138657" d="M46.153,381.206H44.581a4.724,4.724,0,0,0-4.718-4.718H36.718A4.724,4.724,0,0,0,32,381.206v3.145a4.724,4.724,0,0,0,4.718,4.718H38.29a4.724,4.724,0,0,0,4.718,4.718h3.145a4.724,4.724,0,0,0,4.718-4.718v-3.145A4.724,4.724,0,0,0,46.153,381.206Zm-9.435,4.718a1.576,1.576,0,0,1-1.573-1.573v-3.145a1.576,1.576,0,0,1,1.573-1.573h3.145a1.576,1.576,0,0,1,1.573,1.573v3.145a1.576,1.576,0,0,1-1.573,1.573Zm11.008,3.145a1.576,1.576,0,0,1-1.573,1.573H43.008a1.576,1.576,0,0,1-1.573-1.573v-.289a4.711,4.711,0,0,0,3.145-4.428h1.573a1.576,1.576,0,0,1,1.573,1.573Zm0,0" transform="translate(-25.71 -302.08)" fill="#2079f3"/>
      <path id="Trazado_1138658" data-name="Trazado 1138658" d="M199.863,400.488h-3.145A4.724,4.724,0,0,0,192,405.206v3.145a4.724,4.724,0,0,0,4.718,4.718h3.145a4.724,4.724,0,0,0,4.718-4.718v-3.145A4.724,4.724,0,0,0,199.863,400.488Zm1.573,7.863a1.576,1.576,0,0,1-1.573,1.573h-3.145a1.576,1.576,0,0,1-1.573-1.573v-3.145a1.576,1.576,0,0,1,1.573-1.573h3.145a1.576,1.576,0,0,1,1.573,1.573Zm0,0" transform="translate(-154.258 -321.362)" fill="#2079f3"/>
      <path id="Trazado_1138659" data-name="Trazado 1138659" d="M304,192.488h3.145v3.145H304Zm0,0" transform="translate(-244.242 -154.249)" fill="#2079f3"/>
      <path id="Trazado_1138660" data-name="Trazado 1138660" d="M216,192.488h14.153v3.145H216Zm0,0" transform="translate(-173.54 -154.249)" fill="#2079f3"/>
    </g>
  </g>
</svg>
