<svg xmlns="http://www.w3.org/2000/svg" width="84.5" height="84.5" viewBox="0 0 84.5 84.5">
  <g id="Grupo_1183911" data-name="Grupo 1183911" transform="translate(-705 -8639.394)">
    <rect id="Rectángulo_402006" data-name="Rectángulo 402006" width="84.5" height="84.5" rx="5" transform="translate(705 8639.394)" fill="#ffb8c1"/>
    <g id="cocinero" transform="translate(719.264 8654)">
      <path id="Trazado_1064042" data-name="Trazado 1064042" d="M56.694,42.456a9.7,9.7,0,0,1-8.629,1.236.858.858,0,0,0-.785.109l-3.862,2.738.994,1.4,3.5-2.489a11.47,11.47,0,0,0,9.736-1.573,12.178,12.178,0,0,0,1.434-1.135l-1.164-1.262a10.342,10.342,0,0,1-1.228.975Z" transform="translate(-5.877 -5.599)" fill="#cc3e50"/>
      <path id="Trazado_1064043" data-name="Trazado 1064043" d="M42.175,27.453A7.8,7.8,0,0,0,38.621,34.9L27.742,41.869,16.861,34.9a7.768,7.768,0,0,0-3.557-7.44,8.205,8.205,0,0,0-5.6-1.4,6.351,6.351,0,0,0-5.473,8.113,8.2,8.2,0,0,0,3.391,4.662,7.767,7.767,0,0,0,8.239.509l8.445,6L14.273,50.5a3.367,3.367,0,1,0,3.761,5.584L27.742,49.2l9.708,6.889a3.373,3.373,0,1,0,3.766-5.59l-8.046-5.149,8.451-6a7.767,7.767,0,0,0,8.239-.507c3.527-2.381,4.679-6.872,2.565-10.013s-6.714-3.755-10.249-1.375ZM17.041,54.685a1.694,1.694,0,0,1-2.327-.425,1.649,1.649,0,0,1,.481-2.317l8.624-5.53,2.436,1.728ZM41.018,53a1.656,1.656,0,0,1-2.58,1.686L14.376,37.609a.858.858,0,0,0-1,.007,5.947,5.947,0,0,1-6.788-.2,6.49,6.49,0,0,1-2.691-3.682,4.634,4.634,0,0,1,4.033-5.972,6.49,6.49,0,0,1,4.421,1.116A5.947,5.947,0,0,1,15.073,35.1a.858.858,0,0,0,.369.933L40.29,51.943A1.641,1.641,0,0,1,41.018,53ZM48.9,37.414a5.948,5.948,0,0,1-6.789.2.858.858,0,0,0-1-.007l-9.494,6.74-2.276-1.459,10.7-6.865a.858.858,0,0,0,.369-.931,5.977,5.977,0,0,1,2.727-6.219c2.746-1.851,6.277-1.443,7.864.908s.642,5.784-2.1,7.635Z" transform="translate(0 -3.404)" fill="#cc3e50"/>
      <path id="Trazado_1064044" data-name="Trazado 1064044" d="M11.945,3.6l-.95-1.43A11.156,11.156,0,0,0,6.638,15.183l1.618-.573A9.44,9.44,0,0,1,11.945,3.6Z" transform="translate(-0.57 -0.024)" fill="#cc3e50"/>
      <path id="Trazado_1064045" data-name="Trazado 1064045" d="M10.324,20.017A9.547,9.547,0,0,1,9.231,18.5l-1.486.858a11.255,11.255,0,0,0,1.292,1.794Z" transform="translate(-0.818 -2.34)" fill="#cc3e50"/>
      <path id="Trazado_1064046" data-name="Trazado 1064046" d="M38.3,31.35l2.443-12.215a7.724,7.724,0,0,0-.71-15.418,7.628,7.628,0,0,0-4.778,1.661,7.712,7.712,0,0,0-12.756,0,7.628,7.628,0,0,0-4.778-1.661,7.724,7.724,0,0,0-.71,15.415L19.457,31.35l1.682-.336-.481-2.41H37.1l-.481,2.4ZM34.16,26.887l.718-5.027-1.7-.244-.753,5.271H29.738v-9.44H28.022v9.44H25.333l-.753-5.271-1.7.244.718,5.027H20.315l-1.751-8.753a.858.858,0,0,0-.841-.687A6.007,6.007,0,1,1,22.086,7.321a.858.858,0,0,0,1.4-.215,6,6,0,0,1,10.8,0,.858.858,0,0,0,1.4.215,6,6,0,1,1,4.362,10.127.858.858,0,0,0-.841.687l-1.751,8.753Z" transform="translate(-1.138)" fill="#cc3e50"/>
    </g>
  </g>
</svg>
