<svg xmlns="http://www.w3.org/2000/svg" width="99.333" height="100.901" viewBox="0 0 99.333 100.901">
  <g id="compartimiento" transform="translate(-3.129 -2)">
    <path id="Trazado_1138697" data-name="Trazado 1138697" d="M81.951,35.526h-52.2l24.8-24.8a1.681,1.681,0,0,0,0-2.378L49.8,3.589a5.165,5.165,0,0,0-7.135,0L38.819,7.43,41.2,9.808,45.04,5.967a1.721,1.721,0,0,1,2.378,0l3.569,3.567L10.554,49.964,6.987,46.4a1.681,1.681,0,0,1,0-2.378L37.834,13.171l-2.378-2.378L33.147,13.1l-2.378-2.378a5.049,5.049,0,0,0-7.135,0L11.743,22.615a5.051,5.051,0,0,0,0,7.135l2.378,2.378L4.607,41.642a5.044,5.044,0,0,0,0,7.135l4.756,4.757a1.7,1.7,0,0,0,1.191.489,1.677,1.677,0,0,0,1.189-.493l8.943-8.943,7.082,53.819a5.06,5.06,0,0,0,5,4.386H70.593a5.063,5.063,0,0,0,5-4.387l5.81-44.163L78.071,53.8l-5.81,44.161a1.689,1.689,0,0,1-1.668,1.465H32.769A1.686,1.686,0,0,1,31.1,97.966L23.684,41.59l2.7-2.7H80.034l-1.078,8.19,3.335.439,1.329-10.09a1.681,1.681,0,0,0-1.668-1.9ZM14.122,27.371a1.685,1.685,0,0,1,0-2.38L26.013,13.1a1.686,1.686,0,0,1,2.38,0l2.378,2.378L16.5,29.747Z" transform="translate(0 0.108)" fill="#2079f3"/>
    <path id="Trazado_1138698" data-name="Trazado 1138698" d="M29,33.045v37a5.045,5.045,0,1,0,10.09,0v-37a5.045,5.045,0,0,0-10.09,0Zm6.727,0v37a1.682,1.682,0,0,1-3.363,0v-37a1.682,1.682,0,0,1,3.363,0Z" transform="translate(17.636 17.724)" fill="#2079f3"/>
    <path id="Trazado_1138699" data-name="Trazado 1138699" d="M21,33.045v37a5.045,5.045,0,0,0,10.09,0v-37a5.045,5.045,0,0,0-10.09,0Zm6.727,0v37a1.682,1.682,0,1,1-3.363,0v-37a1.682,1.682,0,0,1,3.363,0Z" transform="translate(12.182 17.724)" fill="#2079f3"/>
    <path id="Trazado_1138700" data-name="Trazado 1138700" d="M37,33.045v37a5.045,5.045,0,0,0,10.09,0v-37a5.045,5.045,0,0,0-10.09,0Zm6.727,0v37a1.682,1.682,0,1,1-3.363,0v-37a1.682,1.682,0,0,1,3.363,0Z" transform="translate(23.089 17.724)" fill="#2079f3"/>
    <path id="Trazado_1138701" data-name="Trazado 1138701" d="M42.862,13.732,36.135,12.05a1.682,1.682,0,0,0-1.752.622L29.337,19.4a1.683,1.683,0,0,0,.594,2.514l6.727,3.363a1.673,1.673,0,0,0,.75.177h8.408a1.682,1.682,0,0,0,1.562-2.306l-3.363-8.408a1.688,1.688,0,0,0-1.154-1.007ZM37.8,22.09l-4.569-2.284L36.4,15.585l4.808,1.2,2.122,5.3Z" transform="translate(17.636 6.817)" fill="#2079f3"/>
    <path id="Trazado_1138702" data-name="Trazado 1138702" d="M55.208,13.157,53.6,9.93a1.682,1.682,0,0,0-1.835-.9l-8.408,1.682A1.679,1.679,0,0,0,42,12.363v3.363a1.679,1.679,0,0,0,.05.409l1.682,6.727a1.681,1.681,0,0,0,1.63,1.273,1.471,1.471,0,0,0,.21-.013L59.025,22.44a1.682,1.682,0,0,0,1.135-2.679ZM46.633,20.6l-1.27-5.08V13.742l5.8-1.159L52.267,14.8a1.686,1.686,0,0,0,.16.257l3.306,4.409Z" transform="translate(26.498 4.772)" fill="#2079f3"/>
    <path id="Trazado_1138703" data-name="Trazado 1138703" d="M44,2h3.363V5.363H44Z" transform="translate(27.861)" fill="#2079f3"/>
    <path id="Trazado_1138704" data-name="Trazado 1138704" d="M52.8,9.853l2.05,2.667A16.263,16.263,0,0,1,67.939,9.471l.661-3.3A19.608,19.608,0,0,0,52.8,9.853Z" transform="translate(33.862 2.585)" fill="#2079f3"/>
    <path id="Trazado_1138705" data-name="Trazado 1138705" d="M57,12h3.363v3.363H57Z" transform="translate(36.723 6.817)" fill="#2079f3"/>
    <path id="Trazado_1138706" data-name="Trazado 1138706" d="M48,10.408h3.363a5.051,5.051,0,0,1,5.045-5.045V2A8.418,8.418,0,0,0,48,10.408Z" transform="translate(30.588)" fill="#2079f3"/>
  </g>
</svg>
