<svg xmlns="http://www.w3.org/2000/svg" xmlns:xlink="http://www.w3.org/1999/xlink" width="233.24" height="232.571" viewBox="0 0 233.24 232.571">
  <defs>
    <clipPath id="clip-path">
      <rect id="Rectángulo_455881" data-name="Rectángulo 455881" width="130.714" height="26.339" fill="#2cbe91"/>
    </clipPath>
  </defs>
  <g id="Grupo_1186150" data-name="Grupo 1186150" transform="translate(-1030.759 -8353.69)">
    <path id="Trazado_1053331" data-name="Trazado 1053331" d="M219.939,18.791V0h-6.587a9.488,9.488,0,0,1-9.561,9.415A9.488,9.488,0,0,1,194.376,0h-8.038a9.489,9.489,0,0,1-9.488,9.489A9.489,9.489,0,0,1,167.361,0h-8.014a9.489,9.489,0,0,1-9.489,9.489A9.489,9.489,0,0,1,140.37,0h-7.75a9.49,9.49,0,0,1-9.489,9.489A9.489,9.489,0,0,1,113.641,0h-8.229a9.489,9.489,0,0,1-9.489,9.489A9.489,9.489,0,0,1,86.434,0H78.48a9.489,9.489,0,0,1-9.489,9.489A9.489,9.489,0,0,1,59.5,0H51.913A9.489,9.489,0,0,1,32.934.01V0H24.8a9.489,9.489,0,0,1-9.489,9.489A9.489,9.489,0,0,1,5.823,0H0V18.85a9.489,9.489,0,0,1,9.489,9.49A9.489,9.489,0,0,1,0,37.829v8.229a9.489,9.489,0,0,1,9.489,9.489A9.489,9.489,0,0,1,0,65.037v7.751H.021a9.489,9.489,0,0,1,9.478,9.5A9.489,9.489,0,0,1,0,91.765v8.011a9.489,9.489,0,0,1,9.489,9.49A9.489,9.489,0,0,1,0,118.755v7.63H.021a9.489,9.489,0,0,1,9.478,9.5A9.489,9.489,0,0,1,0,145.363v18.762H5.791a9.489,9.489,0,0,1,18.977,0H32.9V164.1a9.489,9.489,0,1,1,18.977.021H59.47V164.1a9.489,9.489,0,1,1,18.977.021H86.4V164.1a9.489,9.489,0,1,1,18.977.021h8.231V164.1a9.489,9.489,0,1,1,18.977.021h7.751a9.49,9.49,0,1,1,18.979,0h8.011V164.1a9.489,9.489,0,1,1,18.977.021h8.04V164.1a9.488,9.488,0,1,1,18.977.021h6.619V145.3h-.021a9.489,9.489,0,1,1,.021-18.977V118.7a9.489,9.489,0,1,1,0-18.978V91.706h-.021a9.489,9.489,0,1,1,.021-18.977V64.977a9.489,9.489,0,1,1,0-18.979V37.771a9.49,9.49,0,0,1-.01-18.979h.01" transform="translate(1083.788 8573.629) rotate(-90)" fill="#bbd6fc"/>
    <g id="Grupo_1183848" data-name="Grupo 1183848" transform="translate(1219.83 8497.978)">
      <g id="Grupo_1183846" data-name="Grupo 1183846" transform="translate(0 0)">
        <rect id="Rectángulo_455879" data-name="Rectángulo 455879" width="43.514" height="41.781" transform="translate(0.328)" fill="#2cbe91"/>
        <path id="Trazado_1000145" data-name="Trazado 1000145" d="M0,1.908H1.163a1.906,1.906,0,0,1,3.811,0H6.607v0a1.906,1.906,0,1,1,3.811,0h1.525v0a1.906,1.906,0,1,1,3.811,0h1.6v0a1.906,1.906,0,1,1,3.811,0h1.653v0a1.906,1.906,0,1,1,3.811,0h1.557a1.906,1.906,0,0,1,3.811,0H33.6v0a1.906,1.906,0,1,1,3.811,0h1.615v0a1.906,1.906,0,1,1,3.811,0h1.329" transform="translate(44.169 43.275) rotate(180)" fill="#2cbe91"/>
      </g>
      <path id="Trazado_1000133" data-name="Trazado 1000133" d="M1.039,18.617c-.062-.1-.128-.2-.192-.3A4.859,4.859,0,0,1,.02,16.145a3.443,3.443,0,0,1,.037-.995,5.06,5.06,0,0,1,.676-1.766c.133-.207.289-.4.446-.615a.211.211,0,0,0,0-.074,3.367,3.367,0,0,1,.132-2.213A5.1,5.1,0,0,1,2.2,9,5.9,5.9,0,0,1,3.76,7.615c.138-.08.279-.156.426-.238A2.821,2.821,0,0,1,5,5.532,5.548,5.548,0,0,1,6.352,4.395a5.019,5.019,0,0,1,2.024-.726,1.371,1.371,0,0,0,.073-.141A2.606,2.606,0,0,1,9.328,2.4a5.313,5.313,0,0,1,2.552-1.082,4.727,4.727,0,0,1,1-.014c.117.008.233.009.339.012.079-.068.143-.123.208-.181a4.893,4.893,0,0,1,2.8-1.107,5.464,5.464,0,0,1,2.469.333c.111.041.222.076.3.1a5.244,5.244,0,0,1,3.432-.28,5.139,5.139,0,0,1,2.791,1.94,3.032,3.032,0,0,1,.971.089,4.191,4.191,0,0,1,1.552.753,4.279,4.279,0,0,1,.7.651,2.984,2.984,0,0,1,.692,1.527,2.607,2.607,0,0,1-.7,2.193,5.161,5.161,0,0,1-.91.809,4.493,4.493,0,0,0-.592.543,18.156,18.156,0,0,1-1.6,1.393q-1.114.878-2.241,1.735c-.506.383-1.029.742-1.537,1.116-1.68,1.235-3.421,2.384-5.134,3.57-1.441,1-2.916,1.944-4.4,2.876q-1.5.942-3.045,1.816a29.441,29.441,0,0,1-3.265,1.6,1.5,1.5,0,0,1-.213.073.649.649,0,0,0-.308.164A.667.667,0,0,1,5,23.161a4.154,4.154,0,0,1-1.4.444,2.416,2.416,0,0,1-.763-.027,1.925,1.925,0,0,1-.691-.336A3.523,3.523,0,0,1,.921,21.779,3.391,3.391,0,0,1,.658,20.46c0-.193.013-.386.025-.58a2.718,2.718,0,0,1,.258-1.024c.037-.076.068-.156.107-.246" transform="translate(17.079 5.184) rotate(34)" fill="#1b5b5b"/>
    </g>
    <g id="Grupo_1183904" data-name="Grupo 1183904" transform="translate(1173.14 8540.517)">
      <g id="Grupo_1183847" data-name="Grupo 1183847" transform="translate(0)">
        <rect id="Rectángulo_455879-2" data-name="Rectángulo 455879" width="45.997" height="44.166" transform="translate(0.347)" fill="#ffb57d"/>
        <path id="Trazado_1000145-2" data-name="Trazado 1000145" d="M0,2.017H1.229a2.014,2.014,0,0,1,4.029,0H6.984v0a2.014,2.014,0,1,1,4.029,0h1.612v0a2.014,2.014,0,1,1,4.029,0h1.687v0a2.014,2.014,0,1,1,4.029,0h1.747v0a2.014,2.014,0,1,1,4.029,0h1.646a2.014,2.014,0,0,1,4.029,0h1.7v0a2.014,2.014,0,1,1,4.029,0h1.707v0a2.014,2.014,0,1,1,4.029,0h1.4" transform="translate(46.69 45.745) rotate(180)" fill="#ffb57d"/>
      </g>
      <path id="Trazado_1026845" data-name="Trazado 1026845" d="M35.005,7.586c-.144-2.534-1.748-4.023-4.625-2.951a31.531,31.531,0,0,1-4.023,1.1c-.246-.942-.492-1.907-.67-2.657l-.024.012c-.06-.253-.114-.483-.156-.679A2.727,2.727,0,0,0,22.806,0L11.275.66C9.863.74,9.14,1.974,8.864,3.36c-.146.732-.324,1.946-.488,3.156-2.323-.207-4.1-.4-4.1-.4C.841,5.438-.131,7.042.014,9.575c.251,4.412,8.6,9.182,18.044,8.644S35.256,12,35.005,7.586" transform="translate(5.683 14.048) rotate(-1)" fill="#ffb57d" style="mix-blend-mode: multiply;isolation: isolate"/>
    </g>
    <g id="Grupo_1183368" data-name="Grupo 1183368" transform="translate(1030.759 8522.635)">
      <g id="Grupo_1183367" data-name="Grupo 1183367" transform="translate(0 0)" clip-path="url(#clip-path)">
        <path id="Trazado_1000146" data-name="Trazado 1000146" d="M182.244.159a1.28,1.28,0,0,0-1.364.1,3.816,3.816,0,0,0-1.066,1.2,8.709,8.709,0,0,0-.888,1.688,4.877,4.877,0,0,0-.333,1.863,3.388,3.388,0,0,0-.012.415,5.27,5.27,0,0,0,.127.931c.038.172.075.354.127.528a2.414,2.414,0,0,0,.14.521c.023.056.089.02.094-.028,0-.011,0-.024,0-.035a.084.084,0,0,0,.107-.088,3.177,3.177,0,0,0-.155-.771c-.044-.292-.1-.583-.137-.856-.014-.111-.02-.22-.027-.33,0-.042,0-.084,0-.126a2.845,2.845,0,0,1,.7-1.722,5.789,5.789,0,0,1,1.282-1.105,4.463,4.463,0,0,0,1.345-.977c.219-.3.419-.934.06-1.212" transform="translate(-112.773 0)" fill="#ff6a7d"/>
        <path id="Trazado_1000147" data-name="Trazado 1000147" d="M185.4.14a.119.119,0,0,0-.23.036,4.026,4.026,0,0,1-2.62,3.217,6.713,6.713,0,0,0-2.991,1.936A8.148,8.148,0,0,0,178,8.985a4.62,4.62,0,0,0-.02,2.122,4.668,4.668,0,0,0,.411,1.3.131.131,0,1,0,.237-.112c-.014-.031-.023-.062-.036-.093a.126.126,0,0,0,.017-.14,4.125,4.125,0,0,1-.338-.981,6.409,6.409,0,0,1,.187-2.526,4.708,4.708,0,0,1,.369-.8,6.481,6.481,0,0,1,3.258-2.518,6.874,6.874,0,0,0,2.97-1.976A3.006,3.006,0,0,0,185.4.14" transform="translate(-112.323 -0.04)" fill="#ffe1cb"/>
        <path id="Trazado_1000148" data-name="Trazado 1000148" d="M183.626,12.209a16.527,16.527,0,0,0-4.056,2.222,4.384,4.384,0,0,0-1.143,1.131,2.038,2.038,0,0,0-.29,1.614" transform="translate(-112.454 -7.71)" fill="none" stroke="#12263f" stroke-linecap="round" stroke-linejoin="round" stroke-width="0.75"/>
        <path id="Trazado_1000149" data-name="Trazado 1000149" d="M194.653,23.724a8.488,8.488,0,0,0-2.166-4.959.244.244,0,0,0-.431.2,18.443,18.443,0,0,1,.041,4.054,2.663,2.663,0,0,1-1.831,2.015,3.148,3.148,0,0,1-2.637-.714,5.941,5.941,0,0,1-.633-.583,4.554,4.554,0,0,0-1.559-2.666c-1.26-.82-3.005-.28-4.177.485a5.928,5.928,0,0,0-1.652,1.6A3.868,3.868,0,0,0,178.8,25.2c0,.766.406,1.051,1.046.845a4,4,0,0,0,1.735-1.437,4.385,4.385,0,0,1,2.188-1.759,2.229,2.229,0,0,1,1.935.391.591.591,0,0,1,.116-.006.64.64,0,0,1,.395.154,2.277,2.277,0,0,1,.545.82,7.626,7.626,0,0,1,.375,1.12c.044.158.081.319.121.479a4.632,4.632,0,0,0,1.936,2.409,3.52,3.52,0,0,0,3.63-.189,4.956,4.956,0,0,0,1.834-4.3" transform="translate(-112.911 -11.791)" fill="#2079f3"/>
        <path id="Trazado_1000150" data-name="Trazado 1000150" d="M201.294,30.725a2.57,2.57,0,0,1-2.937,1.177,11.029,11.029,0,0,1-3.023-1.56,2.043,2.043,0,0,0-1.718-.4" transform="translate(-122.27 -18.863)" fill="none" stroke="#15260d" stroke-linecap="round" stroke-linejoin="round" stroke-width="0.75"/>
        <path id="Trazado_1000151" data-name="Trazado 1000151" d="M206.917,31.474a2.94,2.94,0,0,1-1.29,2.349,3.365,3.365,0,0,1-2.509.448,5.938,5.938,0,0,1-2.367-1.127" transform="translate(-126.775 -19.876)" fill="none" stroke="#12263f" stroke-linecap="round" stroke-linejoin="round" stroke-width="0.75"/>
        <path id="Trazado_1000152" data-name="Trazado 1000152" d="M207.8,39.062a2.747,2.747,0,0,1-2.452,1.267,6.373,6.373,0,0,1-2.7-.846" transform="translate(-127.974 -24.668)" fill="none" stroke="#12263f" stroke-linecap="round" stroke-linejoin="round" stroke-width="0.75"/>
        <path id="Trazado_1000153" data-name="Trazado 1000153" d="M186.2,27.088a7.7,7.7,0,0,0-4.755,3.46" transform="translate(-114.584 -17.106)" fill="none" stroke="#15260d" stroke-linecap="round" stroke-linejoin="round" stroke-width="0.75"/>
        <path id="Trazado_1000154" data-name="Trazado 1000154" d="M191.54,10.336c.024-.1.051-.2.069-.3a.114.114,0,0,0-.147-.127v0c-.022-.111-.158-.086-.156.025s0,.242-.005.361a3.773,3.773,0,0,1-1.112,1.784c-.827.674-1.726.411-2.643.17a6.65,6.65,0,0,0-4.409.323,6.571,6.571,0,0,0-3.189,3.052,7.33,7.33,0,0,0-.721,2.255,7.77,7.77,0,0,0-.1,1.176v.009a2.865,2.865,0,0,0,.186,1.074.189.189,0,0,0,.047.065c.016.031.029.064.047.094.069.113.2.024.2-.085a.179.179,0,0,0,.057-.128c.023-.439-.072-.874-.061-1.316a6.71,6.71,0,0,1,.129-1.152,6.614,6.614,0,0,1,.2-.744,4.794,4.794,0,0,1,.935-1.381,5.318,5.318,0,0,1,4.452-1.39,18.253,18.253,0,0,0,2.622.4,3.634,3.634,0,0,0,1.889-.6,3.833,3.833,0,0,0,1.371-1.6,4.3,4.3,0,0,0,.334-1.085,2.556,2.556,0,0,0,0-.871" transform="translate(-113.121 -6.209)" fill="#ffe76d"/>
        <path id="Trazado_1000155" data-name="Trazado 1000155" d="M200.954,13.6a5.721,5.721,0,0,1-6,1.722" transform="translate(-123.117 -8.591)" fill="none" stroke="#12263f" stroke-linecap="round" stroke-linejoin="round" stroke-width="0.75"/>
        <path id="Trazado_1000156" data-name="Trazado 1000156" d="M165.729.159a1.28,1.28,0,0,1,1.364.1,3.819,3.819,0,0,1,1.066,1.2,8.71,8.71,0,0,1,.888,1.688,4.877,4.877,0,0,1,.333,1.863,3.388,3.388,0,0,1,.012.415,5.266,5.266,0,0,1-.127.931c-.038.172-.075.354-.127.528a2.414,2.414,0,0,1-.14.521c-.023.056-.089.02-.094-.028,0-.011,0-.024,0-.035a.084.084,0,0,1-.107-.088,3.18,3.18,0,0,1,.155-.771c.044-.292.1-.583.137-.856.014-.111.02-.22.027-.33,0-.042,0-.084,0-.126a2.844,2.844,0,0,0-.7-1.722,5.787,5.787,0,0,0-1.282-1.105,4.463,4.463,0,0,1-1.345-.977c-.219-.3-.419-.934-.06-1.212" transform="translate(-104.534 0)" fill="#ff6a7d"/>
        <path id="Trazado_1000157" data-name="Trazado 1000157" d="M155.788.14a.119.119,0,0,1,.23.036,4.026,4.026,0,0,0,2.62,3.217,6.71,6.71,0,0,1,2.991,1.936,8.145,8.145,0,0,1,1.561,3.657,4.62,4.62,0,0,1,.02,2.122,4.668,4.668,0,0,1-.411,1.3.131.131,0,1,1-.237-.112c.015-.031.023-.062.037-.093a.126.126,0,0,1-.017-.14,4.128,4.128,0,0,0,.338-.981,6.41,6.41,0,0,0-.187-2.526,4.7,4.7,0,0,0-.369-.8A6.481,6.481,0,0,0,159.1,5.241a6.874,6.874,0,0,1-2.97-1.976A3.006,3.006,0,0,1,155.788.14" transform="translate(-98.199 -0.04)" fill="#ffe1cb"/>
        <path id="Trazado_1000158" data-name="Trazado 1000158" d="M161.451,12.209a16.527,16.527,0,0,1,4.056,2.222,4.383,4.383,0,0,1,1.143,1.131,2.04,2.04,0,0,1,.29,1.614" transform="translate(-101.957 -7.71)" fill="none" stroke="#12263f" stroke-linecap="round" stroke-linejoin="round" stroke-width="0.75"/>
        <path id="Trazado_1000159" data-name="Trazado 1000159" d="M132.758,23.724a8.488,8.488,0,0,1,2.166-4.959.244.244,0,0,1,.431.2,18.442,18.442,0,0,0-.041,4.054,2.663,2.663,0,0,0,1.831,2.015,3.149,3.149,0,0,0,2.637-.714,5.941,5.941,0,0,0,.633-.583,4.554,4.554,0,0,1,1.559-2.666c1.26-.82,3.005-.28,4.177.485a5.929,5.929,0,0,1,1.652,1.6,3.868,3.868,0,0,1,.812,2.039c0,.766-.406,1.051-1.046.845a4,4,0,0,1-1.734-1.437,4.385,4.385,0,0,0-2.188-1.759,2.229,2.229,0,0,0-1.935.391.591.591,0,0,0-.116-.006.64.64,0,0,0-.395.154,2.277,2.277,0,0,0-.545.82,7.624,7.624,0,0,0-.375,1.12c-.044.158-.081.319-.121.479a4.631,4.631,0,0,1-1.936,2.409,3.52,3.52,0,0,1-3.63-.189,4.956,4.956,0,0,1-1.834-4.3" transform="translate(-83.834 -11.791)" fill="#2079f3"/>
        <path id="Trazado_1000160" data-name="Trazado 1000160" d="M140.143,30.725a2.57,2.57,0,0,0,2.937,1.177,11.028,11.028,0,0,0,3.023-1.56,2.043,2.043,0,0,1,1.718-.4" transform="translate(-88.501 -18.863)" fill="none" stroke="#15260d" stroke-linecap="round" stroke-linejoin="round" stroke-width="0.75"/>
        <path id="Trazado_1000161" data-name="Trazado 1000161" d="M137.11,31.474a2.94,2.94,0,0,0,1.29,2.349,3.365,3.365,0,0,0,2.509.448,5.938,5.938,0,0,0,2.367-1.127" transform="translate(-86.586 -19.876)" fill="none" stroke="#12263f" stroke-linecap="round" stroke-linejoin="round" stroke-width="0.75"/>
        <path id="Trazado_1000162" data-name="Trazado 1000162" d="M137.965,39.062a2.747,2.747,0,0,0,2.452,1.267,6.372,6.372,0,0,0,2.7-.846" transform="translate(-87.126 -24.668)" fill="none" stroke="#12263f" stroke-linecap="round" stroke-linejoin="round" stroke-width="0.75"/>
        <path id="Trazado_1000163" data-name="Trazado 1000163" d="M160.242,27.088A7.7,7.7,0,0,1,165,30.548" transform="translate(-101.194 -17.106)" fill="none" stroke="#12263f" stroke-linecap="round" stroke-linejoin="round" stroke-width="0.75"/>
        <path id="Trazado_1000164" data-name="Trazado 1000164" d="M141.665,10.336c-.024-.1-.051-.2-.069-.3a.114.114,0,0,1,.147-.127v0c.022-.111.158-.086.156.025s0,.242.005.361a3.773,3.773,0,0,0,1.112,1.784c.827.674,1.726.411,2.643.17a6.65,6.65,0,0,1,4.409.323,6.569,6.569,0,0,1,3.189,3.052,7.331,7.331,0,0,1,.722,2.255,7.78,7.78,0,0,1,.1,1.176v.009a2.851,2.851,0,0,1-.186,1.074.189.189,0,0,1-.047.065c-.016.031-.029.064-.046.094-.069.113-.2.024-.2-.085a.179.179,0,0,1-.057-.128c-.023-.439.072-.874.061-1.316a6.358,6.358,0,0,0-.328-1.9,4.78,4.78,0,0,0-.935-1.381,5.318,5.318,0,0,0-4.453-1.39,18.245,18.245,0,0,1-2.622.4,3.633,3.633,0,0,1-1.889-.6,3.834,3.834,0,0,1-1.371-1.6,4.318,4.318,0,0,1-.334-1.085,2.555,2.555,0,0,1,0-.871" transform="translate(-89.417 -6.209)" fill="#ffe76d"/>
        <path id="Trazado_1000165" data-name="Trazado 1000165" d="M143.364,13.6a5.721,5.721,0,0,0,6,1.722" transform="translate(-90.535 -8.591)" fill="none" stroke="#12263f" stroke-linecap="round" stroke-linejoin="round" stroke-width="0.75"/>
        <path id="Trazado_1000166" data-name="Trazado 1000166" d="M243.726,4.9a.3.3,0,0,0-.583-.087,46.218,46.218,0,0,1-2.868,7.85c-.077.149-.152.3-.233.446a13.815,13.815,0,0,1-4.516,4.939,19.5,19.5,0,0,1-12.113,2.884,23.339,23.339,0,0,1-6.282-1.363,37.2,37.2,0,0,1-5.9-2.968c-.584-.339-1.175-.673-1.775-.989a13.686,13.686,0,0,0,2.429.363c1.039.088,2.079.192,3.12.254a10.757,10.757,0,0,0,5.307-.886c3.222-1.5,5.34-4.574,6.315-8.223a40.959,40.959,0,0,0,1.03-6.7.338.338,0,0,0-.667-.1,21.173,21.173,0,0,1-5.139,9.212,17.242,17.242,0,0,1-9.214,5.063,19.456,19.456,0,0,1-4.525.355,13.353,13.353,0,0,0-2.817-.938,10.979,10.979,0,0,0-6.364.608,6.481,6.481,0,0,0-3.923,3.866c-.018.056-.032.113-.048.169a16.35,16.35,0,0,0-2.506,1.313c-1.77,1.128-3.522,2.53-5.589,2.879a6.316,6.316,0,0,1-5.423-1.8c-1.346-1.342-2.431-3.849-.925-5.551.02-.022.042-.036.062-.057.89-.242,1.635,1.028,2.047,1.736s.908,1.483,1.7,1.69a1.656,1.656,0,0,0,1.844-.584,2.021,2.021,0,0,0-.541-2.356c-1.226-1.395-3.2-2.669-4.953-1.687-1.606.9-2.026,3.2-1.436,4.939a7.1,7.1,0,0,0,3.965,4.129,7.019,7.019,0,0,0,5.7-.122c1.9-.853,3.543-2.256,5.4-3.221.153-.08.31-.149.466-.222a6.482,6.482,0,0,0,1.166,4.229c2.166,2.995,7.137,3.367,9.271.116a3.963,3.963,0,0,0-.773-5.086c-1.606-1.44-3.946-1.52-5.912-1.292a12.885,12.885,0,0,0-2.433.529,4.649,4.649,0,0,1,1.237-1.6,9.234,9.234,0,0,1,6.149-1.877,14.089,14.089,0,0,1,6.306,2.091,64.85,64.85,0,0,0,5.748,3.1,35.355,35.355,0,0,0,11.862,3.011,18.67,18.67,0,0,0,6.222-.8A17.775,17.775,0,0,0,239.3,19.3a10.055,10.055,0,0,0,3.42-5.575A29.911,29.911,0,0,0,243.726,4.9M200.947,18.627a4.829,4.829,0,0,1,3.046,1.217,3,3,0,0,1,.9,2.815c-.5,2.014-2.727,2.828-4.417,2.749a5.029,5.029,0,0,1-4.5-3.208,5.177,5.177,0,0,1-.25-2.856,12.079,12.079,0,0,1,5.224-.717" transform="translate(-113.028 -0.04)" fill="#2cbe91"/>
        <path id="Trazado_1000167" data-name="Trazado 1000167" d="M258.236,40.551a17.829,17.829,0,0,1-5.279-1.522" transform="translate(-159.744 -24.647)" fill="none" stroke="#12263f" stroke-linecap="round" stroke-linejoin="round" stroke-width="0.75"/>
        <path id="Trazado_1000168" data-name="Trazado 1000168" d="M286.829,15.125a15.1,15.1,0,0,1-11.358,9.461" transform="translate(-173.962 -9.552)" fill="none" stroke="#12263f" stroke-linecap="round" stroke-linejoin="round" stroke-width="0.75"/>
        <path id="Trazado_1000169" data-name="Trazado 1000169" d="M318.3,23.622c-1.416,4.685-4.266,9.034-8.345,11.055a15.28,15.28,0,0,1-2.547.966,21.274,21.274,0,0,1-9.183.592" transform="translate(-188.332 -14.917)" fill="none" stroke="#15260d" stroke-linecap="round" stroke-linejoin="round" stroke-width="0.75"/>
        <path id="Trazado_1000170" data-name="Trazado 1000170" d="M225.815,45.355a5.745,5.745,0,0,0-1.62,4.67" transform="translate(-141.568 -28.642)" fill="none" stroke="#12263f" stroke-linecap="round" stroke-linejoin="round" stroke-width="0.75"/>
        <path id="Trazado_1000171" data-name="Trazado 1000171" d="M223.109,45.454a6.428,6.428,0,0,0-1.044,3.988" transform="translate(-140.226 -28.705)" fill="none" stroke="#15260d" stroke-linecap="round" stroke-linejoin="round" stroke-width="0.75"/>
        <path id="Trazado_1000172" data-name="Trazado 1000172" d="M225.473,49.71a9.763,9.763,0,0,1,1.613-.647" transform="translate(-142.388 -30.984)" fill="none" stroke="#12263f" stroke-linecap="round" stroke-linejoin="round" stroke-width="0.75"/>
        <path id="Trazado_1000173" data-name="Trazado 1000173" d="M181.423,42.046a2.956,2.956,0,0,1,.718-1.338,1.841,1.841,0,0,1,.668-.348,2.815,2.815,0,0,1,2.969.789,1.59,1.59,0,0,1,.43,1.061c-.015.4-.3.8-.662.794" transform="translate(-114.57 -25.402)" fill="none" stroke="#12263f" stroke-linecap="round" stroke-linejoin="round" stroke-width="0.75"/>
        <path id="Trazado_1000174" data-name="Trazado 1000174" d="M1.024,13.729A10.054,10.054,0,0,0,4.444,19.3a17.779,17.779,0,0,0,5.69,2.864,18.68,18.68,0,0,0,6.222.8,35.353,35.353,0,0,0,11.862-3.011,64.945,64.945,0,0,0,5.748-3.1,14.091,14.091,0,0,1,6.306-2.091,9.234,9.234,0,0,1,6.149,1.877,4.645,4.645,0,0,1,1.237,1.6,12.881,12.881,0,0,0-2.433-.529c-1.966-.228-4.306-.148-5.912,1.292a3.963,3.963,0,0,0-.773,5.086c2.134,3.25,7.1,2.878,9.271-.116a6.482,6.482,0,0,0,1.166-4.229c.156.073.313.143.466.222,1.853.964,3.492,2.367,5.4,3.221a7.017,7.017,0,0,0,5.7.122,7.1,7.1,0,0,0,3.965-4.129c.59-1.743.17-4.04-1.436-4.939-1.755-.982-3.728.292-4.953,1.687a2.021,2.021,0,0,0-.541,2.356,1.655,1.655,0,0,0,1.844.584c.788-.206,1.282-.98,1.7-1.69s1.157-1.978,2.048-1.736c.02.021.042.035.062.057,1.507,1.7.422,4.209-.925,5.551a6.316,6.316,0,0,1-5.423,1.8c-2.068-.349-3.819-1.751-5.589-2.879a16.317,16.317,0,0,0-2.506-1.313c-.016-.056-.03-.114-.048-.169a6.483,6.483,0,0,0-3.923-3.866,10.978,10.978,0,0,0-6.364-.608,13.36,13.36,0,0,0-2.818.938A19.478,19.478,0,0,1,31.1,14.6,17.242,17.242,0,0,1,21.89,9.537,21.172,21.172,0,0,1,16.751.325a.338.338,0,0,0-.667.1,40.991,40.991,0,0,0,1.03,6.7c.975,3.649,3.093,6.719,6.315,8.223a10.756,10.756,0,0,0,5.307.886c1.041-.062,2.08-.166,3.119-.254a13.681,13.681,0,0,0,2.429-.363c-.6.316-1.191.65-1.775.989a37.2,37.2,0,0,1-5.9,2.968,23.336,23.336,0,0,1-6.282,1.363A19.5,19.5,0,0,1,8.215,18.049,13.818,13.818,0,0,1,3.7,13.109c-.081-.147-.156-.3-.233-.446A46.235,46.235,0,0,1,.6,4.814.3.3,0,0,0,.016,4.9a29.9,29.9,0,0,0,1.008,8.828m46.995,5.615A5.18,5.18,0,0,1,47.77,22.2a5.031,5.031,0,0,1-4.5,3.208c-1.691.079-3.914-.735-4.417-2.749a3,3,0,0,1,.9-2.816,4.832,4.832,0,0,1,3.046-1.216,12.079,12.079,0,0,1,5.225.717" transform="translate(0 -0.04)" fill="#2cbe91"/>
        <path id="Trazado_1000175" data-name="Trazado 1000175" d="M87.443,40.551a17.829,17.829,0,0,0,5.279-1.522" transform="translate(-55.221 -24.647)" fill="none" stroke="#12263f" stroke-linecap="round" stroke-linejoin="round" stroke-width="0.75"/>
        <path id="Trazado_1000176" data-name="Trazado 1000176" d="M48.43,15.125a15.094,15.094,0,0,0,11.358,9.461" transform="translate(-30.584 -9.552)" fill="none" stroke="#15260d" stroke-linecap="round" stroke-linejoin="round" stroke-width="0.75"/>
        <path id="Trazado_1000177" data-name="Trazado 1000177" d="M2.019,23.622c1.416,4.685,4.266,9.034,8.345,11.055a15.278,15.278,0,0,0,2.547.966,21.274,21.274,0,0,0,9.183.592" transform="translate(-1.275 -14.917)" fill="none" stroke="#15260d" stroke-linecap="round" stroke-linejoin="round" stroke-width="0.75"/>
        <path id="Trazado_1000178" data-name="Trazado 1000178" d="M126.1,45.355a5.745,5.745,0,0,1,1.62,4.67" transform="translate(-79.633 -28.642)" fill="none" stroke="#15260d" stroke-linecap="round" stroke-linejoin="round" stroke-width="0.75"/>
        <path id="Trazado_1000179" data-name="Trazado 1000179" d="M129.8,45.454a6.428,6.428,0,0,1,1.044,3.988" transform="translate(-81.969 -28.705)" fill="none" stroke="#12263f" stroke-linecap="round" stroke-linejoin="round" stroke-width="0.75"/>
        <path id="Trazado_1000180" data-name="Trazado 1000180" d="M126.488,49.71a9.763,9.763,0,0,0-1.613-.647" transform="translate(-78.859 -30.984)" fill="none" stroke="#12263f" stroke-linecap="round" stroke-linejoin="round" stroke-width="0.75"/>
        <path id="Trazado_1000181" data-name="Trazado 1000181" d="M165.1,42.046a2.961,2.961,0,0,0-.719-1.338,1.841,1.841,0,0,0-.668-.348,2.815,2.815,0,0,0-2.969.789,1.59,1.59,0,0,0-.43,1.061c.015.4.3.8.662.794" transform="translate(-101.239 -25.402)" fill="none" stroke="#15260d" stroke-linecap="round" stroke-linejoin="round" stroke-width="0.75"/>
        <path id="Trazado_1000182" data-name="Trazado 1000182" d="M176.9,33.363a1.653,1.653,0,1,0-1.645,1.817,1.737,1.737,0,0,0,1.645-1.817" transform="translate(-109.636 -19.922)" fill="#2cbe91"/>
      </g>
    </g>
    <g id="mapa" transform="translate(1125.73 8406.752)">
      <path id="Trazado_1064028" data-name="Trazado 1064028" d="M125.4,111.126H120.97a1.667,1.667,0,0,1-1.466-2.461l3.677-6.8a7.453,7.453,0,0,0-3.83-1,15.052,15.052,0,0,0-6.459,1.594,6.25,6.25,0,0,1-8.253-3.211,1.667,1.667,0,0,1,3.054-1.34,2.907,2.907,0,0,0,1.619,1.553,3.011,3.011,0,0,0,2.231-.052,19.268,19.268,0,0,1,7.808-1.879,10.177,10.177,0,0,1,7.189,2.742,1.667,1.667,0,0,1,.249,1.932l-3.021,5.584h2.385a1.667,1.667,0,0,1,1.252.566l.3.339,3.409-13.148c.773-2.984-.153-7.127-3.393-8.927a1.667,1.667,0,0,1-.851-1.6l.027-.3h-29.2a30.3,30.3,0,0,1,6.7,7.163,1.667,1.667,0,1,1-2.763,1.868,26.98,26.98,0,0,0-7.708-7.617,17.479,17.479,0,0,0-11.52-2.348,1.677,1.677,0,0,1-1.215-.24L67.37,74.578a1.668,1.668,0,0,1,1.554-2.936,6.753,6.753,0,0,1,2.3-4.832,7.387,7.387,0,0,1,4.1-1.6l3.394-5.877a7.169,7.169,0,0,1-1.326-3.8,14.135,14.135,0,0,1,.55-2.976,15.491,15.491,0,0,0,.542-6.717,40.469,40.469,0,0,0-3.256-9.562,1.669,1.669,0,0,1,.584-2.2,3.85,3.85,0,0,0,2.05-3.512,5.492,5.492,0,0,0-.47-2.055A1.667,1.667,0,0,1,80.362,27,7.494,7.494,0,0,1,78.8,36.007a46.342,46.342,0,0,1,2.951,9.139,18.373,18.373,0,0,1-.555,8.173c-.162.7-.318,1.363-.407,1.928H141.4a11.581,11.581,0,0,1-.169-1.218,24.3,24.3,0,0,1,1.252-9.063H131.66a1.668,1.668,0,0,1-1.257-.572l-4.094-4.7h-2.53a1.667,1.667,0,0,1,0-3.335h3.289a1.668,1.668,0,0,1,1.257.572l4.094,4.7h10.757a2.84,2.84,0,0,1,2.668,3.814,22.811,22.811,0,0,0-1.291,8.3,10.2,10.2,0,0,0,2.716,5.718,3.471,3.471,0,0,1-.48,5.157l-.893.66a13.539,13.539,0,0,1,4.923,10.815,1.667,1.667,0,0,1-3.335,0,10.631,10.631,0,0,0-1.034-4.87l-2.267,2.791a1.668,1.668,0,0,1-1.294.616H131.134l-.3,3.414h2.015a1.667,1.667,0,0,1,0,3.335h-2.31l-.259,2.921c3.993,2.839,5.1,8.084,4.061,12.086l-4.2,16.191a1.667,1.667,0,0,1-2.866.683ZM91.739,81.379h35.45l.758-8.563a1.667,1.667,0,0,1,1.661-1.52H142.1l2.307-2.839v0a27.146,27.146,0,0,0-2.237-1.968,1.667,1.667,0,0,1,.056-2.639l2.584-1.91a.134.134,0,0,0,.057-.1.121.121,0,0,0-.034-.1,14.555,14.555,0,0,1-2.253-3.156H82.221a1.668,1.668,0,0,1-.083,1.5L77.711,67.75a1.582,1.582,0,0,1-1.772.8,3.779,3.779,0,0,0-2.677.9c-1.015.781-1.14,2.916-1.027,4.306L82.479,80.4A21.5,21.5,0,0,1,91.739,81.379ZM117.109,39.7h-2.631A1.668,1.668,0,0,1,113,38.808a24.638,24.638,0,0,1-2.555-10.331c0-1.609-.213-2.6-.634-2.946a7.385,7.385,0,0,0-3.017-.688,1.667,1.667,0,0,1-1.39-2.187c.118-.351,2.938-8.642,7.571-12.771a28.485,28.485,0,0,1,4.968-3.56c1.506-.885,1.506-.942,1.506-1.386,0-1.325-1.112-1.6-2.044-1.6-1.424,0-4.052,2.28-6.372,4.292L111,7.659q-.2.176-.411.361c-1.668,1.474-3.952,3.492-7.535,2.916-.388.95-1.54,3.876-3.786,3.876a6.173,6.173,0,0,1-3.507-1.381.031.031,0,0,0-.031.006c-1.154.853-3.023,3.011-2.576,7.87A1.667,1.667,0,0,1,92.118,23a18.226,18.226,0,0,0-5.339,3.458,8.8,8.8,0,0,1,.433,6.015,1.667,1.667,0,0,1-3.246-.764,5.69,5.69,0,0,0-.086-3.6,2.684,2.684,0,0,1,.176-3.658,22.343,22.343,0,0,1,5.7-4.043c-.17-5.671,2.38-8.462,3.988-9.651a3.349,3.349,0,0,1,3.969-.026c.572.414,1.066.761,1.315.709s.5-.688.91-1.734a3.316,3.316,0,0,1,3.643-2.06c2.027.326,3.372-.863,4.8-2.122.147-.13.291-.257.434-.381l.037-.032C112.009,2.367,114.738,0,117.406,0c3.167,0,5.379,2.031,5.379,4.938,0,2.408-1.53,3.308-3.15,4.26a25.528,25.528,0,0,0-4.44,3.175c-2.758,2.458-4.864,6.92-5.906,9.454a5.782,5.782,0,0,1,2.641,1.127c1.632,1.341,1.852,3.545,1.852,5.523a20.954,20.954,0,0,0,1.756,7.885h1.57a1.667,1.667,0,0,1,0,3.335ZM80.461,4.562A1.667,1.667,0,0,1,79.14,2.608l.243-1.257a1.667,1.667,0,1,1,3.274.632L82.414,3.24A1.668,1.668,0,0,1,80.461,4.562Zm.651,4.433-.88,4.562a1.667,1.667,0,0,1-3.274-.632l.88-4.562a1.667,1.667,0,0,1,3.274.632Z" transform="translate(-66.61 0)" fill="#2079f3"/>
    </g>
  </g>
</svg>
