<svg xmlns="http://www.w3.org/2000/svg" width="66.182" height="66.182" viewBox="0 0 66.182 66.182">
  <path id="reglas" d="M20.041,34.042l2.009-2.009-2.009-2.009A.938.938,0,1,1,21.367,28.7l2.009,2.009L25.386,28.7a.938.938,0,1,1,1.326,1.326L24.7,32.032l2.009,2.009a.938.938,0,0,1-1.326,1.326l-2.009-2.009-2.009,2.009a.938.938,0,1,1-1.326-1.326Zm-4.3,3.349V26.673A2.28,2.28,0,0,1,18.018,24.4H28.736a2.28,2.28,0,0,1,2.278,2.278V37.391a2.28,2.28,0,0,1-2.278,2.278H18.018a2.28,2.28,0,0,1-2.278-2.278Zm1.876,0a.4.4,0,0,0,.4.4H28.736a.4.4,0,0,0,.4-.4V26.673a.4.4,0,0,0-.4-.4H18.018a.4.4,0,0,0-.4.4Zm27.037-2.512a.938.938,0,0,0,1.37.205l5.724-4.648a.938.938,0,1,0-1.182-1.456l-4.927,4-1.45-2.16a.938.938,0,0,0-1.557,1.046Zm-5.007,2.512V26.673A2.28,2.28,0,0,1,41.923,24.4H52.641a2.28,2.28,0,0,1,2.278,2.278V37.391a2.28,2.28,0,0,1-2.278,2.278H41.923A2.28,2.28,0,0,1,39.646,37.391Zm1.876,0a.4.4,0,0,0,.4.4H52.641a.4.4,0,0,0,.4-.4V26.673a.4.4,0,0,0-.4-.4H41.923a.4.4,0,0,0-.4.4Zm12.7,17.268a.938.938,0,0,0-1.557,1.046l3.471,5.17a.938.938,0,0,0,1.37.205L67.331,53.1a.938.938,0,1,0-1.182-1.456l-9.026,7.329Zm20.958-8.434V58.2c0,3.526-1.662,7.284-4.681,10.582a22.931,22.931,0,0,1-9.7,6.356c-.027.008-.055.013-.082.019v.023H9.938A.938.938,0,0,1,9,74.244V20.394a.937.937,0,0,1,.275-.663L19.731,9.275A.938.938,0,0,1,20.394,9H60.721a.938.938,0,0,1,.938.938V41.175H64.5a.938.938,0,0,1,.528.163A24.191,24.191,0,0,0,74.407,45.3.938.938,0,0,1,75.182,46.225ZM12.2,19.456h7.255V12.2Zm-1.326,53.85H56.152a24.2,24.2,0,0,1-5.605-4.523A20.119,20.119,0,0,1,47.6,64.657H16.678a.938.938,0,1,1,0-1.876H46.749a12.964,12.964,0,0,1-.883-4.579V55.146H16.678a.938.938,0,1,1,0-1.876H45.867V47.4H16.678a.938.938,0,1,1,0-1.876h29.5a.934.934,0,0,1,.46-.224,24.191,24.191,0,0,0,9.381-3.964.938.938,0,0,1,.528-.163h3.233v-30.3H21.332v9.519a.938.938,0,0,1-.938.938H10.876ZM73.307,47a26.26,26.26,0,0,1-9.094-3.948H56.836A26.263,26.263,0,0,1,47.742,47V58.2c0,3.056,1.488,6.364,4.189,9.316a21.475,21.475,0,0,0,8.593,5.741,21.477,21.477,0,0,0,8.593-5.741c2.7-2.952,4.189-6.26,4.189-9.316Z" transform="translate(-9 -9)" fill="#2cbe91"/>
</svg>
